%TF.GenerationSoftware,KiCad,Pcbnew,9.0.1*%
%TF.CreationDate,2025-11-09T21:37:19+01:00*%
%TF.ProjectId,SIGURD,53494755-5244-42e6-9b69-6361645f7063,rev?*%
%TF.SameCoordinates,Original*%
%TF.FileFunction,Soldermask,Top*%
%TF.FilePolarity,Negative*%
%FSLAX46Y46*%
G04 Gerber Fmt 4.6, Leading zero omitted, Abs format (unit mm)*
G04 Created by KiCad (PCBNEW 9.0.1) date 2025-11-09 21:37:19*
%MOMM*%
%LPD*%
G01*
G04 APERTURE LIST*
G04 Aperture macros list*
%AMRoundRect*
0 Rectangle with rounded corners*
0 $1 Rounding radius*
0 $2 $3 $4 $5 $6 $7 $8 $9 X,Y pos of 4 corners*
0 Add a 4 corners polygon primitive as box body*
4,1,4,$2,$3,$4,$5,$6,$7,$8,$9,$2,$3,0*
0 Add four circle primitives for the rounded corners*
1,1,$1+$1,$2,$3*
1,1,$1+$1,$4,$5*
1,1,$1+$1,$6,$7*
1,1,$1+$1,$8,$9*
0 Add four rect primitives between the rounded corners*
20,1,$1+$1,$2,$3,$4,$5,0*
20,1,$1+$1,$4,$5,$6,$7,0*
20,1,$1+$1,$6,$7,$8,$9,0*
20,1,$1+$1,$8,$9,$2,$3,0*%
%AMFreePoly0*
4,1,6,1.000000,0.000000,0.500000,-0.750000,-0.500000,-0.750000,-0.500000,0.750000,0.500000,0.750000,1.000000,0.000000,1.000000,0.000000,$1*%
%AMFreePoly1*
4,1,6,0.500000,-0.750000,-0.650000,-0.750000,-0.150000,0.000000,-0.650000,0.750000,0.500000,0.750000,0.500000,-0.750000,0.500000,-0.750000,$1*%
G04 Aperture macros list end*
%ADD10RoundRect,0.150000X-0.150000X0.825000X-0.150000X-0.825000X0.150000X-0.825000X0.150000X0.825000X0*%
%ADD11R,0.533400X1.460500*%
%ADD12RoundRect,0.250000X-0.312500X-1.450000X0.312500X-1.450000X0.312500X1.450000X-0.312500X1.450000X0*%
%ADD13RoundRect,0.237500X-0.287500X-0.237500X0.287500X-0.237500X0.287500X0.237500X-0.287500X0.237500X0*%
%ADD14RoundRect,0.250000X-0.250000X-0.250000X0.250000X-0.250000X0.250000X0.250000X-0.250000X0.250000X0*%
%ADD15RoundRect,0.237500X-0.250000X-0.237500X0.250000X-0.237500X0.250000X0.237500X-0.250000X0.237500X0*%
%ADD16RoundRect,0.150000X-0.825000X-0.150000X0.825000X-0.150000X0.825000X0.150000X-0.825000X0.150000X0*%
%ADD17FreePoly0,0.000000*%
%ADD18FreePoly0,180.000000*%
%ADD19RoundRect,0.250000X-1.050000X-1.050000X1.050000X-1.050000X1.050000X1.050000X-1.050000X1.050000X0*%
%ADD20C,2.600000*%
%ADD21R,2.500000X2.500000*%
%ADD22C,2.700000*%
%ADD23RoundRect,0.250001X-1.099999X-1.099999X1.099999X-1.099999X1.099999X1.099999X-1.099999X1.099999X0*%
%ADD24RoundRect,0.140000X0.170000X-0.140000X0.170000X0.140000X-0.170000X0.140000X-0.170000X-0.140000X0*%
%ADD25RoundRect,0.250000X-0.750000X0.600000X-0.750000X-0.600000X0.750000X-0.600000X0.750000X0.600000X0*%
%ADD26O,2.000000X1.700000*%
%ADD27R,1.320800X0.558800*%
%ADD28RoundRect,0.237500X-0.237500X0.250000X-0.237500X-0.250000X0.237500X-0.250000X0.237500X0.250000X0*%
%ADD29RoundRect,0.075000X-0.075000X0.662500X-0.075000X-0.662500X0.075000X-0.662500X0.075000X0.662500X0*%
%ADD30RoundRect,0.075000X-0.662500X0.075000X-0.662500X-0.075000X0.662500X-0.075000X0.662500X0.075000X0*%
%ADD31RoundRect,0.112500X-0.112500X-0.112500X0.112500X-0.112500X0.112500X0.112500X-0.112500X0.112500X0*%
%ADD32RoundRect,0.200000X0.200000X0.275000X-0.200000X0.275000X-0.200000X-0.275000X0.200000X-0.275000X0*%
%ADD33R,2.600000X2.600000*%
%ADD34RoundRect,0.250000X-0.625000X0.375000X-0.625000X-0.375000X0.625000X-0.375000X0.625000X0.375000X0*%
%ADD35RoundRect,0.237500X-0.237500X0.300000X-0.237500X-0.300000X0.237500X-0.300000X0.237500X0.300000X0*%
%ADD36FreePoly0,90.000000*%
%ADD37FreePoly1,90.000000*%
%ADD38C,0.800000*%
%ADD39C,6.400000*%
%ADD40RoundRect,0.150000X-0.200000X0.150000X-0.200000X-0.150000X0.200000X-0.150000X0.200000X0.150000X0*%
%ADD41RoundRect,0.237500X0.250000X0.237500X-0.250000X0.237500X-0.250000X-0.237500X0.250000X-0.237500X0*%
%ADD42RoundRect,0.237500X0.287500X0.237500X-0.287500X0.237500X-0.287500X-0.237500X0.287500X-0.237500X0*%
%ADD43RoundRect,0.237500X0.237500X-0.300000X0.237500X0.300000X-0.237500X0.300000X-0.237500X-0.300000X0*%
%ADD44RoundRect,0.237500X-0.237500X0.287500X-0.237500X-0.287500X0.237500X-0.287500X0.237500X0.287500X0*%
%ADD45RoundRect,0.140000X-0.140000X-0.170000X0.140000X-0.170000X0.140000X0.170000X-0.140000X0.170000X0*%
%ADD46RoundRect,0.237500X0.237500X-0.287500X0.237500X0.287500X-0.237500X0.287500X-0.237500X-0.287500X0*%
%ADD47RoundRect,0.250000X1.450000X-0.312500X1.450000X0.312500X-1.450000X0.312500X-1.450000X-0.312500X0*%
%ADD48RoundRect,0.250000X0.250000X-0.250000X0.250000X0.250000X-0.250000X0.250000X-0.250000X-0.250000X0*%
%ADD49RoundRect,0.150000X0.625000X-0.150000X0.625000X0.150000X-0.625000X0.150000X-0.625000X-0.150000X0*%
%ADD50RoundRect,0.250000X0.650000X-0.350000X0.650000X0.350000X-0.650000X0.350000X-0.650000X-0.350000X0*%
%ADD51RoundRect,0.250000X0.750000X1.550000X-0.750000X1.550000X-0.750000X-1.550000X0.750000X-1.550000X0*%
%ADD52O,2.000000X3.600000*%
%ADD53RoundRect,0.237500X0.237500X-0.250000X0.237500X0.250000X-0.237500X0.250000X-0.237500X-0.250000X0*%
%ADD54RoundRect,0.237500X0.300000X0.237500X-0.300000X0.237500X-0.300000X-0.237500X0.300000X-0.237500X0*%
%ADD55RoundRect,0.140000X-0.170000X0.140000X-0.170000X-0.140000X0.170000X-0.140000X0.170000X0.140000X0*%
%ADD56RoundRect,0.140000X0.140000X0.170000X-0.140000X0.170000X-0.140000X-0.170000X0.140000X-0.170000X0*%
%ADD57RoundRect,0.150000X0.512500X0.150000X-0.512500X0.150000X-0.512500X-0.150000X0.512500X-0.150000X0*%
%ADD58RoundRect,0.150000X0.587500X0.150000X-0.587500X0.150000X-0.587500X-0.150000X0.587500X-0.150000X0*%
%ADD59RoundRect,0.218750X0.218750X0.256250X-0.218750X0.256250X-0.218750X-0.256250X0.218750X-0.256250X0*%
%ADD60R,0.900000X0.800000*%
%ADD61RoundRect,0.125000X-0.537500X-0.125000X0.537500X-0.125000X0.537500X0.125000X-0.537500X0.125000X0*%
%ADD62RoundRect,0.237500X-0.300000X-0.237500X0.300000X-0.237500X0.300000X0.237500X-0.300000X0.237500X0*%
%ADD63RoundRect,0.150000X-0.150000X0.587500X-0.150000X-0.587500X0.150000X-0.587500X0.150000X0.587500X0*%
G04 APERTURE END LIST*
%TO.C,JP6*%
G36*
X224860000Y-90300000D02*
G01*
X229860000Y-90300000D01*
X229860000Y-91800000D01*
X224860000Y-91800000D01*
X224860000Y-90300000D01*
G37*
%TO.C,JP5*%
G36*
X224860000Y-86730000D02*
G01*
X229860000Y-86730000D01*
X229860000Y-88230000D01*
X224860000Y-88230000D01*
X224860000Y-86730000D01*
G37*
%TO.C,JP4*%
G36*
X224860000Y-83160000D02*
G01*
X229860000Y-83160000D01*
X229860000Y-84660000D01*
X224860000Y-84660000D01*
X224860000Y-83160000D01*
G37*
%TO.C,JP3*%
G36*
X224860000Y-79590000D02*
G01*
X229860000Y-79590000D01*
X229860000Y-81090000D01*
X224860000Y-81090000D01*
X224860000Y-79590000D01*
G37*
%TO.C,JP2*%
G36*
X224860000Y-76020000D02*
G01*
X229860000Y-76020000D01*
X229860000Y-77520000D01*
X224860000Y-77520000D01*
X224860000Y-76020000D01*
G37*
%TD*%
D10*
%TO.C,U10*%
X148720000Y-115905000D03*
X147450000Y-115905000D03*
X146180000Y-115905000D03*
X144910000Y-115905000D03*
X144910000Y-110955000D03*
X146180000Y-110955000D03*
X147450000Y-110955000D03*
X148720000Y-110955000D03*
%TD*%
D11*
%TO.C,U8*%
X96954517Y-112964151D03*
X95684517Y-112964151D03*
X94414517Y-112964151D03*
X93144517Y-112964151D03*
X93144517Y-107515851D03*
X94414517Y-107515851D03*
X95684517Y-107515851D03*
X96954517Y-107515851D03*
%TD*%
D12*
%TO.C,F7*%
X150952500Y-125625000D03*
X146677500Y-125625000D03*
%TD*%
D13*
%TO.C,D12*%
X153525000Y-129395000D03*
X151775000Y-129395000D03*
%TD*%
D14*
%TO.C,D9*%
X149160000Y-129575000D03*
X146660000Y-129575000D03*
%TD*%
D15*
%TO.C,R42*%
X144077500Y-125355000D03*
X142252500Y-125355000D03*
%TD*%
D16*
%TO.C,U14*%
X243935000Y-92905000D03*
X243935000Y-94175000D03*
X243935000Y-95445000D03*
X243935000Y-96715000D03*
X238985000Y-96715000D03*
X238985000Y-95445000D03*
X238985000Y-94175000D03*
X238985000Y-92905000D03*
%TD*%
%TO.C,U13*%
X254815000Y-92905000D03*
X254815000Y-94175000D03*
X254815000Y-95445000D03*
X254815000Y-96715000D03*
X259765000Y-96715000D03*
X259765000Y-95445000D03*
X259765000Y-94175000D03*
X259765000Y-92905000D03*
%TD*%
%TO.C,U12*%
X254815000Y-76425000D03*
X254815000Y-77695000D03*
X254815000Y-78965000D03*
X254815000Y-80235000D03*
X259765000Y-80235000D03*
X259765000Y-78965000D03*
X259765000Y-77695000D03*
X259765000Y-76425000D03*
%TD*%
%TO.C,U11*%
X238985000Y-76425000D03*
X238985000Y-77695000D03*
X238985000Y-78965000D03*
X238985000Y-80235000D03*
X243935000Y-80235000D03*
X243935000Y-78965000D03*
X243935000Y-77695000D03*
X243935000Y-76425000D03*
%TD*%
D15*
%TO.C,R58*%
X234147500Y-100240000D03*
X235972500Y-100240000D03*
%TD*%
%TO.C,R57*%
X234147500Y-97730000D03*
X235972500Y-97730000D03*
%TD*%
%TO.C,R56*%
X234147500Y-95220000D03*
X235972500Y-95220000D03*
%TD*%
%TO.C,R55*%
X234147500Y-92710000D03*
X235972500Y-92710000D03*
%TD*%
%TO.C,R54*%
X249977500Y-100240000D03*
X251802500Y-100240000D03*
%TD*%
%TO.C,R53*%
X249977500Y-97730000D03*
X251802500Y-97730000D03*
%TD*%
%TO.C,R52*%
X249977500Y-95220000D03*
X251802500Y-95220000D03*
%TD*%
%TO.C,R51*%
X249977500Y-92710000D03*
X251802500Y-92710000D03*
%TD*%
%TO.C,R50*%
X249977500Y-83760000D03*
X251802500Y-83760000D03*
%TD*%
%TO.C,R49*%
X249977500Y-81250000D03*
X251802500Y-81250000D03*
%TD*%
%TO.C,R48*%
X249977500Y-78740000D03*
X251802500Y-78740000D03*
%TD*%
%TO.C,R47*%
X249977500Y-76230000D03*
X251802500Y-76230000D03*
%TD*%
%TO.C,R46*%
X234147500Y-83760000D03*
X235972500Y-83760000D03*
%TD*%
%TO.C,R45*%
X234147500Y-81250000D03*
X235972500Y-81250000D03*
%TD*%
%TO.C,R44*%
X234147500Y-78740000D03*
X235972500Y-78740000D03*
%TD*%
%TO.C,R43*%
X234147500Y-76230000D03*
X235972500Y-76230000D03*
%TD*%
%TO.C,R39*%
X142252500Y-122845000D03*
X144077500Y-122845000D03*
%TD*%
%TO.C,R34*%
X142252500Y-120335000D03*
X144077500Y-120335000D03*
%TD*%
%TO.C,R29*%
X142252500Y-117825000D03*
X144077500Y-117825000D03*
%TD*%
D17*
%TO.C,JP6*%
X225360000Y-91050000D03*
D18*
X229360000Y-91050000D03*
%TD*%
D17*
%TO.C,JP5*%
X225360000Y-87480000D03*
D18*
X229360000Y-87480000D03*
%TD*%
D17*
%TO.C,JP4*%
X225360000Y-83910000D03*
D18*
X229360000Y-83910000D03*
%TD*%
D17*
%TO.C,JP3*%
X225360000Y-80340000D03*
D18*
X229360000Y-80340000D03*
%TD*%
D17*
%TO.C,JP2*%
X225360000Y-76770000D03*
D18*
X229360000Y-76770000D03*
%TD*%
D19*
%TO.C,J13*%
X215200000Y-93335000D03*
D20*
X220280000Y-93335000D03*
%TD*%
D19*
%TO.C,J12*%
X215200000Y-81210000D03*
D20*
X220280000Y-81210000D03*
%TD*%
D12*
%TO.C,F11*%
X238572500Y-100510000D03*
X242847500Y-100510000D03*
%TD*%
%TO.C,F10*%
X254402500Y-100510000D03*
X258677500Y-100510000D03*
%TD*%
%TO.C,F9*%
X254402500Y-84030000D03*
X258677500Y-84030000D03*
%TD*%
%TO.C,F8*%
X238572500Y-84030000D03*
X242847500Y-84030000D03*
%TD*%
D13*
%TO.C,D23*%
X243670000Y-104280000D03*
X245420000Y-104280000D03*
%TD*%
%TO.C,D21*%
X259500000Y-104280000D03*
X261250000Y-104280000D03*
%TD*%
D14*
%TO.C,D20*%
X254385000Y-104460000D03*
X256885000Y-104460000D03*
%TD*%
D13*
%TO.C,D19*%
X259500000Y-87800000D03*
X261250000Y-87800000D03*
%TD*%
D14*
%TO.C,D18*%
X254385000Y-87980000D03*
X256885000Y-87980000D03*
%TD*%
D13*
%TO.C,D17*%
X243670000Y-87800000D03*
X245420000Y-87800000D03*
%TD*%
D14*
%TO.C,D15*%
X238555000Y-87980000D03*
X241055000Y-87980000D03*
%TD*%
D21*
%TO.C,BZ1*%
X76350000Y-128650000D03*
X76350000Y-121650000D03*
X83350000Y-121650000D03*
X83350000Y-128650000D03*
%TD*%
D22*
%TO.C,J1*%
X89802500Y-76050000D03*
D23*
X85842500Y-76050000D03*
%TD*%
D24*
%TO.C,C10*%
X108149999Y-89010000D03*
X108149999Y-88050000D03*
%TD*%
D25*
%TO.C,J2*%
X134665000Y-88130000D03*
D26*
X134665000Y-90630000D03*
%TD*%
D27*
%TO.C,CR1*%
X129650000Y-90170002D03*
X129650000Y-88270000D03*
X127618000Y-89220001D03*
%TD*%
D28*
%TO.C,R26*%
X128710000Y-108497500D03*
X128710000Y-110322500D03*
%TD*%
D24*
%TO.C,C11*%
X102580000Y-98790000D03*
X102580000Y-97830000D03*
%TD*%
D29*
%TO.C,U2*%
X111434517Y-91790001D03*
X110934517Y-91790001D03*
X110434517Y-91790001D03*
X109934516Y-91790001D03*
X109434517Y-91790001D03*
X108934517Y-91790001D03*
X108434517Y-91790001D03*
X107934517Y-91790001D03*
X107434518Y-91790001D03*
X106934517Y-91790001D03*
X106434517Y-91790001D03*
X105934517Y-91790001D03*
D30*
X104522017Y-93202501D03*
X104522017Y-93702501D03*
X104522017Y-94202501D03*
X104522017Y-94702502D03*
X104522017Y-95202501D03*
X104522017Y-95702501D03*
X104522017Y-96202501D03*
X104522017Y-96702501D03*
X104522017Y-97202500D03*
X104522017Y-97702501D03*
X104522017Y-98202501D03*
X104522017Y-98702501D03*
D29*
X105934517Y-100115001D03*
X106434517Y-100115001D03*
X106934517Y-100115001D03*
X107434518Y-100115001D03*
X107934517Y-100115001D03*
X108434517Y-100115001D03*
X108934517Y-100115001D03*
X109434517Y-100115001D03*
X109934516Y-100115001D03*
X110434517Y-100115001D03*
X110934517Y-100115001D03*
X111434517Y-100115001D03*
D30*
X112847017Y-98702501D03*
X112847017Y-98202501D03*
X112847017Y-97702501D03*
X112847017Y-97202500D03*
X112847017Y-96702501D03*
X112847017Y-96202501D03*
X112847017Y-95702501D03*
X112847017Y-95202501D03*
X112847017Y-94702502D03*
X112847017Y-94202501D03*
X112847017Y-93702501D03*
X112847017Y-93202501D03*
%TD*%
D31*
%TO.C,D5*%
X100240000Y-90740000D03*
X101090000Y-90740000D03*
X101090000Y-91590000D03*
X100240000Y-91590000D03*
%TD*%
D32*
%TO.C,R41*%
X104125000Y-91330000D03*
X102475000Y-91330000D03*
%TD*%
D33*
%TO.C,J11*%
X90764517Y-128770000D03*
D20*
X95844517Y-128770000D03*
%TD*%
D34*
%TO.C,F3*%
X94510000Y-78140000D03*
X94510000Y-80940000D03*
%TD*%
D35*
%TO.C,C19*%
X82600000Y-84387500D03*
X82600000Y-86112500D03*
%TD*%
D36*
%TO.C,JP1*%
X125040000Y-89265000D03*
D37*
X125040000Y-87815000D03*
%TD*%
D15*
%TO.C,R4*%
X121370000Y-102370000D03*
X123195000Y-102370000D03*
%TD*%
D33*
%TO.C,J10*%
X106280000Y-128770000D03*
D20*
X111360000Y-128770000D03*
%TD*%
D38*
%TO.C,H2*%
X72600000Y-135000000D03*
X73302944Y-133302944D03*
X73302944Y-136697056D03*
X75000000Y-132600000D03*
D39*
X75000000Y-135000000D03*
D38*
X75000000Y-137400000D03*
X76697056Y-133302944D03*
X76697056Y-136697056D03*
X77400000Y-135000000D03*
%TD*%
%TO.C,H3*%
X132600000Y-75000000D03*
X133302944Y-73302944D03*
X133302944Y-76697056D03*
X135000000Y-72600000D03*
D39*
X135000000Y-75000000D03*
D38*
X135000000Y-77400000D03*
X136697056Y-73302944D03*
X136697056Y-76697056D03*
X137400000Y-75000000D03*
%TD*%
D11*
%TO.C,U7*%
X112470000Y-107560851D03*
X111200000Y-107560851D03*
X109930000Y-107560851D03*
X108660000Y-107560851D03*
X108660000Y-113009151D03*
X109930000Y-113009151D03*
X111200000Y-113009151D03*
X112470000Y-113009151D03*
%TD*%
D40*
%TO.C,D2*%
X85810000Y-125857500D03*
X85810000Y-124457500D03*
%TD*%
D28*
%TO.C,R28*%
X121460000Y-108787500D03*
X121460000Y-110612500D03*
%TD*%
D41*
%TO.C,R10*%
X129878100Y-86250000D03*
X128053100Y-86250000D03*
%TD*%
D42*
%TO.C,D4*%
X119747981Y-100720000D03*
X117997983Y-100720000D03*
%TD*%
D43*
%TO.C,C14*%
X89900000Y-86112500D03*
X89900000Y-84387500D03*
%TD*%
D44*
%TO.C,D10*%
X121235000Y-118360000D03*
X121235000Y-120110000D03*
%TD*%
D45*
%TO.C,C7*%
X114500000Y-93200000D03*
X115460000Y-93200000D03*
%TD*%
D46*
%TO.C,D1*%
X98050000Y-79925000D03*
X98050000Y-78175000D03*
%TD*%
D47*
%TO.C,F5*%
X111230483Y-120075000D03*
X111230483Y-115800000D03*
%TD*%
D48*
%TO.C,D8*%
X119550000Y-116560000D03*
X119550000Y-114060000D03*
%TD*%
D49*
%TO.C,J4*%
X132060000Y-113330000D03*
X132060000Y-112330000D03*
X132060000Y-111330000D03*
X132060000Y-110330000D03*
X132060000Y-109330000D03*
X132060000Y-108330000D03*
D50*
X135935000Y-114630000D03*
X135935000Y-107030000D03*
%TD*%
D51*
%TO.C,J5*%
X125790000Y-76090000D03*
D52*
X118290000Y-76090000D03*
X110790000Y-76090000D03*
X103290000Y-76090000D03*
%TD*%
D44*
%TO.C,D13*%
X106720483Y-118325000D03*
X106720483Y-120075000D03*
%TD*%
D35*
%TO.C,C8*%
X124790000Y-93637500D03*
X124790000Y-95362500D03*
%TD*%
D53*
%TO.C,R14*%
X135000000Y-81942500D03*
X135000000Y-80117500D03*
%TD*%
D54*
%TO.C,C21*%
X86162500Y-87850000D03*
X84437500Y-87850000D03*
%TD*%
D33*
%TO.C,J9*%
X120889517Y-128770000D03*
D20*
X125969517Y-128770000D03*
%TD*%
D32*
%TO.C,R40*%
X102130000Y-93620000D03*
X100480000Y-93620000D03*
%TD*%
D34*
%TO.C,F1*%
X94510000Y-73100000D03*
X94510000Y-75900000D03*
%TD*%
D55*
%TO.C,C9*%
X112109999Y-88050000D03*
X112109999Y-89010000D03*
%TD*%
D44*
%TO.C,L1*%
X80925000Y-84350000D03*
X80925000Y-86100000D03*
%TD*%
D43*
%TO.C,C13*%
X91500000Y-86112500D03*
X91500000Y-84387500D03*
%TD*%
D56*
%TO.C,C4*%
X111805000Y-102680000D03*
X110845000Y-102680000D03*
%TD*%
D53*
%TO.C,R27*%
X119550000Y-120110000D03*
X119550000Y-118285000D03*
%TD*%
D15*
%TO.C,R2*%
X82437500Y-115050000D03*
X84262500Y-115050000D03*
%TD*%
D41*
%TO.C,R3*%
X84262500Y-113480000D03*
X82437500Y-113480000D03*
%TD*%
D47*
%TO.C,F6*%
X95660000Y-119875000D03*
X95660000Y-115600000D03*
%TD*%
D42*
%TO.C,D3*%
X119739516Y-102370001D03*
X117989518Y-102370001D03*
%TD*%
D28*
%TO.C,R25*%
X122920000Y-118285000D03*
X122920000Y-120110000D03*
%TD*%
D25*
%TO.C,J3*%
X134665000Y-98782500D03*
D26*
X134665000Y-101282500D03*
%TD*%
D28*
%TO.C,R31*%
X114280483Y-109050000D03*
X114280483Y-110875000D03*
%TD*%
D38*
%TO.C,H1*%
X72600000Y-75000000D03*
X73302944Y-73302944D03*
X73302944Y-76697056D03*
X75000000Y-72600000D03*
D39*
X75000000Y-75000000D03*
D38*
X75000000Y-77400000D03*
X76697056Y-73302944D03*
X76697056Y-76697056D03*
X77400000Y-75000000D03*
%TD*%
D57*
%TO.C,U9*%
X86600000Y-86200000D03*
X86600000Y-85250000D03*
X86600000Y-84300000D03*
X84325000Y-84300000D03*
X84325000Y-85250000D03*
X84325000Y-86200000D03*
%TD*%
D43*
%TO.C,C15*%
X88350000Y-86062500D03*
X88350000Y-84337500D03*
%TD*%
D44*
%TO.C,D7*%
X96225000Y-87630000D03*
X96225000Y-89380000D03*
%TD*%
D28*
%TO.C,R35*%
X92800000Y-118050000D03*
X92800000Y-119875000D03*
%TD*%
D44*
%TO.C,D16*%
X91160000Y-118125000D03*
X91160000Y-119875000D03*
%TD*%
D56*
%TO.C,C2*%
X111805000Y-101650000D03*
X110845000Y-101650000D03*
%TD*%
D13*
%TO.C,FB1*%
X93125000Y-84330000D03*
X94875000Y-84330000D03*
%TD*%
D53*
%TO.C,R32*%
X104955000Y-120075000D03*
X104955000Y-118250000D03*
%TD*%
D11*
%TO.C,U6*%
X126984517Y-107395001D03*
X125714517Y-107395001D03*
X124444517Y-107395001D03*
X123174517Y-107395001D03*
X123174517Y-112843301D03*
X124444517Y-112843301D03*
X125714517Y-112843301D03*
X126984517Y-112843301D03*
%TD*%
D45*
%TO.C,C6*%
X107010000Y-90110000D03*
X107970000Y-90110000D03*
%TD*%
D58*
%TO.C,D6*%
X122000000Y-95430000D03*
X122000000Y-93530000D03*
X120125000Y-94480000D03*
%TD*%
D15*
%TO.C,R15*%
X128437500Y-135000000D03*
X130262500Y-135000000D03*
%TD*%
D53*
%TO.C,R11*%
X125680000Y-100162500D03*
X125680000Y-98337500D03*
%TD*%
D28*
%TO.C,R33*%
X106760483Y-108677501D03*
X106760483Y-110502501D03*
%TD*%
D48*
%TO.C,D11*%
X104980483Y-116550000D03*
X104980483Y-114050000D03*
%TD*%
D28*
%TO.C,R36*%
X99084517Y-108632501D03*
X99084517Y-110457501D03*
%TD*%
D41*
%TO.C,R13*%
X81462500Y-135000000D03*
X79637500Y-135000000D03*
%TD*%
D59*
%TO.C,R1*%
X104077500Y-89750000D03*
X102502500Y-89750000D03*
%TD*%
D45*
%TO.C,C1*%
X114520000Y-92200000D03*
X115480000Y-92200000D03*
%TD*%
D48*
%TO.C,D14*%
X89610000Y-116300000D03*
X89610000Y-113800000D03*
%TD*%
D45*
%TO.C,C3*%
X112340000Y-91260000D03*
X113300000Y-91260000D03*
%TD*%
D60*
%TO.C,Y1*%
X110830000Y-87980000D03*
X109430000Y-87980000D03*
X109430000Y-89080000D03*
X110830000Y-89080000D03*
%TD*%
D15*
%TO.C,R9*%
X131532983Y-105069999D03*
X133357983Y-105069999D03*
%TD*%
D28*
%TO.C,R30*%
X108420483Y-118250000D03*
X108420483Y-120075000D03*
%TD*%
D53*
%TO.C,R37*%
X89560000Y-119875000D03*
X89560000Y-118050000D03*
%TD*%
D38*
%TO.C,H4*%
X132600000Y-135000000D03*
X133302944Y-133302944D03*
X133302944Y-136697056D03*
X135000000Y-132600000D03*
D39*
X135000000Y-135000000D03*
D38*
X135000000Y-137400000D03*
X136697056Y-133302944D03*
X136697056Y-136697056D03*
X137400000Y-135000000D03*
%TD*%
D61*
%TO.C,U1*%
X126682500Y-93582500D03*
X126682500Y-94232500D03*
X126682500Y-94882500D03*
X126682500Y-95532500D03*
X128957500Y-95532500D03*
X128957500Y-94882500D03*
X128957500Y-94232500D03*
X128957500Y-93582500D03*
%TD*%
D47*
%TO.C,F4*%
X125720000Y-120110000D03*
X125720000Y-115835000D03*
%TD*%
D15*
%TO.C,R5*%
X121397500Y-100680000D03*
X123222500Y-100680000D03*
%TD*%
D62*
%TO.C,C12*%
X93127500Y-82750000D03*
X94852500Y-82750000D03*
%TD*%
D28*
%TO.C,R22*%
X94525000Y-87592500D03*
X94525000Y-89417500D03*
%TD*%
D62*
%TO.C,C16*%
X81062500Y-87850000D03*
X82787500Y-87850000D03*
%TD*%
D53*
%TO.C,R12*%
X75010000Y-81442500D03*
X75010000Y-79617500D03*
%TD*%
D27*
%TO.C,CR2*%
X129650000Y-100920002D03*
X129650000Y-99020000D03*
X127618000Y-99970001D03*
%TD*%
D28*
%TO.C,R38*%
X91260000Y-109087500D03*
X91260000Y-110912500D03*
%TD*%
D63*
%TO.C,Q1*%
X84300000Y-116892500D03*
X82400000Y-116892500D03*
X83350000Y-118767500D03*
%TD*%
D56*
%TO.C,C5*%
X103990000Y-99760000D03*
X103030000Y-99760000D03*
%TD*%
D14*
%TO.C,D22*%
X229120000Y-104400000D03*
X231620000Y-104400000D03*
%TD*%
M02*
