M48
; DRILL file {KiCad 9.0.1} date 2025-11-09T21:37:19+0100
; FORMAT={-:-/ absolute / inch / decimal}
; #@! TF.CreationDate,2025-11-09T21:37:19+01:00
; #@! TF.GenerationSoftware,Kicad,Pcbnew,9.0.1
; #@! TF.FileFunction,Plated,1,4,PTH
FMAT,2
INCH
; #@! TA.AperFunction,Plated,PTH,ViaDrill
T1C0.0118
; #@! TA.AperFunction,Plated,PTH,ComponentDrill
T2C0.0197
; #@! TA.AperFunction,Plated,PTH,ComponentDrill
T3C0.0394
; #@! TA.AperFunction,Plated,PTH,ComponentDrill
T4C0.0512
; #@! TA.AperFunction,Plated,PTH,ComponentDrill
T5C0.0551
; #@! TA.AperFunction,Plated,PTH,ComponentDrill
T6C0.0669
; #@! TA.AperFunction,Plated,PTH,ComponentDrill
T7C0.1260
%
G90
G05
T1
X2.9535Y-3.2531
X3.2016Y-4.6028
X3.2539Y-5.315
X3.2864Y-3.5039
X3.2933Y-2.9941
X3.3173Y-4.4213
X3.3209Y-3.2717
X3.3799Y-3.0807
X3.4697Y-4.5819
X3.4783Y-3.4301
X3.5929Y-4.4035
X3.6191Y-3.2569
X3.6457Y-3.3898
X3.6591Y-2.8783
X3.7169Y-4.2825
X3.7205Y-2.9236
X3.7209Y-2.8256
X3.7846Y-2.8772
X3.7884Y-3.3986
X3.8457Y-4.1579
X3.8602Y-3.1988
X3.861Y-4.4474
X3.9055Y-3.1476
X3.9675Y-4.0443
X4.0291Y-3.9209
X4.1878Y-3.6969
X4.328Y-4.2864
X4.335Y-4.0236
X4.3478Y-3.8892
X4.3535Y-3.7575
X4.3618Y-3.2272
X4.3898Y-3.6894
X4.4362Y-4.0016
X4.4378Y-4.0425
X4.4602Y-3.5622
X4.5469Y-3.6016
X4.5693Y-4.028
X4.5752Y-3.7575
X4.5803Y-2.9972
X4.6567Y-2.8835
X4.6756Y-3.7205
X4.7417Y-2.9957
X4.8346Y-4.3543
X4.8368Y-3.8533
X4.8994Y-4.2748
X4.9992Y-3.9
X5.0083Y-4.3429
X5.011Y-5.3157
X5.0116Y-4.0281
X5.315Y-3.2717
X5.3508Y-4.276
X5.3512Y-4.452
T2
X2.8583Y-2.9528
X2.8583Y-5.315
X2.8859Y-2.8859
X2.8859Y-3.0196
X2.8859Y-5.2481
X2.8859Y-5.3818
X2.9528Y-2.8583
X2.9528Y-3.0472
X2.9528Y-5.2205
X2.9528Y-5.4094
X3.0196Y-2.8859
X3.0196Y-3.0196
X3.0196Y-5.2481
X3.0196Y-5.3818
X3.0472Y-2.9528
X3.0472Y-5.315
X5.2205Y-2.9528
X5.2205Y-5.315
X5.2481Y-2.8859
X5.2481Y-3.0196
X5.2481Y-5.2481
X5.2481Y-5.3818
X5.315Y-2.8583
X5.315Y-3.0472
X5.315Y-5.2205
X5.315Y-5.4094
X5.3818Y-2.8859
X5.3818Y-3.0196
X5.3818Y-5.2481
X5.3818Y-5.3818
X5.4094Y-2.9528
X5.4094Y-5.315
T3
X5.3018Y-3.4697
X5.3018Y-3.5681
X5.3018Y-3.8891
X5.3018Y-3.9875
T4
X3.5734Y-5.0697
X3.7734Y-5.0697
X4.1843Y-5.0697
X4.3843Y-5.0697
X4.7594Y-5.0697
X4.9594Y-5.0697
X8.4724Y-3.1972
X8.4724Y-3.6746
X8.6724Y-3.1972
X8.6724Y-3.6746
T5
X4.0665Y-2.9957
X4.3618Y-2.9957
X4.6571Y-2.9957
X4.9524Y-2.9957
T6
X3.3796Y-2.9941
X3.5355Y-2.9941
T7
X2.9528Y-2.9528
X2.9528Y-5.315
X5.315Y-2.9528
X5.315Y-5.315
M30
