%TF.GenerationSoftware,KiCad,Pcbnew,9.0.1*%
%TF.CreationDate,2025-11-09T21:37:19+01:00*%
%TF.ProjectId,SIGURD,53494755-5244-42e6-9b69-6361645f7063,rev?*%
%TF.SameCoordinates,Original*%
%TF.FileFunction,Copper,L2,Inr*%
%TF.FilePolarity,Positive*%
%FSLAX46Y46*%
G04 Gerber Fmt 4.6, Leading zero omitted, Abs format (unit mm)*
G04 Created by KiCad (PCBNEW 9.0.1) date 2025-11-09 21:37:19*
%MOMM*%
%LPD*%
G01*
G04 APERTURE LIST*
G04 Aperture macros list*
%AMRoundRect*
0 Rectangle with rounded corners*
0 $1 Rounding radius*
0 $2 $3 $4 $5 $6 $7 $8 $9 X,Y pos of 4 corners*
0 Add a 4 corners polygon primitive as box body*
4,1,4,$2,$3,$4,$5,$6,$7,$8,$9,$2,$3,0*
0 Add four circle primitives for the rounded corners*
1,1,$1+$1,$2,$3*
1,1,$1+$1,$4,$5*
1,1,$1+$1,$6,$7*
1,1,$1+$1,$8,$9*
0 Add four rect primitives between the rounded corners*
20,1,$1+$1,$2,$3,$4,$5,0*
20,1,$1+$1,$4,$5,$6,$7,0*
20,1,$1+$1,$6,$7,$8,$9,0*
20,1,$1+$1,$8,$9,$2,$3,0*%
G04 Aperture macros list end*
%TA.AperFunction,ComponentPad*%
%ADD10RoundRect,0.250000X-1.050000X-1.050000X1.050000X-1.050000X1.050000X1.050000X-1.050000X1.050000X0*%
%TD*%
%TA.AperFunction,ComponentPad*%
%ADD11C,2.600000*%
%TD*%
%TA.AperFunction,ComponentPad*%
%ADD12C,2.700000*%
%TD*%
%TA.AperFunction,ComponentPad*%
%ADD13RoundRect,0.250001X-1.099999X-1.099999X1.099999X-1.099999X1.099999X1.099999X-1.099999X1.099999X0*%
%TD*%
%TA.AperFunction,ComponentPad*%
%ADD14RoundRect,0.250000X-0.750000X0.600000X-0.750000X-0.600000X0.750000X-0.600000X0.750000X0.600000X0*%
%TD*%
%TA.AperFunction,ComponentPad*%
%ADD15O,2.000000X1.700000*%
%TD*%
%TA.AperFunction,ComponentPad*%
%ADD16R,2.600000X2.600000*%
%TD*%
%TA.AperFunction,ComponentPad*%
%ADD17C,0.800000*%
%TD*%
%TA.AperFunction,ComponentPad*%
%ADD18C,6.400000*%
%TD*%
%TA.AperFunction,ComponentPad*%
%ADD19RoundRect,0.250000X0.750000X1.550000X-0.750000X1.550000X-0.750000X-1.550000X0.750000X-1.550000X0*%
%TD*%
%TA.AperFunction,ComponentPad*%
%ADD20O,2.000000X3.600000*%
%TD*%
%TA.AperFunction,ViaPad*%
%ADD21C,0.450000*%
%TD*%
G04 APERTURE END LIST*
D10*
%TO.N,Earth*%
%TO.C,J13*%
X215200000Y-93335000D03*
D11*
%TO.N,/SOL5_OUT*%
X220280000Y-93335000D03*
%TD*%
D10*
%TO.N,Earth*%
%TO.C,J12*%
X215200000Y-81210000D03*
D11*
%TO.N,/SOL4_OUT*%
X220280000Y-81210000D03*
%TD*%
D12*
%TO.N,VIN*%
%TO.C,J1*%
X89802500Y-76050000D03*
D13*
%TO.N,Earth*%
X85842500Y-76050000D03*
%TD*%
D14*
%TO.N,/CAN_H*%
%TO.C,J2*%
X134665000Y-88130000D03*
D15*
%TO.N,/CAN_L*%
X134665000Y-90630000D03*
%TD*%
D16*
%TO.N,Earth*%
%TO.C,J11*%
X90764517Y-128770000D03*
D11*
%TO.N,/SOL3_OUT*%
X95844517Y-128770000D03*
%TD*%
D16*
%TO.N,Earth*%
%TO.C,J10*%
X106280000Y-128770000D03*
D11*
%TO.N,/SOL2_OUT*%
X111360000Y-128770000D03*
%TD*%
D17*
%TO.N,Net-(H2-Pad1)*%
%TO.C,H2*%
X72600000Y-135000000D03*
X73302944Y-133302944D03*
X73302944Y-136697056D03*
X75000000Y-132600000D03*
D18*
X75000000Y-135000000D03*
D17*
X75000000Y-137400000D03*
X76697056Y-133302944D03*
X76697056Y-136697056D03*
X77400000Y-135000000D03*
%TD*%
%TO.N,Net-(H3-Pad1)*%
%TO.C,H3*%
X132600000Y-75000000D03*
X133302944Y-73302944D03*
X133302944Y-76697056D03*
X135000000Y-72600000D03*
D18*
X135000000Y-75000000D03*
D17*
X135000000Y-77400000D03*
X136697056Y-73302944D03*
X136697056Y-76697056D03*
X137400000Y-75000000D03*
%TD*%
D19*
%TO.N,unconnected-(J5-Pin_1-Pad1)*%
%TO.C,J5*%
X125790000Y-76090000D03*
D20*
%TO.N,Earth*%
X118290000Y-76090000D03*
%TO.N,/MOTOR_PWM*%
X110790000Y-76090000D03*
%TO.N,+10V*%
X103290000Y-76090000D03*
%TD*%
D16*
%TO.N,Earth*%
%TO.C,J9*%
X120889517Y-128770000D03*
D11*
%TO.N,/SOL1_OUT*%
X125969517Y-128770000D03*
%TD*%
D14*
%TO.N,/CAN_H*%
%TO.C,J3*%
X134665000Y-98782500D03*
D15*
%TO.N,/CAN_L*%
X134665000Y-101282500D03*
%TD*%
D17*
%TO.N,Net-(H1-Pad1)*%
%TO.C,H1*%
X72600000Y-75000000D03*
X73302944Y-73302944D03*
X73302944Y-76697056D03*
X75000000Y-72600000D03*
D18*
X75000000Y-75000000D03*
D17*
X75000000Y-77400000D03*
X76697056Y-73302944D03*
X76697056Y-76697056D03*
X77400000Y-75000000D03*
%TD*%
%TO.N,Net-(H4-Pad1)*%
%TO.C,H4*%
X132600000Y-135000000D03*
X133302944Y-133302944D03*
X133302944Y-136697056D03*
X135000000Y-132600000D03*
D18*
X135000000Y-135000000D03*
D17*
X135000000Y-137400000D03*
X136697056Y-133302944D03*
X136697056Y-136697056D03*
X137400000Y-135000000D03*
%TD*%
D21*
%TO.N,+3V3*%
X112680000Y-101640000D03*
X100775000Y-102725000D03*
X112720000Y-102680000D03*
%TO.N,Earth*%
X96225000Y-86325000D03*
X115490000Y-91480000D03*
X84260000Y-112300000D03*
X127280000Y-135020000D03*
X83475000Y-89000000D03*
X122800000Y-110600000D03*
X118280000Y-73240000D03*
X99200000Y-79950000D03*
X88350000Y-87125000D03*
X135920000Y-113080000D03*
X127210000Y-110310000D03*
X124444517Y-108580000D03*
X83650000Y-76050000D03*
X94410000Y-108775000D03*
X92600000Y-86100000D03*
X111500000Y-93710000D03*
X110110000Y-102200000D03*
X118760000Y-94500000D03*
X135000000Y-83100000D03*
X91925000Y-82725000D03*
X84350000Y-83100000D03*
X116340000Y-76130000D03*
X91260000Y-111850000D03*
X82650000Y-135000000D03*
X109930483Y-108875000D03*
X85850000Y-78250000D03*
X98050000Y-81250000D03*
X75020000Y-82630000D03*
X102340000Y-99590000D03*
X120440000Y-76090000D03*
X126980000Y-99060000D03*
X113290000Y-90480000D03*
X81320000Y-116910000D03*
X135910000Y-108610000D03*
%TO.N,+10V*%
X98070000Y-112964151D03*
%TO.N,/SOL3_SENSE*%
X88130000Y-116380000D03*
X97680000Y-105610000D03*
%TO.N,/NRST*%
X116210000Y-95440000D03*
X122855000Y-97875000D03*
X127295000Y-102315000D03*
X110580000Y-95440000D03*
%TO.N,/SW_DIO*%
X110434517Y-98785483D03*
X116060000Y-102310000D03*
%TO.N,/MOTOR_PWM*%
X106370000Y-93900000D03*
X110790000Y-81970000D03*
%TO.N,VIN*%
X92940000Y-73110000D03*
X96130000Y-73080000D03*
X94510000Y-71770000D03*
X94500000Y-74260000D03*
%TD*%
%TA.AperFunction,Conductor*%
%TO.N,VIN*%
G36*
X96443039Y-71219685D02*
G01*
X96488794Y-71272489D01*
X96500000Y-71324000D01*
X96500000Y-72462290D01*
X96480315Y-72529329D01*
X96473927Y-72538357D01*
X96450517Y-72568493D01*
X96450508Y-72568507D01*
X96379323Y-72693521D01*
X96379321Y-72693525D01*
X96346233Y-72833551D01*
X96346232Y-72833559D01*
X96342263Y-72877912D01*
X96342263Y-72877922D01*
X96340007Y-72903140D01*
X96340006Y-72903141D01*
X96347709Y-73046815D01*
X96349503Y-73055836D01*
X96349897Y-73065502D01*
X96349614Y-73066631D01*
X96350000Y-73070544D01*
X96350000Y-73089449D01*
X96347616Y-73113646D01*
X96343925Y-73132197D01*
X96336870Y-73155453D01*
X96329634Y-73172922D01*
X96318178Y-73194355D01*
X96300633Y-73220615D01*
X96297799Y-73224900D01*
X96296639Y-73226674D01*
X96294435Y-73230071D01*
X96234663Y-73360950D01*
X96214976Y-73427995D01*
X96194500Y-73570414D01*
X96194500Y-74170500D01*
X96174815Y-74237539D01*
X96122011Y-74283294D01*
X96070500Y-74294500D01*
X95035313Y-74294500D01*
X95030745Y-74294521D01*
X95028532Y-74294541D01*
X95025165Y-74294586D01*
X95024069Y-74294601D01*
X94882056Y-74317613D01*
X94815370Y-74338494D01*
X94685584Y-74400588D01*
X94685579Y-74400590D01*
X94614364Y-74448174D01*
X94592929Y-74459632D01*
X94575453Y-74466871D01*
X94552197Y-74473925D01*
X94533647Y-74477616D01*
X94509453Y-74480000D01*
X94490549Y-74480000D01*
X94466351Y-74477616D01*
X94461799Y-74476710D01*
X94447800Y-74473925D01*
X94424552Y-74466872D01*
X94407078Y-74459635D01*
X94385634Y-74448174D01*
X94314500Y-74400644D01*
X94314481Y-74400631D01*
X94314419Y-74400590D01*
X94310545Y-74398027D01*
X94310462Y-74397972D01*
X94308645Y-74396782D01*
X94305021Y-74394431D01*
X94305018Y-74394430D01*
X94174152Y-74334664D01*
X94174147Y-74334662D01*
X94174146Y-74334662D01*
X94107107Y-74314977D01*
X94107109Y-74314977D01*
X94107104Y-74314976D01*
X94045034Y-74306052D01*
X93964687Y-74294500D01*
X93124000Y-74294500D01*
X93123991Y-74294500D01*
X93123990Y-74294501D01*
X93016549Y-74306052D01*
X93016537Y-74306054D01*
X92965027Y-74317260D01*
X92862502Y-74351383D01*
X92862496Y-74351386D01*
X92741462Y-74429171D01*
X92741451Y-74429179D01*
X92688659Y-74474923D01*
X92594433Y-74583664D01*
X92594430Y-74583668D01*
X92534664Y-74714534D01*
X92534662Y-74714541D01*
X92514977Y-74781580D01*
X92514976Y-74781584D01*
X92494500Y-74924000D01*
X92494500Y-75211733D01*
X92494500Y-76070846D01*
X92494500Y-76968265D01*
X92494500Y-78736000D01*
X92494501Y-78736009D01*
X92506052Y-78843450D01*
X92506054Y-78843462D01*
X92517259Y-78894966D01*
X92531196Y-78936842D01*
X92533689Y-79006667D01*
X92498036Y-79066756D01*
X92435557Y-79098030D01*
X92413541Y-79100000D01*
X87724000Y-79100000D01*
X87656961Y-79080315D01*
X87611206Y-79027511D01*
X87600000Y-78976000D01*
X87600000Y-77548783D01*
X87610275Y-77499360D01*
X87613807Y-77491231D01*
X87627314Y-77469334D01*
X87682499Y-77302797D01*
X87693000Y-77200008D01*
X87693000Y-75928751D01*
X87952500Y-75928751D01*
X87952500Y-76171248D01*
X87952501Y-76171264D01*
X87984153Y-76411687D01*
X88046921Y-76645939D01*
X88139720Y-76869978D01*
X88139727Y-76869992D01*
X88260981Y-77080010D01*
X88329561Y-77169384D01*
X89048384Y-76450560D01*
X89049240Y-76452626D01*
X89142262Y-76591844D01*
X89260656Y-76710238D01*
X89399874Y-76803260D01*
X89401937Y-76804114D01*
X88683114Y-77522936D01*
X88683114Y-77522937D01*
X88772489Y-77591517D01*
X88772496Y-77591522D01*
X88982507Y-77712772D01*
X88982521Y-77712779D01*
X89206560Y-77805578D01*
X89440812Y-77868346D01*
X89681235Y-77899998D01*
X89681252Y-77900000D01*
X89923748Y-77900000D01*
X89923764Y-77899998D01*
X90164187Y-77868346D01*
X90398439Y-77805578D01*
X90622478Y-77712779D01*
X90622492Y-77712772D01*
X90832516Y-77591515D01*
X90921884Y-77522939D01*
X90921884Y-77522936D01*
X90203062Y-76804114D01*
X90205126Y-76803260D01*
X90344344Y-76710238D01*
X90462738Y-76591844D01*
X90555760Y-76452626D01*
X90556614Y-76450562D01*
X91275436Y-77169384D01*
X91275439Y-77169384D01*
X91344015Y-77080016D01*
X91465272Y-76869992D01*
X91465279Y-76869978D01*
X91558078Y-76645939D01*
X91620846Y-76411687D01*
X91652498Y-76171264D01*
X91652500Y-76171248D01*
X91652500Y-75928751D01*
X91652498Y-75928735D01*
X91620846Y-75688312D01*
X91558078Y-75454060D01*
X91465279Y-75230021D01*
X91465272Y-75230007D01*
X91344022Y-75019996D01*
X91344017Y-75019989D01*
X91275437Y-74930614D01*
X91275436Y-74930614D01*
X90556614Y-75649436D01*
X90555760Y-75647374D01*
X90462738Y-75508156D01*
X90344344Y-75389762D01*
X90205126Y-75296740D01*
X90203060Y-75295884D01*
X90921884Y-74577061D01*
X90832510Y-74508481D01*
X90622492Y-74387227D01*
X90622478Y-74387220D01*
X90398439Y-74294421D01*
X90164187Y-74231653D01*
X89923764Y-74200001D01*
X89923748Y-74200000D01*
X89681252Y-74200000D01*
X89681235Y-74200001D01*
X89440812Y-74231653D01*
X89206560Y-74294421D01*
X88982521Y-74387220D01*
X88982506Y-74387227D01*
X88772490Y-74508480D01*
X88683114Y-74577060D01*
X88683114Y-74577061D01*
X89401938Y-75295885D01*
X89399874Y-75296740D01*
X89260656Y-75389762D01*
X89142262Y-75508156D01*
X89049240Y-75647374D01*
X89048385Y-75649438D01*
X88329561Y-74930614D01*
X88329560Y-74930614D01*
X88260980Y-75019990D01*
X88139727Y-75230006D01*
X88139720Y-75230021D01*
X88046921Y-75454060D01*
X87984153Y-75688312D01*
X87952501Y-75928735D01*
X87952500Y-75928751D01*
X87693000Y-75928751D01*
X87693000Y-74899992D01*
X87682499Y-74797203D01*
X87627314Y-74630666D01*
X87613810Y-74608773D01*
X87610275Y-74600638D01*
X87607326Y-74577050D01*
X87600000Y-74551216D01*
X87600000Y-71324000D01*
X87619685Y-71256961D01*
X87672489Y-71211206D01*
X87724000Y-71200000D01*
X96376000Y-71200000D01*
X96443039Y-71219685D01*
G37*
%TD.AperFunction*%
%TD*%
%TA.AperFunction,Conductor*%
%TO.N,+10V*%
G36*
X105783039Y-72819685D02*
G01*
X105828794Y-72872489D01*
X105840000Y-72924000D01*
X105840000Y-78736000D01*
X105820315Y-78803039D01*
X105767511Y-78848794D01*
X105716000Y-78860000D01*
X93124000Y-78860000D01*
X93056961Y-78840315D01*
X93011206Y-78787511D01*
X93000000Y-78736000D01*
X93000000Y-75171947D01*
X101790000Y-75171947D01*
X101790000Y-75840000D01*
X102635879Y-75840000D01*
X102616901Y-75885818D01*
X102590000Y-76021056D01*
X102590000Y-76158944D01*
X102616901Y-76294182D01*
X102635879Y-76340000D01*
X101790000Y-76340000D01*
X101790000Y-77008052D01*
X101826934Y-77241247D01*
X101899897Y-77465802D01*
X102007085Y-77676171D01*
X102145866Y-77867186D01*
X102312813Y-78034133D01*
X102503828Y-78172914D01*
X102714195Y-78280102D01*
X102938744Y-78353063D01*
X102938750Y-78353065D01*
X103040000Y-78369101D01*
X103040000Y-76744120D01*
X103085818Y-76763099D01*
X103221056Y-76790000D01*
X103358944Y-76790000D01*
X103494182Y-76763099D01*
X103540000Y-76744120D01*
X103540000Y-78369100D01*
X103641249Y-78353065D01*
X103641255Y-78353063D01*
X103865804Y-78280102D01*
X104076171Y-78172914D01*
X104267186Y-78034133D01*
X104434133Y-77867186D01*
X104572914Y-77676171D01*
X104680102Y-77465802D01*
X104753065Y-77241247D01*
X104790000Y-77008052D01*
X104790000Y-76340000D01*
X103944121Y-76340000D01*
X103963099Y-76294182D01*
X103990000Y-76158944D01*
X103990000Y-76021056D01*
X103963099Y-75885818D01*
X103944121Y-75840000D01*
X104790000Y-75840000D01*
X104790000Y-75171947D01*
X104753065Y-74938752D01*
X104680102Y-74714197D01*
X104572914Y-74503828D01*
X104434133Y-74312813D01*
X104267186Y-74145866D01*
X104076171Y-74007085D01*
X103865802Y-73899897D01*
X103641247Y-73826934D01*
X103540000Y-73810897D01*
X103540000Y-75435879D01*
X103494182Y-75416901D01*
X103358944Y-75390000D01*
X103221056Y-75390000D01*
X103085818Y-75416901D01*
X103040000Y-75435879D01*
X103040000Y-73810897D01*
X102938752Y-73826934D01*
X102714197Y-73899897D01*
X102503828Y-74007085D01*
X102312813Y-74145866D01*
X102145866Y-74312813D01*
X102007085Y-74503828D01*
X101899897Y-74714197D01*
X101826934Y-74938752D01*
X101790000Y-75171947D01*
X93000000Y-75171947D01*
X93000000Y-74924000D01*
X93019685Y-74856961D01*
X93072489Y-74811206D01*
X93124000Y-74800000D01*
X93964687Y-74800000D01*
X94031726Y-74819685D01*
X94033578Y-74820898D01*
X94156340Y-74902925D01*
X94156346Y-74902928D01*
X94156347Y-74902929D01*
X94288380Y-74957619D01*
X94288384Y-74957619D01*
X94288385Y-74957620D01*
X94428542Y-74985500D01*
X94428545Y-74985500D01*
X94571457Y-74985500D01*
X94665751Y-74966742D01*
X94711620Y-74957619D01*
X94843653Y-74902929D01*
X94843659Y-74902925D01*
X94966422Y-74820898D01*
X95033100Y-74800020D01*
X95035313Y-74800000D01*
X96700000Y-74800000D01*
X96700000Y-73570413D01*
X96719685Y-73503374D01*
X96720868Y-73501566D01*
X96772929Y-73423653D01*
X96827619Y-73291620D01*
X96855500Y-73151455D01*
X96855500Y-73008545D01*
X96855500Y-73008542D01*
X96843495Y-72948192D01*
X96849722Y-72878601D01*
X96892584Y-72823423D01*
X96958474Y-72800178D01*
X96965112Y-72800000D01*
X105716000Y-72800000D01*
X105783039Y-72819685D01*
G37*
%TD.AperFunction*%
%TD*%
%TA.AperFunction,NonConductor*%
G36*
X135002702Y-70075618D02*
G01*
X135016221Y-70076208D01*
X135423810Y-70094003D01*
X135434547Y-70094943D01*
X135849771Y-70149608D01*
X135860397Y-70151481D01*
X136269286Y-70242130D01*
X136279698Y-70244919D01*
X136679132Y-70370861D01*
X136689267Y-70374550D01*
X137076191Y-70534819D01*
X137085982Y-70539385D01*
X137457442Y-70732755D01*
X137466809Y-70738162D01*
X137487567Y-70751387D01*
X137820014Y-70963179D01*
X137828875Y-70969384D01*
X138161115Y-71224320D01*
X138169402Y-71231274D01*
X138478155Y-71514195D01*
X138485804Y-71521844D01*
X138768725Y-71830597D01*
X138775679Y-71838884D01*
X139030615Y-72171124D01*
X139036820Y-72179985D01*
X139261836Y-72533189D01*
X139267244Y-72542557D01*
X139460611Y-72914010D01*
X139465183Y-72923814D01*
X139625443Y-73310717D01*
X139629142Y-73320880D01*
X139749461Y-73702482D01*
X139755074Y-73720282D01*
X139757874Y-73730732D01*
X139848515Y-74139589D01*
X139850393Y-74150242D01*
X139905054Y-74565432D01*
X139905997Y-74576208D01*
X139924382Y-74997297D01*
X139924500Y-75002706D01*
X139924500Y-134997293D01*
X139924382Y-135002702D01*
X139905997Y-135423791D01*
X139905054Y-135434567D01*
X139850393Y-135849757D01*
X139848515Y-135860410D01*
X139757874Y-136269267D01*
X139755074Y-136279717D01*
X139629143Y-136679117D01*
X139625443Y-136689282D01*
X139465183Y-137076185D01*
X139460611Y-137085989D01*
X139267244Y-137457442D01*
X139261836Y-137466810D01*
X139036820Y-137820014D01*
X139030615Y-137828875D01*
X138775679Y-138161115D01*
X138768725Y-138169402D01*
X138485804Y-138478155D01*
X138478155Y-138485804D01*
X138169402Y-138768725D01*
X138161115Y-138775679D01*
X137828875Y-139030615D01*
X137820014Y-139036820D01*
X137466810Y-139261836D01*
X137457442Y-139267244D01*
X137085989Y-139460611D01*
X137076185Y-139465183D01*
X136689282Y-139625443D01*
X136679117Y-139629143D01*
X136279717Y-139755074D01*
X136269267Y-139757874D01*
X135860410Y-139848515D01*
X135849757Y-139850393D01*
X135434567Y-139905054D01*
X135423791Y-139905997D01*
X135002703Y-139924382D01*
X134997294Y-139924500D01*
X75002706Y-139924500D01*
X74997297Y-139924382D01*
X74576208Y-139905997D01*
X74565432Y-139905054D01*
X74150242Y-139850393D01*
X74139589Y-139848515D01*
X73872531Y-139789310D01*
X73730729Y-139757873D01*
X73720286Y-139755075D01*
X73320880Y-139629142D01*
X73310717Y-139625443D01*
X72923814Y-139465183D01*
X72914010Y-139460611D01*
X72542557Y-139267244D01*
X72533189Y-139261836D01*
X72179985Y-139036820D01*
X72171124Y-139030615D01*
X71838884Y-138775679D01*
X71830597Y-138768725D01*
X71521844Y-138485804D01*
X71514195Y-138478155D01*
X71231274Y-138169402D01*
X71224320Y-138161115D01*
X70969384Y-137828875D01*
X70963179Y-137820014D01*
X70738163Y-137466810D01*
X70732755Y-137457442D01*
X70539388Y-137085989D01*
X70534816Y-137076185D01*
X70463801Y-136904738D01*
X70374550Y-136689267D01*
X70370861Y-136679132D01*
X70244919Y-136279698D01*
X70242130Y-136269286D01*
X70151481Y-135860397D01*
X70149608Y-135849771D01*
X70094943Y-135434547D01*
X70094003Y-135423810D01*
X70075618Y-135002701D01*
X70075500Y-134997293D01*
X70075500Y-134818206D01*
X71299500Y-134818206D01*
X71299500Y-135181794D01*
X71310337Y-135291829D01*
X71335137Y-135543630D01*
X71406064Y-135900212D01*
X71406067Y-135900223D01*
X71511614Y-136248165D01*
X71650754Y-136584078D01*
X71650756Y-136584083D01*
X71822140Y-136904720D01*
X71822151Y-136904738D01*
X72024140Y-137207035D01*
X72024150Y-137207049D01*
X72254807Y-137488106D01*
X72511893Y-137745192D01*
X72511898Y-137745196D01*
X72511899Y-137745197D01*
X72792956Y-137975854D01*
X73095268Y-138177853D01*
X73095277Y-138177858D01*
X73095279Y-138177859D01*
X73415916Y-138349243D01*
X73415918Y-138349243D01*
X73415924Y-138349247D01*
X73751836Y-138488386D01*
X74099767Y-138593930D01*
X74099773Y-138593931D01*
X74099776Y-138593932D01*
X74099787Y-138593935D01*
X74456369Y-138664862D01*
X74818206Y-138700500D01*
X74818209Y-138700500D01*
X75181791Y-138700500D01*
X75181794Y-138700500D01*
X75543631Y-138664862D01*
X75613045Y-138651054D01*
X75900212Y-138593935D01*
X75900223Y-138593932D01*
X75900223Y-138593931D01*
X75900233Y-138593930D01*
X76248164Y-138488386D01*
X76584076Y-138349247D01*
X76904732Y-138177853D01*
X77207044Y-137975854D01*
X77488101Y-137745197D01*
X77745197Y-137488101D01*
X77975854Y-137207044D01*
X78177853Y-136904732D01*
X78349247Y-136584076D01*
X78488386Y-136248164D01*
X78593930Y-135900233D01*
X78593932Y-135900223D01*
X78593935Y-135900212D01*
X78664862Y-135543630D01*
X78670885Y-135482478D01*
X78700500Y-135181794D01*
X78700500Y-135071457D01*
X81924499Y-135071457D01*
X81952379Y-135211614D01*
X81952381Y-135211620D01*
X82007069Y-135343650D01*
X82007074Y-135343659D01*
X82086467Y-135462478D01*
X82086470Y-135462482D01*
X82187517Y-135563529D01*
X82187521Y-135563532D01*
X82306340Y-135642925D01*
X82306346Y-135642928D01*
X82306347Y-135642929D01*
X82438380Y-135697619D01*
X82438384Y-135697619D01*
X82438385Y-135697620D01*
X82578542Y-135725500D01*
X82578545Y-135725500D01*
X82721457Y-135725500D01*
X82815751Y-135706742D01*
X82861620Y-135697619D01*
X82993653Y-135642929D01*
X83112479Y-135563532D01*
X83213532Y-135462479D01*
X83292929Y-135343653D01*
X83347619Y-135211620D01*
X83356742Y-135165751D01*
X83371521Y-135091457D01*
X126554499Y-135091457D01*
X126582379Y-135231614D01*
X126582381Y-135231620D01*
X126637069Y-135363650D01*
X126637074Y-135363659D01*
X126716467Y-135482478D01*
X126716470Y-135482482D01*
X126817517Y-135583529D01*
X126817521Y-135583532D01*
X126936340Y-135662925D01*
X126936346Y-135662928D01*
X126936347Y-135662929D01*
X127068380Y-135717619D01*
X127068384Y-135717619D01*
X127068385Y-135717620D01*
X127208542Y-135745500D01*
X127208545Y-135745500D01*
X127351457Y-135745500D01*
X127452000Y-135725500D01*
X127491620Y-135717619D01*
X127623653Y-135662929D01*
X127742479Y-135583532D01*
X127843532Y-135482479D01*
X127922929Y-135363653D01*
X127977619Y-135231620D01*
X128005500Y-135091455D01*
X128005500Y-134948545D01*
X128005500Y-134948542D01*
X128005499Y-134948540D01*
X127983781Y-134839353D01*
X127979574Y-134818206D01*
X131299500Y-134818206D01*
X131299500Y-135181794D01*
X131310337Y-135291829D01*
X131335137Y-135543630D01*
X131406064Y-135900212D01*
X131406067Y-135900223D01*
X131511614Y-136248165D01*
X131650754Y-136584078D01*
X131650756Y-136584083D01*
X131822140Y-136904720D01*
X131822151Y-136904738D01*
X132024140Y-137207035D01*
X132024150Y-137207049D01*
X132254807Y-137488106D01*
X132511893Y-137745192D01*
X132511898Y-137745196D01*
X132511899Y-137745197D01*
X132792956Y-137975854D01*
X133095268Y-138177853D01*
X133095277Y-138177858D01*
X133095279Y-138177859D01*
X133415916Y-138349243D01*
X133415918Y-138349243D01*
X133415924Y-138349247D01*
X133751836Y-138488386D01*
X134099767Y-138593930D01*
X134099773Y-138593931D01*
X134099776Y-138593932D01*
X134099787Y-138593935D01*
X134456369Y-138664862D01*
X134818206Y-138700500D01*
X134818209Y-138700500D01*
X135181791Y-138700500D01*
X135181794Y-138700500D01*
X135543631Y-138664862D01*
X135613045Y-138651054D01*
X135900212Y-138593935D01*
X135900223Y-138593932D01*
X135900223Y-138593931D01*
X135900233Y-138593930D01*
X136248164Y-138488386D01*
X136584076Y-138349247D01*
X136904732Y-138177853D01*
X137207044Y-137975854D01*
X137488101Y-137745197D01*
X137745197Y-137488101D01*
X137975854Y-137207044D01*
X138177853Y-136904732D01*
X138349247Y-136584076D01*
X138488386Y-136248164D01*
X138593930Y-135900233D01*
X138593932Y-135900223D01*
X138593935Y-135900212D01*
X138664862Y-135543630D01*
X138670885Y-135482478D01*
X138700500Y-135181794D01*
X138700500Y-134818206D01*
X138664862Y-134456369D01*
X138660904Y-134436470D01*
X138593935Y-134099787D01*
X138593932Y-134099776D01*
X138593931Y-134099773D01*
X138593930Y-134099767D01*
X138488386Y-133751836D01*
X138349247Y-133415924D01*
X138177853Y-133095268D01*
X137975854Y-132792956D01*
X137745197Y-132511899D01*
X137745196Y-132511898D01*
X137745192Y-132511893D01*
X137488106Y-132254807D01*
X137207049Y-132024150D01*
X137207048Y-132024149D01*
X137207044Y-132024146D01*
X136904732Y-131822147D01*
X136904727Y-131822144D01*
X136904720Y-131822140D01*
X136584083Y-131650756D01*
X136584078Y-131650754D01*
X136248165Y-131511614D01*
X135900223Y-131406067D01*
X135900212Y-131406064D01*
X135543630Y-131335137D01*
X135271111Y-131308296D01*
X135181794Y-131299500D01*
X134818206Y-131299500D01*
X134735679Y-131307628D01*
X134456369Y-131335137D01*
X134099787Y-131406064D01*
X134099776Y-131406067D01*
X133751834Y-131511614D01*
X133415921Y-131650754D01*
X133415916Y-131650756D01*
X133095279Y-131822140D01*
X133095261Y-131822151D01*
X132792964Y-132024140D01*
X132792950Y-132024150D01*
X132511893Y-132254807D01*
X132254807Y-132511893D01*
X132024150Y-132792950D01*
X132024140Y-132792964D01*
X131822151Y-133095261D01*
X131822140Y-133095279D01*
X131650756Y-133415916D01*
X131650754Y-133415921D01*
X131511614Y-133751834D01*
X131406067Y-134099776D01*
X131406064Y-134099787D01*
X131335137Y-134456369D01*
X131313472Y-134676347D01*
X131299500Y-134818206D01*
X127979574Y-134818206D01*
X127977620Y-134808384D01*
X127977619Y-134808382D01*
X127977619Y-134808380D01*
X127922929Y-134676347D01*
X127922928Y-134676346D01*
X127922925Y-134676340D01*
X127843532Y-134557521D01*
X127843529Y-134557517D01*
X127742482Y-134456470D01*
X127742478Y-134456467D01*
X127623659Y-134377074D01*
X127623650Y-134377069D01*
X127491620Y-134322381D01*
X127491614Y-134322379D01*
X127351457Y-134294500D01*
X127351455Y-134294500D01*
X127208545Y-134294500D01*
X127208543Y-134294500D01*
X127068385Y-134322379D01*
X127068379Y-134322381D01*
X126936349Y-134377069D01*
X126936340Y-134377074D01*
X126817521Y-134456467D01*
X126817517Y-134456470D01*
X126716470Y-134557517D01*
X126716467Y-134557521D01*
X126637074Y-134676340D01*
X126637069Y-134676349D01*
X126582381Y-134808379D01*
X126582379Y-134808385D01*
X126554500Y-134948542D01*
X126554500Y-134948545D01*
X126554500Y-135091455D01*
X126554500Y-135091457D01*
X126554499Y-135091457D01*
X83371521Y-135091457D01*
X83375500Y-135071457D01*
X83375500Y-134928542D01*
X83347620Y-134788385D01*
X83347619Y-134788384D01*
X83347619Y-134788380D01*
X83292929Y-134656347D01*
X83292928Y-134656346D01*
X83292925Y-134656340D01*
X83213532Y-134537521D01*
X83213529Y-134537517D01*
X83112482Y-134436470D01*
X83112478Y-134436467D01*
X82993659Y-134357074D01*
X82993650Y-134357069D01*
X82861620Y-134302381D01*
X82861614Y-134302379D01*
X82721457Y-134274500D01*
X82721455Y-134274500D01*
X82578545Y-134274500D01*
X82578543Y-134274500D01*
X82438385Y-134302379D01*
X82438379Y-134302381D01*
X82306349Y-134357069D01*
X82306340Y-134357074D01*
X82187521Y-134436467D01*
X82187517Y-134436470D01*
X82086470Y-134537517D01*
X82086467Y-134537521D01*
X82007074Y-134656340D01*
X82007069Y-134656349D01*
X81952381Y-134788379D01*
X81952379Y-134788385D01*
X81924500Y-134928542D01*
X81924500Y-134928545D01*
X81924500Y-135071455D01*
X81924500Y-135071457D01*
X81924499Y-135071457D01*
X78700500Y-135071457D01*
X78700500Y-134818206D01*
X78664862Y-134456369D01*
X78660904Y-134436470D01*
X78593935Y-134099787D01*
X78593932Y-134099776D01*
X78593931Y-134099773D01*
X78593930Y-134099767D01*
X78488386Y-133751836D01*
X78349247Y-133415924D01*
X78177853Y-133095268D01*
X77975854Y-132792956D01*
X77745197Y-132511899D01*
X77745196Y-132511898D01*
X77745192Y-132511893D01*
X77488106Y-132254807D01*
X77207049Y-132024150D01*
X77207048Y-132024149D01*
X77207044Y-132024146D01*
X76904732Y-131822147D01*
X76904727Y-131822144D01*
X76904720Y-131822140D01*
X76584083Y-131650756D01*
X76584078Y-131650754D01*
X76248165Y-131511614D01*
X75900223Y-131406067D01*
X75900212Y-131406064D01*
X75543630Y-131335137D01*
X75271111Y-131308296D01*
X75181794Y-131299500D01*
X74818206Y-131299500D01*
X74735679Y-131307628D01*
X74456369Y-131335137D01*
X74099787Y-131406064D01*
X74099776Y-131406067D01*
X73751834Y-131511614D01*
X73415921Y-131650754D01*
X73415916Y-131650756D01*
X73095279Y-131822140D01*
X73095261Y-131822151D01*
X72792964Y-132024140D01*
X72792950Y-132024150D01*
X72511893Y-132254807D01*
X72254807Y-132511893D01*
X72024150Y-132792950D01*
X72024140Y-132792964D01*
X71822151Y-133095261D01*
X71822140Y-133095279D01*
X71650756Y-133415916D01*
X71650754Y-133415921D01*
X71511614Y-133751834D01*
X71406067Y-134099776D01*
X71406064Y-134099787D01*
X71335137Y-134456369D01*
X71313472Y-134676347D01*
X71299500Y-134818206D01*
X70075500Y-134818206D01*
X70075500Y-127422135D01*
X88964017Y-127422135D01*
X88964017Y-130117870D01*
X88964018Y-130117876D01*
X88970425Y-130177483D01*
X89020719Y-130312328D01*
X89020723Y-130312335D01*
X89106969Y-130427544D01*
X89106972Y-130427547D01*
X89222181Y-130513793D01*
X89222188Y-130513797D01*
X89357034Y-130564091D01*
X89357033Y-130564091D01*
X89363961Y-130564835D01*
X89416644Y-130570500D01*
X92112389Y-130570499D01*
X92172000Y-130564091D01*
X92306848Y-130513796D01*
X92422063Y-130427546D01*
X92508313Y-130312331D01*
X92558608Y-130177483D01*
X92565017Y-130117873D01*
X92565016Y-128651995D01*
X94044017Y-128651995D01*
X94044017Y-128888004D01*
X94044018Y-128888020D01*
X94074823Y-129122010D01*
X94135911Y-129349993D01*
X94226231Y-129568045D01*
X94226236Y-129568056D01*
X94297194Y-129690957D01*
X94344244Y-129772450D01*
X94344246Y-129772453D01*
X94344247Y-129772454D01*
X94487923Y-129959697D01*
X94487929Y-129959704D01*
X94654812Y-130126587D01*
X94654819Y-130126593D01*
X94764823Y-130211001D01*
X94842067Y-130270273D01*
X94914914Y-130312331D01*
X95046460Y-130388280D01*
X95046465Y-130388282D01*
X95046468Y-130388284D01*
X95264524Y-130478606D01*
X95492503Y-130539693D01*
X95726506Y-130570500D01*
X95726513Y-130570500D01*
X95962521Y-130570500D01*
X95962528Y-130570500D01*
X96196531Y-130539693D01*
X96424510Y-130478606D01*
X96642566Y-130388284D01*
X96846967Y-130270273D01*
X97034216Y-130126592D01*
X97201109Y-129959699D01*
X97344790Y-129772450D01*
X97462801Y-129568049D01*
X97553123Y-129349993D01*
X97614210Y-129122014D01*
X97645017Y-128888011D01*
X97645017Y-128651989D01*
X97614210Y-128417986D01*
X97553123Y-128190007D01*
X97462801Y-127971951D01*
X97462799Y-127971948D01*
X97462797Y-127971943D01*
X97420635Y-127898918D01*
X97344790Y-127767550D01*
X97201109Y-127580301D01*
X97201104Y-127580295D01*
X97042944Y-127422135D01*
X104479500Y-127422135D01*
X104479500Y-130117870D01*
X104479501Y-130117876D01*
X104485908Y-130177483D01*
X104536202Y-130312328D01*
X104536206Y-130312335D01*
X104622452Y-130427544D01*
X104622455Y-130427547D01*
X104737664Y-130513793D01*
X104737671Y-130513797D01*
X104872517Y-130564091D01*
X104872516Y-130564091D01*
X104879444Y-130564835D01*
X104932127Y-130570500D01*
X107627872Y-130570499D01*
X107687483Y-130564091D01*
X107822331Y-130513796D01*
X107937546Y-130427546D01*
X108023796Y-130312331D01*
X108074091Y-130177483D01*
X108080500Y-130117873D01*
X108080499Y-128651995D01*
X109559500Y-128651995D01*
X109559500Y-128888004D01*
X109559501Y-128888020D01*
X109590306Y-129122010D01*
X109651394Y-129349993D01*
X109741714Y-129568045D01*
X109741719Y-129568056D01*
X109812677Y-129690957D01*
X109859727Y-129772450D01*
X109859729Y-129772453D01*
X109859730Y-129772454D01*
X110003406Y-129959697D01*
X110003412Y-129959704D01*
X110170295Y-130126587D01*
X110170302Y-130126593D01*
X110280306Y-130211001D01*
X110357550Y-130270273D01*
X110430397Y-130312331D01*
X110561943Y-130388280D01*
X110561948Y-130388282D01*
X110561951Y-130388284D01*
X110780007Y-130478606D01*
X111007986Y-130539693D01*
X111241989Y-130570500D01*
X111241996Y-130570500D01*
X111478004Y-130570500D01*
X111478011Y-130570500D01*
X111712014Y-130539693D01*
X111939993Y-130478606D01*
X112158049Y-130388284D01*
X112362450Y-130270273D01*
X112549699Y-130126592D01*
X112716592Y-129959699D01*
X112860273Y-129772450D01*
X112978284Y-129568049D01*
X113068606Y-129349993D01*
X113129693Y-129122014D01*
X113160500Y-128888011D01*
X113160500Y-128651989D01*
X113129693Y-128417986D01*
X113068606Y-128190007D01*
X112978284Y-127971951D01*
X112978282Y-127971948D01*
X112978280Y-127971943D01*
X112936118Y-127898918D01*
X112860273Y-127767550D01*
X112716592Y-127580301D01*
X112716587Y-127580295D01*
X112558427Y-127422135D01*
X119089017Y-127422135D01*
X119089017Y-130117870D01*
X119089018Y-130117876D01*
X119095425Y-130177483D01*
X119145719Y-130312328D01*
X119145723Y-130312335D01*
X119231969Y-130427544D01*
X119231972Y-130427547D01*
X119347181Y-130513793D01*
X119347188Y-130513797D01*
X119482034Y-130564091D01*
X119482033Y-130564091D01*
X119488961Y-130564835D01*
X119541644Y-130570500D01*
X122237389Y-130570499D01*
X122297000Y-130564091D01*
X122431848Y-130513796D01*
X122547063Y-130427546D01*
X122633313Y-130312331D01*
X122683608Y-130177483D01*
X122690017Y-130117873D01*
X122690016Y-128651995D01*
X124169017Y-128651995D01*
X124169017Y-128888004D01*
X124169018Y-128888020D01*
X124199823Y-129122010D01*
X124260911Y-129349993D01*
X124351231Y-129568045D01*
X124351236Y-129568056D01*
X124422194Y-129690957D01*
X124469244Y-129772450D01*
X124469246Y-129772453D01*
X124469247Y-129772454D01*
X124612923Y-129959697D01*
X124612929Y-129959704D01*
X124779812Y-130126587D01*
X124779819Y-130126593D01*
X124889823Y-130211001D01*
X124967067Y-130270273D01*
X125039914Y-130312331D01*
X125171460Y-130388280D01*
X125171465Y-130388282D01*
X125171468Y-130388284D01*
X125389524Y-130478606D01*
X125617503Y-130539693D01*
X125851506Y-130570500D01*
X125851513Y-130570500D01*
X126087521Y-130570500D01*
X126087528Y-130570500D01*
X126321531Y-130539693D01*
X126549510Y-130478606D01*
X126767566Y-130388284D01*
X126971967Y-130270273D01*
X127159216Y-130126592D01*
X127326109Y-129959699D01*
X127469790Y-129772450D01*
X127587801Y-129568049D01*
X127678123Y-129349993D01*
X127739210Y-129122014D01*
X127770017Y-128888011D01*
X127770017Y-128651989D01*
X127739210Y-128417986D01*
X127678123Y-128190007D01*
X127587801Y-127971951D01*
X127587799Y-127971948D01*
X127587797Y-127971943D01*
X127545635Y-127898918D01*
X127469790Y-127767550D01*
X127326109Y-127580301D01*
X127326104Y-127580295D01*
X127159221Y-127413412D01*
X127159214Y-127413406D01*
X126971971Y-127269730D01*
X126971970Y-127269729D01*
X126971967Y-127269727D01*
X126890474Y-127222677D01*
X126767573Y-127151719D01*
X126767562Y-127151714D01*
X126549510Y-127061394D01*
X126418187Y-127026206D01*
X126321531Y-127000307D01*
X126321530Y-127000306D01*
X126321527Y-127000306D01*
X126087537Y-126969501D01*
X126087534Y-126969500D01*
X126087528Y-126969500D01*
X125851506Y-126969500D01*
X125851500Y-126969500D01*
X125851496Y-126969501D01*
X125617506Y-127000306D01*
X125389523Y-127061394D01*
X125171471Y-127151714D01*
X125171460Y-127151719D01*
X124967062Y-127269730D01*
X124779819Y-127413406D01*
X124779812Y-127413412D01*
X124612929Y-127580295D01*
X124612923Y-127580302D01*
X124469247Y-127767545D01*
X124351236Y-127971943D01*
X124351231Y-127971954D01*
X124260911Y-128190006D01*
X124199823Y-128417989D01*
X124169018Y-128651979D01*
X124169017Y-128651995D01*
X122690016Y-128651995D01*
X122690016Y-127422128D01*
X122683608Y-127362517D01*
X122633313Y-127227669D01*
X122633312Y-127227668D01*
X122633310Y-127227664D01*
X122547064Y-127112455D01*
X122547061Y-127112452D01*
X122431852Y-127026206D01*
X122431845Y-127026202D01*
X122296999Y-126975908D01*
X122297000Y-126975908D01*
X122237400Y-126969501D01*
X122237398Y-126969500D01*
X122237390Y-126969500D01*
X122237381Y-126969500D01*
X119541646Y-126969500D01*
X119541640Y-126969501D01*
X119482033Y-126975908D01*
X119347188Y-127026202D01*
X119347181Y-127026206D01*
X119231972Y-127112452D01*
X119231969Y-127112455D01*
X119145723Y-127227664D01*
X119145719Y-127227671D01*
X119095425Y-127362517D01*
X119089954Y-127413408D01*
X119089018Y-127422123D01*
X119089017Y-127422135D01*
X112558427Y-127422135D01*
X112549704Y-127413412D01*
X112549697Y-127413406D01*
X112362454Y-127269730D01*
X112362453Y-127269729D01*
X112362450Y-127269727D01*
X112280957Y-127222677D01*
X112158056Y-127151719D01*
X112158045Y-127151714D01*
X111939993Y-127061394D01*
X111808670Y-127026206D01*
X111712014Y-127000307D01*
X111712013Y-127000306D01*
X111712010Y-127000306D01*
X111478020Y-126969501D01*
X111478017Y-126969500D01*
X111478011Y-126969500D01*
X111241989Y-126969500D01*
X111241983Y-126969500D01*
X111241979Y-126969501D01*
X111007989Y-127000306D01*
X110780006Y-127061394D01*
X110561954Y-127151714D01*
X110561943Y-127151719D01*
X110357545Y-127269730D01*
X110170302Y-127413406D01*
X110170295Y-127413412D01*
X110003412Y-127580295D01*
X110003406Y-127580302D01*
X109859730Y-127767545D01*
X109741719Y-127971943D01*
X109741714Y-127971954D01*
X109651394Y-128190006D01*
X109590306Y-128417989D01*
X109559501Y-128651979D01*
X109559500Y-128651995D01*
X108080499Y-128651995D01*
X108080499Y-127422128D01*
X108074091Y-127362517D01*
X108023796Y-127227669D01*
X108023795Y-127227668D01*
X108023793Y-127227664D01*
X107937547Y-127112455D01*
X107937544Y-127112452D01*
X107822335Y-127026206D01*
X107822328Y-127026202D01*
X107687482Y-126975908D01*
X107687483Y-126975908D01*
X107627883Y-126969501D01*
X107627881Y-126969500D01*
X107627873Y-126969500D01*
X107627864Y-126969500D01*
X104932129Y-126969500D01*
X104932123Y-126969501D01*
X104872516Y-126975908D01*
X104737671Y-127026202D01*
X104737664Y-127026206D01*
X104622455Y-127112452D01*
X104622452Y-127112455D01*
X104536206Y-127227664D01*
X104536202Y-127227671D01*
X104485908Y-127362517D01*
X104480437Y-127413408D01*
X104479501Y-127422123D01*
X104479500Y-127422135D01*
X97042944Y-127422135D01*
X97034221Y-127413412D01*
X97034214Y-127413406D01*
X96846971Y-127269730D01*
X96846970Y-127269729D01*
X96846967Y-127269727D01*
X96765474Y-127222677D01*
X96642573Y-127151719D01*
X96642562Y-127151714D01*
X96424510Y-127061394D01*
X96293187Y-127026206D01*
X96196531Y-127000307D01*
X96196530Y-127000306D01*
X96196527Y-127000306D01*
X95962537Y-126969501D01*
X95962534Y-126969500D01*
X95962528Y-126969500D01*
X95726506Y-126969500D01*
X95726500Y-126969500D01*
X95726496Y-126969501D01*
X95492506Y-127000306D01*
X95264523Y-127061394D01*
X95046471Y-127151714D01*
X95046460Y-127151719D01*
X94842062Y-127269730D01*
X94654819Y-127413406D01*
X94654812Y-127413412D01*
X94487929Y-127580295D01*
X94487923Y-127580302D01*
X94344247Y-127767545D01*
X94226236Y-127971943D01*
X94226231Y-127971954D01*
X94135911Y-128190006D01*
X94074823Y-128417989D01*
X94044018Y-128651979D01*
X94044017Y-128651995D01*
X92565016Y-128651995D01*
X92565016Y-127422128D01*
X92558608Y-127362517D01*
X92508313Y-127227669D01*
X92508312Y-127227668D01*
X92508310Y-127227664D01*
X92422064Y-127112455D01*
X92422061Y-127112452D01*
X92306852Y-127026206D01*
X92306845Y-127026202D01*
X92171999Y-126975908D01*
X92172000Y-126975908D01*
X92112400Y-126969501D01*
X92112398Y-126969500D01*
X92112390Y-126969500D01*
X92112381Y-126969500D01*
X89416646Y-126969500D01*
X89416640Y-126969501D01*
X89357033Y-126975908D01*
X89222188Y-127026202D01*
X89222181Y-127026206D01*
X89106972Y-127112452D01*
X89106969Y-127112455D01*
X89020723Y-127227664D01*
X89020719Y-127227671D01*
X88970425Y-127362517D01*
X88964954Y-127413408D01*
X88964018Y-127422123D01*
X88964017Y-127422135D01*
X70075500Y-127422135D01*
X70075500Y-116981457D01*
X80594499Y-116981457D01*
X80622379Y-117121614D01*
X80622381Y-117121620D01*
X80677069Y-117253650D01*
X80677074Y-117253659D01*
X80756467Y-117372478D01*
X80756470Y-117372482D01*
X80857517Y-117473529D01*
X80857521Y-117473532D01*
X80976340Y-117552925D01*
X80976346Y-117552928D01*
X80976347Y-117552929D01*
X81108380Y-117607619D01*
X81108384Y-117607619D01*
X81108385Y-117607620D01*
X81248542Y-117635500D01*
X81248545Y-117635500D01*
X81391457Y-117635500D01*
X81485751Y-117616742D01*
X81531620Y-117607619D01*
X81663653Y-117552929D01*
X81782479Y-117473532D01*
X81883532Y-117372479D01*
X81962929Y-117253653D01*
X82017619Y-117121620D01*
X82045500Y-116981455D01*
X82045500Y-116838545D01*
X82045500Y-116838542D01*
X82017620Y-116698385D01*
X82017619Y-116698384D01*
X82017619Y-116698380D01*
X81962929Y-116566347D01*
X81962928Y-116566346D01*
X81962925Y-116566340D01*
X81886162Y-116451457D01*
X87404499Y-116451457D01*
X87432379Y-116591614D01*
X87432381Y-116591620D01*
X87487069Y-116723650D01*
X87487074Y-116723659D01*
X87566467Y-116842478D01*
X87566470Y-116842482D01*
X87667517Y-116943529D01*
X87667521Y-116943532D01*
X87786340Y-117022925D01*
X87786346Y-117022928D01*
X87786347Y-117022929D01*
X87918380Y-117077619D01*
X87918384Y-117077619D01*
X87918385Y-117077620D01*
X88058542Y-117105500D01*
X88058545Y-117105500D01*
X88201457Y-117105500D01*
X88295751Y-117086742D01*
X88341620Y-117077619D01*
X88473653Y-117022929D01*
X88592479Y-116943532D01*
X88693532Y-116842479D01*
X88772929Y-116723653D01*
X88827619Y-116591620D01*
X88855500Y-116451455D01*
X88855500Y-116308545D01*
X88855500Y-116308542D01*
X88827620Y-116168385D01*
X88827619Y-116168384D01*
X88827619Y-116168380D01*
X88772929Y-116036347D01*
X88772928Y-116036346D01*
X88772925Y-116036340D01*
X88693532Y-115917521D01*
X88693529Y-115917517D01*
X88592482Y-115816470D01*
X88592478Y-115816467D01*
X88473659Y-115737074D01*
X88473650Y-115737069D01*
X88341620Y-115682381D01*
X88341614Y-115682379D01*
X88201457Y-115654500D01*
X88201455Y-115654500D01*
X88058545Y-115654500D01*
X88058543Y-115654500D01*
X87918385Y-115682379D01*
X87918379Y-115682381D01*
X87786349Y-115737069D01*
X87786340Y-115737074D01*
X87667521Y-115816467D01*
X87667517Y-115816470D01*
X87566470Y-115917517D01*
X87566467Y-115917521D01*
X87487074Y-116036340D01*
X87487069Y-116036349D01*
X87432381Y-116168379D01*
X87432379Y-116168385D01*
X87404500Y-116308542D01*
X87404500Y-116308545D01*
X87404500Y-116451455D01*
X87404500Y-116451457D01*
X87404499Y-116451457D01*
X81886162Y-116451457D01*
X81883532Y-116447521D01*
X81883529Y-116447517D01*
X81782482Y-116346470D01*
X81782478Y-116346467D01*
X81663659Y-116267074D01*
X81663650Y-116267069D01*
X81531620Y-116212381D01*
X81531614Y-116212379D01*
X81391457Y-116184500D01*
X81391455Y-116184500D01*
X81248545Y-116184500D01*
X81248543Y-116184500D01*
X81108385Y-116212379D01*
X81108379Y-116212381D01*
X80976349Y-116267069D01*
X80976340Y-116267074D01*
X80857521Y-116346467D01*
X80857517Y-116346470D01*
X80756470Y-116447517D01*
X80756467Y-116447521D01*
X80677074Y-116566340D01*
X80677069Y-116566349D01*
X80622381Y-116698379D01*
X80622379Y-116698385D01*
X80594500Y-116838542D01*
X80594500Y-116838545D01*
X80594500Y-116981455D01*
X80594500Y-116981457D01*
X80594499Y-116981457D01*
X70075500Y-116981457D01*
X70075500Y-113035608D01*
X97344499Y-113035608D01*
X97372379Y-113175765D01*
X97372381Y-113175771D01*
X97427069Y-113307801D01*
X97427074Y-113307810D01*
X97506467Y-113426629D01*
X97506470Y-113426633D01*
X97607517Y-113527680D01*
X97607521Y-113527683D01*
X97726340Y-113607076D01*
X97726346Y-113607079D01*
X97726347Y-113607080D01*
X97858380Y-113661770D01*
X97858384Y-113661770D01*
X97858385Y-113661771D01*
X97998542Y-113689651D01*
X97998545Y-113689651D01*
X98141457Y-113689651D01*
X98235751Y-113670893D01*
X98281620Y-113661770D01*
X98413653Y-113607080D01*
X98532479Y-113527683D01*
X98633532Y-113426630D01*
X98712929Y-113307804D01*
X98767619Y-113175771D01*
X98772455Y-113151457D01*
X135194499Y-113151457D01*
X135222379Y-113291614D01*
X135222381Y-113291620D01*
X135277069Y-113423650D01*
X135277074Y-113423659D01*
X135356467Y-113542478D01*
X135356470Y-113542482D01*
X135457517Y-113643529D01*
X135457521Y-113643532D01*
X135576340Y-113722925D01*
X135576346Y-113722928D01*
X135576347Y-113722929D01*
X135708380Y-113777619D01*
X135708384Y-113777619D01*
X135708385Y-113777620D01*
X135848542Y-113805500D01*
X135848545Y-113805500D01*
X135991457Y-113805500D01*
X136085751Y-113786742D01*
X136131620Y-113777619D01*
X136263653Y-113722929D01*
X136382479Y-113643532D01*
X136483532Y-113542479D01*
X136562929Y-113423653D01*
X136617619Y-113291620D01*
X136640663Y-113175771D01*
X136645500Y-113151457D01*
X136645500Y-113008542D01*
X136617620Y-112868385D01*
X136617619Y-112868384D01*
X136617619Y-112868380D01*
X136575318Y-112766258D01*
X136562930Y-112736349D01*
X136562925Y-112736340D01*
X136483532Y-112617521D01*
X136483529Y-112617517D01*
X136382482Y-112516470D01*
X136382478Y-112516467D01*
X136263659Y-112437074D01*
X136263650Y-112437069D01*
X136131620Y-112382381D01*
X136131614Y-112382379D01*
X135991457Y-112354500D01*
X135991455Y-112354500D01*
X135848545Y-112354500D01*
X135848543Y-112354500D01*
X135708385Y-112382379D01*
X135708379Y-112382381D01*
X135576349Y-112437069D01*
X135576340Y-112437074D01*
X135457521Y-112516467D01*
X135457517Y-112516470D01*
X135356470Y-112617517D01*
X135356467Y-112617521D01*
X135277074Y-112736340D01*
X135277069Y-112736349D01*
X135222381Y-112868379D01*
X135222379Y-112868385D01*
X135194500Y-113008542D01*
X135194500Y-113008545D01*
X135194500Y-113151455D01*
X135194500Y-113151457D01*
X135194499Y-113151457D01*
X98772455Y-113151457D01*
X98795500Y-113035606D01*
X98795500Y-112892696D01*
X98795500Y-112892693D01*
X98767620Y-112752536D01*
X98767619Y-112752535D01*
X98767619Y-112752531D01*
X98712929Y-112620498D01*
X98712928Y-112620497D01*
X98712925Y-112620491D01*
X98633532Y-112501672D01*
X98633529Y-112501668D01*
X98532482Y-112400621D01*
X98532478Y-112400618D01*
X98413659Y-112321225D01*
X98413650Y-112321220D01*
X98281620Y-112266532D01*
X98281614Y-112266530D01*
X98141457Y-112238651D01*
X98141455Y-112238651D01*
X97998545Y-112238651D01*
X97998543Y-112238651D01*
X97858385Y-112266530D01*
X97858379Y-112266532D01*
X97726349Y-112321220D01*
X97726340Y-112321225D01*
X97607521Y-112400618D01*
X97607517Y-112400621D01*
X97506470Y-112501668D01*
X97506467Y-112501672D01*
X97427074Y-112620491D01*
X97427069Y-112620500D01*
X97372381Y-112752530D01*
X97372379Y-112752536D01*
X97344500Y-112892693D01*
X97344500Y-112892696D01*
X97344500Y-113035606D01*
X97344500Y-113035608D01*
X97344499Y-113035608D01*
X70075500Y-113035608D01*
X70075500Y-112371457D01*
X83534499Y-112371457D01*
X83562379Y-112511614D01*
X83562381Y-112511620D01*
X83617069Y-112643650D01*
X83617074Y-112643659D01*
X83696467Y-112762478D01*
X83696470Y-112762482D01*
X83797517Y-112863529D01*
X83797521Y-112863532D01*
X83916340Y-112942925D01*
X83916346Y-112942928D01*
X83916347Y-112942929D01*
X84048380Y-112997619D01*
X84048384Y-112997619D01*
X84048385Y-112997620D01*
X84188542Y-113025500D01*
X84188545Y-113025500D01*
X84331457Y-113025500D01*
X84425751Y-113006742D01*
X84471620Y-112997619D01*
X84603653Y-112942929D01*
X84722479Y-112863532D01*
X84722482Y-112863529D01*
X84787089Y-112798923D01*
X84823529Y-112762482D01*
X84823532Y-112762479D01*
X84902929Y-112643653D01*
X84957619Y-112511620D01*
X84977131Y-112413529D01*
X84985500Y-112371457D01*
X84985500Y-112228542D01*
X84957620Y-112088385D01*
X84957619Y-112088384D01*
X84957619Y-112088380D01*
X84902929Y-111956347D01*
X84902928Y-111956346D01*
X84902925Y-111956340D01*
X84879617Y-111921457D01*
X90534499Y-111921457D01*
X90562379Y-112061614D01*
X90562381Y-112061620D01*
X90617069Y-112193650D01*
X90617074Y-112193659D01*
X90696467Y-112312478D01*
X90696470Y-112312482D01*
X90797517Y-112413529D01*
X90797521Y-112413532D01*
X90916340Y-112492925D01*
X90916346Y-112492928D01*
X90916347Y-112492929D01*
X91048380Y-112547619D01*
X91048384Y-112547619D01*
X91048385Y-112547620D01*
X91188542Y-112575500D01*
X91188545Y-112575500D01*
X91331457Y-112575500D01*
X91425751Y-112556742D01*
X91471620Y-112547619D01*
X91603653Y-112492929D01*
X91722479Y-112413532D01*
X91823532Y-112312479D01*
X91902929Y-112193653D01*
X91957619Y-112061620D01*
X91978559Y-111956349D01*
X91985500Y-111921457D01*
X91985500Y-111778542D01*
X91957620Y-111638385D01*
X91957619Y-111638384D01*
X91957619Y-111638380D01*
X91902929Y-111506347D01*
X91902928Y-111506346D01*
X91902925Y-111506340D01*
X91823532Y-111387521D01*
X91823529Y-111387517D01*
X91722482Y-111286470D01*
X91722478Y-111286467D01*
X91603659Y-111207074D01*
X91603650Y-111207069D01*
X91471620Y-111152381D01*
X91471614Y-111152379D01*
X91331457Y-111124500D01*
X91331455Y-111124500D01*
X91188545Y-111124500D01*
X91188543Y-111124500D01*
X91048385Y-111152379D01*
X91048379Y-111152381D01*
X90916349Y-111207069D01*
X90916340Y-111207074D01*
X90797521Y-111286467D01*
X90797517Y-111286470D01*
X90696470Y-111387517D01*
X90696467Y-111387521D01*
X90617074Y-111506340D01*
X90617069Y-111506349D01*
X90562381Y-111638379D01*
X90562379Y-111638385D01*
X90534500Y-111778542D01*
X90534500Y-111778545D01*
X90534500Y-111921455D01*
X90534500Y-111921457D01*
X90534499Y-111921457D01*
X84879617Y-111921457D01*
X84826087Y-111841344D01*
X84823531Y-111837519D01*
X84722482Y-111736470D01*
X84722478Y-111736467D01*
X84603659Y-111657074D01*
X84603650Y-111657069D01*
X84471620Y-111602381D01*
X84471614Y-111602379D01*
X84331457Y-111574500D01*
X84331455Y-111574500D01*
X84188545Y-111574500D01*
X84188543Y-111574500D01*
X84048385Y-111602379D01*
X84048379Y-111602381D01*
X83916349Y-111657069D01*
X83916340Y-111657074D01*
X83797521Y-111736467D01*
X83797517Y-111736470D01*
X83696470Y-111837517D01*
X83696467Y-111837521D01*
X83617074Y-111956340D01*
X83617069Y-111956349D01*
X83562381Y-112088379D01*
X83562379Y-112088385D01*
X83534500Y-112228542D01*
X83534500Y-112228545D01*
X83534500Y-112371455D01*
X83534500Y-112371457D01*
X83534499Y-112371457D01*
X70075500Y-112371457D01*
X70075500Y-110671457D01*
X122074499Y-110671457D01*
X122102379Y-110811614D01*
X122102381Y-110811620D01*
X122157069Y-110943650D01*
X122157074Y-110943659D01*
X122236467Y-111062478D01*
X122236470Y-111062482D01*
X122337517Y-111163529D01*
X122337521Y-111163532D01*
X122456340Y-111242925D01*
X122456346Y-111242928D01*
X122456347Y-111242929D01*
X122588380Y-111297619D01*
X122588384Y-111297619D01*
X122588385Y-111297620D01*
X122728542Y-111325500D01*
X122728545Y-111325500D01*
X122871457Y-111325500D01*
X122965751Y-111306742D01*
X123011620Y-111297619D01*
X123143653Y-111242929D01*
X123262479Y-111163532D01*
X123363532Y-111062479D01*
X123442929Y-110943653D01*
X123497619Y-110811620D01*
X123525500Y-110671455D01*
X123525500Y-110528545D01*
X123525500Y-110528542D01*
X123497620Y-110388385D01*
X123497619Y-110388384D01*
X123497619Y-110388380D01*
X123494751Y-110381457D01*
X126484499Y-110381457D01*
X126512379Y-110521614D01*
X126512381Y-110521620D01*
X126567069Y-110653650D01*
X126567074Y-110653659D01*
X126646467Y-110772478D01*
X126646470Y-110772482D01*
X126747517Y-110873529D01*
X126747521Y-110873532D01*
X126866340Y-110952925D01*
X126866346Y-110952928D01*
X126866347Y-110952929D01*
X126998380Y-111007619D01*
X126998384Y-111007619D01*
X126998385Y-111007620D01*
X127138542Y-111035500D01*
X127138545Y-111035500D01*
X127281457Y-111035500D01*
X127375751Y-111016742D01*
X127421620Y-111007619D01*
X127553653Y-110952929D01*
X127672479Y-110873532D01*
X127773532Y-110772479D01*
X127852929Y-110653653D01*
X127907619Y-110521620D01*
X127935500Y-110381455D01*
X127935500Y-110238545D01*
X127935500Y-110238542D01*
X127907620Y-110098385D01*
X127907619Y-110098384D01*
X127907619Y-110098380D01*
X127852929Y-109966347D01*
X127852928Y-109966346D01*
X127852925Y-109966340D01*
X127773532Y-109847521D01*
X127773529Y-109847517D01*
X127672482Y-109746470D01*
X127672478Y-109746467D01*
X127553659Y-109667074D01*
X127553650Y-109667069D01*
X127421620Y-109612381D01*
X127421614Y-109612379D01*
X127281457Y-109584500D01*
X127281455Y-109584500D01*
X127138545Y-109584500D01*
X127138543Y-109584500D01*
X126998385Y-109612379D01*
X126998379Y-109612381D01*
X126866349Y-109667069D01*
X126866340Y-109667074D01*
X126747521Y-109746467D01*
X126747517Y-109746470D01*
X126646470Y-109847517D01*
X126646467Y-109847521D01*
X126567074Y-109966340D01*
X126567069Y-109966349D01*
X126512381Y-110098379D01*
X126512379Y-110098385D01*
X126484500Y-110238542D01*
X126484500Y-110238545D01*
X126484500Y-110381455D01*
X126484500Y-110381457D01*
X126484499Y-110381457D01*
X123494751Y-110381457D01*
X123442929Y-110256347D01*
X123442926Y-110256342D01*
X123442925Y-110256340D01*
X123363532Y-110137521D01*
X123363529Y-110137517D01*
X123262482Y-110036470D01*
X123262478Y-110036467D01*
X123143659Y-109957074D01*
X123143650Y-109957069D01*
X123011620Y-109902381D01*
X123011614Y-109902379D01*
X122871457Y-109874500D01*
X122871455Y-109874500D01*
X122728545Y-109874500D01*
X122728543Y-109874500D01*
X122588385Y-109902379D01*
X122588379Y-109902381D01*
X122456349Y-109957069D01*
X122456340Y-109957074D01*
X122337521Y-110036467D01*
X122337517Y-110036470D01*
X122236470Y-110137517D01*
X122236467Y-110137521D01*
X122157074Y-110256340D01*
X122157069Y-110256349D01*
X122102381Y-110388379D01*
X122102379Y-110388385D01*
X122074500Y-110528542D01*
X122074500Y-110528545D01*
X122074500Y-110671455D01*
X122074500Y-110671457D01*
X122074499Y-110671457D01*
X70075500Y-110671457D01*
X70075500Y-108846457D01*
X93684499Y-108846457D01*
X93712379Y-108986614D01*
X93712381Y-108986620D01*
X93767069Y-109118650D01*
X93767074Y-109118659D01*
X93846467Y-109237478D01*
X93846470Y-109237482D01*
X93947517Y-109338529D01*
X93947521Y-109338532D01*
X94066340Y-109417925D01*
X94066346Y-109417928D01*
X94066347Y-109417929D01*
X94198380Y-109472619D01*
X94198384Y-109472619D01*
X94198385Y-109472620D01*
X94338542Y-109500500D01*
X94338545Y-109500500D01*
X94481457Y-109500500D01*
X94575751Y-109481742D01*
X94621620Y-109472619D01*
X94753653Y-109417929D01*
X94872479Y-109338532D01*
X94973532Y-109237479D01*
X95052929Y-109118653D01*
X95107619Y-108986620D01*
X95115608Y-108946457D01*
X109204982Y-108946457D01*
X109232862Y-109086614D01*
X109232864Y-109086620D01*
X109287552Y-109218650D01*
X109287557Y-109218659D01*
X109366950Y-109337478D01*
X109366953Y-109337482D01*
X109468000Y-109438529D01*
X109468004Y-109438532D01*
X109586823Y-109517925D01*
X109586829Y-109517928D01*
X109586830Y-109517929D01*
X109718863Y-109572619D01*
X109718867Y-109572619D01*
X109718868Y-109572620D01*
X109859025Y-109600500D01*
X109859028Y-109600500D01*
X110001940Y-109600500D01*
X110096234Y-109581742D01*
X110142103Y-109572619D01*
X110274136Y-109517929D01*
X110392962Y-109438532D01*
X110494015Y-109337479D01*
X110573412Y-109218653D01*
X110628102Y-109086620D01*
X110654550Y-108953659D01*
X110655983Y-108946457D01*
X110655983Y-108803542D01*
X110628103Y-108663385D01*
X110628102Y-108663384D01*
X110628102Y-108663380D01*
X110623163Y-108651457D01*
X123719016Y-108651457D01*
X123746896Y-108791614D01*
X123746898Y-108791620D01*
X123801586Y-108923650D01*
X123801591Y-108923659D01*
X123880984Y-109042478D01*
X123880987Y-109042482D01*
X123982034Y-109143529D01*
X123982038Y-109143532D01*
X124100857Y-109222925D01*
X124100863Y-109222928D01*
X124100864Y-109222929D01*
X124232897Y-109277619D01*
X124232901Y-109277619D01*
X124232902Y-109277620D01*
X124373059Y-109305500D01*
X124373062Y-109305500D01*
X124515974Y-109305500D01*
X124610268Y-109286742D01*
X124656137Y-109277619D01*
X124788170Y-109222929D01*
X124906996Y-109143532D01*
X125008049Y-109042479D01*
X125087446Y-108923653D01*
X125142136Y-108791620D01*
X125151259Y-108745751D01*
X125164049Y-108681457D01*
X135184499Y-108681457D01*
X135212379Y-108821614D01*
X135212381Y-108821620D01*
X135267069Y-108953650D01*
X135267074Y-108953659D01*
X135346467Y-109072478D01*
X135346470Y-109072482D01*
X135447517Y-109173529D01*
X135447521Y-109173532D01*
X135566340Y-109252925D01*
X135566346Y-109252928D01*
X135566347Y-109252929D01*
X135698380Y-109307619D01*
X135698384Y-109307619D01*
X135698385Y-109307620D01*
X135838542Y-109335500D01*
X135838545Y-109335500D01*
X135981457Y-109335500D01*
X136075751Y-109316742D01*
X136121620Y-109307619D01*
X136253653Y-109252929D01*
X136372479Y-109173532D01*
X136473532Y-109072479D01*
X136552929Y-108953653D01*
X136607619Y-108821620D01*
X136635500Y-108681455D01*
X136635500Y-108538545D01*
X136635500Y-108538542D01*
X136607620Y-108398385D01*
X136607619Y-108398384D01*
X136607619Y-108398380D01*
X136552929Y-108266347D01*
X136552928Y-108266346D01*
X136552925Y-108266340D01*
X136473532Y-108147521D01*
X136473529Y-108147517D01*
X136372482Y-108046470D01*
X136372478Y-108046467D01*
X136253659Y-107967074D01*
X136253650Y-107967069D01*
X136121620Y-107912381D01*
X136121614Y-107912379D01*
X135981457Y-107884500D01*
X135981455Y-107884500D01*
X135838545Y-107884500D01*
X135838543Y-107884500D01*
X135698385Y-107912379D01*
X135698379Y-107912381D01*
X135566349Y-107967069D01*
X135566340Y-107967074D01*
X135447521Y-108046467D01*
X135447517Y-108046470D01*
X135346470Y-108147517D01*
X135346467Y-108147521D01*
X135267074Y-108266340D01*
X135267069Y-108266349D01*
X135212381Y-108398379D01*
X135212379Y-108398385D01*
X135184500Y-108538542D01*
X135184500Y-108538545D01*
X135184500Y-108681455D01*
X135184500Y-108681457D01*
X135184499Y-108681457D01*
X125164049Y-108681457D01*
X125170017Y-108651457D01*
X125170017Y-108508542D01*
X125142137Y-108368385D01*
X125142136Y-108368384D01*
X125142136Y-108368380D01*
X125087446Y-108236347D01*
X125087445Y-108236346D01*
X125087442Y-108236340D01*
X125008049Y-108117521D01*
X125008046Y-108117517D01*
X124906999Y-108016470D01*
X124906995Y-108016467D01*
X124788176Y-107937074D01*
X124788167Y-107937069D01*
X124656137Y-107882381D01*
X124656131Y-107882379D01*
X124515974Y-107854500D01*
X124515972Y-107854500D01*
X124373062Y-107854500D01*
X124373060Y-107854500D01*
X124232902Y-107882379D01*
X124232896Y-107882381D01*
X124100866Y-107937069D01*
X124100857Y-107937074D01*
X123982038Y-108016467D01*
X123982034Y-108016470D01*
X123880987Y-108117517D01*
X123880984Y-108117521D01*
X123801591Y-108236340D01*
X123801586Y-108236349D01*
X123746898Y-108368379D01*
X123746896Y-108368385D01*
X123719017Y-108508542D01*
X123719017Y-108508545D01*
X123719017Y-108651455D01*
X123719017Y-108651457D01*
X123719016Y-108651457D01*
X110623163Y-108651457D01*
X110581100Y-108549905D01*
X110581099Y-108549904D01*
X110573416Y-108531355D01*
X110573408Y-108531340D01*
X110494015Y-108412521D01*
X110494012Y-108412517D01*
X110392965Y-108311470D01*
X110392961Y-108311467D01*
X110274142Y-108232074D01*
X110274133Y-108232069D01*
X110142103Y-108177381D01*
X110142097Y-108177379D01*
X110001940Y-108149500D01*
X110001938Y-108149500D01*
X109859028Y-108149500D01*
X109859026Y-108149500D01*
X109718868Y-108177379D01*
X109718862Y-108177381D01*
X109586832Y-108232069D01*
X109586823Y-108232074D01*
X109468004Y-108311467D01*
X109468000Y-108311470D01*
X109366953Y-108412517D01*
X109366950Y-108412521D01*
X109287557Y-108531340D01*
X109287552Y-108531349D01*
X109232864Y-108663379D01*
X109232862Y-108663385D01*
X109204983Y-108803542D01*
X109204983Y-108803545D01*
X109204983Y-108946455D01*
X109204983Y-108946457D01*
X109204982Y-108946457D01*
X95115608Y-108946457D01*
X95135500Y-108846455D01*
X95135500Y-108703545D01*
X95135500Y-108703542D01*
X95107620Y-108563385D01*
X95107619Y-108563384D01*
X95107619Y-108563380D01*
X95052929Y-108431347D01*
X95052928Y-108431346D01*
X95052925Y-108431340D01*
X94973532Y-108312521D01*
X94973529Y-108312517D01*
X94872482Y-108211470D01*
X94872478Y-108211467D01*
X94753659Y-108132074D01*
X94753650Y-108132069D01*
X94621620Y-108077381D01*
X94621614Y-108077379D01*
X94481457Y-108049500D01*
X94481455Y-108049500D01*
X94338545Y-108049500D01*
X94338543Y-108049500D01*
X94198385Y-108077379D01*
X94198379Y-108077381D01*
X94066349Y-108132069D01*
X94066340Y-108132074D01*
X93947521Y-108211467D01*
X93947517Y-108211470D01*
X93846470Y-108312517D01*
X93846467Y-108312521D01*
X93767074Y-108431340D01*
X93767069Y-108431349D01*
X93712381Y-108563379D01*
X93712379Y-108563385D01*
X93684500Y-108703542D01*
X93684500Y-108703545D01*
X93684500Y-108846455D01*
X93684500Y-108846457D01*
X93684499Y-108846457D01*
X70075500Y-108846457D01*
X70075500Y-105681457D01*
X96954499Y-105681457D01*
X96982379Y-105821614D01*
X96982381Y-105821620D01*
X97037069Y-105953650D01*
X97037074Y-105953659D01*
X97116467Y-106072478D01*
X97116470Y-106072482D01*
X97217517Y-106173529D01*
X97217521Y-106173532D01*
X97336340Y-106252925D01*
X97336346Y-106252928D01*
X97336347Y-106252929D01*
X97468380Y-106307619D01*
X97468384Y-106307619D01*
X97468385Y-106307620D01*
X97608542Y-106335500D01*
X97608545Y-106335500D01*
X97751457Y-106335500D01*
X97845751Y-106316742D01*
X97891620Y-106307619D01*
X98023653Y-106252929D01*
X98142479Y-106173532D01*
X98243532Y-106072479D01*
X98322929Y-105953653D01*
X98377619Y-105821620D01*
X98405500Y-105681455D01*
X98405500Y-105538545D01*
X98405500Y-105538542D01*
X98377620Y-105398385D01*
X98377619Y-105398384D01*
X98377619Y-105398380D01*
X98322929Y-105266347D01*
X98322928Y-105266346D01*
X98322925Y-105266340D01*
X98243532Y-105147521D01*
X98243529Y-105147517D01*
X98142482Y-105046470D01*
X98142478Y-105046467D01*
X98023659Y-104967074D01*
X98023650Y-104967069D01*
X97891620Y-104912381D01*
X97891614Y-104912379D01*
X97751457Y-104884500D01*
X97751455Y-104884500D01*
X97608545Y-104884500D01*
X97608543Y-104884500D01*
X97468385Y-104912379D01*
X97468379Y-104912381D01*
X97336349Y-104967069D01*
X97336340Y-104967074D01*
X97217521Y-105046467D01*
X97217517Y-105046470D01*
X97116470Y-105147517D01*
X97116467Y-105147521D01*
X97037074Y-105266340D01*
X97037069Y-105266349D01*
X96982381Y-105398379D01*
X96982379Y-105398385D01*
X96954500Y-105538542D01*
X96954500Y-105538545D01*
X96954500Y-105681455D01*
X96954500Y-105681457D01*
X96954499Y-105681457D01*
X70075500Y-105681457D01*
X70075500Y-102796457D01*
X100049499Y-102796457D01*
X100077379Y-102936614D01*
X100077381Y-102936620D01*
X100132069Y-103068650D01*
X100132074Y-103068659D01*
X100211467Y-103187478D01*
X100211470Y-103187482D01*
X100312517Y-103288529D01*
X100312521Y-103288532D01*
X100431340Y-103367925D01*
X100431346Y-103367928D01*
X100431347Y-103367929D01*
X100563380Y-103422619D01*
X100563384Y-103422619D01*
X100563385Y-103422620D01*
X100703542Y-103450500D01*
X100703545Y-103450500D01*
X100846457Y-103450500D01*
X100940751Y-103431742D01*
X100986620Y-103422619D01*
X101118653Y-103367929D01*
X101237479Y-103288532D01*
X101338532Y-103187479D01*
X101417929Y-103068653D01*
X101472619Y-102936620D01*
X101485169Y-102873529D01*
X101500500Y-102796457D01*
X101500500Y-102653542D01*
X101472620Y-102513385D01*
X101472619Y-102513384D01*
X101472619Y-102513380D01*
X101417929Y-102381347D01*
X101417928Y-102381346D01*
X101417925Y-102381340D01*
X101344503Y-102271457D01*
X109384499Y-102271457D01*
X109412379Y-102411614D01*
X109412381Y-102411620D01*
X109467069Y-102543650D01*
X109467074Y-102543659D01*
X109546467Y-102662478D01*
X109546470Y-102662482D01*
X109647517Y-102763529D01*
X109647521Y-102763532D01*
X109766340Y-102842925D01*
X109766346Y-102842928D01*
X109766347Y-102842929D01*
X109898380Y-102897619D01*
X109898384Y-102897619D01*
X109898385Y-102897620D01*
X110038542Y-102925500D01*
X110038545Y-102925500D01*
X110181457Y-102925500D01*
X110275751Y-102906742D01*
X110321620Y-102897619D01*
X110453653Y-102842929D01*
X110572479Y-102763532D01*
X110673532Y-102662479D01*
X110752929Y-102543653D01*
X110807619Y-102411620D01*
X110835500Y-102271455D01*
X110835500Y-102128545D01*
X110835500Y-102128542D01*
X110807620Y-101988385D01*
X110807619Y-101988384D01*
X110807619Y-101988380D01*
X110752929Y-101856347D01*
X110752928Y-101856346D01*
X110752925Y-101856340D01*
X110673532Y-101737521D01*
X110673529Y-101737517D01*
X110647469Y-101711457D01*
X111954499Y-101711457D01*
X111982379Y-101851614D01*
X111982381Y-101851620D01*
X112037069Y-101983650D01*
X112037074Y-101983659D01*
X112116467Y-102102478D01*
X112120333Y-102107189D01*
X112118843Y-102108411D01*
X112148051Y-102161901D01*
X112143067Y-102231593D01*
X112129988Y-102257149D01*
X112077073Y-102336342D01*
X112077069Y-102336349D01*
X112022381Y-102468379D01*
X112022379Y-102468385D01*
X111994500Y-102608542D01*
X111994500Y-102608545D01*
X111994500Y-102751455D01*
X111994500Y-102751457D01*
X111994499Y-102751457D01*
X112022379Y-102891614D01*
X112022381Y-102891620D01*
X112077069Y-103023650D01*
X112077074Y-103023659D01*
X112156467Y-103142478D01*
X112156470Y-103142482D01*
X112257517Y-103243529D01*
X112257521Y-103243532D01*
X112376340Y-103322925D01*
X112376346Y-103322928D01*
X112376347Y-103322929D01*
X112508380Y-103377619D01*
X112508384Y-103377619D01*
X112508385Y-103377620D01*
X112648542Y-103405500D01*
X112648545Y-103405500D01*
X112791457Y-103405500D01*
X112885751Y-103386742D01*
X112931620Y-103377619D01*
X113063653Y-103322929D01*
X113182479Y-103243532D01*
X113283532Y-103142479D01*
X113362929Y-103023653D01*
X113417619Y-102891620D01*
X113427305Y-102842925D01*
X113445500Y-102751457D01*
X113445500Y-102608542D01*
X113417620Y-102468385D01*
X113417619Y-102468384D01*
X113417619Y-102468380D01*
X113381614Y-102381457D01*
X115334499Y-102381457D01*
X115362379Y-102521614D01*
X115362381Y-102521620D01*
X115417069Y-102653650D01*
X115417074Y-102653659D01*
X115496467Y-102772478D01*
X115496470Y-102772482D01*
X115597517Y-102873529D01*
X115597521Y-102873532D01*
X115716340Y-102952925D01*
X115716346Y-102952928D01*
X115716347Y-102952929D01*
X115848380Y-103007619D01*
X115848384Y-103007619D01*
X115848385Y-103007620D01*
X115988542Y-103035500D01*
X115988545Y-103035500D01*
X116131457Y-103035500D01*
X116225751Y-103016742D01*
X116271620Y-103007619D01*
X116403653Y-102952929D01*
X116522479Y-102873532D01*
X116623532Y-102772479D01*
X116702929Y-102653653D01*
X116757619Y-102521620D01*
X116784505Y-102386457D01*
X126569499Y-102386457D01*
X126597379Y-102526614D01*
X126597381Y-102526620D01*
X126652069Y-102658650D01*
X126652074Y-102658659D01*
X126731467Y-102777478D01*
X126731470Y-102777482D01*
X126832517Y-102878529D01*
X126832521Y-102878532D01*
X126951340Y-102957925D01*
X126951346Y-102957928D01*
X126951347Y-102957929D01*
X127083380Y-103012619D01*
X127083384Y-103012619D01*
X127083385Y-103012620D01*
X127223542Y-103040500D01*
X127223545Y-103040500D01*
X127366457Y-103040500D01*
X127460751Y-103021742D01*
X127506620Y-103012619D01*
X127638653Y-102957929D01*
X127757479Y-102878532D01*
X127858532Y-102777479D01*
X127937929Y-102658653D01*
X127992619Y-102526620D01*
X128010337Y-102437548D01*
X128020500Y-102386457D01*
X128020500Y-102243542D01*
X127992620Y-102103385D01*
X127992619Y-102103384D01*
X127992619Y-102103380D01*
X127937929Y-101971347D01*
X127937928Y-101971346D01*
X127937925Y-101971340D01*
X127858532Y-101852521D01*
X127858529Y-101852517D01*
X127757482Y-101751470D01*
X127757478Y-101751467D01*
X127638659Y-101672074D01*
X127638650Y-101672069D01*
X127506620Y-101617381D01*
X127506614Y-101617379D01*
X127366457Y-101589500D01*
X127366455Y-101589500D01*
X127223545Y-101589500D01*
X127223543Y-101589500D01*
X127083385Y-101617379D01*
X127083379Y-101617381D01*
X126951349Y-101672069D01*
X126951340Y-101672074D01*
X126832521Y-101751467D01*
X126832517Y-101751470D01*
X126731470Y-101852517D01*
X126731467Y-101852521D01*
X126652074Y-101971340D01*
X126652069Y-101971349D01*
X126597381Y-102103379D01*
X126597379Y-102103385D01*
X126569500Y-102243542D01*
X126569500Y-102243545D01*
X126569500Y-102386455D01*
X126569500Y-102386457D01*
X126569499Y-102386457D01*
X116784505Y-102386457D01*
X116785500Y-102381457D01*
X116785500Y-102238542D01*
X116757620Y-102098385D01*
X116757619Y-102098384D01*
X116757619Y-102098380D01*
X116712857Y-101990316D01*
X116702930Y-101966349D01*
X116702925Y-101966340D01*
X116623532Y-101847521D01*
X116623529Y-101847517D01*
X116522482Y-101746470D01*
X116522478Y-101746467D01*
X116403659Y-101667074D01*
X116403650Y-101667069D01*
X116271620Y-101612381D01*
X116271614Y-101612379D01*
X116131457Y-101584500D01*
X116131455Y-101584500D01*
X115988545Y-101584500D01*
X115988543Y-101584500D01*
X115848385Y-101612379D01*
X115848379Y-101612381D01*
X115716349Y-101667069D01*
X115716340Y-101667074D01*
X115597521Y-101746467D01*
X115597517Y-101746470D01*
X115496470Y-101847517D01*
X115496467Y-101847521D01*
X115417074Y-101966340D01*
X115417069Y-101966349D01*
X115362381Y-102098379D01*
X115362379Y-102098385D01*
X115334500Y-102238542D01*
X115334500Y-102238545D01*
X115334500Y-102381455D01*
X115334500Y-102381457D01*
X115334499Y-102381457D01*
X113381614Y-102381457D01*
X113362929Y-102336347D01*
X113347068Y-102312609D01*
X113340050Y-102302106D01*
X113340046Y-102302101D01*
X113283532Y-102217521D01*
X113277471Y-102211460D01*
X113271070Y-102202188D01*
X113263511Y-102179275D01*
X113251948Y-102158098D01*
X113252763Y-102146692D01*
X113249182Y-102135835D01*
X113255210Y-102112473D01*
X113256932Y-102088406D01*
X113265988Y-102070710D01*
X113266641Y-102068182D01*
X113267860Y-102067052D01*
X113270012Y-102062849D01*
X113322925Y-101983659D01*
X113322925Y-101983658D01*
X113322929Y-101983653D01*
X113377619Y-101851620D01*
X113387706Y-101800912D01*
X113405500Y-101711457D01*
X113405500Y-101568542D01*
X113377620Y-101428385D01*
X113377619Y-101428384D01*
X113377619Y-101428380D01*
X113322929Y-101296347D01*
X113322928Y-101296346D01*
X113322925Y-101296340D01*
X113243532Y-101177521D01*
X113243529Y-101177517D01*
X113142482Y-101076470D01*
X113142478Y-101076467D01*
X113023659Y-100997074D01*
X113023650Y-100997069D01*
X112891620Y-100942381D01*
X112891614Y-100942379D01*
X112751457Y-100914500D01*
X112751455Y-100914500D01*
X112608545Y-100914500D01*
X112608543Y-100914500D01*
X112468385Y-100942379D01*
X112468379Y-100942381D01*
X112336349Y-100997069D01*
X112336340Y-100997074D01*
X112217521Y-101076467D01*
X112217517Y-101076470D01*
X112116470Y-101177517D01*
X112116467Y-101177521D01*
X112037074Y-101296340D01*
X112037069Y-101296349D01*
X111982381Y-101428379D01*
X111982379Y-101428385D01*
X111954500Y-101568542D01*
X111954500Y-101568545D01*
X111954500Y-101711455D01*
X111954500Y-101711457D01*
X111954499Y-101711457D01*
X110647469Y-101711457D01*
X110572482Y-101636470D01*
X110572478Y-101636467D01*
X110453659Y-101557074D01*
X110453650Y-101557069D01*
X110321620Y-101502381D01*
X110321614Y-101502379D01*
X110181457Y-101474500D01*
X110181455Y-101474500D01*
X110038545Y-101474500D01*
X110038543Y-101474500D01*
X109898385Y-101502379D01*
X109898379Y-101502381D01*
X109766349Y-101557069D01*
X109766340Y-101557074D01*
X109647521Y-101636467D01*
X109647517Y-101636470D01*
X109546470Y-101737517D01*
X109546467Y-101737521D01*
X109467074Y-101856340D01*
X109467069Y-101856349D01*
X109412381Y-101988379D01*
X109412379Y-101988385D01*
X109384500Y-102128542D01*
X109384500Y-102128545D01*
X109384500Y-102271455D01*
X109384500Y-102271457D01*
X109384499Y-102271457D01*
X101344503Y-102271457D01*
X101338532Y-102262521D01*
X101338529Y-102262517D01*
X101237482Y-102161470D01*
X101237478Y-102161467D01*
X101118659Y-102082074D01*
X101118650Y-102082069D01*
X100986620Y-102027381D01*
X100986614Y-102027379D01*
X100846457Y-101999500D01*
X100846455Y-101999500D01*
X100703545Y-101999500D01*
X100703543Y-101999500D01*
X100563385Y-102027379D01*
X100563379Y-102027381D01*
X100431349Y-102082069D01*
X100431340Y-102082074D01*
X100312521Y-102161467D01*
X100312517Y-102161470D01*
X100211470Y-102262517D01*
X100211467Y-102262521D01*
X100132074Y-102381340D01*
X100132069Y-102381349D01*
X100077381Y-102513379D01*
X100077379Y-102513385D01*
X100049500Y-102653542D01*
X100049500Y-102653545D01*
X100049500Y-102796455D01*
X100049500Y-102796457D01*
X100049499Y-102796457D01*
X70075500Y-102796457D01*
X70075500Y-99661457D01*
X101614499Y-99661457D01*
X101642379Y-99801614D01*
X101642381Y-99801620D01*
X101697069Y-99933650D01*
X101697074Y-99933659D01*
X101776467Y-100052478D01*
X101776470Y-100052482D01*
X101877517Y-100153529D01*
X101877521Y-100153532D01*
X101996340Y-100232925D01*
X101996346Y-100232928D01*
X101996347Y-100232929D01*
X102128380Y-100287619D01*
X102128384Y-100287619D01*
X102128385Y-100287620D01*
X102268542Y-100315500D01*
X102268545Y-100315500D01*
X102411457Y-100315500D01*
X102505751Y-100296742D01*
X102551620Y-100287619D01*
X102683653Y-100232929D01*
X102802479Y-100153532D01*
X102903532Y-100052479D01*
X102982929Y-99933653D01*
X103037619Y-99801620D01*
X103065500Y-99661455D01*
X103065500Y-99518545D01*
X103065500Y-99518542D01*
X103037620Y-99378385D01*
X103037619Y-99378384D01*
X103037619Y-99378380D01*
X102982929Y-99246347D01*
X102982928Y-99246346D01*
X102982925Y-99246340D01*
X102903532Y-99127521D01*
X102903529Y-99127517D01*
X102802482Y-99026470D01*
X102802478Y-99026467D01*
X102683659Y-98947074D01*
X102683650Y-98947069D01*
X102551620Y-98892381D01*
X102551614Y-98892379D01*
X102411457Y-98864500D01*
X102411455Y-98864500D01*
X102268545Y-98864500D01*
X102268543Y-98864500D01*
X102128385Y-98892379D01*
X102128379Y-98892381D01*
X101996349Y-98947069D01*
X101996340Y-98947074D01*
X101877521Y-99026467D01*
X101877517Y-99026470D01*
X101776470Y-99127517D01*
X101776467Y-99127521D01*
X101697074Y-99246340D01*
X101697069Y-99246349D01*
X101642381Y-99378379D01*
X101642379Y-99378385D01*
X101614500Y-99518542D01*
X101614500Y-99518545D01*
X101614500Y-99661455D01*
X101614500Y-99661457D01*
X101614499Y-99661457D01*
X70075500Y-99661457D01*
X70075500Y-98856940D01*
X109709016Y-98856940D01*
X109736896Y-98997097D01*
X109736898Y-98997103D01*
X109791586Y-99129133D01*
X109791591Y-99129142D01*
X109870984Y-99247961D01*
X109870987Y-99247965D01*
X109972034Y-99349012D01*
X109972038Y-99349015D01*
X110090857Y-99428408D01*
X110090866Y-99428413D01*
X110120775Y-99440801D01*
X110222897Y-99483102D01*
X110222901Y-99483102D01*
X110222902Y-99483103D01*
X110363059Y-99510983D01*
X110363062Y-99510983D01*
X110505974Y-99510983D01*
X110600268Y-99492225D01*
X110646137Y-99483102D01*
X110778170Y-99428412D01*
X110896996Y-99349015D01*
X110998049Y-99247962D01*
X111075895Y-99131457D01*
X126254499Y-99131457D01*
X126282379Y-99271614D01*
X126282381Y-99271620D01*
X126337069Y-99403650D01*
X126337074Y-99403659D01*
X126416467Y-99522478D01*
X126416470Y-99522482D01*
X126517517Y-99623529D01*
X126517521Y-99623532D01*
X126636340Y-99702925D01*
X126636346Y-99702928D01*
X126636347Y-99702929D01*
X126768380Y-99757619D01*
X126768384Y-99757619D01*
X126768385Y-99757620D01*
X126908542Y-99785500D01*
X126908545Y-99785500D01*
X127051457Y-99785500D01*
X127145751Y-99766742D01*
X127191620Y-99757619D01*
X127323653Y-99702929D01*
X127442479Y-99623532D01*
X127543532Y-99522479D01*
X127622929Y-99403653D01*
X127677619Y-99271620D01*
X127705500Y-99131455D01*
X127705500Y-98988545D01*
X127705500Y-98988542D01*
X127677620Y-98848385D01*
X127677619Y-98848384D01*
X127677619Y-98848380D01*
X127622929Y-98716347D01*
X127622928Y-98716346D01*
X127622925Y-98716340D01*
X127543532Y-98597521D01*
X127543529Y-98597517D01*
X127442482Y-98496470D01*
X127442478Y-98496467D01*
X127323659Y-98417074D01*
X127323650Y-98417069D01*
X127191620Y-98362381D01*
X127191614Y-98362379D01*
X127051457Y-98334500D01*
X127051455Y-98334500D01*
X126908545Y-98334500D01*
X126908543Y-98334500D01*
X126768385Y-98362379D01*
X126768379Y-98362381D01*
X126636349Y-98417069D01*
X126636340Y-98417074D01*
X126517521Y-98496467D01*
X126517517Y-98496470D01*
X126416470Y-98597517D01*
X126416467Y-98597521D01*
X126337074Y-98716340D01*
X126337069Y-98716349D01*
X126282381Y-98848379D01*
X126282379Y-98848385D01*
X126254500Y-98988542D01*
X126254500Y-98988545D01*
X126254500Y-99131455D01*
X126254500Y-99131457D01*
X126254499Y-99131457D01*
X111075895Y-99131457D01*
X111077446Y-99129136D01*
X111132136Y-98997103D01*
X111133839Y-98988542D01*
X111139863Y-98958260D01*
X111139863Y-98958258D01*
X111160016Y-98856942D01*
X111160017Y-98856940D01*
X111160017Y-98714025D01*
X111132137Y-98573868D01*
X111132136Y-98573867D01*
X111132136Y-98573863D01*
X111077446Y-98441830D01*
X111077445Y-98441829D01*
X111077442Y-98441823D01*
X110998049Y-98323004D01*
X110998046Y-98323000D01*
X110896999Y-98221953D01*
X110896995Y-98221950D01*
X110778176Y-98142557D01*
X110778167Y-98142552D01*
X110646137Y-98087864D01*
X110646131Y-98087862D01*
X110505974Y-98059983D01*
X110505972Y-98059983D01*
X110363062Y-98059983D01*
X110363060Y-98059983D01*
X110222902Y-98087862D01*
X110222896Y-98087864D01*
X110090866Y-98142552D01*
X110090857Y-98142557D01*
X109972038Y-98221950D01*
X109972034Y-98221953D01*
X109870987Y-98323000D01*
X109870984Y-98323004D01*
X109791591Y-98441823D01*
X109791586Y-98441832D01*
X109736898Y-98573862D01*
X109736896Y-98573868D01*
X109709017Y-98714025D01*
X109709017Y-98714028D01*
X109709017Y-98856938D01*
X109709017Y-98856940D01*
X109709016Y-98856940D01*
X70075500Y-98856940D01*
X70075500Y-97946457D01*
X122129499Y-97946457D01*
X122157379Y-98086614D01*
X122157381Y-98086620D01*
X122212069Y-98218650D01*
X122212074Y-98218659D01*
X122291467Y-98337478D01*
X122291470Y-98337482D01*
X122392517Y-98438529D01*
X122392521Y-98438532D01*
X122511340Y-98517925D01*
X122511346Y-98517928D01*
X122511347Y-98517929D01*
X122643380Y-98572619D01*
X122643384Y-98572619D01*
X122643385Y-98572620D01*
X122783542Y-98600500D01*
X122783545Y-98600500D01*
X122926457Y-98600500D01*
X123020751Y-98581742D01*
X123066620Y-98572619D01*
X123198653Y-98517929D01*
X123317479Y-98438532D01*
X123418532Y-98337479D01*
X123497929Y-98218653D01*
X123533622Y-98132483D01*
X133164500Y-98132483D01*
X133164500Y-99432501D01*
X133164501Y-99432518D01*
X133175000Y-99535296D01*
X133175001Y-99535299D01*
X133204238Y-99623529D01*
X133230186Y-99701834D01*
X133322288Y-99851156D01*
X133446344Y-99975212D01*
X133571614Y-100052479D01*
X133601120Y-100070678D01*
X133647845Y-100122626D01*
X133659068Y-100191588D01*
X133631224Y-100255671D01*
X133623706Y-100263898D01*
X133484889Y-100402715D01*
X133359951Y-100574679D01*
X133263444Y-100764085D01*
X133197753Y-100966260D01*
X133164500Y-101176213D01*
X133164500Y-101388786D01*
X133192970Y-101568542D01*
X133197754Y-101598743D01*
X133247378Y-101751470D01*
X133263444Y-101800914D01*
X133359951Y-101990320D01*
X133484890Y-102162286D01*
X133635213Y-102312609D01*
X133807179Y-102437548D01*
X133807181Y-102437549D01*
X133807184Y-102437551D01*
X133996588Y-102534057D01*
X134198757Y-102599746D01*
X134408713Y-102633000D01*
X134408714Y-102633000D01*
X134921286Y-102633000D01*
X134921287Y-102633000D01*
X135131243Y-102599746D01*
X135333412Y-102534057D01*
X135522816Y-102437551D01*
X135558507Y-102411620D01*
X135694786Y-102312609D01*
X135694788Y-102312606D01*
X135694792Y-102312604D01*
X135845104Y-102162292D01*
X135845106Y-102162288D01*
X135845109Y-102162286D01*
X135970048Y-101990320D01*
X135970047Y-101990320D01*
X135970051Y-101990316D01*
X136066557Y-101800912D01*
X136132246Y-101598743D01*
X136165500Y-101388787D01*
X136165500Y-101176213D01*
X136132246Y-100966257D01*
X136066557Y-100764088D01*
X135970051Y-100574684D01*
X135970049Y-100574681D01*
X135970048Y-100574679D01*
X135845109Y-100402713D01*
X135706294Y-100263898D01*
X135672809Y-100202575D01*
X135677793Y-100132883D01*
X135719665Y-100076950D01*
X135728879Y-100070678D01*
X135734331Y-100067314D01*
X135734334Y-100067314D01*
X135883656Y-99975212D01*
X136007712Y-99851156D01*
X136099814Y-99701834D01*
X136154999Y-99535297D01*
X136165500Y-99432509D01*
X136165499Y-98132492D01*
X136154999Y-98029703D01*
X136099814Y-97863166D01*
X136007712Y-97713844D01*
X135883656Y-97589788D01*
X135788911Y-97531349D01*
X135734336Y-97497687D01*
X135734331Y-97497685D01*
X135732862Y-97497198D01*
X135567797Y-97442501D01*
X135567795Y-97442500D01*
X135465010Y-97432000D01*
X133864998Y-97432000D01*
X133864981Y-97432001D01*
X133762203Y-97442500D01*
X133762200Y-97442501D01*
X133595668Y-97497685D01*
X133595663Y-97497687D01*
X133446342Y-97589789D01*
X133322289Y-97713842D01*
X133230187Y-97863163D01*
X133230186Y-97863166D01*
X133175001Y-98029703D01*
X133175001Y-98029704D01*
X133175000Y-98029704D01*
X133164500Y-98132483D01*
X123533622Y-98132483D01*
X123552619Y-98086620D01*
X123561742Y-98040751D01*
X123580500Y-97946457D01*
X123580500Y-97803542D01*
X123552620Y-97663385D01*
X123552619Y-97663384D01*
X123552619Y-97663380D01*
X123497929Y-97531347D01*
X123497928Y-97531346D01*
X123497925Y-97531340D01*
X123418532Y-97412521D01*
X123418529Y-97412517D01*
X123317482Y-97311470D01*
X123317478Y-97311467D01*
X123198659Y-97232074D01*
X123198650Y-97232069D01*
X123066620Y-97177381D01*
X123066614Y-97177379D01*
X122926457Y-97149500D01*
X122926455Y-97149500D01*
X122783545Y-97149500D01*
X122783543Y-97149500D01*
X122643385Y-97177379D01*
X122643379Y-97177381D01*
X122511349Y-97232069D01*
X122511340Y-97232074D01*
X122392521Y-97311467D01*
X122392517Y-97311470D01*
X122291470Y-97412517D01*
X122291467Y-97412521D01*
X122212074Y-97531340D01*
X122212069Y-97531349D01*
X122157381Y-97663379D01*
X122157379Y-97663385D01*
X122129500Y-97803542D01*
X122129500Y-97803545D01*
X122129500Y-97946455D01*
X122129500Y-97946457D01*
X122129499Y-97946457D01*
X70075500Y-97946457D01*
X70075500Y-95511457D01*
X109854499Y-95511457D01*
X109882379Y-95651614D01*
X109882381Y-95651620D01*
X109937069Y-95783650D01*
X109937074Y-95783659D01*
X110016467Y-95902478D01*
X110016470Y-95902482D01*
X110117517Y-96003529D01*
X110117521Y-96003532D01*
X110236340Y-96082925D01*
X110236346Y-96082928D01*
X110236347Y-96082929D01*
X110368380Y-96137619D01*
X110368384Y-96137619D01*
X110368385Y-96137620D01*
X110508542Y-96165500D01*
X110508545Y-96165500D01*
X110651457Y-96165500D01*
X110745751Y-96146742D01*
X110791620Y-96137619D01*
X110923653Y-96082929D01*
X111042479Y-96003532D01*
X111143532Y-95902479D01*
X111222929Y-95783653D01*
X111277619Y-95651620D01*
X111305500Y-95511457D01*
X115484499Y-95511457D01*
X115512379Y-95651614D01*
X115512381Y-95651620D01*
X115567069Y-95783650D01*
X115567074Y-95783659D01*
X115646467Y-95902478D01*
X115646470Y-95902482D01*
X115747517Y-96003529D01*
X115747521Y-96003532D01*
X115866340Y-96082925D01*
X115866346Y-96082928D01*
X115866347Y-96082929D01*
X115998380Y-96137619D01*
X115998384Y-96137619D01*
X115998385Y-96137620D01*
X116138542Y-96165500D01*
X116138545Y-96165500D01*
X116281457Y-96165500D01*
X116375751Y-96146742D01*
X116421620Y-96137619D01*
X116553653Y-96082929D01*
X116672479Y-96003532D01*
X116773532Y-95902479D01*
X116852929Y-95783653D01*
X116907619Y-95651620D01*
X116935500Y-95511455D01*
X116935500Y-95368545D01*
X116935500Y-95368542D01*
X116907620Y-95228385D01*
X116907619Y-95228384D01*
X116907619Y-95228380D01*
X116852929Y-95096347D01*
X116852928Y-95096346D01*
X116852925Y-95096340D01*
X116773532Y-94977521D01*
X116773529Y-94977517D01*
X116672482Y-94876470D01*
X116672478Y-94876467D01*
X116553659Y-94797074D01*
X116553650Y-94797069D01*
X116421620Y-94742381D01*
X116421614Y-94742379D01*
X116281457Y-94714500D01*
X116281455Y-94714500D01*
X116138545Y-94714500D01*
X116138543Y-94714500D01*
X115998385Y-94742379D01*
X115998379Y-94742381D01*
X115866349Y-94797069D01*
X115866340Y-94797074D01*
X115747521Y-94876467D01*
X115747517Y-94876470D01*
X115646470Y-94977517D01*
X115646467Y-94977521D01*
X115567074Y-95096340D01*
X115567069Y-95096349D01*
X115512381Y-95228379D01*
X115512379Y-95228385D01*
X115484500Y-95368542D01*
X115484500Y-95368545D01*
X115484500Y-95511455D01*
X115484500Y-95511457D01*
X115484499Y-95511457D01*
X111305500Y-95511457D01*
X111305500Y-95511455D01*
X111305500Y-95368545D01*
X111305500Y-95368542D01*
X111277620Y-95228385D01*
X111277619Y-95228384D01*
X111277619Y-95228380D01*
X111222929Y-95096347D01*
X111222928Y-95096346D01*
X111222925Y-95096340D01*
X111143532Y-94977521D01*
X111143529Y-94977517D01*
X111042482Y-94876470D01*
X111042478Y-94876467D01*
X110923659Y-94797074D01*
X110923650Y-94797069D01*
X110791620Y-94742381D01*
X110791614Y-94742379D01*
X110651457Y-94714500D01*
X110651455Y-94714500D01*
X110508545Y-94714500D01*
X110508543Y-94714500D01*
X110368385Y-94742379D01*
X110368379Y-94742381D01*
X110236349Y-94797069D01*
X110236340Y-94797074D01*
X110117521Y-94876467D01*
X110117517Y-94876470D01*
X110016470Y-94977517D01*
X110016467Y-94977521D01*
X109937074Y-95096340D01*
X109937069Y-95096349D01*
X109882381Y-95228379D01*
X109882379Y-95228385D01*
X109854500Y-95368542D01*
X109854500Y-95368545D01*
X109854500Y-95511455D01*
X109854500Y-95511457D01*
X109854499Y-95511457D01*
X70075500Y-95511457D01*
X70075500Y-93971457D01*
X105644499Y-93971457D01*
X105672379Y-94111614D01*
X105672381Y-94111620D01*
X105727069Y-94243650D01*
X105727074Y-94243659D01*
X105806467Y-94362478D01*
X105806470Y-94362482D01*
X105907517Y-94463529D01*
X105907521Y-94463532D01*
X106026340Y-94542925D01*
X106026346Y-94542928D01*
X106026347Y-94542929D01*
X106158380Y-94597619D01*
X106158384Y-94597619D01*
X106158385Y-94597620D01*
X106298542Y-94625500D01*
X106298545Y-94625500D01*
X106441457Y-94625500D01*
X106535751Y-94606742D01*
X106581620Y-94597619D01*
X106644780Y-94571457D01*
X118034499Y-94571457D01*
X118062379Y-94711614D01*
X118062381Y-94711620D01*
X118117069Y-94843650D01*
X118117074Y-94843659D01*
X118196467Y-94962478D01*
X118196470Y-94962482D01*
X118297517Y-95063529D01*
X118297521Y-95063532D01*
X118416340Y-95142925D01*
X118416346Y-95142928D01*
X118416347Y-95142929D01*
X118548380Y-95197619D01*
X118548384Y-95197619D01*
X118548385Y-95197620D01*
X118688542Y-95225500D01*
X118688545Y-95225500D01*
X118831457Y-95225500D01*
X118925751Y-95206742D01*
X118971620Y-95197619D01*
X119103653Y-95142929D01*
X119222479Y-95063532D01*
X119323532Y-94962479D01*
X119402929Y-94843653D01*
X119457619Y-94711620D01*
X119474750Y-94625500D01*
X119485500Y-94571457D01*
X119485500Y-94428542D01*
X119457620Y-94288385D01*
X119457619Y-94288384D01*
X119457619Y-94288380D01*
X119402929Y-94156347D01*
X119402928Y-94156346D01*
X119402925Y-94156340D01*
X119323532Y-94037521D01*
X119323529Y-94037517D01*
X119222482Y-93936470D01*
X119222478Y-93936467D01*
X119103659Y-93857074D01*
X119103650Y-93857069D01*
X118971620Y-93802381D01*
X118971614Y-93802379D01*
X118831457Y-93774500D01*
X118831455Y-93774500D01*
X118688545Y-93774500D01*
X118688543Y-93774500D01*
X118548385Y-93802379D01*
X118548379Y-93802381D01*
X118416349Y-93857069D01*
X118416340Y-93857074D01*
X118297521Y-93936467D01*
X118297517Y-93936470D01*
X118196470Y-94037517D01*
X118196467Y-94037521D01*
X118117074Y-94156340D01*
X118117069Y-94156349D01*
X118062381Y-94288379D01*
X118062379Y-94288385D01*
X118034500Y-94428542D01*
X118034500Y-94428545D01*
X118034500Y-94571455D01*
X118034500Y-94571457D01*
X118034499Y-94571457D01*
X106644780Y-94571457D01*
X106713653Y-94542929D01*
X106832479Y-94463532D01*
X106933532Y-94362479D01*
X107012929Y-94243653D01*
X107067619Y-94111620D01*
X107079150Y-94053650D01*
X107095500Y-93971457D01*
X107095500Y-93828542D01*
X107086134Y-93781457D01*
X110774499Y-93781457D01*
X110802379Y-93921614D01*
X110802381Y-93921620D01*
X110857069Y-94053650D01*
X110857074Y-94053659D01*
X110936467Y-94172478D01*
X110936470Y-94172482D01*
X111037517Y-94273529D01*
X111037521Y-94273532D01*
X111156340Y-94352925D01*
X111156346Y-94352928D01*
X111156347Y-94352929D01*
X111288380Y-94407619D01*
X111288384Y-94407619D01*
X111288385Y-94407620D01*
X111428542Y-94435500D01*
X111428545Y-94435500D01*
X111571457Y-94435500D01*
X111665751Y-94416742D01*
X111711620Y-94407619D01*
X111843653Y-94352929D01*
X111843659Y-94352925D01*
X111893907Y-94319351D01*
X111940259Y-94288379D01*
X111962479Y-94273532D01*
X112063532Y-94172479D01*
X112142929Y-94053653D01*
X112197619Y-93921620D01*
X112216134Y-93828542D01*
X112225500Y-93781457D01*
X112225500Y-93638542D01*
X112197620Y-93498385D01*
X112197619Y-93498384D01*
X112197619Y-93498380D01*
X112142929Y-93366347D01*
X112142928Y-93366346D01*
X112142925Y-93366340D01*
X112063532Y-93247521D01*
X112063529Y-93247517D01*
X111962482Y-93146470D01*
X111962478Y-93146467D01*
X111843659Y-93067074D01*
X111843650Y-93067069D01*
X111711620Y-93012381D01*
X111711614Y-93012379D01*
X111571457Y-92984500D01*
X111571455Y-92984500D01*
X111428545Y-92984500D01*
X111428543Y-92984500D01*
X111288385Y-93012379D01*
X111288379Y-93012381D01*
X111156349Y-93067069D01*
X111156340Y-93067074D01*
X111037521Y-93146467D01*
X111037517Y-93146470D01*
X110936470Y-93247517D01*
X110936467Y-93247521D01*
X110857074Y-93366340D01*
X110857069Y-93366349D01*
X110802381Y-93498379D01*
X110802379Y-93498385D01*
X110774500Y-93638542D01*
X110774500Y-93638545D01*
X110774500Y-93781455D01*
X110774500Y-93781457D01*
X110774499Y-93781457D01*
X107086134Y-93781457D01*
X107067620Y-93688385D01*
X107067619Y-93688384D01*
X107067619Y-93688380D01*
X107012929Y-93556347D01*
X107012928Y-93556346D01*
X107012925Y-93556340D01*
X106933532Y-93437521D01*
X106933529Y-93437517D01*
X106832482Y-93336470D01*
X106832478Y-93336467D01*
X106713659Y-93257074D01*
X106713650Y-93257069D01*
X106581620Y-93202381D01*
X106581614Y-93202379D01*
X106441457Y-93174500D01*
X106441455Y-93174500D01*
X106298545Y-93174500D01*
X106298543Y-93174500D01*
X106158385Y-93202379D01*
X106158379Y-93202381D01*
X106026349Y-93257069D01*
X106026340Y-93257074D01*
X105907521Y-93336467D01*
X105907517Y-93336470D01*
X105806470Y-93437517D01*
X105806467Y-93437521D01*
X105727074Y-93556340D01*
X105727069Y-93556349D01*
X105672381Y-93688379D01*
X105672379Y-93688385D01*
X105644500Y-93828542D01*
X105644500Y-93828545D01*
X105644500Y-93971455D01*
X105644500Y-93971457D01*
X105644499Y-93971457D01*
X70075500Y-93971457D01*
X70075500Y-91551457D01*
X114764499Y-91551457D01*
X114792379Y-91691614D01*
X114792381Y-91691620D01*
X114847069Y-91823650D01*
X114847074Y-91823659D01*
X114926467Y-91942478D01*
X114926470Y-91942482D01*
X115027517Y-92043529D01*
X115027521Y-92043532D01*
X115146340Y-92122925D01*
X115146346Y-92122928D01*
X115146347Y-92122929D01*
X115278380Y-92177619D01*
X115278384Y-92177619D01*
X115278385Y-92177620D01*
X115418542Y-92205500D01*
X115418545Y-92205500D01*
X115561457Y-92205500D01*
X115655751Y-92186742D01*
X115701620Y-92177619D01*
X115833653Y-92122929D01*
X115952479Y-92043532D01*
X116053532Y-91942479D01*
X116132929Y-91823653D01*
X116187619Y-91691620D01*
X116215500Y-91551455D01*
X116215500Y-91408545D01*
X116215500Y-91408542D01*
X116187620Y-91268385D01*
X116187619Y-91268384D01*
X116187619Y-91268380D01*
X116137927Y-91148414D01*
X116132930Y-91136349D01*
X116132925Y-91136340D01*
X116053532Y-91017521D01*
X116053529Y-91017517D01*
X115952482Y-90916470D01*
X115952478Y-90916467D01*
X115833659Y-90837074D01*
X115833650Y-90837069D01*
X115701620Y-90782381D01*
X115701614Y-90782379D01*
X115561457Y-90754500D01*
X115561455Y-90754500D01*
X115418545Y-90754500D01*
X115418543Y-90754500D01*
X115278385Y-90782379D01*
X115278379Y-90782381D01*
X115146349Y-90837069D01*
X115146340Y-90837074D01*
X115027521Y-90916467D01*
X115027517Y-90916470D01*
X114926470Y-91017517D01*
X114926467Y-91017521D01*
X114847074Y-91136340D01*
X114847069Y-91136349D01*
X114792381Y-91268379D01*
X114792379Y-91268385D01*
X114764500Y-91408542D01*
X114764500Y-91408545D01*
X114764500Y-91551455D01*
X114764500Y-91551457D01*
X114764499Y-91551457D01*
X70075500Y-91551457D01*
X70075500Y-90551457D01*
X112564499Y-90551457D01*
X112592379Y-90691614D01*
X112592381Y-90691620D01*
X112647069Y-90823650D01*
X112647074Y-90823659D01*
X112726467Y-90942478D01*
X112726470Y-90942482D01*
X112827517Y-91043529D01*
X112827521Y-91043532D01*
X112946340Y-91122925D01*
X112946346Y-91122928D01*
X112946347Y-91122929D01*
X113078380Y-91177619D01*
X113078384Y-91177619D01*
X113078385Y-91177620D01*
X113218542Y-91205500D01*
X113218545Y-91205500D01*
X113361457Y-91205500D01*
X113455751Y-91186742D01*
X113501620Y-91177619D01*
X113633653Y-91122929D01*
X113752479Y-91043532D01*
X113853532Y-90942479D01*
X113932929Y-90823653D01*
X113987619Y-90691620D01*
X114015500Y-90551455D01*
X114015500Y-90408545D01*
X114015500Y-90408542D01*
X113987620Y-90268385D01*
X113987619Y-90268384D01*
X113987619Y-90268380D01*
X113932929Y-90136347D01*
X113932928Y-90136346D01*
X113932925Y-90136340D01*
X113853532Y-90017521D01*
X113853529Y-90017517D01*
X113752482Y-89916470D01*
X113752478Y-89916467D01*
X113633659Y-89837074D01*
X113633650Y-89837069D01*
X113501620Y-89782381D01*
X113501614Y-89782379D01*
X113361457Y-89754500D01*
X113361455Y-89754500D01*
X113218545Y-89754500D01*
X113218543Y-89754500D01*
X113078385Y-89782379D01*
X113078379Y-89782381D01*
X112946349Y-89837069D01*
X112946340Y-89837074D01*
X112827521Y-89916467D01*
X112827517Y-89916470D01*
X112726470Y-90017517D01*
X112726467Y-90017521D01*
X112647074Y-90136340D01*
X112647069Y-90136349D01*
X112592381Y-90268379D01*
X112592379Y-90268385D01*
X112564500Y-90408542D01*
X112564500Y-90408545D01*
X112564500Y-90551455D01*
X112564500Y-90551457D01*
X112564499Y-90551457D01*
X70075500Y-90551457D01*
X70075500Y-89071457D01*
X82749499Y-89071457D01*
X82777379Y-89211614D01*
X82777381Y-89211620D01*
X82832069Y-89343650D01*
X82832074Y-89343659D01*
X82911467Y-89462478D01*
X82911470Y-89462482D01*
X83012517Y-89563529D01*
X83012521Y-89563532D01*
X83131340Y-89642925D01*
X83131346Y-89642928D01*
X83131347Y-89642929D01*
X83263380Y-89697619D01*
X83263384Y-89697619D01*
X83263385Y-89697620D01*
X83403542Y-89725500D01*
X83403545Y-89725500D01*
X83546457Y-89725500D01*
X83640751Y-89706742D01*
X83686620Y-89697619D01*
X83818653Y-89642929D01*
X83937479Y-89563532D01*
X84038532Y-89462479D01*
X84117929Y-89343653D01*
X84172619Y-89211620D01*
X84200500Y-89071455D01*
X84200500Y-88928545D01*
X84200500Y-88928542D01*
X84172620Y-88788385D01*
X84172619Y-88788384D01*
X84172619Y-88788380D01*
X84117929Y-88656347D01*
X84117928Y-88656346D01*
X84117925Y-88656340D01*
X84038532Y-88537521D01*
X84038529Y-88537517D01*
X83937482Y-88436470D01*
X83937478Y-88436467D01*
X83818659Y-88357074D01*
X83818650Y-88357069D01*
X83686620Y-88302381D01*
X83686614Y-88302379D01*
X83546457Y-88274500D01*
X83546455Y-88274500D01*
X83403545Y-88274500D01*
X83403543Y-88274500D01*
X83263385Y-88302379D01*
X83263379Y-88302381D01*
X83131349Y-88357069D01*
X83131340Y-88357074D01*
X83012521Y-88436467D01*
X83012517Y-88436470D01*
X82911470Y-88537517D01*
X82911467Y-88537521D01*
X82832074Y-88656340D01*
X82832069Y-88656349D01*
X82777381Y-88788379D01*
X82777379Y-88788385D01*
X82749500Y-88928542D01*
X82749500Y-88928545D01*
X82749500Y-89071455D01*
X82749500Y-89071457D01*
X82749499Y-89071457D01*
X70075500Y-89071457D01*
X70075500Y-87196457D01*
X87624499Y-87196457D01*
X87652379Y-87336614D01*
X87652381Y-87336620D01*
X87707069Y-87468650D01*
X87707074Y-87468659D01*
X87786467Y-87587478D01*
X87786470Y-87587482D01*
X87887517Y-87688529D01*
X87887521Y-87688532D01*
X88006340Y-87767925D01*
X88006346Y-87767928D01*
X88006347Y-87767929D01*
X88138380Y-87822619D01*
X88138384Y-87822619D01*
X88138385Y-87822620D01*
X88278542Y-87850500D01*
X88278545Y-87850500D01*
X88421457Y-87850500D01*
X88515751Y-87831742D01*
X88561620Y-87822619D01*
X88693653Y-87767929D01*
X88812479Y-87688532D01*
X88913532Y-87587479D01*
X88985359Y-87479983D01*
X133164500Y-87479983D01*
X133164500Y-88780001D01*
X133164501Y-88780018D01*
X133175000Y-88882796D01*
X133175001Y-88882799D01*
X133230185Y-89049331D01*
X133230187Y-89049336D01*
X133322289Y-89198657D01*
X133446344Y-89322712D01*
X133601120Y-89418178D01*
X133647845Y-89470126D01*
X133659068Y-89539088D01*
X133631224Y-89603171D01*
X133623706Y-89611398D01*
X133484889Y-89750215D01*
X133359951Y-89922179D01*
X133263444Y-90111585D01*
X133197753Y-90313760D01*
X133164500Y-90523713D01*
X133164500Y-90736286D01*
X133197157Y-90942479D01*
X133197754Y-90946243D01*
X133259523Y-91136349D01*
X133263444Y-91148414D01*
X133359951Y-91337820D01*
X133484890Y-91509786D01*
X133635213Y-91660109D01*
X133807179Y-91785048D01*
X133807181Y-91785049D01*
X133807184Y-91785051D01*
X133996588Y-91881557D01*
X134198757Y-91947246D01*
X134408713Y-91980500D01*
X134408714Y-91980500D01*
X134921286Y-91980500D01*
X134921287Y-91980500D01*
X135131243Y-91947246D01*
X135333412Y-91881557D01*
X135522816Y-91785051D01*
X135651414Y-91691620D01*
X135694786Y-91660109D01*
X135694788Y-91660106D01*
X135694792Y-91660104D01*
X135845104Y-91509792D01*
X135845106Y-91509788D01*
X135845109Y-91509786D01*
X135970048Y-91337820D01*
X135970047Y-91337820D01*
X135970051Y-91337816D01*
X136066557Y-91148412D01*
X136132246Y-90946243D01*
X136165500Y-90736287D01*
X136165500Y-90523713D01*
X136132246Y-90313757D01*
X136066557Y-90111588D01*
X135970051Y-89922184D01*
X135970049Y-89922181D01*
X135970048Y-89922179D01*
X135845109Y-89750213D01*
X135706294Y-89611398D01*
X135672809Y-89550075D01*
X135677793Y-89480383D01*
X135719665Y-89424450D01*
X135728879Y-89418178D01*
X135734331Y-89414814D01*
X135734334Y-89414814D01*
X135883656Y-89322712D01*
X136007712Y-89198656D01*
X136099814Y-89049334D01*
X136154999Y-88882797D01*
X136165500Y-88780009D01*
X136165499Y-87479992D01*
X136164340Y-87468650D01*
X136154999Y-87377203D01*
X136154998Y-87377200D01*
X136141549Y-87336614D01*
X136099814Y-87210666D01*
X136007712Y-87061344D01*
X135883656Y-86937288D01*
X135734334Y-86845186D01*
X135567797Y-86790001D01*
X135567795Y-86790000D01*
X135465010Y-86779500D01*
X133864998Y-86779500D01*
X133864981Y-86779501D01*
X133762203Y-86790000D01*
X133762200Y-86790001D01*
X133595668Y-86845185D01*
X133595663Y-86845187D01*
X133446342Y-86937289D01*
X133322289Y-87061342D01*
X133230187Y-87210663D01*
X133230186Y-87210666D01*
X133175001Y-87377203D01*
X133175001Y-87377204D01*
X133175000Y-87377204D01*
X133164500Y-87479983D01*
X88985359Y-87479983D01*
X88992929Y-87468653D01*
X89047619Y-87336620D01*
X89072673Y-87210668D01*
X89075500Y-87196457D01*
X89075500Y-87053542D01*
X89047620Y-86913385D01*
X89047619Y-86913384D01*
X89047619Y-86913380D01*
X88992929Y-86781347D01*
X88992928Y-86781346D01*
X88992925Y-86781340D01*
X88913532Y-86662521D01*
X88913529Y-86662517D01*
X88812482Y-86561470D01*
X88812478Y-86561467D01*
X88693659Y-86482074D01*
X88693650Y-86482069D01*
X88561620Y-86427381D01*
X88561614Y-86427379D01*
X88421457Y-86399500D01*
X88421455Y-86399500D01*
X88278545Y-86399500D01*
X88278543Y-86399500D01*
X88138385Y-86427379D01*
X88138379Y-86427381D01*
X88006349Y-86482069D01*
X88006340Y-86482074D01*
X87887521Y-86561467D01*
X87887517Y-86561470D01*
X87786470Y-86662517D01*
X87786467Y-86662521D01*
X87707074Y-86781340D01*
X87707069Y-86781349D01*
X87652381Y-86913379D01*
X87652379Y-86913385D01*
X87624500Y-87053542D01*
X87624500Y-87053545D01*
X87624500Y-87196455D01*
X87624500Y-87196457D01*
X87624499Y-87196457D01*
X70075500Y-87196457D01*
X70075500Y-86171457D01*
X91874499Y-86171457D01*
X91902379Y-86311614D01*
X91902381Y-86311620D01*
X91957069Y-86443650D01*
X91957074Y-86443659D01*
X92036467Y-86562478D01*
X92036470Y-86562482D01*
X92137517Y-86663529D01*
X92137521Y-86663532D01*
X92256340Y-86742925D01*
X92256346Y-86742928D01*
X92256347Y-86742929D01*
X92388380Y-86797619D01*
X92388384Y-86797619D01*
X92388385Y-86797620D01*
X92528542Y-86825500D01*
X92528545Y-86825500D01*
X92671457Y-86825500D01*
X92765751Y-86806742D01*
X92811620Y-86797619D01*
X92943653Y-86742929D01*
X93062479Y-86663532D01*
X93163532Y-86562479D01*
X93242929Y-86443653D01*
X93262478Y-86396457D01*
X95499499Y-86396457D01*
X95527379Y-86536614D01*
X95527381Y-86536620D01*
X95582069Y-86668650D01*
X95582074Y-86668659D01*
X95661467Y-86787478D01*
X95661470Y-86787482D01*
X95762517Y-86888529D01*
X95762521Y-86888532D01*
X95881340Y-86967925D01*
X95881346Y-86967928D01*
X95881347Y-86967929D01*
X96013380Y-87022619D01*
X96013384Y-87022619D01*
X96013385Y-87022620D01*
X96153542Y-87050500D01*
X96153545Y-87050500D01*
X96296457Y-87050500D01*
X96390751Y-87031742D01*
X96436620Y-87022619D01*
X96568653Y-86967929D01*
X96687479Y-86888532D01*
X96788532Y-86787479D01*
X96867929Y-86668653D01*
X96922619Y-86536620D01*
X96933470Y-86482069D01*
X96950500Y-86396457D01*
X96950500Y-86253542D01*
X96922620Y-86113385D01*
X96922619Y-86113384D01*
X96922619Y-86113380D01*
X96867929Y-85981347D01*
X96867928Y-85981346D01*
X96867925Y-85981340D01*
X96788532Y-85862521D01*
X96788529Y-85862517D01*
X96687482Y-85761470D01*
X96687478Y-85761467D01*
X96568659Y-85682074D01*
X96568650Y-85682069D01*
X96436620Y-85627381D01*
X96436614Y-85627379D01*
X96296457Y-85599500D01*
X96296455Y-85599500D01*
X96153545Y-85599500D01*
X96153543Y-85599500D01*
X96013385Y-85627379D01*
X96013379Y-85627381D01*
X95881349Y-85682069D01*
X95881340Y-85682074D01*
X95762521Y-85761467D01*
X95762517Y-85761470D01*
X95661470Y-85862517D01*
X95661467Y-85862521D01*
X95582074Y-85981340D01*
X95582069Y-85981349D01*
X95527381Y-86113379D01*
X95527379Y-86113385D01*
X95499500Y-86253542D01*
X95499500Y-86253545D01*
X95499500Y-86396455D01*
X95499500Y-86396457D01*
X95499499Y-86396457D01*
X93262478Y-86396457D01*
X93297619Y-86311620D01*
X93325500Y-86171455D01*
X93325500Y-86028545D01*
X93325500Y-86028542D01*
X93297620Y-85888385D01*
X93297619Y-85888384D01*
X93297619Y-85888380D01*
X93242929Y-85756347D01*
X93242928Y-85756346D01*
X93242925Y-85756340D01*
X93163532Y-85637521D01*
X93163529Y-85637517D01*
X93062482Y-85536470D01*
X93062478Y-85536467D01*
X92943659Y-85457074D01*
X92943650Y-85457069D01*
X92811620Y-85402381D01*
X92811614Y-85402379D01*
X92671457Y-85374500D01*
X92671455Y-85374500D01*
X92528545Y-85374500D01*
X92528543Y-85374500D01*
X92388385Y-85402379D01*
X92388379Y-85402381D01*
X92256349Y-85457069D01*
X92256340Y-85457074D01*
X92137521Y-85536467D01*
X92137517Y-85536470D01*
X92036470Y-85637517D01*
X92036467Y-85637521D01*
X91957074Y-85756340D01*
X91957069Y-85756349D01*
X91902381Y-85888379D01*
X91902379Y-85888385D01*
X91874500Y-86028542D01*
X91874500Y-86028545D01*
X91874500Y-86171455D01*
X91874500Y-86171457D01*
X91874499Y-86171457D01*
X70075500Y-86171457D01*
X70075500Y-82701457D01*
X74294499Y-82701457D01*
X74322379Y-82841614D01*
X74322381Y-82841620D01*
X74377069Y-82973650D01*
X74377074Y-82973659D01*
X74456467Y-83092478D01*
X74456470Y-83092482D01*
X74557517Y-83193529D01*
X74557521Y-83193532D01*
X74676340Y-83272925D01*
X74676346Y-83272928D01*
X74676347Y-83272929D01*
X74808380Y-83327619D01*
X74808384Y-83327619D01*
X74808385Y-83327620D01*
X74948542Y-83355500D01*
X74948545Y-83355500D01*
X75091457Y-83355500D01*
X75185751Y-83336742D01*
X75231620Y-83327619D01*
X75363653Y-83272929D01*
X75482479Y-83193532D01*
X75504554Y-83171457D01*
X83624499Y-83171457D01*
X83652379Y-83311614D01*
X83652381Y-83311620D01*
X83707069Y-83443650D01*
X83707074Y-83443659D01*
X83786467Y-83562478D01*
X83786470Y-83562482D01*
X83887517Y-83663529D01*
X83887521Y-83663532D01*
X84006340Y-83742925D01*
X84006346Y-83742928D01*
X84006347Y-83742929D01*
X84138380Y-83797619D01*
X84138384Y-83797619D01*
X84138385Y-83797620D01*
X84278542Y-83825500D01*
X84278545Y-83825500D01*
X84421457Y-83825500D01*
X84515751Y-83806742D01*
X84561620Y-83797619D01*
X84693653Y-83742929D01*
X84812479Y-83663532D01*
X84913532Y-83562479D01*
X84992929Y-83443653D01*
X85047619Y-83311620D01*
X85075500Y-83171455D01*
X85075500Y-83028545D01*
X85075500Y-83028542D01*
X85047620Y-82888385D01*
X85047619Y-82888384D01*
X85047619Y-82888380D01*
X85009543Y-82796457D01*
X91199499Y-82796457D01*
X91227379Y-82936614D01*
X91227381Y-82936620D01*
X91282069Y-83068650D01*
X91282074Y-83068659D01*
X91361467Y-83187478D01*
X91361470Y-83187482D01*
X91462517Y-83288529D01*
X91462521Y-83288532D01*
X91581340Y-83367925D01*
X91581346Y-83367928D01*
X91581347Y-83367929D01*
X91713380Y-83422619D01*
X91713384Y-83422619D01*
X91713385Y-83422620D01*
X91853542Y-83450500D01*
X91853545Y-83450500D01*
X91996457Y-83450500D01*
X92090751Y-83431742D01*
X92136620Y-83422619D01*
X92268653Y-83367929D01*
X92387479Y-83288532D01*
X92488532Y-83187479D01*
X92499238Y-83171457D01*
X134274499Y-83171457D01*
X134302379Y-83311614D01*
X134302381Y-83311620D01*
X134357069Y-83443650D01*
X134357074Y-83443659D01*
X134436467Y-83562478D01*
X134436470Y-83562482D01*
X134537517Y-83663529D01*
X134537521Y-83663532D01*
X134656340Y-83742925D01*
X134656346Y-83742928D01*
X134656347Y-83742929D01*
X134788380Y-83797619D01*
X134788384Y-83797619D01*
X134788385Y-83797620D01*
X134928542Y-83825500D01*
X134928545Y-83825500D01*
X135071457Y-83825500D01*
X135165751Y-83806742D01*
X135211620Y-83797619D01*
X135343653Y-83742929D01*
X135462479Y-83663532D01*
X135563532Y-83562479D01*
X135642929Y-83443653D01*
X135697619Y-83311620D01*
X135725500Y-83171455D01*
X135725500Y-83028545D01*
X135725500Y-83028542D01*
X135697620Y-82888385D01*
X135697619Y-82888384D01*
X135697619Y-82888380D01*
X135642929Y-82756347D01*
X135642928Y-82756346D01*
X135642925Y-82756340D01*
X135563532Y-82637521D01*
X135563529Y-82637517D01*
X135462482Y-82536470D01*
X135462478Y-82536467D01*
X135343659Y-82457074D01*
X135343650Y-82457069D01*
X135211620Y-82402381D01*
X135211614Y-82402379D01*
X135071457Y-82374500D01*
X135071455Y-82374500D01*
X134928545Y-82374500D01*
X134928543Y-82374500D01*
X134788385Y-82402379D01*
X134788379Y-82402381D01*
X134656349Y-82457069D01*
X134656340Y-82457074D01*
X134537521Y-82536467D01*
X134537517Y-82536470D01*
X134436470Y-82637517D01*
X134436467Y-82637521D01*
X134357074Y-82756340D01*
X134357069Y-82756349D01*
X134302381Y-82888379D01*
X134302379Y-82888385D01*
X134274500Y-83028542D01*
X134274500Y-83028545D01*
X134274500Y-83171455D01*
X134274500Y-83171457D01*
X134274499Y-83171457D01*
X92499238Y-83171457D01*
X92567929Y-83068653D01*
X92622619Y-82936620D01*
X92650500Y-82796455D01*
X92650500Y-82653545D01*
X92650500Y-82653542D01*
X92622620Y-82513385D01*
X92622619Y-82513384D01*
X92622619Y-82513380D01*
X92567929Y-82381347D01*
X92567928Y-82381346D01*
X92567925Y-82381340D01*
X92488532Y-82262521D01*
X92488529Y-82262517D01*
X92387482Y-82161470D01*
X92387478Y-82161467D01*
X92268659Y-82082074D01*
X92268650Y-82082069D01*
X92170603Y-82041457D01*
X110064499Y-82041457D01*
X110092379Y-82181614D01*
X110092381Y-82181620D01*
X110147069Y-82313650D01*
X110147074Y-82313659D01*
X110226467Y-82432478D01*
X110226470Y-82432482D01*
X110327517Y-82533529D01*
X110327521Y-82533532D01*
X110446340Y-82612925D01*
X110446346Y-82612928D01*
X110446347Y-82612929D01*
X110578380Y-82667619D01*
X110578384Y-82667619D01*
X110578385Y-82667620D01*
X110718542Y-82695500D01*
X110718545Y-82695500D01*
X110861457Y-82695500D01*
X110955751Y-82676742D01*
X111001620Y-82667619D01*
X111133653Y-82612929D01*
X111252479Y-82533532D01*
X111353532Y-82432479D01*
X111432929Y-82313653D01*
X111487619Y-82181620D01*
X111515500Y-82041455D01*
X111515500Y-81898545D01*
X111515500Y-81898542D01*
X111487620Y-81758385D01*
X111487619Y-81758384D01*
X111487619Y-81758380D01*
X111432929Y-81626347D01*
X111432928Y-81626346D01*
X111432925Y-81626340D01*
X111353532Y-81507521D01*
X111353529Y-81507517D01*
X111252482Y-81406470D01*
X111252478Y-81406467D01*
X111133659Y-81327074D01*
X111133650Y-81327069D01*
X111001620Y-81272381D01*
X111001614Y-81272379D01*
X110861457Y-81244500D01*
X110861455Y-81244500D01*
X110718545Y-81244500D01*
X110718543Y-81244500D01*
X110578385Y-81272379D01*
X110578379Y-81272381D01*
X110446349Y-81327069D01*
X110446340Y-81327074D01*
X110327521Y-81406467D01*
X110327517Y-81406470D01*
X110226470Y-81507517D01*
X110226467Y-81507521D01*
X110147074Y-81626340D01*
X110147069Y-81626349D01*
X110092381Y-81758379D01*
X110092379Y-81758385D01*
X110064500Y-81898542D01*
X110064500Y-81898545D01*
X110064500Y-82041455D01*
X110064500Y-82041457D01*
X110064499Y-82041457D01*
X92170603Y-82041457D01*
X92136620Y-82027381D01*
X92136614Y-82027379D01*
X91996457Y-81999500D01*
X91996455Y-81999500D01*
X91853545Y-81999500D01*
X91853543Y-81999500D01*
X91713385Y-82027379D01*
X91713379Y-82027381D01*
X91581349Y-82082069D01*
X91581340Y-82082074D01*
X91462521Y-82161467D01*
X91462517Y-82161470D01*
X91361470Y-82262517D01*
X91361467Y-82262521D01*
X91282074Y-82381340D01*
X91282069Y-82381349D01*
X91227381Y-82513379D01*
X91227379Y-82513385D01*
X91199500Y-82653542D01*
X91199500Y-82653545D01*
X91199500Y-82796455D01*
X91199500Y-82796457D01*
X91199499Y-82796457D01*
X85009543Y-82796457D01*
X84992929Y-82756347D01*
X84933643Y-82667619D01*
X84913532Y-82637520D01*
X84812482Y-82536470D01*
X84812478Y-82536467D01*
X84693659Y-82457074D01*
X84693650Y-82457069D01*
X84561620Y-82402381D01*
X84561614Y-82402379D01*
X84421457Y-82374500D01*
X84421455Y-82374500D01*
X84278545Y-82374500D01*
X84278543Y-82374500D01*
X84138385Y-82402379D01*
X84138379Y-82402381D01*
X84006349Y-82457069D01*
X84006340Y-82457074D01*
X83887521Y-82536467D01*
X83887517Y-82536470D01*
X83786470Y-82637517D01*
X83786467Y-82637521D01*
X83707074Y-82756340D01*
X83707069Y-82756349D01*
X83652381Y-82888379D01*
X83652379Y-82888385D01*
X83624500Y-83028542D01*
X83624500Y-83028545D01*
X83624500Y-83171455D01*
X83624500Y-83171457D01*
X83624499Y-83171457D01*
X75504554Y-83171457D01*
X75583532Y-83092479D01*
X75662929Y-82973653D01*
X75717619Y-82841620D01*
X75745500Y-82701455D01*
X75745500Y-82558545D01*
X75745500Y-82558542D01*
X75717620Y-82418385D01*
X75717619Y-82418384D01*
X75717619Y-82418380D01*
X75662929Y-82286347D01*
X75662928Y-82286346D01*
X75662925Y-82286340D01*
X75583532Y-82167521D01*
X75583529Y-82167517D01*
X75482482Y-82066470D01*
X75482478Y-82066467D01*
X75363659Y-81987074D01*
X75363650Y-81987069D01*
X75231620Y-81932381D01*
X75231614Y-81932379D01*
X75091457Y-81904500D01*
X75091455Y-81904500D01*
X74948545Y-81904500D01*
X74948543Y-81904500D01*
X74808385Y-81932379D01*
X74808379Y-81932381D01*
X74676349Y-81987069D01*
X74676340Y-81987074D01*
X74557521Y-82066467D01*
X74557517Y-82066470D01*
X74456470Y-82167517D01*
X74456467Y-82167521D01*
X74377074Y-82286340D01*
X74377069Y-82286349D01*
X74322381Y-82418379D01*
X74322379Y-82418385D01*
X74294500Y-82558542D01*
X74294500Y-82558545D01*
X74294500Y-82701455D01*
X74294500Y-82701457D01*
X74294499Y-82701457D01*
X70075500Y-82701457D01*
X70075500Y-81321457D01*
X97324499Y-81321457D01*
X97352379Y-81461614D01*
X97352381Y-81461620D01*
X97407069Y-81593650D01*
X97407074Y-81593659D01*
X97486467Y-81712478D01*
X97486470Y-81712482D01*
X97587517Y-81813529D01*
X97587521Y-81813532D01*
X97706340Y-81892925D01*
X97706346Y-81892928D01*
X97706347Y-81892929D01*
X97838380Y-81947619D01*
X97838384Y-81947619D01*
X97838385Y-81947620D01*
X97978542Y-81975500D01*
X97978545Y-81975500D01*
X98121457Y-81975500D01*
X98215751Y-81956742D01*
X98261620Y-81947619D01*
X98393653Y-81892929D01*
X98512479Y-81813532D01*
X98512482Y-81813529D01*
X98521240Y-81804772D01*
X98613529Y-81712482D01*
X98613532Y-81712479D01*
X98692929Y-81593653D01*
X98747619Y-81461620D01*
X98758590Y-81406467D01*
X98775500Y-81321457D01*
X98775500Y-81178542D01*
X98747620Y-81038385D01*
X98747619Y-81038384D01*
X98747619Y-81038380D01*
X98692929Y-80906347D01*
X98692928Y-80906346D01*
X98692925Y-80906340D01*
X98613532Y-80787521D01*
X98613529Y-80787517D01*
X98512482Y-80686470D01*
X98512478Y-80686467D01*
X98393659Y-80607074D01*
X98393650Y-80607069D01*
X98261620Y-80552381D01*
X98261614Y-80552379D01*
X98121457Y-80524500D01*
X98121455Y-80524500D01*
X97978545Y-80524500D01*
X97978543Y-80524500D01*
X97838385Y-80552379D01*
X97838379Y-80552381D01*
X97706349Y-80607069D01*
X97706340Y-80607074D01*
X97587521Y-80686467D01*
X97587517Y-80686470D01*
X97486470Y-80787517D01*
X97486467Y-80787521D01*
X97407074Y-80906340D01*
X97407069Y-80906349D01*
X97352381Y-81038379D01*
X97352379Y-81038385D01*
X97324500Y-81178542D01*
X97324500Y-81178545D01*
X97324500Y-81321455D01*
X97324500Y-81321457D01*
X97324499Y-81321457D01*
X70075500Y-81321457D01*
X70075500Y-75002706D01*
X70075618Y-74997297D01*
X70083437Y-74818209D01*
X71299500Y-74818209D01*
X71299500Y-75181790D01*
X71335137Y-75543630D01*
X71406064Y-75900212D01*
X71406067Y-75900223D01*
X71511614Y-76248165D01*
X71650754Y-76584078D01*
X71650756Y-76584083D01*
X71822140Y-76904720D01*
X71822151Y-76904738D01*
X72024140Y-77207035D01*
X72024150Y-77207049D01*
X72254807Y-77488106D01*
X72511893Y-77745192D01*
X72511898Y-77745196D01*
X72511899Y-77745197D01*
X72792956Y-77975854D01*
X73095268Y-78177853D01*
X73095277Y-78177858D01*
X73095279Y-78177859D01*
X73415916Y-78349243D01*
X73415918Y-78349243D01*
X73415924Y-78349247D01*
X73751836Y-78488386D01*
X74099767Y-78593930D01*
X74099773Y-78593931D01*
X74099776Y-78593932D01*
X74099787Y-78593935D01*
X74456369Y-78664862D01*
X74818206Y-78700500D01*
X74818209Y-78700500D01*
X75181791Y-78700500D01*
X75181794Y-78700500D01*
X75543631Y-78664862D01*
X75613045Y-78651054D01*
X75900212Y-78593935D01*
X75900223Y-78593932D01*
X75900223Y-78593931D01*
X75900233Y-78593930D01*
X76248164Y-78488386D01*
X76584076Y-78349247D01*
X76904732Y-78177853D01*
X77207044Y-77975854D01*
X77488101Y-77745197D01*
X77745197Y-77488101D01*
X77975854Y-77207044D01*
X78177853Y-76904732D01*
X78349247Y-76584076D01*
X78488386Y-76248164D01*
X78526822Y-76121457D01*
X82924499Y-76121457D01*
X82952379Y-76261614D01*
X82952381Y-76261620D01*
X83007069Y-76393650D01*
X83007074Y-76393659D01*
X83086467Y-76512478D01*
X83086470Y-76512482D01*
X83187517Y-76613529D01*
X83187521Y-76613532D01*
X83306340Y-76692925D01*
X83306349Y-76692930D01*
X83307998Y-76693613D01*
X83438380Y-76747619D01*
X83438384Y-76747619D01*
X83438385Y-76747620D01*
X83578542Y-76775500D01*
X83578545Y-76775500D01*
X83721457Y-76775500D01*
X83843808Y-76751162D01*
X83913400Y-76757389D01*
X83968577Y-76800251D01*
X83991822Y-76866141D01*
X83992000Y-76872779D01*
X83992000Y-77200015D01*
X84002500Y-77302795D01*
X84002501Y-77302796D01*
X84057686Y-77469335D01*
X84057687Y-77469337D01*
X84149786Y-77618651D01*
X84149789Y-77618655D01*
X84273844Y-77742710D01*
X84273848Y-77742713D01*
X84423162Y-77834812D01*
X84423164Y-77834813D01*
X84423166Y-77834814D01*
X84589703Y-77889999D01*
X84692492Y-77900500D01*
X85028712Y-77900500D01*
X85095751Y-77920185D01*
X85141506Y-77972989D01*
X85151450Y-78042147D01*
X85150329Y-78048691D01*
X85124500Y-78178540D01*
X85124500Y-78178545D01*
X85124500Y-78321455D01*
X85124500Y-78321457D01*
X85124499Y-78321457D01*
X85152379Y-78461614D01*
X85152381Y-78461620D01*
X85207069Y-78593650D01*
X85207074Y-78593659D01*
X85286467Y-78712478D01*
X85286470Y-78712482D01*
X85387517Y-78813529D01*
X85387521Y-78813532D01*
X85506340Y-78892925D01*
X85506346Y-78892928D01*
X85506347Y-78892929D01*
X85638380Y-78947619D01*
X85638384Y-78947619D01*
X85638385Y-78947620D01*
X85778542Y-78975500D01*
X85778545Y-78975500D01*
X85921457Y-78975500D01*
X86015751Y-78956742D01*
X86061620Y-78947619D01*
X86193653Y-78892929D01*
X86312479Y-78813532D01*
X86413532Y-78712479D01*
X86492929Y-78593653D01*
X86547619Y-78461620D01*
X86574832Y-78324814D01*
X86575500Y-78321457D01*
X86575500Y-78178542D01*
X86575499Y-78178540D01*
X86549671Y-78048691D01*
X86555898Y-77979100D01*
X86598761Y-77923922D01*
X86664651Y-77900678D01*
X86671288Y-77900500D01*
X86970500Y-77900500D01*
X87037539Y-77920185D01*
X87083294Y-77972989D01*
X87094500Y-78024500D01*
X87094500Y-78976000D01*
X87094501Y-78976009D01*
X87106052Y-79083450D01*
X87106054Y-79083462D01*
X87117260Y-79134972D01*
X87151383Y-79237497D01*
X87151386Y-79237503D01*
X87229171Y-79358537D01*
X87229179Y-79358548D01*
X87274923Y-79411340D01*
X87274926Y-79411343D01*
X87274930Y-79411347D01*
X87383664Y-79505567D01*
X87383667Y-79505568D01*
X87383668Y-79505569D01*
X87499329Y-79558391D01*
X87514541Y-79565338D01*
X87581580Y-79585023D01*
X87581584Y-79585024D01*
X87724000Y-79605500D01*
X87724003Y-79605500D01*
X92413530Y-79605500D01*
X92413541Y-79605500D01*
X92458593Y-79603488D01*
X92480609Y-79601518D01*
X92525305Y-79595499D01*
X92661823Y-79550063D01*
X92724302Y-79518789D01*
X92724303Y-79518788D01*
X92842490Y-79436731D01*
X92886442Y-79382188D01*
X92895698Y-79374422D01*
X92917075Y-79365065D01*
X92936244Y-79351756D01*
X92950376Y-79350491D01*
X92959706Y-79346408D01*
X92972726Y-79348491D01*
X92993048Y-79346672D01*
X93124000Y-79365500D01*
X98486012Y-79365500D01*
X98553051Y-79385185D01*
X98598806Y-79437989D01*
X98608750Y-79507147D01*
X98589114Y-79558391D01*
X98557074Y-79606341D01*
X98557069Y-79606349D01*
X98502381Y-79738379D01*
X98502379Y-79738385D01*
X98474500Y-79878542D01*
X98474500Y-79878545D01*
X98474500Y-80021455D01*
X98474500Y-80021457D01*
X98474499Y-80021457D01*
X98502379Y-80161614D01*
X98502381Y-80161620D01*
X98557069Y-80293650D01*
X98557074Y-80293659D01*
X98636467Y-80412478D01*
X98636470Y-80412482D01*
X98737517Y-80513529D01*
X98737521Y-80513532D01*
X98856340Y-80592925D01*
X98856346Y-80592928D01*
X98856347Y-80592929D01*
X98988380Y-80647619D01*
X98988384Y-80647619D01*
X98988385Y-80647620D01*
X99128542Y-80675500D01*
X99128545Y-80675500D01*
X99271457Y-80675500D01*
X99365751Y-80656742D01*
X99411620Y-80647619D01*
X99543653Y-80592929D01*
X99662479Y-80513532D01*
X99763532Y-80412479D01*
X99842929Y-80293653D01*
X99897619Y-80161620D01*
X99925500Y-80021455D01*
X99925500Y-79878545D01*
X99925500Y-79878542D01*
X99897620Y-79738385D01*
X99897619Y-79738384D01*
X99897619Y-79738380D01*
X99842929Y-79606347D01*
X99835681Y-79595499D01*
X99810886Y-79558391D01*
X99790008Y-79491714D01*
X99808492Y-79424334D01*
X99860471Y-79377643D01*
X99913988Y-79365500D01*
X105715990Y-79365500D01*
X105716000Y-79365500D01*
X105823456Y-79353947D01*
X105874967Y-79342741D01*
X105914617Y-79329544D01*
X105977497Y-79308616D01*
X105977501Y-79308613D01*
X105977504Y-79308613D01*
X106098543Y-79230825D01*
X106151347Y-79185070D01*
X106245567Y-79076336D01*
X106305338Y-78945459D01*
X106325023Y-78878420D01*
X106325024Y-78878416D01*
X106345500Y-78736000D01*
X106345500Y-75171902D01*
X109289500Y-75171902D01*
X109289500Y-77008097D01*
X109326446Y-77241368D01*
X109399433Y-77465996D01*
X109506657Y-77676433D01*
X109645483Y-77867510D01*
X109812490Y-78034517D01*
X110003567Y-78173343D01*
X110013771Y-78178542D01*
X110214003Y-78280566D01*
X110214005Y-78280566D01*
X110214008Y-78280568D01*
X110334412Y-78319689D01*
X110438631Y-78353553D01*
X110671903Y-78390500D01*
X110671908Y-78390500D01*
X110908097Y-78390500D01*
X111141368Y-78353553D01*
X111154620Y-78349247D01*
X111365992Y-78280568D01*
X111576433Y-78173343D01*
X111767510Y-78034517D01*
X111934517Y-77867510D01*
X112073343Y-77676433D01*
X112180568Y-77465992D01*
X112253553Y-77241368D01*
X112260104Y-77200008D01*
X112290500Y-77008097D01*
X112290500Y-76201457D01*
X115614499Y-76201457D01*
X115642379Y-76341614D01*
X115642381Y-76341620D01*
X115697069Y-76473650D01*
X115697074Y-76473659D01*
X115776467Y-76592478D01*
X115776470Y-76592482D01*
X115877517Y-76693529D01*
X115877521Y-76693532D01*
X115996340Y-76772925D01*
X115996346Y-76772928D01*
X115996347Y-76772929D01*
X116128380Y-76827619D01*
X116128384Y-76827619D01*
X116128385Y-76827620D01*
X116268542Y-76855500D01*
X116268545Y-76855500D01*
X116411457Y-76855500D01*
X116505751Y-76836742D01*
X116551620Y-76827619D01*
X116618050Y-76800102D01*
X116687515Y-76792634D01*
X116749995Y-76823908D01*
X116785648Y-76883997D01*
X116789500Y-76914664D01*
X116789500Y-77008097D01*
X116826446Y-77241368D01*
X116899433Y-77465996D01*
X117006657Y-77676433D01*
X117145483Y-77867510D01*
X117312490Y-78034517D01*
X117503567Y-78173343D01*
X117513771Y-78178542D01*
X117714003Y-78280566D01*
X117714005Y-78280566D01*
X117714008Y-78280568D01*
X117834412Y-78319689D01*
X117938631Y-78353553D01*
X118171903Y-78390500D01*
X118171908Y-78390500D01*
X118408097Y-78390500D01*
X118641368Y-78353553D01*
X118654620Y-78349247D01*
X118865992Y-78280568D01*
X119076433Y-78173343D01*
X119267510Y-78034517D01*
X119434517Y-77867510D01*
X119573343Y-77676433D01*
X119680568Y-77465992D01*
X119753553Y-77241368D01*
X119760104Y-77200008D01*
X119790500Y-77008097D01*
X119790500Y-76760556D01*
X119810185Y-76693517D01*
X119862989Y-76647762D01*
X119932147Y-76637818D01*
X119983390Y-76657453D01*
X120096347Y-76732929D01*
X120228380Y-76787619D01*
X120228384Y-76787619D01*
X120228385Y-76787620D01*
X120368542Y-76815500D01*
X120368545Y-76815500D01*
X120511457Y-76815500D01*
X120626408Y-76792634D01*
X120651620Y-76787619D01*
X120783653Y-76732929D01*
X120902479Y-76653532D01*
X121003532Y-76552479D01*
X121082929Y-76433653D01*
X121137619Y-76301620D01*
X121157543Y-76201457D01*
X121165500Y-76161457D01*
X121165500Y-76018542D01*
X121137620Y-75878385D01*
X121137619Y-75878384D01*
X121137619Y-75878380D01*
X121082929Y-75746347D01*
X121082928Y-75746346D01*
X121082925Y-75746340D01*
X121003532Y-75627521D01*
X121003529Y-75627517D01*
X120902482Y-75526470D01*
X120902478Y-75526467D01*
X120783659Y-75447074D01*
X120783650Y-75447069D01*
X120651620Y-75392381D01*
X120651614Y-75392379D01*
X120511457Y-75364500D01*
X120511455Y-75364500D01*
X120368545Y-75364500D01*
X120368543Y-75364500D01*
X120228385Y-75392379D01*
X120228379Y-75392381D01*
X120096349Y-75447069D01*
X120096340Y-75447074D01*
X119983391Y-75522545D01*
X119916713Y-75543423D01*
X119849333Y-75524938D01*
X119802643Y-75472959D01*
X119790500Y-75419443D01*
X119790500Y-75171902D01*
X119753553Y-74938631D01*
X119714424Y-74818206D01*
X119680568Y-74714008D01*
X119680566Y-74714005D01*
X119680566Y-74714003D01*
X119593501Y-74543129D01*
X119593500Y-74543125D01*
X119573346Y-74503571D01*
X119565407Y-74492644D01*
X119563474Y-74489983D01*
X124289500Y-74489983D01*
X124289500Y-77690001D01*
X124289501Y-77690018D01*
X124300000Y-77792796D01*
X124300001Y-77792799D01*
X124355185Y-77959331D01*
X124355187Y-77959336D01*
X124367378Y-77979100D01*
X124447288Y-78108656D01*
X124571344Y-78232712D01*
X124720666Y-78324814D01*
X124887203Y-78379999D01*
X124989991Y-78390500D01*
X126590008Y-78390499D01*
X126692797Y-78379999D01*
X126859334Y-78324814D01*
X127008656Y-78232712D01*
X127132712Y-78108656D01*
X127224814Y-77959334D01*
X127279999Y-77792797D01*
X127290500Y-77690009D01*
X127290499Y-74818209D01*
X131299500Y-74818209D01*
X131299500Y-75181790D01*
X131335137Y-75543630D01*
X131406064Y-75900212D01*
X131406067Y-75900223D01*
X131511614Y-76248165D01*
X131650754Y-76584078D01*
X131650756Y-76584083D01*
X131822140Y-76904720D01*
X131822151Y-76904738D01*
X132024140Y-77207035D01*
X132024150Y-77207049D01*
X132254807Y-77488106D01*
X132511893Y-77745192D01*
X132511898Y-77745196D01*
X132511899Y-77745197D01*
X132792956Y-77975854D01*
X133095268Y-78177853D01*
X133095277Y-78177858D01*
X133095279Y-78177859D01*
X133415916Y-78349243D01*
X133415918Y-78349243D01*
X133415924Y-78349247D01*
X133751836Y-78488386D01*
X134099767Y-78593930D01*
X134099773Y-78593931D01*
X134099776Y-78593932D01*
X134099787Y-78593935D01*
X134456369Y-78664862D01*
X134818206Y-78700500D01*
X134818209Y-78700500D01*
X135181791Y-78700500D01*
X135181794Y-78700500D01*
X135543631Y-78664862D01*
X135613045Y-78651054D01*
X135900212Y-78593935D01*
X135900223Y-78593932D01*
X135900223Y-78593931D01*
X135900233Y-78593930D01*
X136248164Y-78488386D01*
X136584076Y-78349247D01*
X136904732Y-78177853D01*
X137207044Y-77975854D01*
X137488101Y-77745197D01*
X137745197Y-77488101D01*
X137975854Y-77207044D01*
X138177853Y-76904732D01*
X138349247Y-76584076D01*
X138488386Y-76248164D01*
X138593930Y-75900233D01*
X138593932Y-75900223D01*
X138593935Y-75900212D01*
X138660320Y-75566467D01*
X138664862Y-75543631D01*
X138700500Y-75181794D01*
X138700500Y-74818206D01*
X138664862Y-74456369D01*
X138593935Y-74099787D01*
X138593932Y-74099776D01*
X138593931Y-74099773D01*
X138593930Y-74099767D01*
X138488386Y-73751836D01*
X138349247Y-73415924D01*
X138344860Y-73407717D01*
X138177859Y-73095279D01*
X138177858Y-73095277D01*
X138177853Y-73095268D01*
X137975854Y-72792956D01*
X137745197Y-72511899D01*
X137745196Y-72511898D01*
X137745192Y-72511893D01*
X137488106Y-72254807D01*
X137207049Y-72024150D01*
X137207048Y-72024149D01*
X137207044Y-72024146D01*
X136904732Y-71822147D01*
X136904727Y-71822144D01*
X136904720Y-71822140D01*
X136584083Y-71650756D01*
X136584078Y-71650754D01*
X136248165Y-71511614D01*
X135900223Y-71406067D01*
X135900212Y-71406064D01*
X135543630Y-71335137D01*
X135271111Y-71308296D01*
X135181794Y-71299500D01*
X134818206Y-71299500D01*
X134735679Y-71307628D01*
X134456369Y-71335137D01*
X134099787Y-71406064D01*
X134099776Y-71406067D01*
X133751834Y-71511614D01*
X133415921Y-71650754D01*
X133415916Y-71650756D01*
X133095279Y-71822140D01*
X133095261Y-71822151D01*
X132792964Y-72024140D01*
X132792950Y-72024150D01*
X132511893Y-72254807D01*
X132254807Y-72511893D01*
X132024150Y-72792950D01*
X132024140Y-72792964D01*
X131822151Y-73095261D01*
X131822140Y-73095279D01*
X131650756Y-73415916D01*
X131650754Y-73415921D01*
X131511614Y-73751834D01*
X131406067Y-74099776D01*
X131406064Y-74099787D01*
X131335137Y-74456369D01*
X131299500Y-74818209D01*
X127290499Y-74818209D01*
X127290499Y-74489992D01*
X127279999Y-74387203D01*
X127224814Y-74220666D01*
X127132712Y-74071344D01*
X127008656Y-73947288D01*
X126859334Y-73855186D01*
X126692797Y-73800001D01*
X126692795Y-73800000D01*
X126590010Y-73789500D01*
X124989998Y-73789500D01*
X124989981Y-73789501D01*
X124887203Y-73800000D01*
X124887200Y-73800001D01*
X124720668Y-73855185D01*
X124720663Y-73855187D01*
X124571342Y-73947289D01*
X124447289Y-74071342D01*
X124355187Y-74220663D01*
X124355185Y-74220668D01*
X124340433Y-74265187D01*
X124300001Y-74387203D01*
X124300001Y-74387204D01*
X124300000Y-74387204D01*
X124289500Y-74489983D01*
X119563474Y-74489983D01*
X119434517Y-74312490D01*
X119267510Y-74145483D01*
X119076433Y-74006657D01*
X118872709Y-73902854D01*
X118821913Y-73854879D01*
X118805118Y-73787058D01*
X118827656Y-73720923D01*
X118841323Y-73704687D01*
X118843532Y-73702479D01*
X118922929Y-73583653D01*
X118977619Y-73451620D01*
X119003625Y-73320882D01*
X119005500Y-73311457D01*
X119005500Y-73168542D01*
X118977620Y-73028385D01*
X118977619Y-73028384D01*
X118977619Y-73028380D01*
X118922929Y-72896347D01*
X118922928Y-72896346D01*
X118922925Y-72896340D01*
X118843532Y-72777521D01*
X118843529Y-72777517D01*
X118742482Y-72676470D01*
X118742478Y-72676467D01*
X118623659Y-72597074D01*
X118623650Y-72597069D01*
X118491620Y-72542381D01*
X118491614Y-72542379D01*
X118351457Y-72514500D01*
X118351455Y-72514500D01*
X118208545Y-72514500D01*
X118208543Y-72514500D01*
X118068385Y-72542379D01*
X118068379Y-72542381D01*
X117936349Y-72597069D01*
X117936340Y-72597074D01*
X117817521Y-72676467D01*
X117817517Y-72676470D01*
X117716470Y-72777517D01*
X117716467Y-72777521D01*
X117637074Y-72896340D01*
X117637069Y-72896349D01*
X117582381Y-73028379D01*
X117582379Y-73028385D01*
X117554500Y-73168542D01*
X117554500Y-73168545D01*
X117554500Y-73311455D01*
X117554500Y-73311457D01*
X117554499Y-73311457D01*
X117582379Y-73451614D01*
X117582381Y-73451620D01*
X117637069Y-73583650D01*
X117637074Y-73583659D01*
X117716467Y-73702478D01*
X117716470Y-73702482D01*
X117725427Y-73711439D01*
X117758912Y-73772762D01*
X117753928Y-73842454D01*
X117712056Y-73898387D01*
X117694041Y-73909605D01*
X117503566Y-74006657D01*
X117414536Y-74071342D01*
X117312490Y-74145483D01*
X117312488Y-74145485D01*
X117312487Y-74145485D01*
X117145485Y-74312487D01*
X117145485Y-74312488D01*
X117145483Y-74312490D01*
X117112937Y-74357286D01*
X117006657Y-74503566D01*
X116899433Y-74714003D01*
X116826446Y-74938631D01*
X116789500Y-75171902D01*
X116789500Y-75345335D01*
X116769815Y-75412374D01*
X116717011Y-75458129D01*
X116647853Y-75468073D01*
X116618047Y-75459896D01*
X116551620Y-75432381D01*
X116551614Y-75432379D01*
X116411457Y-75404500D01*
X116411455Y-75404500D01*
X116268545Y-75404500D01*
X116268543Y-75404500D01*
X116128385Y-75432379D01*
X116128379Y-75432381D01*
X115996349Y-75487069D01*
X115996340Y-75487074D01*
X115877521Y-75566467D01*
X115877517Y-75566470D01*
X115776470Y-75667517D01*
X115776467Y-75667521D01*
X115697074Y-75786340D01*
X115697069Y-75786349D01*
X115642381Y-75918379D01*
X115642379Y-75918385D01*
X115614500Y-76058542D01*
X115614500Y-76058545D01*
X115614500Y-76201455D01*
X115614500Y-76201457D01*
X115614499Y-76201457D01*
X112290500Y-76201457D01*
X112290500Y-75171902D01*
X112253553Y-74938631D01*
X112214424Y-74818206D01*
X112180568Y-74714008D01*
X112180566Y-74714005D01*
X112180566Y-74714003D01*
X112073342Y-74503566D01*
X111934517Y-74312490D01*
X111767510Y-74145483D01*
X111576433Y-74006657D01*
X111365996Y-73899433D01*
X111141368Y-73826446D01*
X110908097Y-73789500D01*
X110908092Y-73789500D01*
X110671908Y-73789500D01*
X110671903Y-73789500D01*
X110438631Y-73826446D01*
X110214003Y-73899433D01*
X110003566Y-74006657D01*
X109914536Y-74071342D01*
X109812490Y-74145483D01*
X109812488Y-74145485D01*
X109812487Y-74145485D01*
X109645485Y-74312487D01*
X109645485Y-74312488D01*
X109645483Y-74312490D01*
X109612937Y-74357286D01*
X109506657Y-74503566D01*
X109399433Y-74714003D01*
X109326446Y-74938631D01*
X109289500Y-75171902D01*
X106345500Y-75171902D01*
X106345500Y-72924000D01*
X106333947Y-72816544D01*
X106322741Y-72765033D01*
X106322637Y-72764722D01*
X106288616Y-72662502D01*
X106288613Y-72662496D01*
X106218834Y-72553919D01*
X106210825Y-72541457D01*
X106185207Y-72511892D01*
X106165076Y-72488659D01*
X106165072Y-72488656D01*
X106165070Y-72488653D01*
X106056336Y-72394433D01*
X106056333Y-72394431D01*
X106056331Y-72394430D01*
X105925465Y-72334664D01*
X105925460Y-72334662D01*
X105925459Y-72334662D01*
X105858420Y-72314977D01*
X105858422Y-72314977D01*
X105858417Y-72314976D01*
X105810944Y-72308150D01*
X105716000Y-72294500D01*
X105715998Y-72294500D01*
X97129500Y-72294500D01*
X97062461Y-72274815D01*
X97016706Y-72222011D01*
X97005500Y-72170500D01*
X97005500Y-71324010D01*
X97005500Y-71324000D01*
X96993947Y-71216544D01*
X96982741Y-71165033D01*
X96982637Y-71164722D01*
X96948616Y-71062502D01*
X96948613Y-71062496D01*
X96870828Y-70941462D01*
X96870825Y-70941457D01*
X96870820Y-70941451D01*
X96825076Y-70888659D01*
X96825072Y-70888656D01*
X96825070Y-70888653D01*
X96716336Y-70794433D01*
X96716333Y-70794431D01*
X96716331Y-70794430D01*
X96585465Y-70734664D01*
X96585460Y-70734662D01*
X96585459Y-70734662D01*
X96518420Y-70714977D01*
X96518422Y-70714977D01*
X96518417Y-70714976D01*
X96456347Y-70706052D01*
X96376000Y-70694500D01*
X87724000Y-70694500D01*
X87723991Y-70694500D01*
X87723990Y-70694501D01*
X87616549Y-70706052D01*
X87616537Y-70706054D01*
X87565027Y-70717260D01*
X87462502Y-70751383D01*
X87462496Y-70751386D01*
X87341462Y-70829171D01*
X87341451Y-70829179D01*
X87288659Y-70874923D01*
X87194433Y-70983664D01*
X87194430Y-70983668D01*
X87134664Y-71114534D01*
X87114976Y-71181582D01*
X87108358Y-71227614D01*
X87094502Y-71323990D01*
X87094500Y-71324001D01*
X87094500Y-74075500D01*
X87074815Y-74142539D01*
X87022011Y-74188294D01*
X86970500Y-74199500D01*
X84692484Y-74199500D01*
X84589704Y-74210000D01*
X84589703Y-74210001D01*
X84423164Y-74265186D01*
X84423162Y-74265187D01*
X84273848Y-74357286D01*
X84273844Y-74357289D01*
X84149789Y-74481344D01*
X84149786Y-74481348D01*
X84057687Y-74630662D01*
X84057686Y-74630664D01*
X84002501Y-74797203D01*
X84002500Y-74797204D01*
X83992000Y-74899984D01*
X83992000Y-75227220D01*
X83972315Y-75294259D01*
X83919511Y-75340014D01*
X83850353Y-75349958D01*
X83843809Y-75348837D01*
X83721459Y-75324500D01*
X83721455Y-75324500D01*
X83578545Y-75324500D01*
X83578543Y-75324500D01*
X83438385Y-75352379D01*
X83438379Y-75352381D01*
X83306349Y-75407069D01*
X83306340Y-75407074D01*
X83187521Y-75486467D01*
X83187517Y-75486470D01*
X83086470Y-75587517D01*
X83086467Y-75587521D01*
X83007074Y-75706340D01*
X83007069Y-75706349D01*
X82952381Y-75838379D01*
X82952379Y-75838385D01*
X82924500Y-75978542D01*
X82924500Y-75978545D01*
X82924500Y-76121455D01*
X82924500Y-76121457D01*
X82924499Y-76121457D01*
X78526822Y-76121457D01*
X78593930Y-75900233D01*
X78593932Y-75900220D01*
X78593935Y-75900212D01*
X78660320Y-75566467D01*
X78664862Y-75543631D01*
X78700500Y-75181794D01*
X78700500Y-74818206D01*
X78664862Y-74456369D01*
X78593935Y-74099787D01*
X78593932Y-74099776D01*
X78593931Y-74099773D01*
X78593930Y-74099767D01*
X78488386Y-73751836D01*
X78349247Y-73415924D01*
X78344860Y-73407717D01*
X78177859Y-73095279D01*
X78177858Y-73095277D01*
X78177853Y-73095268D01*
X77975854Y-72792956D01*
X77779680Y-72553917D01*
X83367000Y-72553917D01*
X83367000Y-72746082D01*
X83404486Y-72934535D01*
X83404489Y-72934547D01*
X83478020Y-73112068D01*
X83478021Y-73112070D01*
X83584779Y-73271844D01*
X83584782Y-73271848D01*
X83720651Y-73407717D01*
X83720655Y-73407720D01*
X83880427Y-73514477D01*
X83880428Y-73514477D01*
X83880429Y-73514478D01*
X83880431Y-73514479D01*
X83967486Y-73550538D01*
X84057957Y-73588012D01*
X84246417Y-73625499D01*
X84246420Y-73625500D01*
X84246422Y-73625500D01*
X84438580Y-73625500D01*
X84438581Y-73625499D01*
X84627043Y-73588012D01*
X84804573Y-73514477D01*
X84964345Y-73407720D01*
X85100220Y-73271845D01*
X85206977Y-73112073D01*
X85280512Y-72934543D01*
X85318000Y-72746078D01*
X85318000Y-72553922D01*
X85318000Y-72553919D01*
X85317999Y-72553917D01*
X85305017Y-72488653D01*
X85280512Y-72365457D01*
X85242967Y-72274815D01*
X85206979Y-72187931D01*
X85206978Y-72187929D01*
X85195749Y-72171124D01*
X85100220Y-72028155D01*
X85100217Y-72028151D01*
X84964348Y-71892282D01*
X84964344Y-71892279D01*
X84804570Y-71785521D01*
X84804568Y-71785520D01*
X84627047Y-71711989D01*
X84627035Y-71711986D01*
X84438581Y-71674500D01*
X84438578Y-71674500D01*
X84246422Y-71674500D01*
X84246419Y-71674500D01*
X84057964Y-71711986D01*
X84057952Y-71711989D01*
X83880431Y-71785520D01*
X83880429Y-71785521D01*
X83720655Y-71892279D01*
X83720651Y-71892282D01*
X83584782Y-72028151D01*
X83584779Y-72028155D01*
X83478021Y-72187929D01*
X83478020Y-72187931D01*
X83404489Y-72365452D01*
X83404486Y-72365464D01*
X83367000Y-72553917D01*
X77779680Y-72553917D01*
X77745197Y-72511899D01*
X77745195Y-72511897D01*
X77745191Y-72511892D01*
X77488106Y-72254807D01*
X77207049Y-72024150D01*
X77207048Y-72024149D01*
X77207044Y-72024146D01*
X76904732Y-71822147D01*
X76904727Y-71822144D01*
X76904720Y-71822140D01*
X76584083Y-71650756D01*
X76584078Y-71650754D01*
X76248165Y-71511614D01*
X75900223Y-71406067D01*
X75900212Y-71406064D01*
X75543630Y-71335137D01*
X75271111Y-71308296D01*
X75181794Y-71299500D01*
X74818206Y-71299500D01*
X74735679Y-71307628D01*
X74456369Y-71335137D01*
X74099787Y-71406064D01*
X74099776Y-71406067D01*
X73751834Y-71511614D01*
X73415921Y-71650754D01*
X73415916Y-71650756D01*
X73095279Y-71822140D01*
X73095261Y-71822151D01*
X72792964Y-72024140D01*
X72792950Y-72024150D01*
X72511893Y-72254807D01*
X72254807Y-72511893D01*
X72024150Y-72792950D01*
X72024140Y-72792964D01*
X71822151Y-73095261D01*
X71822140Y-73095279D01*
X71650756Y-73415916D01*
X71650754Y-73415921D01*
X71511614Y-73751834D01*
X71406067Y-74099776D01*
X71406064Y-74099787D01*
X71335137Y-74456369D01*
X71299500Y-74818209D01*
X70083437Y-74818209D01*
X70083806Y-74809753D01*
X70083806Y-74809752D01*
X70084665Y-74790076D01*
X70094003Y-74576187D01*
X70094943Y-74565454D01*
X70149609Y-74150224D01*
X70151481Y-74139605D01*
X70242131Y-73730707D01*
X70244918Y-73720307D01*
X70370863Y-73320860D01*
X70374547Y-73310739D01*
X70534822Y-72923799D01*
X70539380Y-72914025D01*
X70732761Y-72542545D01*
X70738156Y-72533200D01*
X70963186Y-72179974D01*
X70969376Y-72171134D01*
X71224327Y-71838875D01*
X71231265Y-71830606D01*
X71514205Y-71521833D01*
X71521833Y-71514205D01*
X71830606Y-71231265D01*
X71838875Y-71224327D01*
X72171134Y-70969376D01*
X72179974Y-70963186D01*
X72533200Y-70738156D01*
X72542545Y-70732761D01*
X72914025Y-70539380D01*
X72923799Y-70534822D01*
X73310739Y-70374547D01*
X73320860Y-70370863D01*
X73720307Y-70244918D01*
X73730707Y-70242131D01*
X74139605Y-70151481D01*
X74150224Y-70149609D01*
X74565454Y-70094943D01*
X74576187Y-70094003D01*
X74984394Y-70076181D01*
X74997298Y-70075618D01*
X75002706Y-70075500D01*
X75024531Y-70075500D01*
X134975469Y-70075500D01*
X134997294Y-70075500D01*
X135002702Y-70075618D01*
G37*
%TD.AperFunction*%
M02*
