%TF.GenerationSoftware,KiCad,Pcbnew,9.0.1*%
%TF.CreationDate,2025-11-19T22:55:42+01:00*%
%TF.ProjectId,SIGURD,53494755-5244-42e6-9b69-6361645f7063,rev?*%
%TF.SameCoordinates,Original*%
%TF.FileFunction,Copper,L2,Inr*%
%TF.FilePolarity,Positive*%
%FSLAX46Y46*%
G04 Gerber Fmt 4.6, Leading zero omitted, Abs format (unit mm)*
G04 Created by KiCad (PCBNEW 9.0.1) date 2025-11-19 22:55:42*
%MOMM*%
%LPD*%
G01*
G04 APERTURE LIST*
G04 Aperture macros list*
%AMRoundRect*
0 Rectangle with rounded corners*
0 $1 Rounding radius*
0 $2 $3 $4 $5 $6 $7 $8 $9 X,Y pos of 4 corners*
0 Add a 4 corners polygon primitive as box body*
4,1,4,$2,$3,$4,$5,$6,$7,$8,$9,$2,$3,0*
0 Add four circle primitives for the rounded corners*
1,1,$1+$1,$2,$3*
1,1,$1+$1,$4,$5*
1,1,$1+$1,$6,$7*
1,1,$1+$1,$8,$9*
0 Add four rect primitives between the rounded corners*
20,1,$1+$1,$2,$3,$4,$5,0*
20,1,$1+$1,$4,$5,$6,$7,0*
20,1,$1+$1,$6,$7,$8,$9,0*
20,1,$1+$1,$8,$9,$2,$3,0*%
G04 Aperture macros list end*
%TA.AperFunction,ComponentPad*%
%ADD10C,0.499999*%
%TD*%
%TA.AperFunction,ComponentPad*%
%ADD11RoundRect,0.250000X-0.750000X0.600000X-0.750000X-0.600000X0.750000X-0.600000X0.750000X0.600000X0*%
%TD*%
%TA.AperFunction,ComponentPad*%
%ADD12O,2.000000X1.700000*%
%TD*%
%TA.AperFunction,ComponentPad*%
%ADD13C,0.800000*%
%TD*%
%TA.AperFunction,ComponentPad*%
%ADD14C,6.400000*%
%TD*%
%TA.AperFunction,ComponentPad*%
%ADD15C,1.600200*%
%TD*%
%TA.AperFunction,ComponentPad*%
%ADD16C,1.803400*%
%TD*%
%TA.AperFunction,ComponentPad*%
%ADD17C,1.400000*%
%TD*%
%TA.AperFunction,ComponentPad*%
%ADD18RoundRect,0.770000X-0.980000X-0.980000X0.980000X-0.980000X0.980000X0.980000X-0.980000X0.980000X0*%
%TD*%
%TA.AperFunction,ComponentPad*%
%ADD19C,3.500000*%
%TD*%
%TA.AperFunction,ComponentPad*%
%ADD20R,1.000000X1.000000*%
%TD*%
%TA.AperFunction,ComponentPad*%
%ADD21C,1.000000*%
%TD*%
%TA.AperFunction,ViaPad*%
%ADD22C,0.600000*%
%TD*%
%TA.AperFunction,ViaPad*%
%ADD23C,0.500000*%
%TD*%
%TA.AperFunction,ViaPad*%
%ADD24C,0.800000*%
%TD*%
G04 APERTURE END LIST*
D10*
%TO.N,Earth*%
%TO.C,U6*%
X111040483Y-107984518D03*
X109740483Y-107984518D03*
X108340483Y-107984518D03*
X107040483Y-107984518D03*
X105740483Y-107984518D03*
X104340483Y-107984521D03*
X103040483Y-107984521D03*
X109740483Y-109284518D03*
X111040483Y-109284521D03*
X108340483Y-109284521D03*
X107040483Y-109284521D03*
X105740483Y-109284521D03*
X104340483Y-109284521D03*
X103040483Y-109284523D03*
X111040483Y-110584518D03*
X109740483Y-110584518D03*
X108340483Y-110584518D03*
X107040483Y-110584518D03*
X105740483Y-110584518D03*
X104340483Y-110584520D03*
X103040483Y-110584520D03*
%TD*%
D11*
%TO.N,/CAN_H*%
%TO.C,J2*%
X134665000Y-88130000D03*
D12*
%TO.N,/CAN_L*%
X134665000Y-90630000D03*
%TD*%
D13*
%TO.N,Net-(H2-Pad1)*%
%TO.C,H2*%
X72600000Y-135000000D03*
X73302944Y-133302944D03*
X73302944Y-136697056D03*
X75000000Y-132600000D03*
D14*
X75000000Y-135000000D03*
D13*
X75000000Y-137400000D03*
X76697056Y-133302944D03*
X76697056Y-136697056D03*
X77400000Y-135000000D03*
%TD*%
%TO.N,Net-(H3-Pad1)*%
%TO.C,H3*%
X132600000Y-75000000D03*
X133302944Y-73302944D03*
X133302944Y-76697056D03*
X135000000Y-72600000D03*
D14*
X135000000Y-75000000D03*
D13*
X135000000Y-77400000D03*
X136697056Y-73302944D03*
X136697056Y-76697056D03*
X137400000Y-75000000D03*
%TD*%
D15*
%TO.N,/MOTOR_PWM*%
%TO.C,J5*%
X121710000Y-74270000D03*
%TO.N,Net-(J5-Pin_2)*%
X117900000Y-74270000D03*
%TO.N,+12V*%
X114090000Y-74270000D03*
%TD*%
D11*
%TO.N,/CAN_H*%
%TO.C,J3*%
X134665000Y-98782500D03*
D12*
%TO.N,/CAN_L*%
X134665000Y-101282500D03*
%TD*%
D13*
%TO.N,Net-(H1-Pad1)*%
%TO.C,H1*%
X72600000Y-75000000D03*
X73302944Y-73302944D03*
X73302944Y-76697056D03*
X75000000Y-72600000D03*
D14*
X75000000Y-75000000D03*
D13*
X75000000Y-77400000D03*
X76697056Y-73302944D03*
X76697056Y-76697056D03*
X77400000Y-75000000D03*
%TD*%
D16*
%TO.N,/IGNITION_OUT*%
%TO.C,J14*%
X82200000Y-133300000D03*
%TO.N,Earth*%
X87199999Y-133300000D03*
%TO.N,/SOL4_OUT*%
X92200000Y-133300000D03*
%TO.N,Earth*%
X97200000Y-133300000D03*
%TO.N,/SOL3_OUT*%
X102200000Y-133300000D03*
%TO.N,Earth*%
X107200000Y-133300000D03*
%TO.N,/SOL2_OUT*%
X112200000Y-133300000D03*
%TO.N,Earth*%
X117200000Y-133300000D03*
%TO.N,/SOL1_OUT*%
X122200003Y-133300000D03*
%TO.N,Earth*%
X127200003Y-133300000D03*
%TD*%
D17*
%TO.N,*%
%TO.C,J1*%
X81620000Y-74990000D03*
X92620000Y-74990000D03*
D18*
%TO.N,Earth*%
X84620000Y-79990000D03*
D19*
%TO.N,VIN*%
X89620000Y-79990000D03*
%TD*%
D10*
%TO.N,Earth*%
%TO.C,U3*%
X81717501Y-103059999D03*
X80917101Y-103059999D03*
X80167501Y-103059999D03*
X80942501Y-102284999D03*
X80942501Y-103834999D03*
%TD*%
D13*
%TO.N,Net-(H4-Pad1)*%
%TO.C,H4*%
X132600000Y-135000000D03*
X133302944Y-133302944D03*
X133302944Y-136697056D03*
X135000000Y-132600000D03*
D14*
X135000000Y-135000000D03*
D13*
X135000000Y-137400000D03*
X136697056Y-133302944D03*
X136697056Y-136697056D03*
X137400000Y-135000000D03*
%TD*%
D20*
%TO.N,/EXT_TX*%
%TO.C,J6*%
X104180000Y-90345000D03*
D21*
%TO.N,/EXT_RX*%
X102910000Y-90345000D03*
%TO.N,Earth*%
X101640000Y-90345000D03*
%TO.N,Net-(J6-Pin_4)*%
X100370000Y-90345000D03*
%TD*%
D22*
%TO.N,+3V3*%
X128720000Y-105390000D03*
X77750000Y-117670000D03*
X93520000Y-100140000D03*
X97850000Y-90600000D03*
X121940000Y-89790000D03*
D23*
X116090000Y-92330000D03*
D22*
X95810000Y-100120000D03*
D23*
X104430000Y-100370000D03*
D22*
X117540000Y-89255000D03*
X104220000Y-102790000D03*
D23*
X113040000Y-102610000D03*
D22*
X123995000Y-80690000D03*
D23*
X113120000Y-91750000D03*
D22*
X133320000Y-112110000D03*
D23*
X106230000Y-89540000D03*
D22*
X135450000Y-116890000D03*
X124430000Y-95190000D03*
%TO.N,Earth*%
X82990000Y-85480000D03*
X94780000Y-89780000D03*
X88520000Y-96307500D03*
X79210000Y-97270000D03*
X121440000Y-94470000D03*
X115230000Y-84030000D03*
X82990000Y-87030000D03*
X99149250Y-81585000D03*
X123315000Y-102220000D03*
D23*
X79240000Y-107300000D03*
X110660000Y-102600000D03*
X102300000Y-82990000D03*
D22*
X105450000Y-80685000D03*
X89342500Y-117907500D03*
X101660000Y-91470000D03*
X77750000Y-113360000D03*
D23*
X97690000Y-80350000D03*
X110360000Y-73433333D03*
X78990000Y-99620000D03*
X107310000Y-89460000D03*
X109070000Y-75426666D03*
D22*
X116700000Y-86540000D03*
D23*
X80240000Y-107300000D03*
D22*
X89770000Y-95555000D03*
X135450000Y-109530000D03*
D23*
X109040000Y-86590000D03*
X77520000Y-104020000D03*
X102750000Y-99270000D03*
D22*
X93530000Y-101770000D03*
X124430000Y-93860000D03*
D23*
X109070000Y-73433333D03*
X84190000Y-106600000D03*
X109070000Y-74430000D03*
X82130000Y-107390000D03*
D22*
X90620000Y-119880000D03*
X135000000Y-82040000D03*
D23*
X95530000Y-80320000D03*
D22*
X128751000Y-89410000D03*
X79210000Y-96000000D03*
D23*
X95880000Y-89220000D03*
D22*
X119010000Y-86540000D03*
D23*
X107550000Y-86590000D03*
X110360000Y-74430000D03*
D22*
X122300000Y-79940000D03*
D23*
X110640000Y-86660000D03*
X98660000Y-88970000D03*
D22*
X133320000Y-110700000D03*
D24*
X109240000Y-89690000D03*
D22*
X135080000Y-127900000D03*
X116700000Y-84120000D03*
X77750000Y-122240000D03*
D23*
X113120000Y-90770000D03*
X116110000Y-93490000D03*
X92290000Y-93560000D03*
D22*
X122860000Y-119880000D03*
X119010000Y-84120000D03*
D23*
X85190000Y-102690000D03*
X110360000Y-75426666D03*
D22*
X97880000Y-92170000D03*
D23*
X102300100Y-82340000D03*
D22*
X128731000Y-100030000D03*
X74990000Y-82070000D03*
X74990000Y-127810000D03*
D23*
%TO.N,/NRST*%
X127730000Y-103570000D03*
D22*
X110430000Y-97470000D03*
%TO.N,/SW_DIO*%
X110430000Y-98720000D03*
X119440000Y-102220000D03*
%TO.N,/MOTOR_PWM*%
X106730000Y-95702501D03*
%TO.N,/BUZZER*%
X115752500Y-103540000D03*
X115750000Y-99680000D03*
%TO.N,VS*%
X92310000Y-115110000D03*
X107066733Y-119946733D03*
X121100000Y-115110000D03*
%TO.N,+24V*%
X105250000Y-118250000D03*
X103750000Y-118250000D03*
X89760000Y-101350000D03*
X103750000Y-119250000D03*
X88510000Y-99845000D03*
X88510000Y-101350000D03*
X102500000Y-120250000D03*
X102500000Y-118250000D03*
X102500000Y-119250000D03*
X89760000Y-99860000D03*
%TO.N,VCC*%
X108500000Y-118250000D03*
D23*
X88800000Y-89670000D03*
D22*
X111250000Y-118250000D03*
D23*
X76940000Y-103100000D03*
X84370000Y-104630000D03*
D22*
X93530000Y-104730000D03*
X110000000Y-119250000D03*
X111250000Y-119250000D03*
X91210000Y-88000000D03*
X93530000Y-105690000D03*
X111250000Y-120250000D03*
D23*
X88080000Y-86540000D03*
D22*
X91250000Y-89670000D03*
X110000000Y-118250000D03*
D23*
X81630000Y-99370000D03*
%TO.N,+12V*%
X128970000Y-80750000D03*
%TO.N,Net-(L2-Pad1)*%
X86170000Y-104620000D03*
X88800000Y-92080000D03*
D22*
%TO.N,/SDA*%
X115700000Y-90540000D03*
X110670000Y-94570000D03*
%TO.N,/SCL*%
X122940000Y-91480000D03*
X115880000Y-96202501D03*
%TO.N,/SOL1_SENSE*%
X107430000Y-98700000D03*
X122840000Y-115110000D03*
%TO.N,/SOL2_SENSE*%
X108390000Y-123240000D03*
X101000000Y-110610000D03*
%TO.N,/SOL3_SENSE*%
X105680000Y-123240000D03*
X99845000Y-110620000D03*
%TO.N,/SOL4_SENSE*%
X90620000Y-115110000D03*
X98690000Y-110590000D03*
D23*
%TO.N,VCC_P*%
X80220000Y-100500000D03*
X77710000Y-102270000D03*
%TD*%
%TA.AperFunction,Conductor*%
%TO.N,Earth*%
G36*
X135002702Y-70075618D02*
G01*
X135016221Y-70076208D01*
X135423810Y-70094003D01*
X135434547Y-70094943D01*
X135849771Y-70149608D01*
X135860397Y-70151481D01*
X136269286Y-70242130D01*
X136279698Y-70244919D01*
X136679132Y-70370861D01*
X136689267Y-70374550D01*
X137076191Y-70534819D01*
X137085982Y-70539385D01*
X137457442Y-70732755D01*
X137466810Y-70738163D01*
X137820014Y-70963179D01*
X137828875Y-70969384D01*
X138161115Y-71224320D01*
X138169402Y-71231274D01*
X138478155Y-71514195D01*
X138485804Y-71521844D01*
X138768725Y-71830597D01*
X138775679Y-71838884D01*
X139030615Y-72171124D01*
X139036820Y-72179985D01*
X139261836Y-72533189D01*
X139267244Y-72542557D01*
X139460611Y-72914010D01*
X139465183Y-72923814D01*
X139625443Y-73310717D01*
X139629142Y-73320880D01*
X139701553Y-73550538D01*
X139755074Y-73720282D01*
X139757873Y-73730729D01*
X139777456Y-73819060D01*
X139848515Y-74139589D01*
X139850393Y-74150242D01*
X139905054Y-74565432D01*
X139905997Y-74576208D01*
X139924382Y-74997297D01*
X139924500Y-75002706D01*
X139924500Y-134997293D01*
X139924382Y-135002702D01*
X139905997Y-135423791D01*
X139905054Y-135434567D01*
X139850393Y-135849757D01*
X139848515Y-135860410D01*
X139757874Y-136269267D01*
X139755074Y-136279717D01*
X139629143Y-136679117D01*
X139625443Y-136689282D01*
X139465183Y-137076185D01*
X139460611Y-137085989D01*
X139267244Y-137457442D01*
X139261836Y-137466810D01*
X139036820Y-137820014D01*
X139030615Y-137828875D01*
X138775679Y-138161115D01*
X138768725Y-138169402D01*
X138485804Y-138478155D01*
X138478155Y-138485804D01*
X138169402Y-138768725D01*
X138161115Y-138775679D01*
X137828875Y-139030615D01*
X137820014Y-139036820D01*
X137466810Y-139261836D01*
X137457442Y-139267244D01*
X137085989Y-139460611D01*
X137076185Y-139465183D01*
X136689282Y-139625443D01*
X136679117Y-139629143D01*
X136279717Y-139755074D01*
X136269267Y-139757874D01*
X135860410Y-139848515D01*
X135849757Y-139850393D01*
X135434567Y-139905054D01*
X135423791Y-139905997D01*
X135002703Y-139924382D01*
X134997294Y-139924500D01*
X75002706Y-139924500D01*
X74997297Y-139924382D01*
X74576208Y-139905997D01*
X74565432Y-139905054D01*
X74150242Y-139850393D01*
X74139589Y-139848515D01*
X73872531Y-139789310D01*
X73730729Y-139757873D01*
X73720286Y-139755075D01*
X73320880Y-139629142D01*
X73310717Y-139625443D01*
X72923814Y-139465183D01*
X72914010Y-139460611D01*
X72542557Y-139267244D01*
X72533189Y-139261836D01*
X72179985Y-139036820D01*
X72171124Y-139030615D01*
X71838884Y-138775679D01*
X71830597Y-138768725D01*
X71521844Y-138485804D01*
X71514195Y-138478155D01*
X71231274Y-138169402D01*
X71224320Y-138161115D01*
X70969384Y-137828875D01*
X70963179Y-137820014D01*
X70738163Y-137466810D01*
X70732755Y-137457442D01*
X70539388Y-137085989D01*
X70534816Y-137076185D01*
X70463801Y-136904738D01*
X70374550Y-136689267D01*
X70370861Y-136679132D01*
X70244919Y-136279698D01*
X70242130Y-136269286D01*
X70151481Y-135860397D01*
X70149608Y-135849771D01*
X70094943Y-135434547D01*
X70094003Y-135423810D01*
X70075618Y-135002701D01*
X70075500Y-134997293D01*
X70075500Y-134818209D01*
X71299500Y-134818209D01*
X71299500Y-135181790D01*
X71335137Y-135543630D01*
X71406064Y-135900212D01*
X71406067Y-135900223D01*
X71511614Y-136248165D01*
X71650754Y-136584078D01*
X71650756Y-136584083D01*
X71822140Y-136904720D01*
X71822151Y-136904738D01*
X72024140Y-137207035D01*
X72024150Y-137207049D01*
X72254807Y-137488106D01*
X72511893Y-137745192D01*
X72511898Y-137745196D01*
X72511899Y-137745197D01*
X72792956Y-137975854D01*
X73095268Y-138177853D01*
X73095277Y-138177858D01*
X73095279Y-138177859D01*
X73415916Y-138349243D01*
X73415918Y-138349243D01*
X73415924Y-138349247D01*
X73751836Y-138488386D01*
X74099767Y-138593930D01*
X74099773Y-138593931D01*
X74099776Y-138593932D01*
X74099787Y-138593935D01*
X74456369Y-138664862D01*
X74818206Y-138700500D01*
X74818209Y-138700500D01*
X75181791Y-138700500D01*
X75181794Y-138700500D01*
X75543631Y-138664862D01*
X75613045Y-138651054D01*
X75900212Y-138593935D01*
X75900223Y-138593932D01*
X75900223Y-138593931D01*
X75900233Y-138593930D01*
X76248164Y-138488386D01*
X76584076Y-138349247D01*
X76904732Y-138177853D01*
X77207044Y-137975854D01*
X77488101Y-137745197D01*
X77745197Y-137488101D01*
X77975854Y-137207044D01*
X78177853Y-136904732D01*
X78349247Y-136584076D01*
X78488386Y-136248164D01*
X78593930Y-135900233D01*
X78593932Y-135900223D01*
X78593935Y-135900212D01*
X78664862Y-135543630D01*
X78700500Y-135181790D01*
X78700500Y-134818209D01*
X131299500Y-134818209D01*
X131299500Y-135181790D01*
X131335137Y-135543630D01*
X131406064Y-135900212D01*
X131406067Y-135900223D01*
X131511614Y-136248165D01*
X131650754Y-136584078D01*
X131650756Y-136584083D01*
X131822140Y-136904720D01*
X131822151Y-136904738D01*
X132024140Y-137207035D01*
X132024150Y-137207049D01*
X132254807Y-137488106D01*
X132511893Y-137745192D01*
X132511898Y-137745196D01*
X132511899Y-137745197D01*
X132792956Y-137975854D01*
X133095268Y-138177853D01*
X133095277Y-138177858D01*
X133095279Y-138177859D01*
X133415916Y-138349243D01*
X133415918Y-138349243D01*
X133415924Y-138349247D01*
X133751836Y-138488386D01*
X134099767Y-138593930D01*
X134099773Y-138593931D01*
X134099776Y-138593932D01*
X134099787Y-138593935D01*
X134456369Y-138664862D01*
X134818206Y-138700500D01*
X134818209Y-138700500D01*
X135181791Y-138700500D01*
X135181794Y-138700500D01*
X135543631Y-138664862D01*
X135613045Y-138651054D01*
X135900212Y-138593935D01*
X135900223Y-138593932D01*
X135900223Y-138593931D01*
X135900233Y-138593930D01*
X136248164Y-138488386D01*
X136584076Y-138349247D01*
X136904732Y-138177853D01*
X137207044Y-137975854D01*
X137488101Y-137745197D01*
X137745197Y-137488101D01*
X137975854Y-137207044D01*
X138177853Y-136904732D01*
X138349247Y-136584076D01*
X138488386Y-136248164D01*
X138593930Y-135900233D01*
X138593932Y-135900223D01*
X138593935Y-135900212D01*
X138664862Y-135543630D01*
X138700500Y-135181790D01*
X138700500Y-134818209D01*
X138688137Y-134692689D01*
X138664862Y-134456369D01*
X138664049Y-134452282D01*
X138593935Y-134099787D01*
X138593932Y-134099776D01*
X138593931Y-134099773D01*
X138593930Y-134099767D01*
X138488386Y-133751836D01*
X138349247Y-133415924D01*
X138346270Y-133410355D01*
X138177859Y-133095279D01*
X138177858Y-133095277D01*
X138177853Y-133095268D01*
X137975854Y-132792956D01*
X137745197Y-132511899D01*
X137745196Y-132511898D01*
X137745192Y-132511893D01*
X137488106Y-132254807D01*
X137207049Y-132024150D01*
X137207048Y-132024149D01*
X137207044Y-132024146D01*
X136904732Y-131822147D01*
X136904727Y-131822144D01*
X136904720Y-131822140D01*
X136584083Y-131650756D01*
X136584078Y-131650754D01*
X136248165Y-131511614D01*
X135900223Y-131406067D01*
X135900212Y-131406064D01*
X135543630Y-131335137D01*
X135271111Y-131308296D01*
X135181794Y-131299500D01*
X134818206Y-131299500D01*
X134735679Y-131307628D01*
X134456369Y-131335137D01*
X134099787Y-131406064D01*
X134099776Y-131406067D01*
X133751834Y-131511614D01*
X133415921Y-131650754D01*
X133415916Y-131650756D01*
X133095279Y-131822140D01*
X133095261Y-131822151D01*
X132792964Y-132024140D01*
X132792950Y-132024150D01*
X132511893Y-132254807D01*
X132254807Y-132511893D01*
X132024150Y-132792950D01*
X132024140Y-132792964D01*
X131822151Y-133095261D01*
X131822140Y-133095279D01*
X131650756Y-133415916D01*
X131650754Y-133415921D01*
X131511614Y-133751834D01*
X131406067Y-134099776D01*
X131406064Y-134099787D01*
X131335137Y-134456369D01*
X131299500Y-134818209D01*
X78700500Y-134818209D01*
X78688137Y-134692689D01*
X78664862Y-134456369D01*
X78664049Y-134452282D01*
X78593935Y-134099787D01*
X78593932Y-134099776D01*
X78593931Y-134099773D01*
X78593930Y-134099767D01*
X78488386Y-133751836D01*
X78349247Y-133415924D01*
X78346271Y-133410356D01*
X78256938Y-133243225D01*
X78228298Y-133189644D01*
X80797800Y-133189644D01*
X80797800Y-133410356D01*
X80798682Y-133415924D01*
X80832327Y-133628350D01*
X80900528Y-133838255D01*
X80900529Y-133838258D01*
X81000595Y-134034647D01*
X81000731Y-134034913D01*
X81130462Y-134213472D01*
X81286528Y-134369538D01*
X81465087Y-134499269D01*
X81561540Y-134548414D01*
X81661741Y-134599470D01*
X81661744Y-134599471D01*
X81766696Y-134633571D01*
X81871651Y-134667673D01*
X82089644Y-134702200D01*
X82089645Y-134702200D01*
X82310355Y-134702200D01*
X82310356Y-134702200D01*
X82528349Y-134667673D01*
X82738258Y-134599470D01*
X82934913Y-134499269D01*
X83113472Y-134369538D01*
X83269538Y-134213472D01*
X83399269Y-134034913D01*
X83499470Y-133838258D01*
X83567673Y-133628349D01*
X83602200Y-133410356D01*
X83602200Y-133189684D01*
X85798299Y-133189684D01*
X85798299Y-133410315D01*
X85832814Y-133628233D01*
X85832814Y-133628236D01*
X85900991Y-133838063D01*
X86001156Y-134034647D01*
X86047714Y-134098730D01*
X86600717Y-133545727D01*
X86626015Y-133606801D01*
X86696898Y-133712885D01*
X86787114Y-133803101D01*
X86893198Y-133873984D01*
X86954270Y-133899280D01*
X86401267Y-134452282D01*
X86401267Y-134452283D01*
X86465351Y-134498842D01*
X86661935Y-134599007D01*
X86871763Y-134667184D01*
X87089684Y-134701700D01*
X87310314Y-134701700D01*
X87528232Y-134667184D01*
X87528235Y-134667184D01*
X87738062Y-134599007D01*
X87934650Y-134498840D01*
X87998729Y-134452283D01*
X87998730Y-134452283D01*
X87445727Y-133899281D01*
X87506800Y-133873984D01*
X87612884Y-133803101D01*
X87703100Y-133712885D01*
X87773983Y-133606801D01*
X87799279Y-133545728D01*
X88352282Y-134098731D01*
X88352282Y-134098730D01*
X88398839Y-134034651D01*
X88499006Y-133838063D01*
X88567183Y-133628236D01*
X88567183Y-133628233D01*
X88601699Y-133410315D01*
X88601699Y-133189684D01*
X88601693Y-133189644D01*
X90797800Y-133189644D01*
X90797800Y-133410356D01*
X90798682Y-133415924D01*
X90832327Y-133628350D01*
X90900528Y-133838255D01*
X90900529Y-133838258D01*
X91000595Y-134034647D01*
X91000731Y-134034913D01*
X91130462Y-134213472D01*
X91286528Y-134369538D01*
X91465087Y-134499269D01*
X91561540Y-134548414D01*
X91661741Y-134599470D01*
X91661744Y-134599471D01*
X91766696Y-134633571D01*
X91871651Y-134667673D01*
X92089644Y-134702200D01*
X92089645Y-134702200D01*
X92310355Y-134702200D01*
X92310356Y-134702200D01*
X92528349Y-134667673D01*
X92738258Y-134599470D01*
X92934913Y-134499269D01*
X93113472Y-134369538D01*
X93269538Y-134213472D01*
X93399269Y-134034913D01*
X93499470Y-133838258D01*
X93567673Y-133628349D01*
X93602200Y-133410356D01*
X93602200Y-133189684D01*
X95798300Y-133189684D01*
X95798300Y-133410315D01*
X95832815Y-133628233D01*
X95832815Y-133628236D01*
X95900992Y-133838063D01*
X96001157Y-134034647D01*
X96047715Y-134098730D01*
X96600718Y-133545727D01*
X96626016Y-133606801D01*
X96696899Y-133712885D01*
X96787115Y-133803101D01*
X96893199Y-133873984D01*
X96954271Y-133899280D01*
X96401268Y-134452282D01*
X96401268Y-134452283D01*
X96465352Y-134498842D01*
X96661936Y-134599007D01*
X96871764Y-134667184D01*
X97089685Y-134701700D01*
X97310315Y-134701700D01*
X97528233Y-134667184D01*
X97528236Y-134667184D01*
X97738063Y-134599007D01*
X97934651Y-134498840D01*
X97998730Y-134452283D01*
X97998731Y-134452283D01*
X97445728Y-133899281D01*
X97506801Y-133873984D01*
X97612885Y-133803101D01*
X97703101Y-133712885D01*
X97773984Y-133606801D01*
X97799281Y-133545728D01*
X98352283Y-134098731D01*
X98352283Y-134098730D01*
X98398840Y-134034651D01*
X98499007Y-133838063D01*
X98567184Y-133628236D01*
X98567184Y-133628233D01*
X98601700Y-133410315D01*
X98601700Y-133189684D01*
X98601694Y-133189644D01*
X100797800Y-133189644D01*
X100797800Y-133410356D01*
X100798682Y-133415924D01*
X100832327Y-133628350D01*
X100900528Y-133838255D01*
X100900529Y-133838258D01*
X101000595Y-134034647D01*
X101000731Y-134034913D01*
X101130462Y-134213472D01*
X101286528Y-134369538D01*
X101465087Y-134499269D01*
X101561540Y-134548414D01*
X101661741Y-134599470D01*
X101661744Y-134599471D01*
X101766696Y-134633571D01*
X101871651Y-134667673D01*
X102089644Y-134702200D01*
X102089645Y-134702200D01*
X102310355Y-134702200D01*
X102310356Y-134702200D01*
X102528349Y-134667673D01*
X102738258Y-134599470D01*
X102934913Y-134499269D01*
X103113472Y-134369538D01*
X103269538Y-134213472D01*
X103399269Y-134034913D01*
X103499470Y-133838258D01*
X103567673Y-133628349D01*
X103602200Y-133410356D01*
X103602200Y-133189684D01*
X105798300Y-133189684D01*
X105798300Y-133410315D01*
X105832815Y-133628233D01*
X105832815Y-133628236D01*
X105900992Y-133838063D01*
X106001157Y-134034647D01*
X106047715Y-134098730D01*
X106600718Y-133545727D01*
X106626016Y-133606801D01*
X106696899Y-133712885D01*
X106787115Y-133803101D01*
X106893199Y-133873984D01*
X106954271Y-133899280D01*
X106401268Y-134452282D01*
X106401268Y-134452283D01*
X106465352Y-134498842D01*
X106661936Y-134599007D01*
X106871764Y-134667184D01*
X107089685Y-134701700D01*
X107310315Y-134701700D01*
X107528233Y-134667184D01*
X107528236Y-134667184D01*
X107738063Y-134599007D01*
X107934651Y-134498840D01*
X107998730Y-134452283D01*
X107998731Y-134452283D01*
X107445728Y-133899281D01*
X107506801Y-133873984D01*
X107612885Y-133803101D01*
X107703101Y-133712885D01*
X107773984Y-133606801D01*
X107799280Y-133545728D01*
X108352283Y-134098731D01*
X108352283Y-134098730D01*
X108398840Y-134034651D01*
X108499007Y-133838063D01*
X108567184Y-133628236D01*
X108567184Y-133628233D01*
X108601700Y-133410315D01*
X108601700Y-133189684D01*
X108601694Y-133189644D01*
X110797800Y-133189644D01*
X110797800Y-133410356D01*
X110798682Y-133415924D01*
X110832327Y-133628350D01*
X110900528Y-133838255D01*
X110900529Y-133838258D01*
X111000595Y-134034647D01*
X111000731Y-134034913D01*
X111130462Y-134213472D01*
X111286528Y-134369538D01*
X111465087Y-134499269D01*
X111561540Y-134548414D01*
X111661741Y-134599470D01*
X111661744Y-134599471D01*
X111766696Y-134633571D01*
X111871651Y-134667673D01*
X112089644Y-134702200D01*
X112089645Y-134702200D01*
X112310355Y-134702200D01*
X112310356Y-134702200D01*
X112528349Y-134667673D01*
X112738258Y-134599470D01*
X112934913Y-134499269D01*
X113113472Y-134369538D01*
X113269538Y-134213472D01*
X113399269Y-134034913D01*
X113499470Y-133838258D01*
X113567673Y-133628349D01*
X113602200Y-133410356D01*
X113602200Y-133189684D01*
X115798300Y-133189684D01*
X115798300Y-133410315D01*
X115832815Y-133628233D01*
X115832815Y-133628236D01*
X115900992Y-133838063D01*
X116001157Y-134034647D01*
X116047715Y-134098730D01*
X116600718Y-133545727D01*
X116626016Y-133606801D01*
X116696899Y-133712885D01*
X116787115Y-133803101D01*
X116893199Y-133873984D01*
X116954271Y-133899280D01*
X116401268Y-134452282D01*
X116401268Y-134452283D01*
X116465352Y-134498842D01*
X116661936Y-134599007D01*
X116871764Y-134667184D01*
X117089685Y-134701700D01*
X117310315Y-134701700D01*
X117528233Y-134667184D01*
X117528236Y-134667184D01*
X117738063Y-134599007D01*
X117934651Y-134498840D01*
X117998730Y-134452283D01*
X117998731Y-134452283D01*
X117445728Y-133899281D01*
X117506801Y-133873984D01*
X117612885Y-133803101D01*
X117703101Y-133712885D01*
X117773984Y-133606801D01*
X117799280Y-133545728D01*
X118352283Y-134098731D01*
X118352283Y-134098730D01*
X118398840Y-134034651D01*
X118499007Y-133838063D01*
X118567184Y-133628236D01*
X118567184Y-133628233D01*
X118601700Y-133410315D01*
X118601700Y-133189684D01*
X118601694Y-133189644D01*
X120797803Y-133189644D01*
X120797803Y-133410356D01*
X120798685Y-133415924D01*
X120832330Y-133628350D01*
X120900531Y-133838255D01*
X120900532Y-133838258D01*
X121000598Y-134034647D01*
X121000734Y-134034913D01*
X121130465Y-134213472D01*
X121286531Y-134369538D01*
X121465090Y-134499269D01*
X121561543Y-134548414D01*
X121661744Y-134599470D01*
X121661747Y-134599471D01*
X121766699Y-134633571D01*
X121871654Y-134667673D01*
X122089647Y-134702200D01*
X122089648Y-134702200D01*
X122310358Y-134702200D01*
X122310359Y-134702200D01*
X122528352Y-134667673D01*
X122738261Y-134599470D01*
X122934916Y-134499269D01*
X123113475Y-134369538D01*
X123269541Y-134213472D01*
X123399272Y-134034913D01*
X123499473Y-133838258D01*
X123567676Y-133628349D01*
X123602203Y-133410356D01*
X123602203Y-133189684D01*
X125798303Y-133189684D01*
X125798303Y-133410315D01*
X125832818Y-133628233D01*
X125832818Y-133628236D01*
X125900995Y-133838063D01*
X126001160Y-134034647D01*
X126047718Y-134098730D01*
X126600721Y-133545727D01*
X126626019Y-133606801D01*
X126696902Y-133712885D01*
X126787118Y-133803101D01*
X126893202Y-133873984D01*
X126954274Y-133899280D01*
X126401271Y-134452282D01*
X126401271Y-134452283D01*
X126465355Y-134498842D01*
X126661939Y-134599007D01*
X126871767Y-134667184D01*
X127089688Y-134701700D01*
X127310318Y-134701700D01*
X127367211Y-134692689D01*
X127528236Y-134667184D01*
X127528239Y-134667184D01*
X127738066Y-134599007D01*
X127934654Y-134498840D01*
X127998733Y-134452283D01*
X127998734Y-134452283D01*
X127445731Y-133899281D01*
X127506804Y-133873984D01*
X127612888Y-133803101D01*
X127703104Y-133712885D01*
X127773987Y-133606801D01*
X127799283Y-133545728D01*
X128352286Y-134098731D01*
X128352286Y-134098730D01*
X128398843Y-134034651D01*
X128499010Y-133838063D01*
X128567187Y-133628236D01*
X128567187Y-133628233D01*
X128601703Y-133410315D01*
X128601703Y-133189684D01*
X128567187Y-132971766D01*
X128567187Y-132971763D01*
X128499010Y-132761936D01*
X128398845Y-132565352D01*
X128352286Y-132501268D01*
X128352285Y-132501268D01*
X127799283Y-133054270D01*
X127773987Y-132993199D01*
X127703104Y-132887115D01*
X127612888Y-132796899D01*
X127506804Y-132726016D01*
X127445729Y-132700718D01*
X127998733Y-132147715D01*
X127934650Y-132101157D01*
X127738066Y-132000992D01*
X127528238Y-131932815D01*
X127310318Y-131898300D01*
X127089688Y-131898300D01*
X126871769Y-131932815D01*
X126871766Y-131932815D01*
X126661939Y-132000992D01*
X126465345Y-132101162D01*
X126401271Y-132147714D01*
X126401271Y-132147715D01*
X126954274Y-132700718D01*
X126893202Y-132726016D01*
X126787118Y-132796899D01*
X126696902Y-132887115D01*
X126626019Y-132993199D01*
X126600721Y-133054271D01*
X126047718Y-132501268D01*
X126047717Y-132501268D01*
X126001165Y-132565342D01*
X125900995Y-132761936D01*
X125832818Y-132971763D01*
X125832818Y-132971766D01*
X125798303Y-133189684D01*
X123602203Y-133189684D01*
X123602203Y-133189644D01*
X123567676Y-132971651D01*
X123499473Y-132761742D01*
X123499473Y-132761741D01*
X123399407Y-132565352D01*
X123399272Y-132565087D01*
X123269541Y-132386528D01*
X123113475Y-132230462D01*
X122934916Y-132100731D01*
X122738261Y-132000529D01*
X122738258Y-132000528D01*
X122528353Y-131932327D01*
X122419355Y-131915063D01*
X122310359Y-131897800D01*
X122089647Y-131897800D01*
X122016982Y-131909309D01*
X121871652Y-131932327D01*
X121661747Y-132000528D01*
X121661744Y-132000529D01*
X121465089Y-132100731D01*
X121400422Y-132147715D01*
X121286531Y-132230462D01*
X121286529Y-132230464D01*
X121286528Y-132230464D01*
X121130467Y-132386525D01*
X121130467Y-132386526D01*
X121130465Y-132386528D01*
X121074750Y-132463212D01*
X121000734Y-132565086D01*
X120900532Y-132761741D01*
X120900531Y-132761744D01*
X120832330Y-132971649D01*
X120797803Y-133189644D01*
X118601694Y-133189644D01*
X118567184Y-132971766D01*
X118567184Y-132971763D01*
X118499007Y-132761936D01*
X118398842Y-132565352D01*
X118352283Y-132501268D01*
X118352282Y-132501268D01*
X117799280Y-133054270D01*
X117773984Y-132993199D01*
X117703101Y-132887115D01*
X117612885Y-132796899D01*
X117506801Y-132726016D01*
X117445726Y-132700718D01*
X117998730Y-132147715D01*
X117934647Y-132101157D01*
X117738063Y-132000992D01*
X117528235Y-131932815D01*
X117310315Y-131898300D01*
X117089685Y-131898300D01*
X116871766Y-131932815D01*
X116871763Y-131932815D01*
X116661936Y-132000992D01*
X116465342Y-132101162D01*
X116401268Y-132147714D01*
X116401268Y-132147715D01*
X116954271Y-132700718D01*
X116893199Y-132726016D01*
X116787115Y-132796899D01*
X116696899Y-132887115D01*
X116626016Y-132993199D01*
X116600718Y-133054271D01*
X116047715Y-132501268D01*
X116047714Y-132501268D01*
X116001162Y-132565342D01*
X115900992Y-132761936D01*
X115832815Y-132971763D01*
X115832815Y-132971766D01*
X115798300Y-133189684D01*
X113602200Y-133189684D01*
X113602200Y-133189644D01*
X113567673Y-132971651D01*
X113499470Y-132761742D01*
X113499470Y-132761741D01*
X113399404Y-132565352D01*
X113399269Y-132565087D01*
X113269538Y-132386528D01*
X113113472Y-132230462D01*
X112934913Y-132100731D01*
X112738258Y-132000529D01*
X112738255Y-132000528D01*
X112528350Y-131932327D01*
X112419352Y-131915063D01*
X112310356Y-131897800D01*
X112089644Y-131897800D01*
X112016979Y-131909309D01*
X111871649Y-131932327D01*
X111661744Y-132000528D01*
X111661741Y-132000529D01*
X111465086Y-132100731D01*
X111400419Y-132147715D01*
X111286528Y-132230462D01*
X111286526Y-132230464D01*
X111286525Y-132230464D01*
X111130464Y-132386525D01*
X111130464Y-132386526D01*
X111130462Y-132386528D01*
X111074747Y-132463212D01*
X111000731Y-132565086D01*
X110900529Y-132761741D01*
X110900528Y-132761744D01*
X110832327Y-132971649D01*
X110797800Y-133189644D01*
X108601694Y-133189644D01*
X108567184Y-132971766D01*
X108567184Y-132971763D01*
X108499007Y-132761936D01*
X108398842Y-132565352D01*
X108352283Y-132501268D01*
X108352282Y-132501268D01*
X107799280Y-133054270D01*
X107773984Y-132993199D01*
X107703101Y-132887115D01*
X107612885Y-132796899D01*
X107506801Y-132726016D01*
X107445726Y-132700718D01*
X107998730Y-132147715D01*
X107934647Y-132101157D01*
X107738063Y-132000992D01*
X107528235Y-131932815D01*
X107310315Y-131898300D01*
X107089685Y-131898300D01*
X106871766Y-131932815D01*
X106871763Y-131932815D01*
X106661936Y-132000992D01*
X106465342Y-132101162D01*
X106401268Y-132147714D01*
X106401268Y-132147715D01*
X106954271Y-132700718D01*
X106893199Y-132726016D01*
X106787115Y-132796899D01*
X106696899Y-132887115D01*
X106626016Y-132993199D01*
X106600718Y-133054271D01*
X106047715Y-132501268D01*
X106047714Y-132501268D01*
X106001162Y-132565342D01*
X105900992Y-132761936D01*
X105832815Y-132971763D01*
X105832815Y-132971766D01*
X105798300Y-133189684D01*
X103602200Y-133189684D01*
X103602200Y-133189644D01*
X103567673Y-132971651D01*
X103499470Y-132761742D01*
X103499470Y-132761741D01*
X103399404Y-132565352D01*
X103399269Y-132565087D01*
X103269538Y-132386528D01*
X103113472Y-132230462D01*
X102934913Y-132100731D01*
X102738258Y-132000529D01*
X102738255Y-132000528D01*
X102528350Y-131932327D01*
X102419352Y-131915063D01*
X102310356Y-131897800D01*
X102089644Y-131897800D01*
X102016979Y-131909309D01*
X101871649Y-131932327D01*
X101661744Y-132000528D01*
X101661741Y-132000529D01*
X101465086Y-132100731D01*
X101400419Y-132147715D01*
X101286528Y-132230462D01*
X101286526Y-132230464D01*
X101286525Y-132230464D01*
X101130464Y-132386525D01*
X101130464Y-132386526D01*
X101130462Y-132386528D01*
X101074747Y-132463212D01*
X101000731Y-132565086D01*
X100900529Y-132761741D01*
X100900528Y-132761744D01*
X100832327Y-132971649D01*
X100797800Y-133189644D01*
X98601694Y-133189644D01*
X98567184Y-132971766D01*
X98567184Y-132971763D01*
X98499007Y-132761936D01*
X98398842Y-132565352D01*
X98352283Y-132501268D01*
X98352282Y-132501268D01*
X97799280Y-133054270D01*
X97773984Y-132993199D01*
X97703101Y-132887115D01*
X97612885Y-132796899D01*
X97506801Y-132726016D01*
X97445726Y-132700718D01*
X97998730Y-132147715D01*
X97934647Y-132101157D01*
X97738063Y-132000992D01*
X97528235Y-131932815D01*
X97310315Y-131898300D01*
X97089685Y-131898300D01*
X96871766Y-131932815D01*
X96871763Y-131932815D01*
X96661936Y-132000992D01*
X96465342Y-132101162D01*
X96401268Y-132147714D01*
X96401268Y-132147715D01*
X96954271Y-132700718D01*
X96893199Y-132726016D01*
X96787115Y-132796899D01*
X96696899Y-132887115D01*
X96626016Y-132993199D01*
X96600718Y-133054271D01*
X96047715Y-132501268D01*
X96047714Y-132501268D01*
X96001162Y-132565342D01*
X95900992Y-132761936D01*
X95832815Y-132971763D01*
X95832815Y-132971766D01*
X95798300Y-133189684D01*
X93602200Y-133189684D01*
X93602200Y-133189644D01*
X93567673Y-132971651D01*
X93499470Y-132761742D01*
X93499470Y-132761741D01*
X93399404Y-132565352D01*
X93399269Y-132565087D01*
X93269538Y-132386528D01*
X93113472Y-132230462D01*
X92934913Y-132100731D01*
X92738258Y-132000529D01*
X92738255Y-132000528D01*
X92528350Y-131932327D01*
X92419352Y-131915063D01*
X92310356Y-131897800D01*
X92089644Y-131897800D01*
X92016979Y-131909309D01*
X91871649Y-131932327D01*
X91661744Y-132000528D01*
X91661741Y-132000529D01*
X91465086Y-132100731D01*
X91400419Y-132147715D01*
X91286528Y-132230462D01*
X91286526Y-132230464D01*
X91286525Y-132230464D01*
X91130464Y-132386525D01*
X91130464Y-132386526D01*
X91130462Y-132386528D01*
X91074747Y-132463212D01*
X91000731Y-132565086D01*
X90900529Y-132761741D01*
X90900528Y-132761744D01*
X90832327Y-132971649D01*
X90797800Y-133189644D01*
X88601693Y-133189644D01*
X88567183Y-132971766D01*
X88567183Y-132971763D01*
X88499006Y-132761936D01*
X88398841Y-132565352D01*
X88352282Y-132501268D01*
X88352281Y-132501268D01*
X87799279Y-133054270D01*
X87773983Y-132993199D01*
X87703100Y-132887115D01*
X87612884Y-132796899D01*
X87506800Y-132726016D01*
X87445725Y-132700718D01*
X87998729Y-132147715D01*
X87934646Y-132101157D01*
X87738062Y-132000992D01*
X87528234Y-131932815D01*
X87310314Y-131898300D01*
X87089684Y-131898300D01*
X86871765Y-131932815D01*
X86871762Y-131932815D01*
X86661935Y-132000992D01*
X86465341Y-132101162D01*
X86401267Y-132147714D01*
X86401267Y-132147715D01*
X86954270Y-132700718D01*
X86893198Y-132726016D01*
X86787114Y-132796899D01*
X86696898Y-132887115D01*
X86626015Y-132993199D01*
X86600717Y-133054271D01*
X86047714Y-132501268D01*
X86047713Y-132501268D01*
X86001161Y-132565342D01*
X85900991Y-132761936D01*
X85832814Y-132971763D01*
X85832814Y-132971766D01*
X85798299Y-133189684D01*
X83602200Y-133189684D01*
X83602200Y-133189644D01*
X83567673Y-132971651D01*
X83499470Y-132761742D01*
X83499470Y-132761741D01*
X83399404Y-132565352D01*
X83399269Y-132565087D01*
X83269538Y-132386528D01*
X83113472Y-132230462D01*
X82934913Y-132100731D01*
X82738258Y-132000529D01*
X82738255Y-132000528D01*
X82528350Y-131932327D01*
X82419352Y-131915063D01*
X82310356Y-131897800D01*
X82089644Y-131897800D01*
X82016979Y-131909309D01*
X81871649Y-131932327D01*
X81661744Y-132000528D01*
X81661741Y-132000529D01*
X81465086Y-132100731D01*
X81400419Y-132147715D01*
X81286528Y-132230462D01*
X81286526Y-132230464D01*
X81286525Y-132230464D01*
X81130464Y-132386525D01*
X81130464Y-132386526D01*
X81130462Y-132386528D01*
X81074747Y-132463212D01*
X81000731Y-132565086D01*
X80900529Y-132761741D01*
X80900528Y-132761744D01*
X80832327Y-132971649D01*
X80797800Y-133189644D01*
X78228298Y-133189644D01*
X78177859Y-133095279D01*
X78177858Y-133095277D01*
X78177853Y-133095268D01*
X77975854Y-132792956D01*
X77745197Y-132511899D01*
X77745196Y-132511898D01*
X77745192Y-132511893D01*
X77488106Y-132254807D01*
X77207049Y-132024150D01*
X77207048Y-132024149D01*
X77207044Y-132024146D01*
X76904732Y-131822147D01*
X76904727Y-131822144D01*
X76904720Y-131822140D01*
X76584083Y-131650756D01*
X76584078Y-131650754D01*
X76248165Y-131511614D01*
X75900223Y-131406067D01*
X75900212Y-131406064D01*
X75543630Y-131335137D01*
X75271111Y-131308296D01*
X75181794Y-131299500D01*
X74818206Y-131299500D01*
X74735679Y-131307628D01*
X74456369Y-131335137D01*
X74099787Y-131406064D01*
X74099776Y-131406067D01*
X73751834Y-131511614D01*
X73415921Y-131650754D01*
X73415916Y-131650756D01*
X73095279Y-131822140D01*
X73095261Y-131822151D01*
X72792964Y-132024140D01*
X72792950Y-132024150D01*
X72511893Y-132254807D01*
X72254807Y-132511893D01*
X72024150Y-132792950D01*
X72024140Y-132792964D01*
X71822151Y-133095261D01*
X71822140Y-133095279D01*
X71650756Y-133415916D01*
X71650754Y-133415921D01*
X71511614Y-133751834D01*
X71406067Y-134099776D01*
X71406064Y-134099787D01*
X71335137Y-134456369D01*
X71299500Y-134818209D01*
X70075500Y-134818209D01*
X70075500Y-123161153D01*
X104879500Y-123161153D01*
X104879500Y-123318846D01*
X104910261Y-123473489D01*
X104910264Y-123473501D01*
X104970602Y-123619172D01*
X104970609Y-123619185D01*
X105058210Y-123750288D01*
X105058213Y-123750292D01*
X105169707Y-123861786D01*
X105169711Y-123861789D01*
X105300814Y-123949390D01*
X105300827Y-123949397D01*
X105446498Y-124009735D01*
X105446503Y-124009737D01*
X105601153Y-124040499D01*
X105601156Y-124040500D01*
X105601158Y-124040500D01*
X105758844Y-124040500D01*
X105758845Y-124040499D01*
X105913497Y-124009737D01*
X106059179Y-123949394D01*
X106190289Y-123861789D01*
X106301789Y-123750289D01*
X106389394Y-123619179D01*
X106449737Y-123473497D01*
X106480500Y-123318842D01*
X106480500Y-123161158D01*
X106480500Y-123161155D01*
X106480499Y-123161153D01*
X107589500Y-123161153D01*
X107589500Y-123318846D01*
X107620261Y-123473489D01*
X107620264Y-123473501D01*
X107680602Y-123619172D01*
X107680609Y-123619185D01*
X107768210Y-123750288D01*
X107768213Y-123750292D01*
X107879707Y-123861786D01*
X107879711Y-123861789D01*
X108010814Y-123949390D01*
X108010827Y-123949397D01*
X108156498Y-124009735D01*
X108156503Y-124009737D01*
X108311153Y-124040499D01*
X108311156Y-124040500D01*
X108311158Y-124040500D01*
X108468844Y-124040500D01*
X108468845Y-124040499D01*
X108623497Y-124009737D01*
X108769179Y-123949394D01*
X108900289Y-123861789D01*
X109011789Y-123750289D01*
X109099394Y-123619179D01*
X109159737Y-123473497D01*
X109190500Y-123318842D01*
X109190500Y-123161158D01*
X109190500Y-123161155D01*
X109190499Y-123161153D01*
X109159738Y-123006510D01*
X109159737Y-123006503D01*
X109159735Y-123006498D01*
X109099397Y-122860827D01*
X109099390Y-122860814D01*
X109011789Y-122729711D01*
X109011786Y-122729707D01*
X108900292Y-122618213D01*
X108900288Y-122618210D01*
X108769185Y-122530609D01*
X108769172Y-122530602D01*
X108623501Y-122470264D01*
X108623489Y-122470261D01*
X108468845Y-122439500D01*
X108468842Y-122439500D01*
X108311158Y-122439500D01*
X108311155Y-122439500D01*
X108156510Y-122470261D01*
X108156498Y-122470264D01*
X108010827Y-122530602D01*
X108010814Y-122530609D01*
X107879711Y-122618210D01*
X107879707Y-122618213D01*
X107768213Y-122729707D01*
X107768210Y-122729711D01*
X107680609Y-122860814D01*
X107680602Y-122860827D01*
X107620264Y-123006498D01*
X107620261Y-123006510D01*
X107589500Y-123161153D01*
X106480499Y-123161153D01*
X106449738Y-123006510D01*
X106449737Y-123006503D01*
X106449735Y-123006498D01*
X106389397Y-122860827D01*
X106389390Y-122860814D01*
X106301789Y-122729711D01*
X106301786Y-122729707D01*
X106190292Y-122618213D01*
X106190288Y-122618210D01*
X106059185Y-122530609D01*
X106059172Y-122530602D01*
X105913501Y-122470264D01*
X105913489Y-122470261D01*
X105758845Y-122439500D01*
X105758842Y-122439500D01*
X105601158Y-122439500D01*
X105601155Y-122439500D01*
X105446510Y-122470261D01*
X105446498Y-122470264D01*
X105300827Y-122530602D01*
X105300814Y-122530609D01*
X105169711Y-122618210D01*
X105169707Y-122618213D01*
X105058213Y-122729707D01*
X105058210Y-122729711D01*
X104970609Y-122860814D01*
X104970602Y-122860827D01*
X104910264Y-123006498D01*
X104910261Y-123006510D01*
X104879500Y-123161153D01*
X70075500Y-123161153D01*
X70075500Y-117591153D01*
X76949500Y-117591153D01*
X76949500Y-117748846D01*
X76980261Y-117903489D01*
X76980264Y-117903501D01*
X77040602Y-118049172D01*
X77040609Y-118049185D01*
X77128210Y-118180288D01*
X77128213Y-118180292D01*
X77239707Y-118291786D01*
X77239711Y-118291789D01*
X77370814Y-118379390D01*
X77370827Y-118379397D01*
X77516498Y-118439735D01*
X77516503Y-118439737D01*
X77671153Y-118470499D01*
X77671156Y-118470500D01*
X77671158Y-118470500D01*
X77828844Y-118470500D01*
X77828845Y-118470499D01*
X77983497Y-118439737D01*
X78129179Y-118379394D01*
X78260289Y-118291789D01*
X78371789Y-118180289D01*
X78377893Y-118171153D01*
X101699500Y-118171153D01*
X101699500Y-118328846D01*
X101730261Y-118483489D01*
X101730264Y-118483501D01*
X101790602Y-118629172D01*
X101790609Y-118629185D01*
X101825304Y-118681109D01*
X101846182Y-118747786D01*
X101827698Y-118815167D01*
X101825304Y-118818891D01*
X101790609Y-118870814D01*
X101790602Y-118870827D01*
X101730264Y-119016498D01*
X101730261Y-119016510D01*
X101699500Y-119171153D01*
X101699500Y-119328846D01*
X101730261Y-119483489D01*
X101730264Y-119483501D01*
X101790602Y-119629172D01*
X101790609Y-119629185D01*
X101825304Y-119681109D01*
X101846182Y-119747786D01*
X101827698Y-119815167D01*
X101825304Y-119818891D01*
X101790609Y-119870814D01*
X101790602Y-119870827D01*
X101730264Y-120016498D01*
X101730261Y-120016510D01*
X101699500Y-120171153D01*
X101699500Y-120328846D01*
X101730261Y-120483489D01*
X101730264Y-120483501D01*
X101790602Y-120629172D01*
X101790609Y-120629185D01*
X101878210Y-120760288D01*
X101878213Y-120760292D01*
X101989707Y-120871786D01*
X101989711Y-120871789D01*
X102120814Y-120959390D01*
X102120827Y-120959397D01*
X102266498Y-121019735D01*
X102266503Y-121019737D01*
X102421153Y-121050499D01*
X102421156Y-121050500D01*
X102421158Y-121050500D01*
X102578844Y-121050500D01*
X102578845Y-121050499D01*
X102733497Y-121019737D01*
X102879179Y-120959394D01*
X103010289Y-120871789D01*
X103121789Y-120760289D01*
X103209394Y-120629179D01*
X103269737Y-120483497D01*
X103300500Y-120328842D01*
X103300500Y-120171158D01*
X103300500Y-120171157D01*
X103300500Y-120171155D01*
X103293540Y-120136167D01*
X103299767Y-120066576D01*
X103342629Y-120011398D01*
X103408519Y-119988153D01*
X103462609Y-119997414D01*
X103508683Y-120016498D01*
X103516503Y-120019737D01*
X103671153Y-120050499D01*
X103671156Y-120050500D01*
X103671158Y-120050500D01*
X103828844Y-120050500D01*
X103828845Y-120050499D01*
X103983497Y-120019737D01*
X104129179Y-119959394D01*
X104260289Y-119871789D01*
X104264192Y-119867886D01*
X106266233Y-119867886D01*
X106266233Y-120025579D01*
X106296994Y-120180222D01*
X106296997Y-120180234D01*
X106357335Y-120325905D01*
X106357342Y-120325918D01*
X106444943Y-120457021D01*
X106444946Y-120457025D01*
X106556440Y-120568519D01*
X106556444Y-120568522D01*
X106687547Y-120656123D01*
X106687560Y-120656130D01*
X106833231Y-120716468D01*
X106833236Y-120716470D01*
X106987886Y-120747232D01*
X106987889Y-120747233D01*
X106987891Y-120747233D01*
X107145577Y-120747233D01*
X107145578Y-120747232D01*
X107300230Y-120716470D01*
X107445912Y-120656127D01*
X107577022Y-120568522D01*
X107688522Y-120457022D01*
X107776127Y-120325912D01*
X107836470Y-120180230D01*
X107867233Y-120025575D01*
X107867233Y-119867891D01*
X107867233Y-119867888D01*
X107867232Y-119867886D01*
X107836471Y-119713243D01*
X107836470Y-119713236D01*
X107823162Y-119681108D01*
X107776130Y-119567560D01*
X107776123Y-119567547D01*
X107688522Y-119436444D01*
X107688519Y-119436440D01*
X107577025Y-119324946D01*
X107577021Y-119324943D01*
X107445918Y-119237342D01*
X107445905Y-119237335D01*
X107300234Y-119176997D01*
X107300222Y-119176994D01*
X107145578Y-119146233D01*
X107145575Y-119146233D01*
X106987891Y-119146233D01*
X106987888Y-119146233D01*
X106833243Y-119176994D01*
X106833231Y-119176997D01*
X106687560Y-119237335D01*
X106687547Y-119237342D01*
X106556444Y-119324943D01*
X106556440Y-119324946D01*
X106444946Y-119436440D01*
X106444943Y-119436444D01*
X106357342Y-119567547D01*
X106357335Y-119567560D01*
X106296997Y-119713231D01*
X106296994Y-119713243D01*
X106266233Y-119867886D01*
X104264192Y-119867886D01*
X104357961Y-119774118D01*
X104371786Y-119760292D01*
X104371789Y-119760289D01*
X104459394Y-119629179D01*
X104519737Y-119483497D01*
X104550500Y-119328842D01*
X104550500Y-119171158D01*
X104550500Y-119171155D01*
X104550499Y-119171153D01*
X104519738Y-119016510D01*
X104519737Y-119016503D01*
X104500424Y-118969879D01*
X104492956Y-118900410D01*
X104524231Y-118837931D01*
X104584320Y-118802279D01*
X104654145Y-118804773D01*
X104702667Y-118834746D01*
X104739707Y-118871786D01*
X104739711Y-118871789D01*
X104870814Y-118959390D01*
X104870827Y-118959397D01*
X105008683Y-119016498D01*
X105016503Y-119019737D01*
X105171153Y-119050499D01*
X105171156Y-119050500D01*
X105171158Y-119050500D01*
X105328844Y-119050500D01*
X105328845Y-119050499D01*
X105483497Y-119019737D01*
X105629179Y-118959394D01*
X105760289Y-118871789D01*
X105871789Y-118760289D01*
X105959394Y-118629179D01*
X106019737Y-118483497D01*
X106050500Y-118328842D01*
X106050500Y-118171158D01*
X106050500Y-118171155D01*
X106050499Y-118171153D01*
X107699500Y-118171153D01*
X107699500Y-118328846D01*
X107730261Y-118483489D01*
X107730264Y-118483501D01*
X107790602Y-118629172D01*
X107790609Y-118629185D01*
X107878210Y-118760288D01*
X107878213Y-118760292D01*
X107989707Y-118871786D01*
X107989711Y-118871789D01*
X108120814Y-118959390D01*
X108120827Y-118959397D01*
X108258683Y-119016498D01*
X108266503Y-119019737D01*
X108421153Y-119050499D01*
X108421156Y-119050500D01*
X108421158Y-119050500D01*
X108578844Y-119050500D01*
X108578845Y-119050499D01*
X108733497Y-119019737D01*
X108879179Y-118959394D01*
X109010289Y-118871789D01*
X109047331Y-118834747D01*
X109108653Y-118801261D01*
X109178345Y-118806245D01*
X109234279Y-118848115D01*
X109258697Y-118913579D01*
X109249575Y-118969878D01*
X109230263Y-119016502D01*
X109230261Y-119016510D01*
X109199500Y-119171153D01*
X109199500Y-119328846D01*
X109230261Y-119483489D01*
X109230264Y-119483501D01*
X109290602Y-119629172D01*
X109290609Y-119629185D01*
X109378210Y-119760288D01*
X109378213Y-119760292D01*
X109489707Y-119871786D01*
X109489711Y-119871789D01*
X109620814Y-119959390D01*
X109620827Y-119959397D01*
X109758683Y-120016498D01*
X109766503Y-120019737D01*
X109921153Y-120050499D01*
X109921156Y-120050500D01*
X109921158Y-120050500D01*
X110078844Y-120050500D01*
X110078845Y-120050499D01*
X110233497Y-120019737D01*
X110287390Y-119997413D01*
X110356859Y-119989945D01*
X110419338Y-120021220D01*
X110454990Y-120081309D01*
X110456460Y-120136164D01*
X110449500Y-120171157D01*
X110449500Y-120328846D01*
X110480261Y-120483489D01*
X110480264Y-120483501D01*
X110540602Y-120629172D01*
X110540609Y-120629185D01*
X110628210Y-120760288D01*
X110628213Y-120760292D01*
X110739707Y-120871786D01*
X110739711Y-120871789D01*
X110870814Y-120959390D01*
X110870827Y-120959397D01*
X111016498Y-121019735D01*
X111016503Y-121019737D01*
X111171153Y-121050499D01*
X111171156Y-121050500D01*
X111171158Y-121050500D01*
X111328844Y-121050500D01*
X111328845Y-121050499D01*
X111483497Y-121019737D01*
X111629179Y-120959394D01*
X111760289Y-120871789D01*
X111871789Y-120760289D01*
X111959394Y-120629179D01*
X112019737Y-120483497D01*
X112050500Y-120328842D01*
X112050500Y-120171158D01*
X112050500Y-120171157D01*
X112050500Y-120171155D01*
X112050499Y-120171153D01*
X112021542Y-120025577D01*
X112019737Y-120016503D01*
X112019735Y-120016498D01*
X111959396Y-119870825D01*
X111959394Y-119870822D01*
X111959394Y-119870821D01*
X111924694Y-119818889D01*
X111903816Y-119752215D01*
X111922300Y-119684835D01*
X111924676Y-119681136D01*
X111959394Y-119629179D01*
X112019737Y-119483497D01*
X112050500Y-119328842D01*
X112050500Y-119171158D01*
X112050500Y-119171155D01*
X112050499Y-119171153D01*
X112019738Y-119016510D01*
X112019737Y-119016503D01*
X112000425Y-118969880D01*
X111959396Y-118870825D01*
X111959394Y-118870822D01*
X111959394Y-118870821D01*
X111924694Y-118818889D01*
X111903816Y-118752215D01*
X111922300Y-118684835D01*
X111924676Y-118681136D01*
X111959394Y-118629179D01*
X112019737Y-118483497D01*
X112050500Y-118328842D01*
X112050500Y-118171158D01*
X112050500Y-118171155D01*
X112050499Y-118171153D01*
X112026238Y-118049185D01*
X112019737Y-118016503D01*
X112000000Y-117968853D01*
X111959397Y-117870827D01*
X111959390Y-117870814D01*
X111871789Y-117739711D01*
X111871786Y-117739707D01*
X111760292Y-117628213D01*
X111760288Y-117628210D01*
X111629185Y-117540609D01*
X111629172Y-117540602D01*
X111483501Y-117480264D01*
X111483489Y-117480261D01*
X111328845Y-117449500D01*
X111328842Y-117449500D01*
X111171158Y-117449500D01*
X111171155Y-117449500D01*
X111016510Y-117480261D01*
X111016498Y-117480264D01*
X110870827Y-117540602D01*
X110870814Y-117540609D01*
X110739711Y-117628210D01*
X110739707Y-117628213D01*
X110712681Y-117655240D01*
X110651358Y-117688725D01*
X110581666Y-117683741D01*
X110537319Y-117655240D01*
X110510292Y-117628213D01*
X110510288Y-117628210D01*
X110379185Y-117540609D01*
X110379172Y-117540602D01*
X110233501Y-117480264D01*
X110233489Y-117480261D01*
X110078845Y-117449500D01*
X110078842Y-117449500D01*
X109921158Y-117449500D01*
X109921155Y-117449500D01*
X109766510Y-117480261D01*
X109766498Y-117480264D01*
X109620827Y-117540602D01*
X109620814Y-117540609D01*
X109489711Y-117628210D01*
X109489707Y-117628213D01*
X109378213Y-117739707D01*
X109353102Y-117777289D01*
X109299489Y-117822093D01*
X109230164Y-117830800D01*
X109167137Y-117800645D01*
X109146898Y-117777289D01*
X109127890Y-117748842D01*
X109121789Y-117739711D01*
X109121788Y-117739710D01*
X109121786Y-117739707D01*
X109010292Y-117628213D01*
X109010288Y-117628210D01*
X108879185Y-117540609D01*
X108879172Y-117540602D01*
X108733501Y-117480264D01*
X108733489Y-117480261D01*
X108578845Y-117449500D01*
X108578842Y-117449500D01*
X108421158Y-117449500D01*
X108421155Y-117449500D01*
X108266510Y-117480261D01*
X108266498Y-117480264D01*
X108120827Y-117540602D01*
X108120814Y-117540609D01*
X107989711Y-117628210D01*
X107989707Y-117628213D01*
X107878213Y-117739707D01*
X107878210Y-117739711D01*
X107790609Y-117870814D01*
X107790602Y-117870827D01*
X107730264Y-118016498D01*
X107730261Y-118016510D01*
X107699500Y-118171153D01*
X106050499Y-118171153D01*
X106026238Y-118049185D01*
X106019737Y-118016503D01*
X106000000Y-117968853D01*
X105959397Y-117870827D01*
X105959390Y-117870814D01*
X105871789Y-117739711D01*
X105871786Y-117739707D01*
X105760292Y-117628213D01*
X105760288Y-117628210D01*
X105629185Y-117540609D01*
X105629172Y-117540602D01*
X105483501Y-117480264D01*
X105483489Y-117480261D01*
X105328845Y-117449500D01*
X105328842Y-117449500D01*
X105171158Y-117449500D01*
X105171155Y-117449500D01*
X105016510Y-117480261D01*
X105016498Y-117480264D01*
X104870827Y-117540602D01*
X104870814Y-117540609D01*
X104739711Y-117628210D01*
X104739707Y-117628213D01*
X104628213Y-117739707D01*
X104603102Y-117777289D01*
X104549489Y-117822093D01*
X104480164Y-117830800D01*
X104417137Y-117800645D01*
X104396898Y-117777289D01*
X104377890Y-117748842D01*
X104371789Y-117739711D01*
X104371788Y-117739710D01*
X104371786Y-117739707D01*
X104260292Y-117628213D01*
X104260288Y-117628210D01*
X104129185Y-117540609D01*
X104129172Y-117540602D01*
X103983501Y-117480264D01*
X103983489Y-117480261D01*
X103828845Y-117449500D01*
X103828842Y-117449500D01*
X103671158Y-117449500D01*
X103671155Y-117449500D01*
X103516510Y-117480261D01*
X103516498Y-117480264D01*
X103370827Y-117540602D01*
X103370814Y-117540609D01*
X103239711Y-117628210D01*
X103239707Y-117628213D01*
X103212681Y-117655240D01*
X103151358Y-117688725D01*
X103081666Y-117683741D01*
X103037319Y-117655240D01*
X103010292Y-117628213D01*
X103010288Y-117628210D01*
X102879185Y-117540609D01*
X102879172Y-117540602D01*
X102733501Y-117480264D01*
X102733489Y-117480261D01*
X102578845Y-117449500D01*
X102578842Y-117449500D01*
X102421158Y-117449500D01*
X102421155Y-117449500D01*
X102266510Y-117480261D01*
X102266498Y-117480264D01*
X102120827Y-117540602D01*
X102120814Y-117540609D01*
X101989711Y-117628210D01*
X101989707Y-117628213D01*
X101878213Y-117739707D01*
X101878210Y-117739711D01*
X101790609Y-117870814D01*
X101790602Y-117870827D01*
X101730264Y-118016498D01*
X101730261Y-118016510D01*
X101699500Y-118171153D01*
X78377893Y-118171153D01*
X78398108Y-118140898D01*
X78427993Y-118096175D01*
X78459390Y-118049185D01*
X78459390Y-118049184D01*
X78459394Y-118049179D01*
X78519737Y-117903497D01*
X78550500Y-117748842D01*
X78550500Y-117591158D01*
X78550500Y-117591155D01*
X78550499Y-117591153D01*
X78540445Y-117540609D01*
X78519737Y-117436503D01*
X78504737Y-117400289D01*
X78459397Y-117290827D01*
X78459390Y-117290814D01*
X78371789Y-117159711D01*
X78371786Y-117159707D01*
X78260292Y-117048213D01*
X78260288Y-117048210D01*
X78129185Y-116960609D01*
X78129172Y-116960602D01*
X78030247Y-116919627D01*
X77983501Y-116900264D01*
X77983489Y-116900261D01*
X77828845Y-116869500D01*
X77828842Y-116869500D01*
X77671158Y-116869500D01*
X77671155Y-116869500D01*
X77516510Y-116900261D01*
X77516498Y-116900264D01*
X77370827Y-116960602D01*
X77370814Y-116960609D01*
X77239711Y-117048210D01*
X77239707Y-117048213D01*
X77128213Y-117159707D01*
X77128210Y-117159711D01*
X77040609Y-117290814D01*
X77040602Y-117290827D01*
X76980264Y-117436498D01*
X76980261Y-117436510D01*
X76949500Y-117591153D01*
X70075500Y-117591153D01*
X70075500Y-116811153D01*
X134649500Y-116811153D01*
X134649500Y-116968846D01*
X134680261Y-117123489D01*
X134680264Y-117123501D01*
X134740602Y-117269172D01*
X134740609Y-117269185D01*
X134828210Y-117400288D01*
X134828213Y-117400292D01*
X134939707Y-117511786D01*
X134939711Y-117511789D01*
X135070814Y-117599390D01*
X135070827Y-117599397D01*
X135205646Y-117655240D01*
X135216503Y-117659737D01*
X135362235Y-117688725D01*
X135371153Y-117690499D01*
X135371156Y-117690500D01*
X135371158Y-117690500D01*
X135528844Y-117690500D01*
X135528845Y-117690499D01*
X135683497Y-117659737D01*
X135829179Y-117599394D01*
X135960289Y-117511789D01*
X136071789Y-117400289D01*
X136159394Y-117269179D01*
X136219737Y-117123497D01*
X136250500Y-116968842D01*
X136250500Y-116811158D01*
X136250500Y-116811155D01*
X136250499Y-116811153D01*
X136219738Y-116656510D01*
X136219737Y-116656503D01*
X136219735Y-116656498D01*
X136159397Y-116510827D01*
X136159390Y-116510814D01*
X136071789Y-116379711D01*
X136071786Y-116379707D01*
X135960292Y-116268213D01*
X135960288Y-116268210D01*
X135829185Y-116180609D01*
X135829172Y-116180602D01*
X135683501Y-116120264D01*
X135683489Y-116120261D01*
X135528845Y-116089500D01*
X135528842Y-116089500D01*
X135371158Y-116089500D01*
X135371155Y-116089500D01*
X135216510Y-116120261D01*
X135216498Y-116120264D01*
X135070827Y-116180602D01*
X135070814Y-116180609D01*
X134939711Y-116268210D01*
X134939707Y-116268213D01*
X134828213Y-116379707D01*
X134828210Y-116379711D01*
X134740609Y-116510814D01*
X134740602Y-116510827D01*
X134680264Y-116656498D01*
X134680261Y-116656510D01*
X134649500Y-116811153D01*
X70075500Y-116811153D01*
X70075500Y-115031153D01*
X89819500Y-115031153D01*
X89819500Y-115188846D01*
X89850261Y-115343489D01*
X89850264Y-115343501D01*
X89910602Y-115489172D01*
X89910609Y-115489185D01*
X89998210Y-115620288D01*
X89998213Y-115620292D01*
X90109707Y-115731786D01*
X90109711Y-115731789D01*
X90240814Y-115819390D01*
X90240827Y-115819397D01*
X90386498Y-115879735D01*
X90386503Y-115879737D01*
X90541153Y-115910499D01*
X90541156Y-115910500D01*
X90541158Y-115910500D01*
X90698844Y-115910500D01*
X90698845Y-115910499D01*
X90853497Y-115879737D01*
X90999179Y-115819394D01*
X91130289Y-115731789D01*
X91241789Y-115620289D01*
X91329394Y-115489179D01*
X91329395Y-115489176D01*
X91329397Y-115489173D01*
X91350439Y-115438372D01*
X91394279Y-115383968D01*
X91460573Y-115361903D01*
X91528273Y-115379182D01*
X91575883Y-115430319D01*
X91579561Y-115438372D01*
X91600602Y-115489173D01*
X91600609Y-115489185D01*
X91688210Y-115620288D01*
X91688213Y-115620292D01*
X91799707Y-115731786D01*
X91799711Y-115731789D01*
X91930814Y-115819390D01*
X91930827Y-115819397D01*
X92076498Y-115879735D01*
X92076503Y-115879737D01*
X92231153Y-115910499D01*
X92231156Y-115910500D01*
X92231158Y-115910500D01*
X92388844Y-115910500D01*
X92388845Y-115910499D01*
X92543497Y-115879737D01*
X92689179Y-115819394D01*
X92820289Y-115731789D01*
X92931789Y-115620289D01*
X93019394Y-115489179D01*
X93079737Y-115343497D01*
X93110500Y-115188842D01*
X93110500Y-115031158D01*
X93110500Y-115031155D01*
X93110499Y-115031153D01*
X120299500Y-115031153D01*
X120299500Y-115188846D01*
X120330261Y-115343489D01*
X120330264Y-115343501D01*
X120390602Y-115489172D01*
X120390609Y-115489185D01*
X120478210Y-115620288D01*
X120478213Y-115620292D01*
X120589707Y-115731786D01*
X120589711Y-115731789D01*
X120720814Y-115819390D01*
X120720827Y-115819397D01*
X120866498Y-115879735D01*
X120866503Y-115879737D01*
X121021153Y-115910499D01*
X121021156Y-115910500D01*
X121021158Y-115910500D01*
X121178844Y-115910500D01*
X121178845Y-115910499D01*
X121333497Y-115879737D01*
X121479179Y-115819394D01*
X121610289Y-115731789D01*
X121721789Y-115620289D01*
X121809394Y-115489179D01*
X121830439Y-115438372D01*
X121855439Y-115378016D01*
X121899279Y-115323612D01*
X121965573Y-115301547D01*
X122033273Y-115318826D01*
X122080884Y-115369963D01*
X122084561Y-115378016D01*
X122130602Y-115489172D01*
X122130609Y-115489185D01*
X122218210Y-115620288D01*
X122218213Y-115620292D01*
X122329707Y-115731786D01*
X122329711Y-115731789D01*
X122460814Y-115819390D01*
X122460827Y-115819397D01*
X122606498Y-115879735D01*
X122606503Y-115879737D01*
X122761153Y-115910499D01*
X122761156Y-115910500D01*
X122761158Y-115910500D01*
X122918844Y-115910500D01*
X122918845Y-115910499D01*
X123073497Y-115879737D01*
X123219179Y-115819394D01*
X123350289Y-115731789D01*
X123461789Y-115620289D01*
X123549394Y-115489179D01*
X123609737Y-115343497D01*
X123640500Y-115188842D01*
X123640500Y-115031158D01*
X123640500Y-115031155D01*
X123640499Y-115031153D01*
X123609738Y-114876510D01*
X123609737Y-114876503D01*
X123598774Y-114850036D01*
X123549397Y-114730827D01*
X123549390Y-114730814D01*
X123461789Y-114599711D01*
X123461786Y-114599707D01*
X123350292Y-114488213D01*
X123350288Y-114488210D01*
X123219185Y-114400609D01*
X123219172Y-114400602D01*
X123073501Y-114340264D01*
X123073489Y-114340261D01*
X122918845Y-114309500D01*
X122918842Y-114309500D01*
X122761158Y-114309500D01*
X122761155Y-114309500D01*
X122606510Y-114340261D01*
X122606498Y-114340264D01*
X122460827Y-114400602D01*
X122460814Y-114400609D01*
X122329711Y-114488210D01*
X122329707Y-114488213D01*
X122218213Y-114599707D01*
X122218210Y-114599711D01*
X122130609Y-114730814D01*
X122130602Y-114730827D01*
X122084561Y-114841983D01*
X122040720Y-114896387D01*
X121974426Y-114918452D01*
X121906727Y-114901173D01*
X121859116Y-114850036D01*
X121855439Y-114841983D01*
X121809397Y-114730827D01*
X121809390Y-114730814D01*
X121721789Y-114599711D01*
X121721786Y-114599707D01*
X121610292Y-114488213D01*
X121610288Y-114488210D01*
X121479185Y-114400609D01*
X121479172Y-114400602D01*
X121333501Y-114340264D01*
X121333489Y-114340261D01*
X121178845Y-114309500D01*
X121178842Y-114309500D01*
X121021158Y-114309500D01*
X121021155Y-114309500D01*
X120866510Y-114340261D01*
X120866498Y-114340264D01*
X120720827Y-114400602D01*
X120720814Y-114400609D01*
X120589711Y-114488210D01*
X120589707Y-114488213D01*
X120478213Y-114599707D01*
X120478210Y-114599711D01*
X120390609Y-114730814D01*
X120390602Y-114730827D01*
X120330264Y-114876498D01*
X120330261Y-114876510D01*
X120299500Y-115031153D01*
X93110499Y-115031153D01*
X93079738Y-114876510D01*
X93079737Y-114876503D01*
X93068774Y-114850036D01*
X93019397Y-114730827D01*
X93019390Y-114730814D01*
X92931789Y-114599711D01*
X92931786Y-114599707D01*
X92820292Y-114488213D01*
X92820288Y-114488210D01*
X92689185Y-114400609D01*
X92689172Y-114400602D01*
X92543501Y-114340264D01*
X92543489Y-114340261D01*
X92388845Y-114309500D01*
X92388842Y-114309500D01*
X92231158Y-114309500D01*
X92231155Y-114309500D01*
X92076510Y-114340261D01*
X92076498Y-114340264D01*
X91930827Y-114400602D01*
X91930814Y-114400609D01*
X91799711Y-114488210D01*
X91799707Y-114488213D01*
X91688213Y-114599707D01*
X91688210Y-114599711D01*
X91600609Y-114730814D01*
X91600602Y-114730827D01*
X91579561Y-114781627D01*
X91535720Y-114836031D01*
X91469426Y-114858096D01*
X91401727Y-114840817D01*
X91354116Y-114789680D01*
X91350439Y-114781627D01*
X91329397Y-114730827D01*
X91329390Y-114730814D01*
X91241789Y-114599711D01*
X91241786Y-114599707D01*
X91130292Y-114488213D01*
X91130288Y-114488210D01*
X90999185Y-114400609D01*
X90999172Y-114400602D01*
X90853501Y-114340264D01*
X90853489Y-114340261D01*
X90698845Y-114309500D01*
X90698842Y-114309500D01*
X90541158Y-114309500D01*
X90541155Y-114309500D01*
X90386510Y-114340261D01*
X90386498Y-114340264D01*
X90240827Y-114400602D01*
X90240814Y-114400609D01*
X90109711Y-114488210D01*
X90109707Y-114488213D01*
X89998213Y-114599707D01*
X89998210Y-114599711D01*
X89910609Y-114730814D01*
X89910602Y-114730827D01*
X89850264Y-114876498D01*
X89850261Y-114876510D01*
X89819500Y-115031153D01*
X70075500Y-115031153D01*
X70075500Y-112031153D01*
X132519500Y-112031153D01*
X132519500Y-112188846D01*
X132550261Y-112343489D01*
X132550264Y-112343501D01*
X132610602Y-112489172D01*
X132610609Y-112489185D01*
X132698210Y-112620288D01*
X132698213Y-112620292D01*
X132809707Y-112731786D01*
X132809711Y-112731789D01*
X132940814Y-112819390D01*
X132940827Y-112819397D01*
X133086498Y-112879735D01*
X133086503Y-112879737D01*
X133241153Y-112910499D01*
X133241156Y-112910500D01*
X133241158Y-112910500D01*
X133398844Y-112910500D01*
X133398845Y-112910499D01*
X133553497Y-112879737D01*
X133699179Y-112819394D01*
X133830289Y-112731789D01*
X133941789Y-112620289D01*
X134029394Y-112489179D01*
X134089737Y-112343497D01*
X134120500Y-112188842D01*
X134120500Y-112031158D01*
X134120500Y-112031155D01*
X134120499Y-112031153D01*
X134089738Y-111876510D01*
X134089737Y-111876503D01*
X134089735Y-111876498D01*
X134029397Y-111730827D01*
X134029390Y-111730814D01*
X133941789Y-111599711D01*
X133941786Y-111599707D01*
X133830292Y-111488213D01*
X133830288Y-111488210D01*
X133699185Y-111400609D01*
X133699172Y-111400602D01*
X133553501Y-111340264D01*
X133553489Y-111340261D01*
X133398845Y-111309500D01*
X133398842Y-111309500D01*
X133241158Y-111309500D01*
X133241155Y-111309500D01*
X133086510Y-111340261D01*
X133086498Y-111340264D01*
X132940827Y-111400602D01*
X132940814Y-111400609D01*
X132809711Y-111488210D01*
X132809707Y-111488213D01*
X132698213Y-111599707D01*
X132698210Y-111599711D01*
X132610609Y-111730814D01*
X132610602Y-111730827D01*
X132550264Y-111876498D01*
X132550261Y-111876510D01*
X132519500Y-112031153D01*
X70075500Y-112031153D01*
X70075500Y-110511153D01*
X97889500Y-110511153D01*
X97889500Y-110668846D01*
X97920261Y-110823489D01*
X97920264Y-110823501D01*
X97980602Y-110969172D01*
X97980609Y-110969185D01*
X98068210Y-111100288D01*
X98068213Y-111100292D01*
X98179707Y-111211786D01*
X98179711Y-111211789D01*
X98310814Y-111299390D01*
X98310827Y-111299397D01*
X98456498Y-111359735D01*
X98456503Y-111359737D01*
X98607312Y-111389735D01*
X98611153Y-111390499D01*
X98611156Y-111390500D01*
X98611158Y-111390500D01*
X98768844Y-111390500D01*
X98768845Y-111390499D01*
X98923497Y-111359737D01*
X99069179Y-111299394D01*
X99178271Y-111226501D01*
X99244948Y-111205623D01*
X99312328Y-111224107D01*
X99329918Y-111238025D01*
X99330001Y-111237924D01*
X99334711Y-111241789D01*
X99465814Y-111329390D01*
X99465827Y-111329397D01*
X99587363Y-111379738D01*
X99611503Y-111389737D01*
X99766153Y-111420499D01*
X99766156Y-111420500D01*
X99766158Y-111420500D01*
X99923844Y-111420500D01*
X99923845Y-111420499D01*
X100078497Y-111389737D01*
X100211806Y-111334519D01*
X100224172Y-111329397D01*
X100224172Y-111329396D01*
X100224179Y-111329394D01*
X100239151Y-111319390D01*
X100360354Y-111238405D01*
X100361837Y-111240625D01*
X100415473Y-111217806D01*
X100484348Y-111229553D01*
X100498798Y-111237861D01*
X100620814Y-111319390D01*
X100620827Y-111319397D01*
X100766498Y-111379735D01*
X100766503Y-111379737D01*
X100921153Y-111410499D01*
X100921156Y-111410500D01*
X100921158Y-111410500D01*
X101078844Y-111410500D01*
X101078845Y-111410499D01*
X101233497Y-111379737D01*
X101346166Y-111333067D01*
X101379172Y-111319397D01*
X101379172Y-111319396D01*
X101379179Y-111319394D01*
X101464931Y-111262096D01*
X102716456Y-111262096D01*
X102821715Y-111305696D01*
X102821723Y-111305698D01*
X102966610Y-111334518D01*
X102966614Y-111334519D01*
X103114352Y-111334519D01*
X103114355Y-111334518D01*
X103259242Y-111305698D01*
X103259250Y-111305696D01*
X103364508Y-111262096D01*
X104016456Y-111262096D01*
X104121715Y-111305696D01*
X104121723Y-111305698D01*
X104266610Y-111334518D01*
X104266614Y-111334519D01*
X104414352Y-111334519D01*
X104414355Y-111334518D01*
X104559242Y-111305698D01*
X104559250Y-111305696D01*
X104664508Y-111262096D01*
X104664506Y-111262094D01*
X105416456Y-111262094D01*
X105521715Y-111305694D01*
X105521723Y-111305696D01*
X105666610Y-111334516D01*
X105666614Y-111334517D01*
X105814352Y-111334517D01*
X105814355Y-111334516D01*
X105959242Y-111305696D01*
X105959250Y-111305694D01*
X106064508Y-111262094D01*
X106716456Y-111262094D01*
X106821715Y-111305694D01*
X106821723Y-111305696D01*
X106966610Y-111334516D01*
X106966614Y-111334517D01*
X107114352Y-111334517D01*
X107114355Y-111334516D01*
X107259242Y-111305696D01*
X107259250Y-111305694D01*
X107364508Y-111262094D01*
X108016456Y-111262094D01*
X108121715Y-111305694D01*
X108121723Y-111305696D01*
X108266610Y-111334516D01*
X108266614Y-111334517D01*
X108414352Y-111334517D01*
X108414355Y-111334516D01*
X108559242Y-111305696D01*
X108559250Y-111305694D01*
X108664508Y-111262094D01*
X109416456Y-111262094D01*
X109521715Y-111305694D01*
X109521723Y-111305696D01*
X109666610Y-111334516D01*
X109666614Y-111334517D01*
X109814352Y-111334517D01*
X109814355Y-111334516D01*
X109959242Y-111305696D01*
X109959250Y-111305694D01*
X110064508Y-111262094D01*
X110716456Y-111262094D01*
X110821715Y-111305694D01*
X110821723Y-111305696D01*
X110966610Y-111334516D01*
X110966614Y-111334517D01*
X111114352Y-111334517D01*
X111114355Y-111334516D01*
X111259242Y-111305696D01*
X111259250Y-111305694D01*
X111364508Y-111262094D01*
X111040484Y-110938070D01*
X111040483Y-110938070D01*
X110716456Y-111262094D01*
X110064508Y-111262094D01*
X109740484Y-110938070D01*
X109740483Y-110938070D01*
X109416456Y-111262094D01*
X108664508Y-111262094D01*
X108340484Y-110938070D01*
X108340483Y-110938070D01*
X108016456Y-111262094D01*
X107364508Y-111262094D01*
X107040484Y-110938070D01*
X107040483Y-110938070D01*
X106716456Y-111262094D01*
X106064508Y-111262094D01*
X105740484Y-110938070D01*
X105740483Y-110938070D01*
X105416456Y-111262094D01*
X104664506Y-111262094D01*
X104340484Y-110938072D01*
X104340483Y-110938072D01*
X104016456Y-111262096D01*
X103364508Y-111262096D01*
X103040484Y-110938072D01*
X103040483Y-110938072D01*
X102716456Y-111262096D01*
X101464931Y-111262096D01*
X101510289Y-111231789D01*
X101536455Y-111205623D01*
X101608478Y-111133601D01*
X101621786Y-111120292D01*
X101621789Y-111120289D01*
X101709394Y-110989179D01*
X101769737Y-110843497D01*
X101800500Y-110688842D01*
X101800500Y-110531158D01*
X101800021Y-110528749D01*
X101800021Y-110528747D01*
X101796421Y-110510647D01*
X102290484Y-110510647D01*
X102290484Y-110658392D01*
X102319303Y-110803279D01*
X102319306Y-110803288D01*
X102362904Y-110908544D01*
X102686931Y-110584520D01*
X102666722Y-110564311D01*
X102938883Y-110564311D01*
X102938883Y-110604729D01*
X102954351Y-110642072D01*
X102982931Y-110670652D01*
X103020274Y-110686120D01*
X103060692Y-110686120D01*
X103098035Y-110670652D01*
X103126615Y-110642072D01*
X103142083Y-110604729D01*
X103142083Y-110584520D01*
X103394035Y-110584520D01*
X103690483Y-110880968D01*
X103986931Y-110584520D01*
X103966722Y-110564311D01*
X104238883Y-110564311D01*
X104238883Y-110604729D01*
X104254351Y-110642072D01*
X104282931Y-110670652D01*
X104320274Y-110686120D01*
X104360692Y-110686120D01*
X104398035Y-110670652D01*
X104426615Y-110642072D01*
X104442083Y-110604729D01*
X104442083Y-110584519D01*
X104694035Y-110584519D01*
X104694035Y-110584521D01*
X105018410Y-110908896D01*
X105062553Y-110908896D01*
X105386931Y-110584518D01*
X105386931Y-110584517D01*
X105366723Y-110564309D01*
X105638883Y-110564309D01*
X105638883Y-110604727D01*
X105654351Y-110642070D01*
X105682931Y-110670650D01*
X105720274Y-110686118D01*
X105760692Y-110686118D01*
X105798035Y-110670650D01*
X105826615Y-110642070D01*
X105842083Y-110604727D01*
X105842083Y-110584518D01*
X106094035Y-110584518D01*
X106390483Y-110880966D01*
X106686931Y-110584518D01*
X106666722Y-110564309D01*
X106938883Y-110564309D01*
X106938883Y-110604727D01*
X106954351Y-110642070D01*
X106982931Y-110670650D01*
X107020274Y-110686118D01*
X107060692Y-110686118D01*
X107098035Y-110670650D01*
X107126615Y-110642070D01*
X107142083Y-110604727D01*
X107142083Y-110584518D01*
X107394035Y-110584518D01*
X107690483Y-110880966D01*
X107986931Y-110584518D01*
X107966722Y-110564309D01*
X108238883Y-110564309D01*
X108238883Y-110604727D01*
X108254351Y-110642070D01*
X108282931Y-110670650D01*
X108320274Y-110686118D01*
X108360692Y-110686118D01*
X108398035Y-110670650D01*
X108426615Y-110642070D01*
X108442083Y-110604727D01*
X108442083Y-110584517D01*
X108694035Y-110584517D01*
X108694035Y-110584518D01*
X109018410Y-110908894D01*
X109062553Y-110908894D01*
X109386931Y-110584518D01*
X109386931Y-110584517D01*
X109366723Y-110564309D01*
X109638883Y-110564309D01*
X109638883Y-110604727D01*
X109654351Y-110642070D01*
X109682931Y-110670650D01*
X109720274Y-110686118D01*
X109760692Y-110686118D01*
X109798035Y-110670650D01*
X109826615Y-110642070D01*
X109842083Y-110604727D01*
X109842083Y-110584518D01*
X110094035Y-110584518D01*
X110390483Y-110880966D01*
X110686931Y-110584518D01*
X110666722Y-110564309D01*
X110938883Y-110564309D01*
X110938883Y-110604727D01*
X110954351Y-110642070D01*
X110982931Y-110670650D01*
X111020274Y-110686118D01*
X111060692Y-110686118D01*
X111098035Y-110670650D01*
X111126615Y-110642070D01*
X111142083Y-110604727D01*
X111142083Y-110584517D01*
X111394035Y-110584517D01*
X111394035Y-110584519D01*
X111718059Y-110908543D01*
X111761659Y-110803285D01*
X111761661Y-110803277D01*
X111790481Y-110658390D01*
X111790482Y-110658387D01*
X111790482Y-110510649D01*
X111790481Y-110510645D01*
X111761661Y-110365758D01*
X111761659Y-110365750D01*
X111718059Y-110260491D01*
X111394035Y-110584517D01*
X111142083Y-110584517D01*
X111142083Y-110564309D01*
X111126615Y-110526966D01*
X111098035Y-110498386D01*
X111060692Y-110482918D01*
X111020274Y-110482918D01*
X110982931Y-110498386D01*
X110954351Y-110526966D01*
X110938883Y-110564309D01*
X110666722Y-110564309D01*
X110390483Y-110288070D01*
X110094035Y-110584518D01*
X109842083Y-110584518D01*
X109842083Y-110564309D01*
X109826615Y-110526966D01*
X109798035Y-110498386D01*
X109760692Y-110482918D01*
X109720274Y-110482918D01*
X109682931Y-110498386D01*
X109654351Y-110526966D01*
X109638883Y-110564309D01*
X109366723Y-110564309D01*
X109062554Y-110260140D01*
X109018412Y-110260140D01*
X108694035Y-110584517D01*
X108442083Y-110584517D01*
X108442083Y-110564309D01*
X108426615Y-110526966D01*
X108398035Y-110498386D01*
X108360692Y-110482918D01*
X108320274Y-110482918D01*
X108282931Y-110498386D01*
X108254351Y-110526966D01*
X108238883Y-110564309D01*
X107966722Y-110564309D01*
X107690483Y-110288070D01*
X107394035Y-110584518D01*
X107142083Y-110584518D01*
X107142083Y-110564309D01*
X107126615Y-110526966D01*
X107098035Y-110498386D01*
X107060692Y-110482918D01*
X107020274Y-110482918D01*
X106982931Y-110498386D01*
X106954351Y-110526966D01*
X106938883Y-110564309D01*
X106666722Y-110564309D01*
X106390483Y-110288070D01*
X106094035Y-110584518D01*
X105842083Y-110584518D01*
X105842083Y-110564309D01*
X105826615Y-110526966D01*
X105798035Y-110498386D01*
X105760692Y-110482918D01*
X105720274Y-110482918D01*
X105682931Y-110498386D01*
X105654351Y-110526966D01*
X105638883Y-110564309D01*
X105366723Y-110564309D01*
X105062555Y-110260141D01*
X105018412Y-110260141D01*
X104694035Y-110584519D01*
X104442083Y-110584519D01*
X104442083Y-110564311D01*
X104426615Y-110526968D01*
X104398035Y-110498388D01*
X104360692Y-110482920D01*
X104320274Y-110482920D01*
X104282931Y-110498388D01*
X104254351Y-110526968D01*
X104238883Y-110564311D01*
X103966722Y-110564311D01*
X103690483Y-110288072D01*
X103394035Y-110584520D01*
X103142083Y-110584520D01*
X103142083Y-110564311D01*
X103126615Y-110526968D01*
X103098035Y-110498388D01*
X103060692Y-110482920D01*
X103020274Y-110482920D01*
X102982931Y-110498388D01*
X102954351Y-110526968D01*
X102938883Y-110564311D01*
X102666722Y-110564311D01*
X102362905Y-110260494D01*
X102319305Y-110365756D01*
X102319303Y-110365760D01*
X102290484Y-110510647D01*
X101796421Y-110510647D01*
X101769738Y-110376508D01*
X101769737Y-110376507D01*
X101769737Y-110376503D01*
X101765286Y-110365758D01*
X101709397Y-110230827D01*
X101709390Y-110230814D01*
X101621789Y-110099711D01*
X101621786Y-110099707D01*
X101510290Y-109988211D01*
X101507368Y-109986259D01*
X101507367Y-109986258D01*
X101429936Y-109934520D01*
X102744036Y-109934520D01*
X102744036Y-109934521D01*
X103040483Y-110230968D01*
X103040484Y-110230968D01*
X103336929Y-109934521D01*
X103336929Y-109934520D01*
X103336928Y-109934519D01*
X104044035Y-109934519D01*
X104044035Y-109934520D01*
X104340483Y-110230968D01*
X104340484Y-110230968D01*
X104636930Y-109934520D01*
X104636930Y-109934519D01*
X104636929Y-109934518D01*
X105444036Y-109934518D01*
X105444036Y-109934519D01*
X105740483Y-110230966D01*
X105740484Y-110230966D01*
X106036929Y-109934519D01*
X106036929Y-109934518D01*
X106744036Y-109934518D01*
X106744036Y-109934519D01*
X107040483Y-110230966D01*
X107040484Y-110230966D01*
X107336929Y-109934519D01*
X107336929Y-109934518D01*
X108044036Y-109934518D01*
X108044036Y-109934519D01*
X108340483Y-110230966D01*
X108340484Y-110230966D01*
X108636929Y-109934519D01*
X108636929Y-109934518D01*
X109444035Y-109934518D01*
X109740483Y-110230966D01*
X110036931Y-109934518D01*
X110744036Y-109934518D01*
X110744036Y-109934519D01*
X111040483Y-110230966D01*
X111040484Y-110230966D01*
X111336929Y-109934519D01*
X111336929Y-109934518D01*
X111040484Y-109638073D01*
X111040483Y-109638073D01*
X110744036Y-109934518D01*
X110036931Y-109934518D01*
X109740483Y-109638070D01*
X109444035Y-109934518D01*
X108636929Y-109934518D01*
X108340484Y-109638073D01*
X108340483Y-109638073D01*
X108044036Y-109934518D01*
X107336929Y-109934518D01*
X107040484Y-109638073D01*
X107040483Y-109638073D01*
X106744036Y-109934518D01*
X106036929Y-109934518D01*
X105740484Y-109638073D01*
X105740483Y-109638073D01*
X105444036Y-109934518D01*
X104636929Y-109934518D01*
X104340484Y-109638073D01*
X104340483Y-109638073D01*
X104044035Y-109934519D01*
X103336928Y-109934519D01*
X103040484Y-109638075D01*
X103040483Y-109638075D01*
X102744036Y-109934520D01*
X101429936Y-109934520D01*
X101379185Y-109900609D01*
X101379172Y-109900602D01*
X101233501Y-109840264D01*
X101233489Y-109840261D01*
X101078845Y-109809500D01*
X101078842Y-109809500D01*
X100921158Y-109809500D01*
X100921155Y-109809500D01*
X100766510Y-109840261D01*
X100766498Y-109840264D01*
X100620827Y-109900602D01*
X100620814Y-109900609D01*
X100484646Y-109991595D01*
X100483183Y-109989405D01*
X100429323Y-110012217D01*
X100360468Y-110000356D01*
X100346201Y-109992138D01*
X100224185Y-109910609D01*
X100224172Y-109910602D01*
X100078501Y-109850264D01*
X100078489Y-109850261D01*
X99923845Y-109819500D01*
X99923842Y-109819500D01*
X99766158Y-109819500D01*
X99766155Y-109819500D01*
X99611510Y-109850261D01*
X99611498Y-109850264D01*
X99465827Y-109910602D01*
X99465816Y-109910608D01*
X99356727Y-109983499D01*
X99290050Y-110004376D01*
X99222670Y-109985891D01*
X99205082Y-109971974D01*
X99204999Y-109972076D01*
X99200288Y-109968210D01*
X99069185Y-109880609D01*
X99069172Y-109880602D01*
X98923501Y-109820264D01*
X98923489Y-109820261D01*
X98768845Y-109789500D01*
X98768842Y-109789500D01*
X98611158Y-109789500D01*
X98611155Y-109789500D01*
X98456510Y-109820261D01*
X98456498Y-109820264D01*
X98310827Y-109880602D01*
X98310814Y-109880609D01*
X98179711Y-109968210D01*
X98179707Y-109968213D01*
X98068213Y-110079707D01*
X98068210Y-110079711D01*
X97980609Y-110210814D01*
X97980602Y-110210827D01*
X97920264Y-110356498D01*
X97920261Y-110356510D01*
X97889500Y-110511153D01*
X70075500Y-110511153D01*
X70075500Y-109210650D01*
X102290484Y-109210650D01*
X102290484Y-109358395D01*
X102319303Y-109503282D01*
X102319306Y-109503291D01*
X102362904Y-109608547D01*
X102686931Y-109284523D01*
X102666722Y-109264314D01*
X102938883Y-109264314D01*
X102938883Y-109304732D01*
X102954351Y-109342075D01*
X102982931Y-109370655D01*
X103020274Y-109386123D01*
X103060692Y-109386123D01*
X103098035Y-109370655D01*
X103126615Y-109342075D01*
X103142083Y-109304732D01*
X103142083Y-109284523D01*
X103394035Y-109284523D01*
X103690482Y-109580970D01*
X103986931Y-109284521D01*
X103966722Y-109264312D01*
X104238883Y-109264312D01*
X104238883Y-109304730D01*
X104254351Y-109342073D01*
X104282931Y-109370653D01*
X104320274Y-109386121D01*
X104360692Y-109386121D01*
X104398035Y-109370653D01*
X104426615Y-109342073D01*
X104442083Y-109304730D01*
X104442083Y-109284520D01*
X104694035Y-109284520D01*
X104694035Y-109284521D01*
X105018410Y-109608897D01*
X105062553Y-109608897D01*
X105386931Y-109284521D01*
X105386931Y-109284520D01*
X105366723Y-109264312D01*
X105638883Y-109264312D01*
X105638883Y-109304730D01*
X105654351Y-109342073D01*
X105682931Y-109370653D01*
X105720274Y-109386121D01*
X105760692Y-109386121D01*
X105798035Y-109370653D01*
X105826615Y-109342073D01*
X105842083Y-109304730D01*
X105842083Y-109284521D01*
X106094035Y-109284521D01*
X106390483Y-109580969D01*
X106686931Y-109284521D01*
X106666722Y-109264312D01*
X106938883Y-109264312D01*
X106938883Y-109304730D01*
X106954351Y-109342073D01*
X106982931Y-109370653D01*
X107020274Y-109386121D01*
X107060692Y-109386121D01*
X107098035Y-109370653D01*
X107126615Y-109342073D01*
X107142083Y-109304730D01*
X107142083Y-109284521D01*
X107394035Y-109284521D01*
X107690483Y-109580969D01*
X107986931Y-109284521D01*
X107966722Y-109264312D01*
X108238883Y-109264312D01*
X108238883Y-109304730D01*
X108254351Y-109342073D01*
X108282931Y-109370653D01*
X108320274Y-109386121D01*
X108360692Y-109386121D01*
X108398035Y-109370653D01*
X108426615Y-109342073D01*
X108442083Y-109304730D01*
X108442083Y-109284520D01*
X108694035Y-109284520D01*
X108694035Y-109284522D01*
X109018409Y-109608896D01*
X109062553Y-109608896D01*
X109386931Y-109284518D01*
X109386931Y-109284517D01*
X109366723Y-109264309D01*
X109638883Y-109264309D01*
X109638883Y-109304727D01*
X109654351Y-109342070D01*
X109682931Y-109370650D01*
X109720274Y-109386118D01*
X109760692Y-109386118D01*
X109798035Y-109370650D01*
X109826615Y-109342070D01*
X109842083Y-109304727D01*
X109842083Y-109284517D01*
X110094035Y-109284517D01*
X110094035Y-109284519D01*
X110390483Y-109580967D01*
X110390484Y-109580967D01*
X110686931Y-109284521D01*
X110666722Y-109264312D01*
X110938883Y-109264312D01*
X110938883Y-109304730D01*
X110954351Y-109342073D01*
X110982931Y-109370653D01*
X111020274Y-109386121D01*
X111060692Y-109386121D01*
X111098035Y-109370653D01*
X111126615Y-109342073D01*
X111142083Y-109304730D01*
X111142083Y-109284520D01*
X111394035Y-109284520D01*
X111394035Y-109284522D01*
X111718059Y-109608546D01*
X111761659Y-109503288D01*
X111761661Y-109503280D01*
X111790481Y-109358393D01*
X111790482Y-109358390D01*
X111790482Y-109210652D01*
X111790481Y-109210648D01*
X111761661Y-109065761D01*
X111761659Y-109065753D01*
X111718059Y-108960494D01*
X111394035Y-109284520D01*
X111142083Y-109284520D01*
X111142083Y-109264312D01*
X111126615Y-109226969D01*
X111098035Y-109198389D01*
X111060692Y-109182921D01*
X111020274Y-109182921D01*
X110982931Y-109198389D01*
X110954351Y-109226969D01*
X110938883Y-109264312D01*
X110666722Y-109264312D01*
X110390481Y-108988071D01*
X110390480Y-108988071D01*
X110094035Y-109284517D01*
X109842083Y-109284517D01*
X109842083Y-109264309D01*
X109826615Y-109226966D01*
X109798035Y-109198386D01*
X109760692Y-109182918D01*
X109720274Y-109182918D01*
X109682931Y-109198386D01*
X109654351Y-109226966D01*
X109638883Y-109264309D01*
X109366723Y-109264309D01*
X109062555Y-108960141D01*
X109018413Y-108960141D01*
X108694035Y-109284520D01*
X108442083Y-109284520D01*
X108442083Y-109264312D01*
X108426615Y-109226969D01*
X108398035Y-109198389D01*
X108360692Y-109182921D01*
X108320274Y-109182921D01*
X108282931Y-109198389D01*
X108254351Y-109226969D01*
X108238883Y-109264312D01*
X107966722Y-109264312D01*
X107690483Y-108988073D01*
X107394035Y-109284521D01*
X107142083Y-109284521D01*
X107142083Y-109264312D01*
X107126615Y-109226969D01*
X107098035Y-109198389D01*
X107060692Y-109182921D01*
X107020274Y-109182921D01*
X106982931Y-109198389D01*
X106954351Y-109226969D01*
X106938883Y-109264312D01*
X106666722Y-109264312D01*
X106390483Y-108988073D01*
X106094035Y-109284521D01*
X105842083Y-109284521D01*
X105842083Y-109264312D01*
X105826615Y-109226969D01*
X105798035Y-109198389D01*
X105760692Y-109182921D01*
X105720274Y-109182921D01*
X105682931Y-109198389D01*
X105654351Y-109226969D01*
X105638883Y-109264312D01*
X105366723Y-109264312D01*
X105062554Y-108960143D01*
X105018412Y-108960143D01*
X104694035Y-109284520D01*
X104442083Y-109284520D01*
X104442083Y-109264312D01*
X104426615Y-109226969D01*
X104398035Y-109198389D01*
X104360692Y-109182921D01*
X104320274Y-109182921D01*
X104282931Y-109198389D01*
X104254351Y-109226969D01*
X104238883Y-109264312D01*
X103966722Y-109264312D01*
X103690484Y-108988074D01*
X103394035Y-109284523D01*
X103142083Y-109284523D01*
X103142083Y-109264314D01*
X103126615Y-109226971D01*
X103098035Y-109198391D01*
X103060692Y-109182923D01*
X103020274Y-109182923D01*
X102982931Y-109198391D01*
X102954351Y-109226971D01*
X102938883Y-109264314D01*
X102666722Y-109264314D01*
X102362905Y-108960497D01*
X102319305Y-109065759D01*
X102319303Y-109065763D01*
X102290484Y-109210650D01*
X70075500Y-109210650D01*
X70075500Y-108634522D01*
X102744034Y-108634522D01*
X103040483Y-108930971D01*
X103336932Y-108634522D01*
X103336931Y-108634521D01*
X104044035Y-108634521D01*
X104340483Y-108930969D01*
X104636931Y-108634521D01*
X104636928Y-108634518D01*
X105444033Y-108634518D01*
X105444033Y-108634519D01*
X105740483Y-108930969D01*
X105740484Y-108930969D01*
X106036932Y-108634519D01*
X106036932Y-108634518D01*
X106744033Y-108634518D01*
X106744033Y-108634519D01*
X107040483Y-108930969D01*
X107040484Y-108930969D01*
X107336932Y-108634519D01*
X107336932Y-108634518D01*
X108044033Y-108634518D01*
X108044033Y-108634519D01*
X108340483Y-108930969D01*
X108340484Y-108930969D01*
X108636932Y-108634519D01*
X108636932Y-108634518D01*
X109444035Y-108634518D01*
X109740483Y-108930966D01*
X110036931Y-108634518D01*
X110744033Y-108634518D01*
X110744033Y-108634519D01*
X111040483Y-108930969D01*
X111040484Y-108930969D01*
X111336932Y-108634519D01*
X111336932Y-108634518D01*
X111040484Y-108338070D01*
X111040483Y-108338070D01*
X110744033Y-108634518D01*
X110036931Y-108634518D01*
X109740483Y-108338070D01*
X109444035Y-108634518D01*
X108636932Y-108634518D01*
X108340484Y-108338070D01*
X108340483Y-108338070D01*
X108044033Y-108634518D01*
X107336932Y-108634518D01*
X107040484Y-108338070D01*
X107040483Y-108338070D01*
X106744033Y-108634518D01*
X106036932Y-108634518D01*
X105740484Y-108338070D01*
X105740483Y-108338070D01*
X105444033Y-108634518D01*
X104636928Y-108634518D01*
X104340483Y-108338073D01*
X104044035Y-108634521D01*
X103336931Y-108634521D01*
X103040483Y-108338073D01*
X102744034Y-108634522D01*
X70075500Y-108634522D01*
X70075500Y-107910648D01*
X102290484Y-107910648D01*
X102290484Y-108058393D01*
X102319303Y-108203280D01*
X102319306Y-108203289D01*
X102362904Y-108308545D01*
X102686931Y-107984521D01*
X102666722Y-107964312D01*
X102938883Y-107964312D01*
X102938883Y-108004730D01*
X102954351Y-108042073D01*
X102982931Y-108070653D01*
X103020274Y-108086121D01*
X103060692Y-108086121D01*
X103098035Y-108070653D01*
X103126615Y-108042073D01*
X103142083Y-108004730D01*
X103142083Y-107984521D01*
X103394035Y-107984521D01*
X103690483Y-108280969D01*
X103986931Y-107984521D01*
X103966722Y-107964312D01*
X104238883Y-107964312D01*
X104238883Y-108004730D01*
X104254351Y-108042073D01*
X104282931Y-108070653D01*
X104320274Y-108086121D01*
X104360692Y-108086121D01*
X104398035Y-108070653D01*
X104426615Y-108042073D01*
X104442083Y-108004730D01*
X104442083Y-107984520D01*
X104694035Y-107984520D01*
X104694035Y-107984522D01*
X105018409Y-108308896D01*
X105062553Y-108308896D01*
X105386931Y-107984518D01*
X105386931Y-107984517D01*
X105366723Y-107964309D01*
X105638883Y-107964309D01*
X105638883Y-108004727D01*
X105654351Y-108042070D01*
X105682931Y-108070650D01*
X105720274Y-108086118D01*
X105760692Y-108086118D01*
X105798035Y-108070650D01*
X105826615Y-108042070D01*
X105842083Y-108004727D01*
X105842083Y-107984518D01*
X106094035Y-107984518D01*
X106390483Y-108280966D01*
X106686931Y-107984518D01*
X106666722Y-107964309D01*
X106938883Y-107964309D01*
X106938883Y-108004727D01*
X106954351Y-108042070D01*
X106982931Y-108070650D01*
X107020274Y-108086118D01*
X107060692Y-108086118D01*
X107098035Y-108070650D01*
X107126615Y-108042070D01*
X107142083Y-108004727D01*
X107142083Y-107984518D01*
X107394035Y-107984518D01*
X107690483Y-108280966D01*
X107986931Y-107984518D01*
X107966722Y-107964309D01*
X108238883Y-107964309D01*
X108238883Y-108004727D01*
X108254351Y-108042070D01*
X108282931Y-108070650D01*
X108320274Y-108086118D01*
X108360692Y-108086118D01*
X108398035Y-108070650D01*
X108426615Y-108042070D01*
X108442083Y-108004727D01*
X108442083Y-107984517D01*
X108694035Y-107984517D01*
X108694035Y-107984518D01*
X109018410Y-108308894D01*
X109062553Y-108308894D01*
X109386931Y-107984518D01*
X109386931Y-107984517D01*
X109366723Y-107964309D01*
X109638883Y-107964309D01*
X109638883Y-108004727D01*
X109654351Y-108042070D01*
X109682931Y-108070650D01*
X109720274Y-108086118D01*
X109760692Y-108086118D01*
X109798035Y-108070650D01*
X109826615Y-108042070D01*
X109842083Y-108004727D01*
X109842083Y-107984518D01*
X110094035Y-107984518D01*
X110390483Y-108280966D01*
X110686931Y-107984518D01*
X110666722Y-107964309D01*
X110938883Y-107964309D01*
X110938883Y-108004727D01*
X110954351Y-108042070D01*
X110982931Y-108070650D01*
X111020274Y-108086118D01*
X111060692Y-108086118D01*
X111098035Y-108070650D01*
X111126615Y-108042070D01*
X111142083Y-108004727D01*
X111142083Y-107984517D01*
X111394035Y-107984517D01*
X111394035Y-107984519D01*
X111718059Y-108308543D01*
X111761659Y-108203285D01*
X111761661Y-108203277D01*
X111790481Y-108058390D01*
X111790482Y-108058387D01*
X111790482Y-107910649D01*
X111790481Y-107910645D01*
X111761661Y-107765758D01*
X111761659Y-107765750D01*
X111718059Y-107660491D01*
X111394035Y-107984517D01*
X111142083Y-107984517D01*
X111142083Y-107964309D01*
X111126615Y-107926966D01*
X111098035Y-107898386D01*
X111060692Y-107882918D01*
X111020274Y-107882918D01*
X110982931Y-107898386D01*
X110954351Y-107926966D01*
X110938883Y-107964309D01*
X110666722Y-107964309D01*
X110390483Y-107688070D01*
X110094035Y-107984518D01*
X109842083Y-107984518D01*
X109842083Y-107964309D01*
X109826615Y-107926966D01*
X109798035Y-107898386D01*
X109760692Y-107882918D01*
X109720274Y-107882918D01*
X109682931Y-107898386D01*
X109654351Y-107926966D01*
X109638883Y-107964309D01*
X109366723Y-107964309D01*
X109062554Y-107660140D01*
X109018412Y-107660140D01*
X108694035Y-107984517D01*
X108442083Y-107984517D01*
X108442083Y-107964309D01*
X108426615Y-107926966D01*
X108398035Y-107898386D01*
X108360692Y-107882918D01*
X108320274Y-107882918D01*
X108282931Y-107898386D01*
X108254351Y-107926966D01*
X108238883Y-107964309D01*
X107966722Y-107964309D01*
X107690483Y-107688070D01*
X107394035Y-107984518D01*
X107142083Y-107984518D01*
X107142083Y-107964309D01*
X107126615Y-107926966D01*
X107098035Y-107898386D01*
X107060692Y-107882918D01*
X107020274Y-107882918D01*
X106982931Y-107898386D01*
X106954351Y-107926966D01*
X106938883Y-107964309D01*
X106666722Y-107964309D01*
X106390483Y-107688070D01*
X106094035Y-107984518D01*
X105842083Y-107984518D01*
X105842083Y-107964309D01*
X105826615Y-107926966D01*
X105798035Y-107898386D01*
X105760692Y-107882918D01*
X105720274Y-107882918D01*
X105682931Y-107898386D01*
X105654351Y-107926966D01*
X105638883Y-107964309D01*
X105366723Y-107964309D01*
X105062555Y-107660141D01*
X105018413Y-107660141D01*
X104694035Y-107984520D01*
X104442083Y-107984520D01*
X104442083Y-107964312D01*
X104426615Y-107926969D01*
X104398035Y-107898389D01*
X104360692Y-107882921D01*
X104320274Y-107882921D01*
X104282931Y-107898389D01*
X104254351Y-107926969D01*
X104238883Y-107964312D01*
X103966722Y-107964312D01*
X103690483Y-107688073D01*
X103394035Y-107984521D01*
X103142083Y-107984521D01*
X103142083Y-107964312D01*
X103126615Y-107926969D01*
X103098035Y-107898389D01*
X103060692Y-107882921D01*
X103020274Y-107882921D01*
X102982931Y-107898389D01*
X102954351Y-107926969D01*
X102938883Y-107964312D01*
X102666722Y-107964312D01*
X102362905Y-107660495D01*
X102319305Y-107765757D01*
X102319303Y-107765761D01*
X102290484Y-107910648D01*
X70075500Y-107910648D01*
X70075500Y-107306943D01*
X102716457Y-107306943D01*
X103040483Y-107630969D01*
X103040484Y-107630969D01*
X103364508Y-107306943D01*
X104016457Y-107306943D01*
X104340483Y-107630969D01*
X104340484Y-107630969D01*
X104664508Y-107306943D01*
X104664501Y-107306940D01*
X105416457Y-107306940D01*
X105740483Y-107630966D01*
X105740484Y-107630966D01*
X106064508Y-107306940D01*
X106716457Y-107306940D01*
X107040483Y-107630966D01*
X107040484Y-107630966D01*
X107364508Y-107306940D01*
X108016457Y-107306940D01*
X108340483Y-107630966D01*
X108340484Y-107630966D01*
X108664508Y-107306940D01*
X109416457Y-107306940D01*
X109740483Y-107630966D01*
X109740484Y-107630966D01*
X110064508Y-107306940D01*
X110716457Y-107306940D01*
X111040483Y-107630966D01*
X111040484Y-107630966D01*
X111364508Y-107306940D01*
X111259251Y-107263341D01*
X111259242Y-107263338D01*
X111114355Y-107234519D01*
X110966610Y-107234519D01*
X110821723Y-107263338D01*
X110821719Y-107263340D01*
X110716457Y-107306940D01*
X110064508Y-107306940D01*
X109959251Y-107263341D01*
X109959242Y-107263338D01*
X109814355Y-107234519D01*
X109666610Y-107234519D01*
X109521723Y-107263338D01*
X109521719Y-107263340D01*
X109416457Y-107306940D01*
X108664508Y-107306940D01*
X108559251Y-107263341D01*
X108559242Y-107263338D01*
X108414355Y-107234519D01*
X108266610Y-107234519D01*
X108121723Y-107263338D01*
X108121719Y-107263340D01*
X108016457Y-107306940D01*
X107364508Y-107306940D01*
X107259251Y-107263341D01*
X107259242Y-107263338D01*
X107114355Y-107234519D01*
X106966610Y-107234519D01*
X106821723Y-107263338D01*
X106821719Y-107263340D01*
X106716457Y-107306940D01*
X106064508Y-107306940D01*
X105959251Y-107263341D01*
X105959242Y-107263338D01*
X105814355Y-107234519D01*
X105666610Y-107234519D01*
X105521723Y-107263338D01*
X105521719Y-107263340D01*
X105416457Y-107306940D01*
X104664501Y-107306940D01*
X104559251Y-107263344D01*
X104559242Y-107263341D01*
X104414355Y-107234522D01*
X104266610Y-107234522D01*
X104121723Y-107263341D01*
X104121719Y-107263343D01*
X104016457Y-107306943D01*
X103364508Y-107306943D01*
X103259251Y-107263344D01*
X103259242Y-107263341D01*
X103114355Y-107234522D01*
X102966610Y-107234522D01*
X102821723Y-107263341D01*
X102821719Y-107263343D01*
X102716457Y-107306943D01*
X70075500Y-107306943D01*
X70075500Y-104703920D01*
X83619499Y-104703920D01*
X83648340Y-104848907D01*
X83648343Y-104848917D01*
X83704912Y-104985488D01*
X83704919Y-104985501D01*
X83787048Y-105108415D01*
X83787051Y-105108419D01*
X83891580Y-105212948D01*
X83891584Y-105212951D01*
X84014498Y-105295080D01*
X84014511Y-105295087D01*
X84126947Y-105341659D01*
X84151087Y-105351658D01*
X84151091Y-105351658D01*
X84151092Y-105351659D01*
X84296079Y-105380500D01*
X84296082Y-105380500D01*
X84443920Y-105380500D01*
X84541462Y-105361096D01*
X84588913Y-105351658D01*
X84725495Y-105295084D01*
X84848416Y-105212951D01*
X84952951Y-105108416D01*
X85035084Y-104985495D01*
X85091658Y-104848913D01*
X85120500Y-104703918D01*
X85120500Y-104693920D01*
X85419499Y-104693920D01*
X85448340Y-104838907D01*
X85448343Y-104838917D01*
X85504912Y-104975488D01*
X85504919Y-104975501D01*
X85587048Y-105098415D01*
X85587051Y-105098419D01*
X85691580Y-105202948D01*
X85691584Y-105202951D01*
X85814498Y-105285080D01*
X85814511Y-105285087D01*
X85877453Y-105311158D01*
X85951087Y-105341658D01*
X85951091Y-105341658D01*
X85951092Y-105341659D01*
X86096079Y-105370500D01*
X86096082Y-105370500D01*
X86243920Y-105370500D01*
X86341462Y-105351096D01*
X86388913Y-105341658D01*
X86501353Y-105295084D01*
X86525488Y-105285087D01*
X86525488Y-105285086D01*
X86525495Y-105285084D01*
X86648416Y-105202951D01*
X86752951Y-105098416D01*
X86835084Y-104975495D01*
X86891658Y-104838913D01*
X86901096Y-104791462D01*
X86920500Y-104693920D01*
X86920500Y-104651153D01*
X92729500Y-104651153D01*
X92729500Y-104808846D01*
X92760261Y-104963489D01*
X92760264Y-104963501D01*
X92820602Y-105109171D01*
X92820609Y-105109184D01*
X92841941Y-105141109D01*
X92862819Y-105207787D01*
X92844334Y-105275167D01*
X92841941Y-105278891D01*
X92820609Y-105310815D01*
X92820602Y-105310828D01*
X92760264Y-105456498D01*
X92760261Y-105456510D01*
X92729500Y-105611153D01*
X92729500Y-105768846D01*
X92760261Y-105923489D01*
X92760264Y-105923501D01*
X92820602Y-106069172D01*
X92820609Y-106069185D01*
X92908210Y-106200288D01*
X92908213Y-106200292D01*
X93019707Y-106311786D01*
X93019711Y-106311789D01*
X93150814Y-106399390D01*
X93150827Y-106399397D01*
X93296498Y-106459735D01*
X93296503Y-106459737D01*
X93451153Y-106490499D01*
X93451156Y-106490500D01*
X93451158Y-106490500D01*
X93608844Y-106490500D01*
X93608845Y-106490499D01*
X93763497Y-106459737D01*
X93909179Y-106399394D01*
X94040289Y-106311789D01*
X94151789Y-106200289D01*
X94239394Y-106069179D01*
X94299737Y-105923497D01*
X94330500Y-105768842D01*
X94330500Y-105611158D01*
X94330500Y-105611155D01*
X94330499Y-105611153D01*
X94302192Y-105468846D01*
X94299737Y-105456503D01*
X94264114Y-105370500D01*
X94258855Y-105357803D01*
X94258852Y-105357797D01*
X94239532Y-105311153D01*
X127919500Y-105311153D01*
X127919500Y-105468846D01*
X127950261Y-105623489D01*
X127950264Y-105623501D01*
X128010602Y-105769172D01*
X128010609Y-105769185D01*
X128098210Y-105900288D01*
X128098213Y-105900292D01*
X128209707Y-106011786D01*
X128209711Y-106011789D01*
X128340814Y-106099390D01*
X128340827Y-106099397D01*
X128486498Y-106159735D01*
X128486503Y-106159737D01*
X128641153Y-106190499D01*
X128641156Y-106190500D01*
X128641158Y-106190500D01*
X128798844Y-106190500D01*
X128798845Y-106190499D01*
X128953497Y-106159737D01*
X129099179Y-106099394D01*
X129230289Y-106011789D01*
X129341789Y-105900289D01*
X129429394Y-105769179D01*
X129489737Y-105623497D01*
X129520500Y-105468842D01*
X129520500Y-105311158D01*
X129520500Y-105311155D01*
X129520499Y-105311153D01*
X129515314Y-105285087D01*
X129489737Y-105156503D01*
X129469819Y-105108416D01*
X129429397Y-105010827D01*
X129429390Y-105010814D01*
X129341789Y-104879711D01*
X129341786Y-104879707D01*
X129230292Y-104768213D01*
X129230288Y-104768210D01*
X129099185Y-104680609D01*
X129099172Y-104680602D01*
X128953501Y-104620264D01*
X128953489Y-104620261D01*
X128798845Y-104589500D01*
X128798842Y-104589500D01*
X128641158Y-104589500D01*
X128641155Y-104589500D01*
X128486510Y-104620261D01*
X128486498Y-104620264D01*
X128340827Y-104680602D01*
X128340814Y-104680609D01*
X128209711Y-104768210D01*
X128209707Y-104768213D01*
X128098213Y-104879707D01*
X128098210Y-104879711D01*
X128010609Y-105010814D01*
X128010602Y-105010827D01*
X127950264Y-105156498D01*
X127950261Y-105156510D01*
X127919500Y-105311153D01*
X94239532Y-105311153D01*
X94239394Y-105310821D01*
X94214455Y-105273497D01*
X94211445Y-105267782D01*
X94205761Y-105239620D01*
X94197180Y-105212215D01*
X94198937Y-105205807D01*
X94197623Y-105199293D01*
X94208065Y-105172532D01*
X94215664Y-105144835D01*
X94218045Y-105141129D01*
X94239394Y-105109179D01*
X94299737Y-104963497D01*
X94330500Y-104808842D01*
X94330500Y-104651158D01*
X94330500Y-104651155D01*
X94330499Y-104651153D01*
X94324355Y-104620264D01*
X94299737Y-104496503D01*
X94260213Y-104401082D01*
X94239397Y-104350827D01*
X94239390Y-104350814D01*
X94151789Y-104219711D01*
X94151786Y-104219707D01*
X94040292Y-104108213D01*
X94040288Y-104108210D01*
X93909185Y-104020609D01*
X93909172Y-104020602D01*
X93763501Y-103960264D01*
X93763489Y-103960261D01*
X93608845Y-103929500D01*
X93608842Y-103929500D01*
X93451158Y-103929500D01*
X93451155Y-103929500D01*
X93296510Y-103960261D01*
X93296498Y-103960264D01*
X93150827Y-104020602D01*
X93150814Y-104020609D01*
X93019711Y-104108210D01*
X93019707Y-104108213D01*
X92908213Y-104219707D01*
X92908210Y-104219711D01*
X92820609Y-104350814D01*
X92820602Y-104350827D01*
X92760264Y-104496498D01*
X92760261Y-104496510D01*
X92729500Y-104651153D01*
X86920500Y-104651153D01*
X86920500Y-104546079D01*
X86891659Y-104401092D01*
X86891658Y-104401091D01*
X86891658Y-104401087D01*
X86870837Y-104350821D01*
X86835087Y-104264511D01*
X86835080Y-104264498D01*
X86752951Y-104141584D01*
X86752948Y-104141580D01*
X86648419Y-104037051D01*
X86648415Y-104037048D01*
X86525501Y-103954919D01*
X86525488Y-103954912D01*
X86388917Y-103898343D01*
X86388907Y-103898340D01*
X86243920Y-103869500D01*
X86243918Y-103869500D01*
X86096082Y-103869500D01*
X86096080Y-103869500D01*
X85951092Y-103898340D01*
X85951082Y-103898343D01*
X85814511Y-103954912D01*
X85814498Y-103954919D01*
X85691584Y-104037048D01*
X85691580Y-104037051D01*
X85587051Y-104141580D01*
X85587048Y-104141584D01*
X85504919Y-104264498D01*
X85504912Y-104264511D01*
X85448343Y-104401082D01*
X85448340Y-104401092D01*
X85419500Y-104546079D01*
X85419500Y-104546082D01*
X85419500Y-104693918D01*
X85419500Y-104693920D01*
X85419499Y-104693920D01*
X85120500Y-104693920D01*
X85120500Y-104556082D01*
X85118510Y-104546079D01*
X85091659Y-104411092D01*
X85091658Y-104411091D01*
X85091658Y-104411087D01*
X85049677Y-104309735D01*
X85035087Y-104274511D01*
X85035080Y-104274498D01*
X84952951Y-104151584D01*
X84952948Y-104151580D01*
X84848419Y-104047051D01*
X84848415Y-104047048D01*
X84725501Y-103964919D01*
X84725488Y-103964912D01*
X84588917Y-103908343D01*
X84588907Y-103908340D01*
X84443920Y-103879500D01*
X84443918Y-103879500D01*
X84296082Y-103879500D01*
X84296080Y-103879500D01*
X84151092Y-103908340D01*
X84151082Y-103908343D01*
X84014511Y-103964912D01*
X84014498Y-103964919D01*
X83891584Y-104047048D01*
X83891580Y-104047051D01*
X83787051Y-104151580D01*
X83787048Y-104151584D01*
X83704919Y-104274498D01*
X83704912Y-104274511D01*
X83648343Y-104411082D01*
X83648340Y-104411092D01*
X83619500Y-104556079D01*
X83619500Y-104556082D01*
X83619500Y-104703918D01*
X83619500Y-104703920D01*
X83619499Y-104703920D01*
X70075500Y-104703920D01*
X70075500Y-104512575D01*
X80618474Y-104512575D01*
X80723733Y-104556175D01*
X80723741Y-104556177D01*
X80868628Y-104584997D01*
X80868632Y-104584998D01*
X81016370Y-104584998D01*
X81016373Y-104584997D01*
X81161260Y-104556177D01*
X81161268Y-104556175D01*
X81266526Y-104512576D01*
X81266526Y-104512575D01*
X80942502Y-104188551D01*
X80942501Y-104188551D01*
X80618474Y-104512575D01*
X70075500Y-104512575D01*
X70075500Y-103173920D01*
X76189499Y-103173920D01*
X76218340Y-103318907D01*
X76218343Y-103318917D01*
X76274912Y-103455488D01*
X76274919Y-103455501D01*
X76357048Y-103578415D01*
X76357051Y-103578419D01*
X76461580Y-103682948D01*
X76461584Y-103682951D01*
X76584498Y-103765080D01*
X76584511Y-103765087D01*
X76695786Y-103811178D01*
X76721087Y-103821658D01*
X76721091Y-103821658D01*
X76721092Y-103821659D01*
X76866079Y-103850500D01*
X76866082Y-103850500D01*
X77013920Y-103850500D01*
X77111462Y-103831096D01*
X77158913Y-103821658D01*
X77275184Y-103773497D01*
X77295488Y-103765087D01*
X77295488Y-103765086D01*
X77295495Y-103765084D01*
X77336665Y-103737575D01*
X79843474Y-103737575D01*
X79948733Y-103781175D01*
X80094835Y-103810236D01*
X80156747Y-103842621D01*
X80191321Y-103903337D01*
X80192262Y-103907663D01*
X80221321Y-104053758D01*
X80221324Y-104053767D01*
X80264922Y-104159023D01*
X80588949Y-103834999D01*
X80588949Y-103834998D01*
X80568741Y-103814790D01*
X80840901Y-103814790D01*
X80840901Y-103855208D01*
X80856369Y-103892551D01*
X80884949Y-103921131D01*
X80922292Y-103936599D01*
X80962710Y-103936599D01*
X81000053Y-103921131D01*
X81028633Y-103892551D01*
X81044101Y-103855208D01*
X81044101Y-103834999D01*
X81296053Y-103834999D01*
X81620077Y-104159024D01*
X81663677Y-104053766D01*
X81692738Y-103907664D01*
X81725123Y-103845752D01*
X81785838Y-103811178D01*
X81790166Y-103810236D01*
X81936268Y-103781175D01*
X82041526Y-103737575D01*
X81717501Y-103413551D01*
X81296053Y-103834999D01*
X81044101Y-103834999D01*
X81044101Y-103814790D01*
X81028633Y-103777447D01*
X81000053Y-103748867D01*
X80962710Y-103733399D01*
X80922292Y-103733399D01*
X80884949Y-103748867D01*
X80856369Y-103777447D01*
X80840901Y-103814790D01*
X80568741Y-103814790D01*
X80167502Y-103413551D01*
X80167501Y-103413551D01*
X79843474Y-103737575D01*
X77336665Y-103737575D01*
X77418416Y-103682951D01*
X77418419Y-103682948D01*
X77492288Y-103609080D01*
X77522948Y-103578419D01*
X77522951Y-103578416D01*
X77605084Y-103455495D01*
X77661658Y-103318913D01*
X77671096Y-103271462D01*
X77690500Y-103173920D01*
X77690500Y-103140846D01*
X77710185Y-103073807D01*
X77762989Y-103028052D01*
X77790308Y-103019229D01*
X77874674Y-103002447D01*
X77928913Y-102991658D01*
X77942268Y-102986126D01*
X79417502Y-102986126D01*
X79417502Y-103133871D01*
X79446321Y-103278758D01*
X79446324Y-103278767D01*
X79489922Y-103384023D01*
X79813949Y-103059999D01*
X79793740Y-103039790D01*
X80065901Y-103039790D01*
X80065901Y-103080208D01*
X80081369Y-103117551D01*
X80109949Y-103146131D01*
X80147292Y-103161599D01*
X80187710Y-103161599D01*
X80225053Y-103146131D01*
X80253633Y-103117551D01*
X80269101Y-103080208D01*
X80269101Y-103059999D01*
X80521053Y-103059999D01*
X80942501Y-103481447D01*
X81363949Y-103059999D01*
X81343740Y-103039790D01*
X81615901Y-103039790D01*
X81615901Y-103080208D01*
X81631369Y-103117551D01*
X81659949Y-103146131D01*
X81697292Y-103161599D01*
X81737710Y-103161599D01*
X81775053Y-103146131D01*
X81803633Y-103117551D01*
X81819101Y-103080208D01*
X81819101Y-103059998D01*
X82071053Y-103059998D01*
X82071053Y-103060000D01*
X82395077Y-103384024D01*
X82438677Y-103278766D01*
X82438679Y-103278758D01*
X82467499Y-103133871D01*
X82467500Y-103133868D01*
X82467500Y-102986130D01*
X82467499Y-102986126D01*
X82438679Y-102841239D01*
X82438676Y-102841227D01*
X82401932Y-102752518D01*
X82395078Y-102735972D01*
X82071053Y-103059998D01*
X81819101Y-103059998D01*
X81819101Y-103039790D01*
X81803633Y-103002447D01*
X81775053Y-102973867D01*
X81737710Y-102958399D01*
X81697292Y-102958399D01*
X81659949Y-102973867D01*
X81631369Y-103002447D01*
X81615901Y-103039790D01*
X81343740Y-103039790D01*
X81015103Y-102711153D01*
X103419500Y-102711153D01*
X103419500Y-102868846D01*
X103450261Y-103023489D01*
X103450264Y-103023501D01*
X103510602Y-103169172D01*
X103510609Y-103169185D01*
X103598210Y-103300288D01*
X103598213Y-103300292D01*
X103709707Y-103411786D01*
X103709711Y-103411789D01*
X103840814Y-103499390D01*
X103840827Y-103499397D01*
X103986498Y-103559735D01*
X103986503Y-103559737D01*
X104141153Y-103590499D01*
X104141156Y-103590500D01*
X104141158Y-103590500D01*
X104298844Y-103590500D01*
X104298845Y-103590499D01*
X104453497Y-103559737D01*
X104599179Y-103499394D01*
X104656411Y-103461153D01*
X114952000Y-103461153D01*
X114952000Y-103618846D01*
X114982761Y-103773489D01*
X114982764Y-103773501D01*
X115043102Y-103919172D01*
X115043109Y-103919185D01*
X115130710Y-104050288D01*
X115130713Y-104050292D01*
X115242207Y-104161786D01*
X115242211Y-104161789D01*
X115373314Y-104249390D01*
X115373327Y-104249397D01*
X115518998Y-104309735D01*
X115519003Y-104309737D01*
X115673653Y-104340499D01*
X115673656Y-104340500D01*
X115673658Y-104340500D01*
X115831344Y-104340500D01*
X115831345Y-104340499D01*
X115985997Y-104309737D01*
X116131679Y-104249394D01*
X116262789Y-104161789D01*
X116374289Y-104050289D01*
X116461894Y-103919179D01*
X116470525Y-103898343D01*
X116488391Y-103855208D01*
X116522237Y-103773497D01*
X116548012Y-103643920D01*
X126979499Y-103643920D01*
X127008340Y-103788907D01*
X127008343Y-103788917D01*
X127064912Y-103925488D01*
X127064919Y-103925501D01*
X127147048Y-104048415D01*
X127147051Y-104048419D01*
X127251580Y-104152948D01*
X127251584Y-104152951D01*
X127374498Y-104235080D01*
X127374511Y-104235087D01*
X127469690Y-104274511D01*
X127511087Y-104291658D01*
X127511091Y-104291658D01*
X127511092Y-104291659D01*
X127656079Y-104320500D01*
X127656082Y-104320500D01*
X127803920Y-104320500D01*
X127901462Y-104301096D01*
X127948913Y-104291658D01*
X128085495Y-104235084D01*
X128208416Y-104152951D01*
X128312951Y-104048416D01*
X128395084Y-103925495D01*
X128451658Y-103788913D01*
X128472736Y-103682951D01*
X128480500Y-103643920D01*
X128480500Y-103496079D01*
X128451659Y-103351092D01*
X128451658Y-103351091D01*
X128451658Y-103351087D01*
X128443610Y-103331658D01*
X128395087Y-103214511D01*
X128395080Y-103214498D01*
X128312951Y-103091584D01*
X128312948Y-103091580D01*
X128208419Y-102987051D01*
X128208415Y-102987048D01*
X128085501Y-102904919D01*
X128085488Y-102904912D01*
X127948917Y-102848343D01*
X127948907Y-102848340D01*
X127803920Y-102819500D01*
X127803918Y-102819500D01*
X127656082Y-102819500D01*
X127656080Y-102819500D01*
X127511092Y-102848340D01*
X127511082Y-102848343D01*
X127374511Y-102904912D01*
X127374498Y-102904919D01*
X127251584Y-102987048D01*
X127251580Y-102987051D01*
X127147051Y-103091580D01*
X127147048Y-103091584D01*
X127064919Y-103214498D01*
X127064912Y-103214511D01*
X127008343Y-103351082D01*
X127008340Y-103351092D01*
X126979500Y-103496079D01*
X126979500Y-103496082D01*
X126979500Y-103643918D01*
X126979500Y-103643920D01*
X126979499Y-103643920D01*
X116548012Y-103643920D01*
X116553000Y-103618842D01*
X116553000Y-103461158D01*
X116553000Y-103461155D01*
X116552999Y-103461153D01*
X116537657Y-103384023D01*
X116522237Y-103306503D01*
X116519663Y-103300288D01*
X116461897Y-103160827D01*
X116461890Y-103160814D01*
X116374289Y-103029711D01*
X116374286Y-103029707D01*
X116262792Y-102918213D01*
X116262788Y-102918210D01*
X116131685Y-102830609D01*
X116131672Y-102830602D01*
X115986001Y-102770264D01*
X115985989Y-102770261D01*
X115831345Y-102739500D01*
X115831342Y-102739500D01*
X115673658Y-102739500D01*
X115673655Y-102739500D01*
X115519010Y-102770261D01*
X115518998Y-102770264D01*
X115373327Y-102830602D01*
X115373314Y-102830609D01*
X115242211Y-102918210D01*
X115242207Y-102918213D01*
X115130713Y-103029707D01*
X115130710Y-103029711D01*
X115043109Y-103160814D01*
X115043102Y-103160827D01*
X114982764Y-103306498D01*
X114982761Y-103306510D01*
X114952000Y-103461153D01*
X104656411Y-103461153D01*
X104730289Y-103411789D01*
X104841789Y-103300289D01*
X104929394Y-103169179D01*
X104932854Y-103160827D01*
X104961536Y-103091580D01*
X104989737Y-103023497D01*
X105020500Y-102868842D01*
X105020500Y-102711158D01*
X105020500Y-102711155D01*
X105020499Y-102711153D01*
X105015082Y-102683920D01*
X112289499Y-102683920D01*
X112318340Y-102828907D01*
X112318343Y-102828917D01*
X112374912Y-102965488D01*
X112374919Y-102965501D01*
X112457048Y-103088415D01*
X112457051Y-103088419D01*
X112561580Y-103192948D01*
X112561584Y-103192951D01*
X112684498Y-103275080D01*
X112684511Y-103275087D01*
X112790327Y-103318917D01*
X112821087Y-103331658D01*
X112821091Y-103331658D01*
X112821092Y-103331659D01*
X112966079Y-103360500D01*
X112966082Y-103360500D01*
X113113920Y-103360500D01*
X113249911Y-103333449D01*
X113255688Y-103332299D01*
X113258913Y-103331658D01*
X113364547Y-103287902D01*
X113395488Y-103275087D01*
X113395488Y-103275086D01*
X113395495Y-103275084D01*
X113518416Y-103192951D01*
X113622951Y-103088416D01*
X113705084Y-102965495D01*
X113761658Y-102828913D01*
X113773324Y-102770264D01*
X113790500Y-102683920D01*
X113790500Y-102536079D01*
X113761659Y-102391092D01*
X113761658Y-102391091D01*
X113761658Y-102391087D01*
X113759799Y-102386599D01*
X113705087Y-102254511D01*
X113705081Y-102254500D01*
X113671309Y-102203956D01*
X113671308Y-102203955D01*
X113629345Y-102141153D01*
X118639500Y-102141153D01*
X118639500Y-102298846D01*
X118670261Y-102453489D01*
X118670264Y-102453501D01*
X118730602Y-102599172D01*
X118730609Y-102599185D01*
X118818210Y-102730288D01*
X118818213Y-102730292D01*
X118929707Y-102841786D01*
X118929711Y-102841789D01*
X119060814Y-102929390D01*
X119060827Y-102929397D01*
X119200018Y-102987051D01*
X119206503Y-102989737D01*
X119354768Y-103019229D01*
X119361153Y-103020499D01*
X119361156Y-103020500D01*
X119361158Y-103020500D01*
X119518844Y-103020500D01*
X119518845Y-103020499D01*
X119673497Y-102989737D01*
X119819179Y-102929394D01*
X119950289Y-102841789D01*
X120061789Y-102730289D01*
X120149394Y-102599179D01*
X120209737Y-102453497D01*
X120240500Y-102298842D01*
X120240500Y-102141158D01*
X120240500Y-102141155D01*
X120240499Y-102141153D01*
X120228455Y-102080606D01*
X120209737Y-101986503D01*
X120199162Y-101960972D01*
X120149397Y-101840827D01*
X120149390Y-101840814D01*
X120061789Y-101709711D01*
X120061786Y-101709707D01*
X119950292Y-101598213D01*
X119950288Y-101598210D01*
X119819185Y-101510609D01*
X119819172Y-101510602D01*
X119673501Y-101450264D01*
X119673489Y-101450261D01*
X119518845Y-101419500D01*
X119518842Y-101419500D01*
X119361158Y-101419500D01*
X119361155Y-101419500D01*
X119206510Y-101450261D01*
X119206498Y-101450264D01*
X119060827Y-101510602D01*
X119060814Y-101510609D01*
X118929711Y-101598210D01*
X118929707Y-101598213D01*
X118818213Y-101709707D01*
X118818210Y-101709711D01*
X118730609Y-101840814D01*
X118730602Y-101840827D01*
X118670264Y-101986498D01*
X118670261Y-101986510D01*
X118639500Y-102141153D01*
X113629345Y-102141153D01*
X113622951Y-102131584D01*
X113622948Y-102131580D01*
X113518419Y-102027051D01*
X113518415Y-102027048D01*
X113395501Y-101944919D01*
X113395488Y-101944912D01*
X113258917Y-101888343D01*
X113258907Y-101888340D01*
X113113920Y-101859500D01*
X113113918Y-101859500D01*
X112966082Y-101859500D01*
X112966080Y-101859500D01*
X112821092Y-101888340D01*
X112821082Y-101888343D01*
X112684511Y-101944912D01*
X112684498Y-101944919D01*
X112561584Y-102027048D01*
X112561580Y-102027051D01*
X112457051Y-102131580D01*
X112457048Y-102131584D01*
X112374919Y-102254498D01*
X112374912Y-102254511D01*
X112318343Y-102391082D01*
X112318340Y-102391092D01*
X112289500Y-102536079D01*
X112289500Y-102536082D01*
X112289500Y-102683918D01*
X112289500Y-102683920D01*
X112289499Y-102683920D01*
X105015082Y-102683920D01*
X104989740Y-102556513D01*
X104989735Y-102556498D01*
X104929397Y-102410827D01*
X104929390Y-102410814D01*
X104841789Y-102279711D01*
X104841786Y-102279707D01*
X104730292Y-102168213D01*
X104730288Y-102168210D01*
X104599185Y-102080609D01*
X104599172Y-102080602D01*
X104453501Y-102020264D01*
X104453489Y-102020261D01*
X104298845Y-101989500D01*
X104298842Y-101989500D01*
X104141158Y-101989500D01*
X104141155Y-101989500D01*
X103986510Y-102020261D01*
X103986498Y-102020264D01*
X103840827Y-102080602D01*
X103840814Y-102080609D01*
X103709711Y-102168210D01*
X103709707Y-102168213D01*
X103598213Y-102279707D01*
X103598210Y-102279711D01*
X103510609Y-102410814D01*
X103510602Y-102410827D01*
X103450264Y-102556498D01*
X103450261Y-102556510D01*
X103419500Y-102711153D01*
X81015103Y-102711153D01*
X80942501Y-102638551D01*
X80521053Y-103059999D01*
X80269101Y-103059999D01*
X80269101Y-103039790D01*
X80253633Y-103002447D01*
X80225053Y-102973867D01*
X80187710Y-102958399D01*
X80147292Y-102958399D01*
X80109949Y-102973867D01*
X80081369Y-103002447D01*
X80065901Y-103039790D01*
X79793740Y-103039790D01*
X79489923Y-102735973D01*
X79446323Y-102841235D01*
X79446321Y-102841239D01*
X79417502Y-102986126D01*
X77942268Y-102986126D01*
X78065495Y-102935084D01*
X78090749Y-102918210D01*
X78152519Y-102876937D01*
X78166885Y-102867337D01*
X78188416Y-102852951D01*
X78292951Y-102748416D01*
X78375084Y-102625495D01*
X78431658Y-102488913D01*
X78449535Y-102399043D01*
X78452841Y-102382421D01*
X79843475Y-102382421D01*
X80167501Y-102706447D01*
X80588949Y-102284999D01*
X80568740Y-102264790D01*
X80840901Y-102264790D01*
X80840901Y-102305208D01*
X80856369Y-102342551D01*
X80884949Y-102371131D01*
X80922292Y-102386599D01*
X80962710Y-102386599D01*
X81000053Y-102371131D01*
X81028633Y-102342551D01*
X81044101Y-102305208D01*
X81044101Y-102284998D01*
X81296053Y-102284998D01*
X81296053Y-102284999D01*
X81717501Y-102706447D01*
X81717502Y-102706447D01*
X82041526Y-102382421D01*
X81936269Y-102338822D01*
X81936260Y-102338819D01*
X81790165Y-102309760D01*
X81728254Y-102277375D01*
X81693680Y-102216660D01*
X81692738Y-102212333D01*
X81663677Y-102066231D01*
X81620077Y-101960972D01*
X81296053Y-102284998D01*
X81044101Y-102284998D01*
X81044101Y-102264790D01*
X81028633Y-102227447D01*
X81000053Y-102198867D01*
X80962710Y-102183399D01*
X80922292Y-102183399D01*
X80884949Y-102198867D01*
X80856369Y-102227447D01*
X80840901Y-102264790D01*
X80568740Y-102264790D01*
X80264923Y-101960973D01*
X80221323Y-102066235D01*
X80221321Y-102066239D01*
X80192262Y-102212334D01*
X80159877Y-102274245D01*
X80099162Y-102308819D01*
X80094836Y-102309760D01*
X79948741Y-102338819D01*
X79948737Y-102338821D01*
X79843475Y-102382421D01*
X78452841Y-102382421D01*
X78460500Y-102343920D01*
X78460500Y-102196079D01*
X78431659Y-102051092D01*
X78431658Y-102051091D01*
X78431658Y-102051087D01*
X78418890Y-102020263D01*
X78375087Y-101914511D01*
X78375080Y-101914498D01*
X78292951Y-101791584D01*
X78292948Y-101791580D01*
X78188419Y-101687051D01*
X78188415Y-101687048D01*
X78069245Y-101607421D01*
X80618475Y-101607421D01*
X80942501Y-101931447D01*
X80942502Y-101931447D01*
X81266526Y-101607421D01*
X81161269Y-101563822D01*
X81161260Y-101563819D01*
X81016373Y-101535000D01*
X80868628Y-101535000D01*
X80723741Y-101563819D01*
X80723737Y-101563821D01*
X80618475Y-101607421D01*
X78069245Y-101607421D01*
X78065501Y-101604919D01*
X78065488Y-101604912D01*
X77928917Y-101548343D01*
X77928907Y-101548340D01*
X77783920Y-101519500D01*
X77783918Y-101519500D01*
X77636082Y-101519500D01*
X77636080Y-101519500D01*
X77491092Y-101548340D01*
X77491082Y-101548343D01*
X77354511Y-101604912D01*
X77354498Y-101604919D01*
X77231584Y-101687048D01*
X77231580Y-101687051D01*
X77127051Y-101791580D01*
X77127048Y-101791584D01*
X77044919Y-101914498D01*
X77044912Y-101914511D01*
X76988343Y-102051082D01*
X76988340Y-102051092D01*
X76959500Y-102196079D01*
X76959500Y-102229153D01*
X76939815Y-102296192D01*
X76887011Y-102341947D01*
X76859692Y-102350770D01*
X76721092Y-102378340D01*
X76721082Y-102378343D01*
X76584511Y-102434912D01*
X76584498Y-102434919D01*
X76461584Y-102517048D01*
X76461580Y-102517051D01*
X76357051Y-102621580D01*
X76357048Y-102621584D01*
X76274919Y-102744498D01*
X76274912Y-102744511D01*
X76218343Y-102881082D01*
X76218340Y-102881092D01*
X76189500Y-103026079D01*
X76189500Y-103026082D01*
X76189500Y-103173918D01*
X76189500Y-103173920D01*
X76189499Y-103173920D01*
X70075500Y-103173920D01*
X70075500Y-100573920D01*
X79469499Y-100573920D01*
X79498340Y-100718907D01*
X79498343Y-100718917D01*
X79554912Y-100855488D01*
X79554919Y-100855501D01*
X79637048Y-100978415D01*
X79637051Y-100978419D01*
X79741580Y-101082948D01*
X79741584Y-101082951D01*
X79864498Y-101165080D01*
X79864511Y-101165087D01*
X80001082Y-101221656D01*
X80001087Y-101221658D01*
X80001091Y-101221658D01*
X80001092Y-101221659D01*
X80146079Y-101250500D01*
X80146082Y-101250500D01*
X80293920Y-101250500D01*
X80391462Y-101231096D01*
X80438913Y-101221658D01*
X80575495Y-101165084D01*
X80698416Y-101082951D01*
X80802951Y-100978416D01*
X80885084Y-100855495D01*
X80941658Y-100718913D01*
X80955308Y-100650292D01*
X80970500Y-100573920D01*
X80970500Y-100426079D01*
X80941659Y-100281092D01*
X80941658Y-100281091D01*
X80941658Y-100281087D01*
X80934538Y-100263898D01*
X80885087Y-100144511D01*
X80885080Y-100144498D01*
X80802951Y-100021584D01*
X80802948Y-100021580D01*
X80698419Y-99917051D01*
X80698415Y-99917048D01*
X80575501Y-99834919D01*
X80575488Y-99834912D01*
X80438917Y-99778343D01*
X80438907Y-99778340D01*
X80293920Y-99749500D01*
X80293918Y-99749500D01*
X80146082Y-99749500D01*
X80146080Y-99749500D01*
X80001092Y-99778340D01*
X80001082Y-99778343D01*
X79864511Y-99834912D01*
X79864498Y-99834919D01*
X79741584Y-99917048D01*
X79741580Y-99917051D01*
X79637051Y-100021580D01*
X79637048Y-100021584D01*
X79554919Y-100144498D01*
X79554912Y-100144511D01*
X79498343Y-100281082D01*
X79498340Y-100281092D01*
X79469500Y-100426079D01*
X79469500Y-100426082D01*
X79469500Y-100573918D01*
X79469500Y-100573920D01*
X79469499Y-100573920D01*
X70075500Y-100573920D01*
X70075500Y-99443920D01*
X80879499Y-99443920D01*
X80908340Y-99588907D01*
X80908343Y-99588917D01*
X80964912Y-99725488D01*
X80964919Y-99725501D01*
X81047048Y-99848415D01*
X81047051Y-99848419D01*
X81151580Y-99952948D01*
X81151584Y-99952951D01*
X81274498Y-100035080D01*
X81274511Y-100035087D01*
X81379294Y-100078489D01*
X81411087Y-100091658D01*
X81411091Y-100091658D01*
X81411092Y-100091659D01*
X81556079Y-100120500D01*
X81556082Y-100120500D01*
X81703920Y-100120500D01*
X81801462Y-100101096D01*
X81848913Y-100091658D01*
X81985495Y-100035084D01*
X82108416Y-99952951D01*
X82212951Y-99848416D01*
X82267917Y-99766153D01*
X87709500Y-99766153D01*
X87709500Y-99923846D01*
X87740261Y-100078489D01*
X87740264Y-100078501D01*
X87800602Y-100224172D01*
X87800609Y-100224185D01*
X87888210Y-100355288D01*
X87888213Y-100355292D01*
X87999707Y-100466786D01*
X87999711Y-100466789D01*
X88041030Y-100494398D01*
X88085835Y-100548010D01*
X88094542Y-100617335D01*
X88064387Y-100680363D01*
X88041030Y-100700602D01*
X87999711Y-100728210D01*
X87999707Y-100728213D01*
X87888213Y-100839707D01*
X87888210Y-100839711D01*
X87800609Y-100970814D01*
X87800602Y-100970827D01*
X87740264Y-101116498D01*
X87740261Y-101116510D01*
X87709500Y-101271153D01*
X87709500Y-101428846D01*
X87740261Y-101583489D01*
X87740264Y-101583501D01*
X87800602Y-101729172D01*
X87800609Y-101729185D01*
X87888210Y-101860288D01*
X87888213Y-101860292D01*
X87999707Y-101971786D01*
X87999711Y-101971789D01*
X88130814Y-102059390D01*
X88130827Y-102059397D01*
X88276498Y-102119735D01*
X88276503Y-102119737D01*
X88431153Y-102150499D01*
X88431156Y-102150500D01*
X88431158Y-102150500D01*
X88588844Y-102150500D01*
X88588845Y-102150499D01*
X88743497Y-102119737D01*
X88889179Y-102059394D01*
X89020289Y-101971789D01*
X89031106Y-101960972D01*
X89047319Y-101944760D01*
X89108642Y-101911275D01*
X89178334Y-101916259D01*
X89222681Y-101944760D01*
X89249707Y-101971786D01*
X89249711Y-101971789D01*
X89380814Y-102059390D01*
X89380827Y-102059397D01*
X89526498Y-102119735D01*
X89526503Y-102119737D01*
X89681153Y-102150499D01*
X89681156Y-102150500D01*
X89681158Y-102150500D01*
X89838844Y-102150500D01*
X89838845Y-102150499D01*
X89993497Y-102119737D01*
X90139179Y-102059394D01*
X90270289Y-101971789D01*
X90381789Y-101860289D01*
X90469394Y-101729179D01*
X90529737Y-101583497D01*
X90560500Y-101428842D01*
X90560500Y-101271158D01*
X90560500Y-101271155D01*
X90560499Y-101271153D01*
X90539400Y-101165084D01*
X90529737Y-101116503D01*
X90529735Y-101116498D01*
X90469397Y-100970827D01*
X90469390Y-100970814D01*
X90381789Y-100839711D01*
X90381786Y-100839707D01*
X90270292Y-100728213D01*
X90270284Y-100728207D01*
X90240195Y-100708102D01*
X90195389Y-100654490D01*
X90186682Y-100585165D01*
X90216836Y-100522138D01*
X90240195Y-100501898D01*
X90261366Y-100487750D01*
X90270289Y-100481789D01*
X90381789Y-100370289D01*
X90469394Y-100239179D01*
X90529737Y-100093497D01*
X90536171Y-100061153D01*
X92719500Y-100061153D01*
X92719500Y-100218846D01*
X92750261Y-100373489D01*
X92750264Y-100373501D01*
X92810602Y-100519172D01*
X92810609Y-100519185D01*
X92898210Y-100650288D01*
X92898213Y-100650292D01*
X93009707Y-100761786D01*
X93009711Y-100761789D01*
X93140814Y-100849390D01*
X93140827Y-100849397D01*
X93286498Y-100909735D01*
X93286503Y-100909737D01*
X93441153Y-100940499D01*
X93441156Y-100940500D01*
X93441158Y-100940500D01*
X93598844Y-100940500D01*
X93598845Y-100940499D01*
X93753497Y-100909737D01*
X93899179Y-100849394D01*
X94030289Y-100761789D01*
X94141789Y-100650289D01*
X94229394Y-100519179D01*
X94289737Y-100373497D01*
X94320500Y-100218842D01*
X94320500Y-100061158D01*
X94320121Y-100059251D01*
X94320121Y-100059248D01*
X94316522Y-100041153D01*
X95009500Y-100041153D01*
X95009500Y-100198846D01*
X95040261Y-100353489D01*
X95040264Y-100353501D01*
X95100602Y-100499172D01*
X95100609Y-100499185D01*
X95188210Y-100630288D01*
X95188213Y-100630292D01*
X95299707Y-100741786D01*
X95299711Y-100741789D01*
X95430814Y-100829390D01*
X95430827Y-100829397D01*
X95493849Y-100855501D01*
X95576503Y-100889737D01*
X95731153Y-100920499D01*
X95731156Y-100920500D01*
X95731158Y-100920500D01*
X95888844Y-100920500D01*
X95888845Y-100920499D01*
X96043497Y-100889737D01*
X96189179Y-100829394D01*
X96320289Y-100741789D01*
X96431789Y-100630289D01*
X96519394Y-100499179D01*
X96542283Y-100443920D01*
X103679499Y-100443920D01*
X103708340Y-100588907D01*
X103708343Y-100588917D01*
X103764912Y-100725488D01*
X103764919Y-100725501D01*
X103847048Y-100848415D01*
X103847051Y-100848419D01*
X103951580Y-100952948D01*
X103951584Y-100952951D01*
X104074498Y-101035080D01*
X104074511Y-101035087D01*
X104190059Y-101082948D01*
X104211087Y-101091658D01*
X104211091Y-101091658D01*
X104211092Y-101091659D01*
X104356079Y-101120500D01*
X104356082Y-101120500D01*
X104503920Y-101120500D01*
X104601462Y-101101096D01*
X104648913Y-101091658D01*
X104785495Y-101035084D01*
X104908416Y-100952951D01*
X105012951Y-100848416D01*
X105095084Y-100725495D01*
X105151658Y-100588913D01*
X105168967Y-100501898D01*
X105180500Y-100443920D01*
X105180500Y-100296079D01*
X105151659Y-100151092D01*
X105151658Y-100151091D01*
X105151658Y-100151087D01*
X105139869Y-100122626D01*
X105095087Y-100014511D01*
X105095080Y-100014498D01*
X105012951Y-99891584D01*
X105012948Y-99891580D01*
X104908419Y-99787051D01*
X104908415Y-99787048D01*
X104785501Y-99704919D01*
X104785488Y-99704912D01*
X104648917Y-99648343D01*
X104648907Y-99648340D01*
X104503920Y-99619500D01*
X104503918Y-99619500D01*
X104356082Y-99619500D01*
X104356080Y-99619500D01*
X104211092Y-99648340D01*
X104211082Y-99648343D01*
X104074511Y-99704912D01*
X104074498Y-99704919D01*
X103951584Y-99787048D01*
X103951580Y-99787051D01*
X103847051Y-99891580D01*
X103847048Y-99891584D01*
X103764919Y-100014498D01*
X103764912Y-100014511D01*
X103708343Y-100151082D01*
X103708340Y-100151092D01*
X103679500Y-100296079D01*
X103679500Y-100296082D01*
X103679500Y-100443918D01*
X103679500Y-100443920D01*
X103679499Y-100443920D01*
X96542283Y-100443920D01*
X96579737Y-100353497D01*
X96584852Y-100327780D01*
X96597182Y-100265798D01*
X96597182Y-100265797D01*
X96605460Y-100224179D01*
X96610500Y-100198842D01*
X96610500Y-100041158D01*
X96610500Y-100041155D01*
X96610499Y-100041153D01*
X96606606Y-100021580D01*
X96579737Y-99886503D01*
X96563961Y-99848415D01*
X96519397Y-99740827D01*
X96519390Y-99740814D01*
X96431789Y-99609711D01*
X96431786Y-99609707D01*
X96423232Y-99601153D01*
X114949500Y-99601153D01*
X114949500Y-99758846D01*
X114980261Y-99913489D01*
X114980264Y-99913501D01*
X115040602Y-100059172D01*
X115040609Y-100059185D01*
X115128210Y-100190288D01*
X115128213Y-100190292D01*
X115239707Y-100301786D01*
X115239711Y-100301789D01*
X115370814Y-100389390D01*
X115370827Y-100389397D01*
X115502459Y-100443920D01*
X115516503Y-100449737D01*
X115671153Y-100480499D01*
X115671156Y-100480500D01*
X115671158Y-100480500D01*
X115828844Y-100480500D01*
X115828845Y-100480499D01*
X115983497Y-100449737D01*
X116129179Y-100389394D01*
X116260289Y-100301789D01*
X116371789Y-100190289D01*
X116459394Y-100059179D01*
X116466859Y-100041158D01*
X116518265Y-99917051D01*
X116519737Y-99913497D01*
X116550500Y-99758842D01*
X116550500Y-99601158D01*
X116550500Y-99601155D01*
X116550499Y-99601153D01*
X116534001Y-99518213D01*
X116519737Y-99446503D01*
X116513944Y-99432518D01*
X116459397Y-99300827D01*
X116459390Y-99300814D01*
X116371789Y-99169711D01*
X116371786Y-99169707D01*
X116260292Y-99058213D01*
X116260288Y-99058210D01*
X116129185Y-98970609D01*
X116129172Y-98970602D01*
X115983501Y-98910264D01*
X115983489Y-98910261D01*
X115828845Y-98879500D01*
X115828842Y-98879500D01*
X115671158Y-98879500D01*
X115671155Y-98879500D01*
X115516510Y-98910261D01*
X115516498Y-98910264D01*
X115370827Y-98970602D01*
X115370814Y-98970609D01*
X115239711Y-99058210D01*
X115239707Y-99058213D01*
X115128213Y-99169707D01*
X115128210Y-99169711D01*
X115040609Y-99300814D01*
X115040602Y-99300827D01*
X114980264Y-99446498D01*
X114980261Y-99446510D01*
X114949500Y-99601153D01*
X96423232Y-99601153D01*
X96320292Y-99498213D01*
X96320288Y-99498210D01*
X96189185Y-99410609D01*
X96189172Y-99410602D01*
X96043501Y-99350264D01*
X96043489Y-99350261D01*
X95888845Y-99319500D01*
X95888842Y-99319500D01*
X95731158Y-99319500D01*
X95731155Y-99319500D01*
X95576510Y-99350261D01*
X95576498Y-99350264D01*
X95430827Y-99410602D01*
X95430814Y-99410609D01*
X95299711Y-99498210D01*
X95299707Y-99498213D01*
X95188213Y-99609707D01*
X95188210Y-99609711D01*
X95100609Y-99740814D01*
X95100602Y-99740827D01*
X95040264Y-99886498D01*
X95040261Y-99886510D01*
X95009500Y-100041153D01*
X94316522Y-100041153D01*
X94289738Y-99906508D01*
X94289737Y-99906507D01*
X94289737Y-99906503D01*
X94289735Y-99906498D01*
X94229397Y-99760827D01*
X94229390Y-99760814D01*
X94141789Y-99629711D01*
X94141786Y-99629707D01*
X94030292Y-99518213D01*
X94030288Y-99518210D01*
X93899185Y-99430609D01*
X93899172Y-99430602D01*
X93753501Y-99370264D01*
X93753489Y-99370261D01*
X93598845Y-99339500D01*
X93598842Y-99339500D01*
X93441158Y-99339500D01*
X93441155Y-99339500D01*
X93286510Y-99370261D01*
X93286498Y-99370264D01*
X93140827Y-99430602D01*
X93140814Y-99430609D01*
X93009711Y-99518210D01*
X93009707Y-99518213D01*
X92898213Y-99629707D01*
X92898210Y-99629711D01*
X92810609Y-99760814D01*
X92810602Y-99760827D01*
X92750264Y-99906498D01*
X92750261Y-99906510D01*
X92719500Y-100061153D01*
X90536171Y-100061153D01*
X90541356Y-100035087D01*
X90542194Y-100030874D01*
X90542194Y-100030873D01*
X90551842Y-99982366D01*
X90560500Y-99938842D01*
X90560500Y-99781158D01*
X90560500Y-99781155D01*
X90560499Y-99781153D01*
X90549426Y-99725488D01*
X90529737Y-99626503D01*
X90519237Y-99601153D01*
X90469397Y-99480827D01*
X90469390Y-99480814D01*
X90381789Y-99349711D01*
X90381786Y-99349707D01*
X90270292Y-99238213D01*
X90270288Y-99238210D01*
X90139185Y-99150609D01*
X90139172Y-99150602D01*
X89993501Y-99090264D01*
X89993489Y-99090261D01*
X89838845Y-99059500D01*
X89838842Y-99059500D01*
X89681158Y-99059500D01*
X89681155Y-99059500D01*
X89526510Y-99090261D01*
X89526498Y-99090264D01*
X89380827Y-99150602D01*
X89380814Y-99150609D01*
X89249714Y-99238208D01*
X89249708Y-99238212D01*
X89230179Y-99257742D01*
X89168856Y-99291226D01*
X89099164Y-99286240D01*
X89054819Y-99257740D01*
X89020292Y-99223213D01*
X89020288Y-99223210D01*
X88889185Y-99135609D01*
X88889172Y-99135602D01*
X88743501Y-99075264D01*
X88743489Y-99075261D01*
X88588845Y-99044500D01*
X88588842Y-99044500D01*
X88431158Y-99044500D01*
X88431155Y-99044500D01*
X88276510Y-99075261D01*
X88276498Y-99075264D01*
X88130827Y-99135602D01*
X88130814Y-99135609D01*
X87999711Y-99223210D01*
X87999707Y-99223213D01*
X87888213Y-99334707D01*
X87888210Y-99334711D01*
X87800609Y-99465814D01*
X87800602Y-99465827D01*
X87740264Y-99611498D01*
X87740261Y-99611510D01*
X87709500Y-99766153D01*
X82267917Y-99766153D01*
X82295084Y-99725495D01*
X82295087Y-99725488D01*
X82300420Y-99712614D01*
X82351656Y-99588917D01*
X82351658Y-99588913D01*
X82365267Y-99520499D01*
X82380500Y-99443920D01*
X82380500Y-99296079D01*
X82351659Y-99151092D01*
X82351658Y-99151091D01*
X82351658Y-99151087D01*
X82330154Y-99099172D01*
X82295087Y-99014511D01*
X82295080Y-99014498D01*
X82212951Y-98891584D01*
X82212948Y-98891580D01*
X82108419Y-98787051D01*
X82108415Y-98787048D01*
X82005329Y-98718168D01*
X81985501Y-98704919D01*
X81985488Y-98704912D01*
X81848917Y-98648343D01*
X81848907Y-98648340D01*
X81712230Y-98621153D01*
X106629500Y-98621153D01*
X106629500Y-98778846D01*
X106660261Y-98933489D01*
X106660264Y-98933501D01*
X106720602Y-99079172D01*
X106720609Y-99079185D01*
X106808210Y-99210288D01*
X106808213Y-99210292D01*
X106919707Y-99321786D01*
X106919711Y-99321789D01*
X107050814Y-99409390D01*
X107050827Y-99409397D01*
X107187032Y-99465814D01*
X107196503Y-99469737D01*
X107339661Y-99498213D01*
X107351153Y-99500499D01*
X107351156Y-99500500D01*
X107351158Y-99500500D01*
X107508844Y-99500500D01*
X107508845Y-99500499D01*
X107663497Y-99469737D01*
X107809179Y-99409394D01*
X107940289Y-99321789D01*
X108051789Y-99210289D01*
X108139394Y-99079179D01*
X108199737Y-98933497D01*
X108230500Y-98778842D01*
X108230500Y-98621158D01*
X108230500Y-98621155D01*
X108230499Y-98621153D01*
X108230170Y-98619500D01*
X108199737Y-98466503D01*
X108147681Y-98340827D01*
X108139397Y-98320827D01*
X108139390Y-98320814D01*
X108051789Y-98189711D01*
X108051786Y-98189707D01*
X107940292Y-98078213D01*
X107940288Y-98078210D01*
X107809185Y-97990609D01*
X107809172Y-97990602D01*
X107663501Y-97930264D01*
X107663489Y-97930261D01*
X107508845Y-97899500D01*
X107508842Y-97899500D01*
X107351158Y-97899500D01*
X107351155Y-97899500D01*
X107196510Y-97930261D01*
X107196498Y-97930264D01*
X107050827Y-97990602D01*
X107050814Y-97990609D01*
X106919711Y-98078210D01*
X106919707Y-98078213D01*
X106808213Y-98189707D01*
X106808210Y-98189711D01*
X106720609Y-98320814D01*
X106720602Y-98320827D01*
X106660264Y-98466498D01*
X106660261Y-98466510D01*
X106629500Y-98621153D01*
X81712230Y-98621153D01*
X81703920Y-98619500D01*
X81703918Y-98619500D01*
X81556082Y-98619500D01*
X81556080Y-98619500D01*
X81411092Y-98648340D01*
X81411082Y-98648343D01*
X81274511Y-98704912D01*
X81274498Y-98704919D01*
X81151584Y-98787048D01*
X81151580Y-98787051D01*
X81047051Y-98891580D01*
X81047048Y-98891584D01*
X80964919Y-99014498D01*
X80964912Y-99014511D01*
X80908343Y-99151082D01*
X80908340Y-99151092D01*
X80879500Y-99296079D01*
X80879500Y-99296082D01*
X80879500Y-99443918D01*
X80879500Y-99443920D01*
X80879499Y-99443920D01*
X70075500Y-99443920D01*
X70075500Y-97391153D01*
X109629500Y-97391153D01*
X109629500Y-97548846D01*
X109660261Y-97703489D01*
X109660264Y-97703501D01*
X109720602Y-97849172D01*
X109720609Y-97849185D01*
X109808210Y-97980288D01*
X109808213Y-97980292D01*
X109835240Y-98007319D01*
X109868725Y-98068642D01*
X109863741Y-98138334D01*
X109835240Y-98182681D01*
X109808213Y-98209707D01*
X109808210Y-98209711D01*
X109720609Y-98340814D01*
X109720602Y-98340827D01*
X109660264Y-98486498D01*
X109660261Y-98486510D01*
X109629500Y-98641153D01*
X109629500Y-98798846D01*
X109660261Y-98953489D01*
X109660264Y-98953501D01*
X109720602Y-99099172D01*
X109720609Y-99099185D01*
X109808210Y-99230288D01*
X109808213Y-99230292D01*
X109919707Y-99341786D01*
X109919711Y-99341789D01*
X110050814Y-99429390D01*
X110050827Y-99429397D01*
X110174992Y-99480827D01*
X110196503Y-99489737D01*
X110339661Y-99518213D01*
X110351153Y-99520499D01*
X110351156Y-99520500D01*
X110351158Y-99520500D01*
X110508844Y-99520500D01*
X110508845Y-99520499D01*
X110663497Y-99489737D01*
X110674766Y-99485069D01*
X110685786Y-99480505D01*
X110809172Y-99429397D01*
X110809172Y-99429396D01*
X110809179Y-99429394D01*
X110940289Y-99341789D01*
X111051789Y-99230289D01*
X111139394Y-99099179D01*
X111199737Y-98953497D01*
X111230500Y-98798842D01*
X111230500Y-98641158D01*
X111230500Y-98641155D01*
X111230499Y-98641153D01*
X111199738Y-98486510D01*
X111199737Y-98486503D01*
X111191451Y-98466498D01*
X111139397Y-98340827D01*
X111139390Y-98340814D01*
X111052693Y-98211064D01*
X111051789Y-98209711D01*
X111024448Y-98182370D01*
X111024071Y-98181987D01*
X111007780Y-98151585D01*
X110997350Y-98132483D01*
X133164500Y-98132483D01*
X133164500Y-99432501D01*
X133164501Y-99432518D01*
X133175000Y-99535296D01*
X133175001Y-99535299D01*
X133230185Y-99701831D01*
X133230187Y-99701836D01*
X133232087Y-99704916D01*
X133322288Y-99851156D01*
X133446344Y-99975212D01*
X133585685Y-100061158D01*
X133601120Y-100070678D01*
X133647845Y-100122626D01*
X133659068Y-100191588D01*
X133631224Y-100255671D01*
X133623706Y-100263898D01*
X133484889Y-100402715D01*
X133359951Y-100574679D01*
X133263444Y-100764085D01*
X133197753Y-100966260D01*
X133177892Y-101091658D01*
X133164500Y-101176213D01*
X133164500Y-101388787D01*
X133170845Y-101428846D01*
X133197669Y-101598211D01*
X133197754Y-101598743D01*
X133240137Y-101729185D01*
X133263444Y-101800914D01*
X133359951Y-101990320D01*
X133484890Y-102162286D01*
X133635213Y-102312609D01*
X133807179Y-102437548D01*
X133807181Y-102437549D01*
X133807184Y-102437551D01*
X133996588Y-102534057D01*
X134198757Y-102599746D01*
X134408713Y-102633000D01*
X134408714Y-102633000D01*
X134921286Y-102633000D01*
X134921287Y-102633000D01*
X135131243Y-102599746D01*
X135333412Y-102534057D01*
X135522816Y-102437551D01*
X135592946Y-102386599D01*
X135694786Y-102312609D01*
X135694788Y-102312606D01*
X135694792Y-102312604D01*
X135845104Y-102162292D01*
X135845106Y-102162288D01*
X135845109Y-102162286D01*
X135970048Y-101990320D01*
X135970047Y-101990320D01*
X135970051Y-101990316D01*
X136066557Y-101800912D01*
X136132246Y-101598743D01*
X136165500Y-101388787D01*
X136165500Y-101176213D01*
X136132246Y-100966257D01*
X136066557Y-100764088D01*
X135970051Y-100574684D01*
X135970049Y-100574681D01*
X135970048Y-100574679D01*
X135845109Y-100402713D01*
X135706294Y-100263898D01*
X135672809Y-100202575D01*
X135677793Y-100132883D01*
X135719665Y-100076950D01*
X135728879Y-100070678D01*
X135734331Y-100067314D01*
X135734334Y-100067314D01*
X135883656Y-99975212D01*
X136007712Y-99851156D01*
X136099814Y-99701834D01*
X136154999Y-99535297D01*
X136165500Y-99432509D01*
X136165499Y-98132492D01*
X136154999Y-98029703D01*
X136099814Y-97863166D01*
X136007712Y-97713844D01*
X135883656Y-97589788D01*
X135734334Y-97497686D01*
X135567797Y-97442501D01*
X135567795Y-97442500D01*
X135465010Y-97432000D01*
X133864998Y-97432000D01*
X133864981Y-97432001D01*
X133762203Y-97442500D01*
X133762200Y-97442501D01*
X133595668Y-97497685D01*
X133595663Y-97497687D01*
X133446342Y-97589789D01*
X133322289Y-97713842D01*
X133230187Y-97863163D01*
X133230186Y-97863166D01*
X133175001Y-98029703D01*
X133175001Y-98029704D01*
X133175000Y-98029704D01*
X133164500Y-98132483D01*
X110997350Y-98132483D01*
X110991275Y-98121358D01*
X110991311Y-98120850D01*
X110991071Y-98120402D01*
X110993801Y-98086035D01*
X110996259Y-98051666D01*
X110996569Y-98051182D01*
X110996604Y-98050752D01*
X110998163Y-98048702D01*
X111024760Y-98007319D01*
X111051786Y-97980292D01*
X111051789Y-97980289D01*
X111139394Y-97849179D01*
X111199737Y-97703497D01*
X111230500Y-97548842D01*
X111230500Y-97391158D01*
X111230500Y-97391155D01*
X111230499Y-97391153D01*
X111199738Y-97236510D01*
X111199737Y-97236503D01*
X111199735Y-97236498D01*
X111139397Y-97090827D01*
X111139390Y-97090814D01*
X111051789Y-96959711D01*
X111051786Y-96959707D01*
X110940292Y-96848213D01*
X110940288Y-96848210D01*
X110809185Y-96760609D01*
X110809172Y-96760602D01*
X110663501Y-96700264D01*
X110663489Y-96700261D01*
X110508845Y-96669500D01*
X110508842Y-96669500D01*
X110351158Y-96669500D01*
X110351155Y-96669500D01*
X110196510Y-96700261D01*
X110196498Y-96700264D01*
X110050827Y-96760602D01*
X110050814Y-96760609D01*
X109919711Y-96848210D01*
X109919707Y-96848213D01*
X109808213Y-96959707D01*
X109808210Y-96959711D01*
X109720609Y-97090814D01*
X109720602Y-97090827D01*
X109660264Y-97236498D01*
X109660261Y-97236510D01*
X109629500Y-97391153D01*
X70075500Y-97391153D01*
X70075500Y-95623654D01*
X105929500Y-95623654D01*
X105929500Y-95781347D01*
X105960261Y-95935990D01*
X105960264Y-95936002D01*
X106020602Y-96081673D01*
X106020609Y-96081686D01*
X106108210Y-96212789D01*
X106108213Y-96212793D01*
X106219707Y-96324287D01*
X106219711Y-96324290D01*
X106350814Y-96411891D01*
X106350827Y-96411898D01*
X106496498Y-96472236D01*
X106496503Y-96472238D01*
X106651153Y-96503000D01*
X106651156Y-96503001D01*
X106651158Y-96503001D01*
X106808844Y-96503001D01*
X106808845Y-96503000D01*
X106963497Y-96472238D01*
X107109179Y-96411895D01*
X107240289Y-96324290D01*
X107351789Y-96212790D01*
X107411348Y-96123654D01*
X115079500Y-96123654D01*
X115079500Y-96281347D01*
X115110261Y-96435990D01*
X115110264Y-96436002D01*
X115170602Y-96581673D01*
X115170609Y-96581686D01*
X115258210Y-96712789D01*
X115258213Y-96712793D01*
X115369707Y-96824287D01*
X115369711Y-96824290D01*
X115500814Y-96911891D01*
X115500827Y-96911898D01*
X115616250Y-96959707D01*
X115646503Y-96972238D01*
X115801153Y-97003000D01*
X115801156Y-97003001D01*
X115801158Y-97003001D01*
X115958844Y-97003001D01*
X115958845Y-97003000D01*
X116113497Y-96972238D01*
X116259179Y-96911895D01*
X116390289Y-96824290D01*
X116501789Y-96712790D01*
X116589394Y-96581680D01*
X116649737Y-96435998D01*
X116680500Y-96281343D01*
X116680500Y-96123659D01*
X116680500Y-96123656D01*
X116680499Y-96123654D01*
X116654013Y-95990500D01*
X116649737Y-95969004D01*
X116620902Y-95899390D01*
X116589397Y-95823328D01*
X116589390Y-95823315D01*
X116501789Y-95692212D01*
X116501786Y-95692208D01*
X116390292Y-95580714D01*
X116390288Y-95580711D01*
X116259185Y-95493110D01*
X116259172Y-95493103D01*
X116113501Y-95432765D01*
X116113489Y-95432762D01*
X115958845Y-95402001D01*
X115958842Y-95402001D01*
X115801158Y-95402001D01*
X115801155Y-95402001D01*
X115646510Y-95432762D01*
X115646498Y-95432765D01*
X115500827Y-95493103D01*
X115500814Y-95493110D01*
X115369711Y-95580711D01*
X115369707Y-95580714D01*
X115258213Y-95692208D01*
X115258210Y-95692212D01*
X115170609Y-95823315D01*
X115170602Y-95823328D01*
X115110264Y-95968999D01*
X115110261Y-95969011D01*
X115079500Y-96123654D01*
X107411348Y-96123654D01*
X107439394Y-96081680D01*
X107499737Y-95935998D01*
X107530500Y-95781343D01*
X107530500Y-95623659D01*
X107530500Y-95623656D01*
X107530499Y-95623654D01*
X107504531Y-95493107D01*
X107499737Y-95469004D01*
X107499735Y-95468999D01*
X107439397Y-95323328D01*
X107439390Y-95323315D01*
X107351789Y-95192212D01*
X107351786Y-95192208D01*
X107240292Y-95080714D01*
X107240288Y-95080711D01*
X107109185Y-94993110D01*
X107109172Y-94993103D01*
X106963501Y-94932765D01*
X106963489Y-94932762D01*
X106808845Y-94902001D01*
X106808842Y-94902001D01*
X106651158Y-94902001D01*
X106651155Y-94902001D01*
X106496510Y-94932762D01*
X106496498Y-94932765D01*
X106350827Y-94993103D01*
X106350814Y-94993110D01*
X106219711Y-95080711D01*
X106219707Y-95080714D01*
X106108213Y-95192208D01*
X106108210Y-95192212D01*
X106020609Y-95323315D01*
X106020602Y-95323328D01*
X105960264Y-95468999D01*
X105960261Y-95469011D01*
X105929500Y-95623654D01*
X70075500Y-95623654D01*
X70075500Y-94491153D01*
X109869500Y-94491153D01*
X109869500Y-94648846D01*
X109900261Y-94803489D01*
X109900264Y-94803501D01*
X109960602Y-94949172D01*
X109960609Y-94949185D01*
X110048210Y-95080288D01*
X110048213Y-95080292D01*
X110159707Y-95191786D01*
X110159711Y-95191789D01*
X110290814Y-95279390D01*
X110290827Y-95279397D01*
X110436498Y-95339735D01*
X110436503Y-95339737D01*
X110591153Y-95370499D01*
X110591156Y-95370500D01*
X110591158Y-95370500D01*
X110748844Y-95370500D01*
X110748845Y-95370499D01*
X110903497Y-95339737D01*
X111049179Y-95279394D01*
X111180289Y-95191789D01*
X111260925Y-95111153D01*
X123629500Y-95111153D01*
X123629500Y-95268846D01*
X123660261Y-95423489D01*
X123660264Y-95423501D01*
X123720602Y-95569172D01*
X123720609Y-95569185D01*
X123808210Y-95700288D01*
X123808213Y-95700292D01*
X123919707Y-95811786D01*
X123919711Y-95811789D01*
X124050814Y-95899390D01*
X124050827Y-95899397D01*
X124139201Y-95936002D01*
X124196503Y-95959737D01*
X124351153Y-95990499D01*
X124351156Y-95990500D01*
X124351158Y-95990500D01*
X124508844Y-95990500D01*
X124508845Y-95990499D01*
X124663497Y-95959737D01*
X124809179Y-95899394D01*
X124940289Y-95811789D01*
X125051789Y-95700289D01*
X125139394Y-95569179D01*
X125199737Y-95423497D01*
X125230500Y-95268842D01*
X125230500Y-95111158D01*
X125230500Y-95111155D01*
X125230499Y-95111153D01*
X125224360Y-95080289D01*
X125199737Y-94956503D01*
X125196703Y-94949179D01*
X125139397Y-94810827D01*
X125139390Y-94810814D01*
X125051789Y-94679711D01*
X125051786Y-94679707D01*
X124940292Y-94568213D01*
X124940288Y-94568210D01*
X124809185Y-94480609D01*
X124809172Y-94480602D01*
X124663501Y-94420264D01*
X124663489Y-94420261D01*
X124508845Y-94389500D01*
X124508842Y-94389500D01*
X124351158Y-94389500D01*
X124351155Y-94389500D01*
X124196510Y-94420261D01*
X124196498Y-94420264D01*
X124050827Y-94480602D01*
X124050814Y-94480609D01*
X123919711Y-94568210D01*
X123919707Y-94568213D01*
X123808213Y-94679707D01*
X123808210Y-94679711D01*
X123720609Y-94810814D01*
X123720602Y-94810827D01*
X123660264Y-94956498D01*
X123660261Y-94956510D01*
X123629500Y-95111153D01*
X111260925Y-95111153D01*
X111291789Y-95080289D01*
X111379394Y-94949179D01*
X111439737Y-94803497D01*
X111470500Y-94648842D01*
X111470500Y-94491158D01*
X111470500Y-94491155D01*
X111470499Y-94491153D01*
X111456398Y-94420263D01*
X111439737Y-94336503D01*
X111439735Y-94336498D01*
X111379397Y-94190827D01*
X111379390Y-94190814D01*
X111291789Y-94059711D01*
X111291786Y-94059707D01*
X111180292Y-93948213D01*
X111180288Y-93948210D01*
X111049185Y-93860609D01*
X111049172Y-93860602D01*
X110903501Y-93800264D01*
X110903489Y-93800261D01*
X110748845Y-93769500D01*
X110748842Y-93769500D01*
X110591158Y-93769500D01*
X110591155Y-93769500D01*
X110436510Y-93800261D01*
X110436498Y-93800264D01*
X110290827Y-93860602D01*
X110290814Y-93860609D01*
X110159711Y-93948210D01*
X110159707Y-93948213D01*
X110048213Y-94059707D01*
X110048210Y-94059711D01*
X109960609Y-94190814D01*
X109960602Y-94190827D01*
X109900264Y-94336498D01*
X109900261Y-94336510D01*
X109869500Y-94491153D01*
X70075500Y-94491153D01*
X70075500Y-92153920D01*
X88049499Y-92153920D01*
X88078340Y-92298907D01*
X88078343Y-92298917D01*
X88134912Y-92435488D01*
X88134919Y-92435501D01*
X88217048Y-92558415D01*
X88217051Y-92558419D01*
X88321580Y-92662948D01*
X88321584Y-92662951D01*
X88444498Y-92745080D01*
X88444511Y-92745087D01*
X88581082Y-92801656D01*
X88581087Y-92801658D01*
X88581091Y-92801658D01*
X88581092Y-92801659D01*
X88726079Y-92830500D01*
X88726082Y-92830500D01*
X88873920Y-92830500D01*
X88984944Y-92808415D01*
X89018913Y-92801658D01*
X89155495Y-92745084D01*
X89278416Y-92662951D01*
X89382951Y-92558416D01*
X89465084Y-92435495D01*
X89473539Y-92415084D01*
X89521656Y-92298917D01*
X89521658Y-92298913D01*
X89531440Y-92249735D01*
X89550500Y-92153920D01*
X89550500Y-92006079D01*
X89521659Y-91861092D01*
X89521658Y-91861091D01*
X89521658Y-91861087D01*
X89506263Y-91823920D01*
X112369499Y-91823920D01*
X112398340Y-91968907D01*
X112398343Y-91968917D01*
X112454912Y-92105488D01*
X112454919Y-92105501D01*
X112537048Y-92228415D01*
X112537051Y-92228419D01*
X112641580Y-92332948D01*
X112641584Y-92332951D01*
X112764498Y-92415080D01*
X112764511Y-92415087D01*
X112901082Y-92471656D01*
X112901087Y-92471658D01*
X112901091Y-92471658D01*
X112901092Y-92471659D01*
X113046079Y-92500500D01*
X113046082Y-92500500D01*
X113193920Y-92500500D01*
X113291462Y-92481096D01*
X113338913Y-92471658D01*
X113475495Y-92415084D01*
X113492203Y-92403920D01*
X115339499Y-92403920D01*
X115368340Y-92548907D01*
X115368343Y-92548917D01*
X115424912Y-92685488D01*
X115424919Y-92685501D01*
X115507048Y-92808415D01*
X115507051Y-92808419D01*
X115611580Y-92912948D01*
X115611584Y-92912951D01*
X115734498Y-92995080D01*
X115734511Y-92995087D01*
X115871082Y-93051656D01*
X115871087Y-93051658D01*
X115871091Y-93051658D01*
X115871092Y-93051659D01*
X116016079Y-93080500D01*
X116016082Y-93080500D01*
X116163920Y-93080500D01*
X116261462Y-93061096D01*
X116308913Y-93051658D01*
X116445495Y-92995084D01*
X116568416Y-92912951D01*
X116672951Y-92808416D01*
X116755084Y-92685495D01*
X116811658Y-92548913D01*
X116834220Y-92435488D01*
X116840500Y-92403920D01*
X116840500Y-92256079D01*
X116811659Y-92111092D01*
X116811658Y-92111091D01*
X116811658Y-92111087D01*
X116807807Y-92101789D01*
X116755087Y-91974511D01*
X116755080Y-91974498D01*
X116672951Y-91851584D01*
X116672948Y-91851580D01*
X116568419Y-91747051D01*
X116568415Y-91747048D01*
X116445501Y-91664919D01*
X116445488Y-91664912D01*
X116308917Y-91608343D01*
X116308907Y-91608340D01*
X116163920Y-91579500D01*
X116163918Y-91579500D01*
X116016082Y-91579500D01*
X116016080Y-91579500D01*
X115871092Y-91608340D01*
X115871082Y-91608343D01*
X115734511Y-91664912D01*
X115734498Y-91664919D01*
X115611584Y-91747048D01*
X115611580Y-91747051D01*
X115507051Y-91851580D01*
X115507048Y-91851584D01*
X115424919Y-91974498D01*
X115424912Y-91974511D01*
X115368343Y-92111082D01*
X115368340Y-92111092D01*
X115339500Y-92256079D01*
X115339500Y-92256082D01*
X115339500Y-92403918D01*
X115339500Y-92403920D01*
X115339499Y-92403920D01*
X113492203Y-92403920D01*
X113598416Y-92332951D01*
X113702951Y-92228416D01*
X113729025Y-92189394D01*
X113734568Y-92181099D01*
X113734569Y-92181097D01*
X113785077Y-92105506D01*
X113785080Y-92105501D01*
X113785084Y-92105495D01*
X113841658Y-91968913D01*
X113859035Y-91881555D01*
X113870500Y-91823920D01*
X113870500Y-91676079D01*
X113841659Y-91531092D01*
X113841658Y-91531091D01*
X113841658Y-91531087D01*
X113793540Y-91414919D01*
X113787838Y-91401153D01*
X122139500Y-91401153D01*
X122139500Y-91558846D01*
X122170261Y-91713489D01*
X122170264Y-91713501D01*
X122230602Y-91859172D01*
X122230609Y-91859185D01*
X122318210Y-91990288D01*
X122318213Y-91990292D01*
X122429707Y-92101786D01*
X122429711Y-92101789D01*
X122560814Y-92189390D01*
X122560827Y-92189397D01*
X122655029Y-92228416D01*
X122706503Y-92249737D01*
X122861153Y-92280499D01*
X122861156Y-92280500D01*
X122861158Y-92280500D01*
X123018844Y-92280500D01*
X123018845Y-92280499D01*
X123173497Y-92249737D01*
X123319179Y-92189394D01*
X123450289Y-92101789D01*
X123561789Y-91990289D01*
X123649394Y-91859179D01*
X123709737Y-91713497D01*
X123740500Y-91558842D01*
X123740500Y-91401158D01*
X123740500Y-91401155D01*
X123740499Y-91401153D01*
X123734250Y-91369737D01*
X123709737Y-91246503D01*
X123691529Y-91202544D01*
X123649397Y-91100827D01*
X123649390Y-91100814D01*
X123561789Y-90969711D01*
X123561786Y-90969707D01*
X123450292Y-90858213D01*
X123450288Y-90858210D01*
X123319185Y-90770609D01*
X123319172Y-90770602D01*
X123173501Y-90710264D01*
X123173489Y-90710261D01*
X123018845Y-90679500D01*
X123018842Y-90679500D01*
X122861158Y-90679500D01*
X122861155Y-90679500D01*
X122706510Y-90710261D01*
X122706498Y-90710264D01*
X122560827Y-90770602D01*
X122560814Y-90770609D01*
X122429711Y-90858210D01*
X122429707Y-90858213D01*
X122318213Y-90969707D01*
X122318210Y-90969711D01*
X122230609Y-91100814D01*
X122230602Y-91100827D01*
X122170264Y-91246498D01*
X122170261Y-91246510D01*
X122139500Y-91401153D01*
X113787838Y-91401153D01*
X113785087Y-91394511D01*
X113785080Y-91394498D01*
X113702951Y-91271584D01*
X113702948Y-91271580D01*
X113598419Y-91167051D01*
X113598415Y-91167048D01*
X113475501Y-91084919D01*
X113475488Y-91084912D01*
X113338917Y-91028343D01*
X113338907Y-91028340D01*
X113193920Y-90999500D01*
X113193918Y-90999500D01*
X113046082Y-90999500D01*
X113046080Y-90999500D01*
X112901092Y-91028340D01*
X112901082Y-91028343D01*
X112764511Y-91084912D01*
X112764498Y-91084919D01*
X112641584Y-91167048D01*
X112641580Y-91167051D01*
X112537051Y-91271580D01*
X112537048Y-91271584D01*
X112454919Y-91394498D01*
X112454912Y-91394511D01*
X112398343Y-91531082D01*
X112398340Y-91531092D01*
X112369500Y-91676079D01*
X112369500Y-91676082D01*
X112369500Y-91823918D01*
X112369500Y-91823920D01*
X112369499Y-91823920D01*
X89506263Y-91823920D01*
X89474422Y-91747048D01*
X89465084Y-91724504D01*
X89382951Y-91601584D01*
X89382948Y-91601580D01*
X89278419Y-91497051D01*
X89278415Y-91497048D01*
X89155501Y-91414919D01*
X89155488Y-91414912D01*
X89018917Y-91358343D01*
X89018907Y-91358340D01*
X88873920Y-91329500D01*
X88873918Y-91329500D01*
X88726082Y-91329500D01*
X88726080Y-91329500D01*
X88581092Y-91358340D01*
X88581082Y-91358343D01*
X88444511Y-91414912D01*
X88444498Y-91414919D01*
X88321584Y-91497048D01*
X88321580Y-91497051D01*
X88217051Y-91601580D01*
X88217048Y-91601584D01*
X88134919Y-91724498D01*
X88134912Y-91724511D01*
X88078343Y-91861082D01*
X88078340Y-91861092D01*
X88049500Y-92006079D01*
X88049500Y-92006082D01*
X88049500Y-92153918D01*
X88049500Y-92153920D01*
X88049499Y-92153920D01*
X70075500Y-92153920D01*
X70075500Y-90521153D01*
X97049500Y-90521153D01*
X97049500Y-90678846D01*
X97080261Y-90833489D01*
X97080264Y-90833501D01*
X97140602Y-90979172D01*
X97140609Y-90979185D01*
X97228210Y-91110288D01*
X97228213Y-91110292D01*
X97339707Y-91221786D01*
X97339711Y-91221789D01*
X97470814Y-91309390D01*
X97470827Y-91309397D01*
X97588995Y-91358343D01*
X97616503Y-91369737D01*
X97771153Y-91400499D01*
X97771156Y-91400500D01*
X97771158Y-91400500D01*
X97928844Y-91400500D01*
X97928845Y-91400499D01*
X98083497Y-91369737D01*
X98229179Y-91309394D01*
X98360289Y-91221789D01*
X98471789Y-91110289D01*
X98559394Y-90979179D01*
X98619737Y-90833497D01*
X98650500Y-90678842D01*
X98650500Y-90521158D01*
X98650500Y-90521155D01*
X98650499Y-90521153D01*
X98638565Y-90461158D01*
X98635061Y-90443543D01*
X99369499Y-90443543D01*
X99407947Y-90636829D01*
X99407950Y-90636839D01*
X99483364Y-90818907D01*
X99483371Y-90818920D01*
X99592860Y-90982781D01*
X99592863Y-90982785D01*
X99732214Y-91122136D01*
X99732218Y-91122139D01*
X99896079Y-91231628D01*
X99896092Y-91231635D01*
X100078160Y-91307049D01*
X100078165Y-91307051D01*
X100078169Y-91307051D01*
X100078170Y-91307052D01*
X100271456Y-91345500D01*
X100271459Y-91345500D01*
X100468543Y-91345500D01*
X100598582Y-91319632D01*
X100661835Y-91307051D01*
X100843914Y-91231632D01*
X100843919Y-91231628D01*
X100843922Y-91231627D01*
X100868040Y-91215511D01*
X100936559Y-91169728D01*
X101003234Y-91148850D01*
X101070614Y-91167334D01*
X101074341Y-91169728D01*
X101166321Y-91231188D01*
X101166328Y-91231192D01*
X101348306Y-91306569D01*
X101348318Y-91306572D01*
X101541504Y-91344999D01*
X101541508Y-91345000D01*
X101738492Y-91345000D01*
X101738495Y-91344999D01*
X101931681Y-91306572D01*
X101931693Y-91306569D01*
X102113673Y-91231191D01*
X102113676Y-91231189D01*
X102205657Y-91169729D01*
X102272334Y-91148850D01*
X102339715Y-91167334D01*
X102343440Y-91169728D01*
X102436079Y-91231628D01*
X102436092Y-91231635D01*
X102618160Y-91307049D01*
X102618165Y-91307051D01*
X102618169Y-91307051D01*
X102618170Y-91307052D01*
X102811456Y-91345500D01*
X102811459Y-91345500D01*
X103008543Y-91345500D01*
X103138582Y-91319632D01*
X103201835Y-91307051D01*
X103304126Y-91264680D01*
X103373590Y-91257212D01*
X103425887Y-91279976D01*
X103437668Y-91288795D01*
X103437671Y-91288797D01*
X103572517Y-91339091D01*
X103572516Y-91339091D01*
X103579444Y-91339835D01*
X103632127Y-91345500D01*
X104727872Y-91345499D01*
X104787483Y-91339091D01*
X104922331Y-91288796D01*
X105037546Y-91202546D01*
X105123796Y-91087331D01*
X105174091Y-90952483D01*
X105180500Y-90892873D01*
X105180499Y-90461153D01*
X114899500Y-90461153D01*
X114899500Y-90618846D01*
X114930261Y-90773489D01*
X114930264Y-90773501D01*
X114990602Y-90919172D01*
X114990609Y-90919185D01*
X115078210Y-91050288D01*
X115078213Y-91050292D01*
X115189707Y-91161786D01*
X115189711Y-91161789D01*
X115320814Y-91249390D01*
X115320827Y-91249397D01*
X115460018Y-91307051D01*
X115466503Y-91309737D01*
X115565858Y-91329500D01*
X115621153Y-91340499D01*
X115621156Y-91340500D01*
X115621158Y-91340500D01*
X115778844Y-91340500D01*
X115778845Y-91340499D01*
X115933497Y-91309737D01*
X115962742Y-91297623D01*
X116004071Y-91280505D01*
X116079172Y-91249397D01*
X116079172Y-91249396D01*
X116079179Y-91249394D01*
X116210289Y-91161789D01*
X116321789Y-91050289D01*
X116409394Y-90919179D01*
X116469737Y-90773497D01*
X116500500Y-90618842D01*
X116500500Y-90461158D01*
X116500500Y-90461155D01*
X116500499Y-90461153D01*
X116496239Y-90439735D01*
X116469737Y-90306503D01*
X116463641Y-90291786D01*
X116409397Y-90160827D01*
X116409390Y-90160814D01*
X116321789Y-90029711D01*
X116321786Y-90029707D01*
X116210292Y-89918213D01*
X116210288Y-89918210D01*
X116079185Y-89830609D01*
X116079172Y-89830602D01*
X115933501Y-89770264D01*
X115933489Y-89770261D01*
X115778845Y-89739500D01*
X115778842Y-89739500D01*
X115621158Y-89739500D01*
X115621155Y-89739500D01*
X115466510Y-89770261D01*
X115466498Y-89770264D01*
X115320827Y-89830602D01*
X115320814Y-89830609D01*
X115189711Y-89918210D01*
X115189707Y-89918213D01*
X115078213Y-90029707D01*
X115078210Y-90029711D01*
X114990609Y-90160814D01*
X114990602Y-90160827D01*
X114930264Y-90306498D01*
X114930261Y-90306510D01*
X114899500Y-90461153D01*
X105180499Y-90461153D01*
X105180499Y-90335087D01*
X105180499Y-89797129D01*
X105180498Y-89797123D01*
X105174091Y-89737516D01*
X105127993Y-89613920D01*
X105479499Y-89613920D01*
X105508340Y-89758907D01*
X105508343Y-89758917D01*
X105564912Y-89895488D01*
X105564919Y-89895501D01*
X105647048Y-90018415D01*
X105647051Y-90018419D01*
X105751580Y-90122948D01*
X105751584Y-90122951D01*
X105874498Y-90205080D01*
X105874511Y-90205087D01*
X105974386Y-90246456D01*
X106011087Y-90261658D01*
X106011091Y-90261658D01*
X106011092Y-90261659D01*
X106156079Y-90290500D01*
X106156082Y-90290500D01*
X106303920Y-90290500D01*
X106401462Y-90271096D01*
X106448913Y-90261658D01*
X106585495Y-90205084D01*
X106708416Y-90122951D01*
X106812951Y-90018416D01*
X106895084Y-89895495D01*
X106951658Y-89758913D01*
X106980500Y-89613918D01*
X106980500Y-89466082D01*
X106980500Y-89466079D01*
X106951659Y-89321092D01*
X106951658Y-89321091D01*
X106951658Y-89321087D01*
X106939124Y-89290827D01*
X106908759Y-89217518D01*
X106895085Y-89184507D01*
X106895080Y-89184498D01*
X106889504Y-89176153D01*
X116739500Y-89176153D01*
X116739500Y-89333846D01*
X116770261Y-89488489D01*
X116770264Y-89488501D01*
X116830602Y-89634172D01*
X116830609Y-89634185D01*
X116918210Y-89765288D01*
X116918213Y-89765292D01*
X117029707Y-89876786D01*
X117029711Y-89876789D01*
X117160814Y-89964390D01*
X117160827Y-89964397D01*
X117291250Y-90018419D01*
X117306503Y-90024737D01*
X117461153Y-90055499D01*
X117461156Y-90055500D01*
X117461158Y-90055500D01*
X117618844Y-90055500D01*
X117618845Y-90055499D01*
X117773497Y-90024737D01*
X117919179Y-89964394D01*
X118050289Y-89876789D01*
X118161789Y-89765289D01*
X118197961Y-89711153D01*
X121139500Y-89711153D01*
X121139500Y-89868846D01*
X121170261Y-90023489D01*
X121170264Y-90023501D01*
X121230602Y-90169172D01*
X121230609Y-90169185D01*
X121318210Y-90300288D01*
X121318213Y-90300292D01*
X121429707Y-90411786D01*
X121429711Y-90411789D01*
X121560814Y-90499390D01*
X121560827Y-90499397D01*
X121706498Y-90559735D01*
X121706503Y-90559737D01*
X121861153Y-90590499D01*
X121861156Y-90590500D01*
X121861158Y-90590500D01*
X122018844Y-90590500D01*
X122018845Y-90590499D01*
X122173497Y-90559737D01*
X122319179Y-90499394D01*
X122450289Y-90411789D01*
X122561789Y-90300289D01*
X122649394Y-90169179D01*
X122652854Y-90160827D01*
X122697450Y-90053160D01*
X122709737Y-90023497D01*
X122740500Y-89868842D01*
X122740500Y-89711158D01*
X122740500Y-89711155D01*
X122740499Y-89711153D01*
X122721158Y-89613920D01*
X122709737Y-89556503D01*
X122709735Y-89556498D01*
X122649397Y-89410827D01*
X122649390Y-89410814D01*
X122561789Y-89279711D01*
X122561786Y-89279707D01*
X122450292Y-89168213D01*
X122450288Y-89168210D01*
X122319185Y-89080609D01*
X122319172Y-89080602D01*
X122173501Y-89020264D01*
X122173489Y-89020261D01*
X122018845Y-88989500D01*
X122018842Y-88989500D01*
X121861158Y-88989500D01*
X121861155Y-88989500D01*
X121706510Y-89020261D01*
X121706498Y-89020264D01*
X121560827Y-89080602D01*
X121560814Y-89080609D01*
X121429711Y-89168210D01*
X121429707Y-89168213D01*
X121318213Y-89279707D01*
X121318210Y-89279711D01*
X121230609Y-89410814D01*
X121230602Y-89410827D01*
X121170264Y-89556498D01*
X121170261Y-89556510D01*
X121139500Y-89711153D01*
X118197961Y-89711153D01*
X118204355Y-89701584D01*
X118248061Y-89636175D01*
X118249390Y-89634185D01*
X118249390Y-89634184D01*
X118249394Y-89634179D01*
X118257786Y-89613920D01*
X118287928Y-89541148D01*
X118309737Y-89488497D01*
X118340500Y-89333842D01*
X118340500Y-89176158D01*
X118340500Y-89176155D01*
X118340499Y-89176153D01*
X118321493Y-89080606D01*
X118309737Y-89021503D01*
X118302868Y-89004919D01*
X118249397Y-88875827D01*
X118249390Y-88875814D01*
X118161789Y-88744711D01*
X118161786Y-88744707D01*
X118050292Y-88633213D01*
X118050288Y-88633210D01*
X117919185Y-88545609D01*
X117919172Y-88545602D01*
X117773501Y-88485264D01*
X117773489Y-88485261D01*
X117618845Y-88454500D01*
X117618842Y-88454500D01*
X117461158Y-88454500D01*
X117461155Y-88454500D01*
X117306510Y-88485261D01*
X117306498Y-88485264D01*
X117160827Y-88545602D01*
X117160814Y-88545609D01*
X117029711Y-88633210D01*
X117029707Y-88633213D01*
X116918213Y-88744707D01*
X116918210Y-88744711D01*
X116830609Y-88875814D01*
X116830602Y-88875827D01*
X116770264Y-89021498D01*
X116770261Y-89021510D01*
X116739500Y-89176153D01*
X106889504Y-89176153D01*
X106812951Y-89061584D01*
X106812948Y-89061580D01*
X106708419Y-88957051D01*
X106708415Y-88957048D01*
X106585501Y-88874919D01*
X106585488Y-88874912D01*
X106448917Y-88818343D01*
X106448907Y-88818340D01*
X106303920Y-88789500D01*
X106303918Y-88789500D01*
X106156082Y-88789500D01*
X106156080Y-88789500D01*
X106011092Y-88818340D01*
X106011082Y-88818343D01*
X105874511Y-88874912D01*
X105874498Y-88874919D01*
X105751584Y-88957048D01*
X105751580Y-88957051D01*
X105647051Y-89061580D01*
X105647048Y-89061584D01*
X105564919Y-89184498D01*
X105564912Y-89184511D01*
X105508343Y-89321082D01*
X105508340Y-89321092D01*
X105479500Y-89466079D01*
X105479500Y-89466082D01*
X105479500Y-89613918D01*
X105479500Y-89613920D01*
X105479499Y-89613920D01*
X105127993Y-89613920D01*
X105123797Y-89602671D01*
X105123795Y-89602668D01*
X105118865Y-89596082D01*
X105037546Y-89487454D01*
X104998692Y-89458368D01*
X104922335Y-89401206D01*
X104922328Y-89401202D01*
X104787482Y-89350908D01*
X104787483Y-89350908D01*
X104727883Y-89344501D01*
X104727881Y-89344500D01*
X104727873Y-89344500D01*
X104727864Y-89344500D01*
X103632129Y-89344500D01*
X103632123Y-89344501D01*
X103572516Y-89350908D01*
X103437671Y-89401202D01*
X103437670Y-89401203D01*
X103425884Y-89410026D01*
X103360419Y-89434441D01*
X103304124Y-89425318D01*
X103302028Y-89424450D01*
X103245912Y-89401206D01*
X103201836Y-89382949D01*
X103201828Y-89382947D01*
X103008543Y-89344500D01*
X103008541Y-89344500D01*
X102811459Y-89344500D01*
X102811457Y-89344500D01*
X102618170Y-89382947D01*
X102618160Y-89382950D01*
X102436093Y-89458364D01*
X102436082Y-89458370D01*
X102343440Y-89520271D01*
X102276762Y-89541148D01*
X102209382Y-89522663D01*
X102205659Y-89520270D01*
X102113684Y-89458814D01*
X102113671Y-89458807D01*
X101931693Y-89383430D01*
X101931681Y-89383427D01*
X101738495Y-89345000D01*
X101541504Y-89345000D01*
X101348318Y-89383427D01*
X101348306Y-89383430D01*
X101166325Y-89458809D01*
X101074339Y-89520271D01*
X101007661Y-89541148D01*
X100940281Y-89522663D01*
X100936559Y-89520271D01*
X100887441Y-89487452D01*
X100843914Y-89458368D01*
X100843911Y-89458366D01*
X100843910Y-89458366D01*
X100661839Y-89382950D01*
X100661829Y-89382947D01*
X100468543Y-89344500D01*
X100468541Y-89344500D01*
X100271459Y-89344500D01*
X100271457Y-89344500D01*
X100078170Y-89382947D01*
X100078160Y-89382950D01*
X99896092Y-89458364D01*
X99896079Y-89458371D01*
X99732218Y-89567860D01*
X99732214Y-89567863D01*
X99592863Y-89707214D01*
X99592860Y-89707218D01*
X99483371Y-89871079D01*
X99483364Y-89871092D01*
X99407950Y-90053160D01*
X99407947Y-90053170D01*
X99369500Y-90246456D01*
X99369500Y-90246459D01*
X99369500Y-90443541D01*
X99369500Y-90443543D01*
X99369499Y-90443543D01*
X98635061Y-90443543D01*
X98619737Y-90366503D01*
X98619735Y-90366498D01*
X98587146Y-90287819D01*
X98559395Y-90220823D01*
X98559390Y-90220814D01*
X98471789Y-90089711D01*
X98471786Y-90089707D01*
X98360292Y-89978213D01*
X98360288Y-89978210D01*
X98229185Y-89890609D01*
X98229172Y-89890602D01*
X98083501Y-89830264D01*
X98083489Y-89830261D01*
X97928845Y-89799500D01*
X97928842Y-89799500D01*
X97771158Y-89799500D01*
X97771155Y-89799500D01*
X97616510Y-89830261D01*
X97616498Y-89830264D01*
X97470827Y-89890602D01*
X97470814Y-89890609D01*
X97339711Y-89978210D01*
X97339707Y-89978213D01*
X97228213Y-90089707D01*
X97228210Y-90089711D01*
X97140609Y-90220814D01*
X97140602Y-90220827D01*
X97080264Y-90366498D01*
X97080261Y-90366510D01*
X97049500Y-90521153D01*
X70075500Y-90521153D01*
X70075500Y-89743920D01*
X88049499Y-89743920D01*
X88078340Y-89888907D01*
X88078343Y-89888917D01*
X88134912Y-90025488D01*
X88134919Y-90025501D01*
X88217048Y-90148415D01*
X88217051Y-90148419D01*
X88321580Y-90252948D01*
X88321584Y-90252951D01*
X88444498Y-90335080D01*
X88444511Y-90335087D01*
X88520345Y-90366498D01*
X88581087Y-90391658D01*
X88581091Y-90391658D01*
X88581092Y-90391659D01*
X88726079Y-90420500D01*
X88726082Y-90420500D01*
X88873920Y-90420500D01*
X88974437Y-90400505D01*
X89018913Y-90391658D01*
X89155495Y-90335084D01*
X89278416Y-90252951D01*
X89382951Y-90148416D01*
X89465084Y-90025495D01*
X89521658Y-89888913D01*
X89533324Y-89830264D01*
X89550500Y-89743920D01*
X89550500Y-89596079D01*
X89521659Y-89451092D01*
X89521658Y-89451091D01*
X89521658Y-89451087D01*
X89504982Y-89410827D01*
X89465087Y-89314511D01*
X89465080Y-89314498D01*
X89382951Y-89191584D01*
X89382948Y-89191580D01*
X89278419Y-89087051D01*
X89278415Y-89087048D01*
X89155501Y-89004919D01*
X89155488Y-89004912D01*
X89018917Y-88948343D01*
X89018907Y-88948340D01*
X88873920Y-88919500D01*
X88873918Y-88919500D01*
X88726082Y-88919500D01*
X88726080Y-88919500D01*
X88581092Y-88948340D01*
X88581082Y-88948343D01*
X88444511Y-89004912D01*
X88444498Y-89004919D01*
X88321584Y-89087048D01*
X88321580Y-89087051D01*
X88217051Y-89191580D01*
X88217048Y-89191584D01*
X88134919Y-89314498D01*
X88134912Y-89314511D01*
X88078343Y-89451082D01*
X88078340Y-89451092D01*
X88049500Y-89596079D01*
X88049500Y-89596082D01*
X88049500Y-89743918D01*
X88049500Y-89743920D01*
X88049499Y-89743920D01*
X70075500Y-89743920D01*
X70075500Y-87921153D01*
X90409500Y-87921153D01*
X90409500Y-88078846D01*
X90440261Y-88233489D01*
X90440264Y-88233501D01*
X90500602Y-88379172D01*
X90500609Y-88379185D01*
X90588210Y-88510288D01*
X90588213Y-88510292D01*
X90699707Y-88621786D01*
X90699711Y-88621789D01*
X90830814Y-88709390D01*
X90830823Y-88709395D01*
X90877485Y-88728723D01*
X90931888Y-88772564D01*
X90953953Y-88838858D01*
X90936674Y-88906557D01*
X90885537Y-88954168D01*
X90877489Y-88957843D01*
X90870828Y-88960602D01*
X90870814Y-88960609D01*
X90739711Y-89048210D01*
X90739707Y-89048213D01*
X90628213Y-89159707D01*
X90628210Y-89159711D01*
X90540609Y-89290814D01*
X90540602Y-89290827D01*
X90480264Y-89436498D01*
X90480261Y-89436510D01*
X90449500Y-89591153D01*
X90449500Y-89748846D01*
X90480261Y-89903489D01*
X90480264Y-89903501D01*
X90540602Y-90049172D01*
X90540609Y-90049185D01*
X90628210Y-90180288D01*
X90628213Y-90180292D01*
X90739707Y-90291786D01*
X90739711Y-90291789D01*
X90870814Y-90379390D01*
X90870827Y-90379397D01*
X90970060Y-90420500D01*
X91016503Y-90439737D01*
X91171153Y-90470499D01*
X91171156Y-90470500D01*
X91171158Y-90470500D01*
X91328844Y-90470500D01*
X91328845Y-90470499D01*
X91483497Y-90439737D01*
X91550970Y-90411789D01*
X91578213Y-90400505D01*
X91629172Y-90379397D01*
X91629172Y-90379396D01*
X91629179Y-90379394D01*
X91760289Y-90291789D01*
X91871789Y-90180289D01*
X91959394Y-90049179D01*
X92019737Y-89903497D01*
X92050500Y-89748842D01*
X92050500Y-89591158D01*
X92050500Y-89591155D01*
X92050499Y-89591153D01*
X92040552Y-89541148D01*
X92019737Y-89436503D01*
X92005116Y-89401204D01*
X91959397Y-89290827D01*
X91959390Y-89290814D01*
X91871789Y-89159711D01*
X91871786Y-89159707D01*
X91760292Y-89048213D01*
X91760288Y-89048210D01*
X91629185Y-88960609D01*
X91629180Y-88960607D01*
X91629179Y-88960606D01*
X91606999Y-88951418D01*
X91582513Y-88941276D01*
X91528110Y-88897434D01*
X91506046Y-88831140D01*
X91523326Y-88763441D01*
X91574463Y-88715831D01*
X91582512Y-88712155D01*
X91589179Y-88709394D01*
X91720289Y-88621789D01*
X91831789Y-88510289D01*
X91919394Y-88379179D01*
X91979737Y-88233497D01*
X92010500Y-88078842D01*
X92010500Y-87921158D01*
X92010500Y-87921155D01*
X92010499Y-87921153D01*
X91979738Y-87766510D01*
X91979737Y-87766503D01*
X91979735Y-87766498D01*
X91919397Y-87620827D01*
X91919390Y-87620814D01*
X91869217Y-87545725D01*
X91831789Y-87489711D01*
X91831786Y-87489707D01*
X91822062Y-87479983D01*
X133164500Y-87479983D01*
X133164500Y-88780001D01*
X133164501Y-88780018D01*
X133175000Y-88882796D01*
X133175001Y-88882799D01*
X133200783Y-88960602D01*
X133230186Y-89049334D01*
X133313563Y-89184511D01*
X133322289Y-89198657D01*
X133446344Y-89322712D01*
X133601120Y-89418178D01*
X133647845Y-89470126D01*
X133659068Y-89539088D01*
X133631224Y-89603171D01*
X133623706Y-89611398D01*
X133484889Y-89750215D01*
X133359951Y-89922179D01*
X133263444Y-90111585D01*
X133197753Y-90313760D01*
X133164500Y-90523713D01*
X133164500Y-90736286D01*
X133189302Y-90892883D01*
X133197754Y-90946243D01*
X133254906Y-91122139D01*
X133263444Y-91148414D01*
X133359951Y-91337820D01*
X133484890Y-91509786D01*
X133635213Y-91660109D01*
X133807179Y-91785048D01*
X133807181Y-91785049D01*
X133807184Y-91785051D01*
X133996588Y-91881557D01*
X134198757Y-91947246D01*
X134408713Y-91980500D01*
X134408714Y-91980500D01*
X134921286Y-91980500D01*
X134921287Y-91980500D01*
X135131243Y-91947246D01*
X135333412Y-91881557D01*
X135522816Y-91785051D01*
X135606151Y-91724505D01*
X135694786Y-91660109D01*
X135694788Y-91660106D01*
X135694792Y-91660104D01*
X135845104Y-91509792D01*
X135845106Y-91509788D01*
X135845109Y-91509786D01*
X135964470Y-91345498D01*
X135970051Y-91337816D01*
X136066557Y-91148412D01*
X136132246Y-90946243D01*
X136165500Y-90736287D01*
X136165500Y-90523713D01*
X136132246Y-90313757D01*
X136066557Y-90111588D01*
X135970051Y-89922184D01*
X135970049Y-89922181D01*
X135970048Y-89922179D01*
X135845109Y-89750213D01*
X135706294Y-89611398D01*
X135672809Y-89550075D01*
X135677793Y-89480383D01*
X135719665Y-89424450D01*
X135728879Y-89418178D01*
X135734331Y-89414814D01*
X135734334Y-89414814D01*
X135883656Y-89322712D01*
X136007712Y-89198656D01*
X136099814Y-89049334D01*
X136154999Y-88882797D01*
X136165500Y-88780009D01*
X136165499Y-87479992D01*
X136154999Y-87377203D01*
X136099814Y-87210666D01*
X136007712Y-87061344D01*
X135883656Y-86937288D01*
X135734334Y-86845186D01*
X135567797Y-86790001D01*
X135567795Y-86790000D01*
X135465010Y-86779500D01*
X133864998Y-86779500D01*
X133864981Y-86779501D01*
X133762203Y-86790000D01*
X133762200Y-86790001D01*
X133595668Y-86845185D01*
X133595663Y-86845187D01*
X133446342Y-86937289D01*
X133322289Y-87061342D01*
X133230187Y-87210663D01*
X133230185Y-87210668D01*
X133203732Y-87290500D01*
X133175001Y-87377203D01*
X133175001Y-87377204D01*
X133175000Y-87377204D01*
X133164500Y-87479983D01*
X91822062Y-87479983D01*
X91720292Y-87378213D01*
X91720288Y-87378210D01*
X91589185Y-87290609D01*
X91589172Y-87290602D01*
X91443501Y-87230264D01*
X91443489Y-87230261D01*
X91288845Y-87199500D01*
X91288842Y-87199500D01*
X91131158Y-87199500D01*
X91131155Y-87199500D01*
X90976510Y-87230261D01*
X90976498Y-87230264D01*
X90830827Y-87290602D01*
X90830814Y-87290609D01*
X90699711Y-87378210D01*
X90699707Y-87378213D01*
X90588213Y-87489707D01*
X90588210Y-87489711D01*
X90500609Y-87620814D01*
X90500602Y-87620827D01*
X90440264Y-87766498D01*
X90440261Y-87766510D01*
X90409500Y-87921153D01*
X70075500Y-87921153D01*
X70075500Y-86613920D01*
X87329499Y-86613920D01*
X87358340Y-86758907D01*
X87358343Y-86758917D01*
X87414912Y-86895488D01*
X87414919Y-86895501D01*
X87497048Y-87018415D01*
X87497051Y-87018419D01*
X87601580Y-87122948D01*
X87601584Y-87122951D01*
X87724498Y-87205080D01*
X87724511Y-87205087D01*
X87861082Y-87261656D01*
X87861087Y-87261658D01*
X87861091Y-87261658D01*
X87861092Y-87261659D01*
X88006079Y-87290500D01*
X88006082Y-87290500D01*
X88153920Y-87290500D01*
X88251462Y-87271096D01*
X88298913Y-87261658D01*
X88435495Y-87205084D01*
X88558416Y-87122951D01*
X88662951Y-87018416D01*
X88745084Y-86895495D01*
X88801658Y-86758913D01*
X88830500Y-86613918D01*
X88830500Y-86466082D01*
X88830500Y-86466079D01*
X88801659Y-86321092D01*
X88801658Y-86321091D01*
X88801658Y-86321087D01*
X88801656Y-86321082D01*
X88745087Y-86184511D01*
X88745080Y-86184498D01*
X88662951Y-86061584D01*
X88662948Y-86061580D01*
X88558419Y-85957051D01*
X88558415Y-85957048D01*
X88435501Y-85874919D01*
X88435488Y-85874912D01*
X88298917Y-85818343D01*
X88298907Y-85818340D01*
X88153920Y-85789500D01*
X88153918Y-85789500D01*
X88006082Y-85789500D01*
X88006080Y-85789500D01*
X87861092Y-85818340D01*
X87861082Y-85818343D01*
X87724511Y-85874912D01*
X87724498Y-85874919D01*
X87601584Y-85957048D01*
X87601580Y-85957051D01*
X87497051Y-86061580D01*
X87497048Y-86061584D01*
X87414919Y-86184498D01*
X87414912Y-86184511D01*
X87358343Y-86321082D01*
X87358340Y-86321092D01*
X87329500Y-86466079D01*
X87329500Y-86466082D01*
X87329500Y-86613918D01*
X87329500Y-86613920D01*
X87329499Y-86613920D01*
X70075500Y-86613920D01*
X70075500Y-78944773D01*
X82370000Y-78944773D01*
X82370000Y-79740000D01*
X83701116Y-79740000D01*
X83670000Y-79896433D01*
X83670000Y-80083567D01*
X83701116Y-80240000D01*
X82370001Y-80240000D01*
X82370001Y-81035227D01*
X82380566Y-81169474D01*
X82436423Y-81391152D01*
X82530962Y-81599287D01*
X82530967Y-81599296D01*
X82661151Y-81787203D01*
X82822796Y-81948848D01*
X83010703Y-82079032D01*
X83010712Y-82079037D01*
X83218847Y-82173576D01*
X83440525Y-82229433D01*
X83574780Y-82239999D01*
X84369999Y-82239999D01*
X84370000Y-82239998D01*
X84370000Y-80908883D01*
X84526433Y-80940000D01*
X84713567Y-80940000D01*
X84870000Y-80908883D01*
X84870000Y-82239999D01*
X85665212Y-82239999D01*
X85665227Y-82239998D01*
X85799474Y-82229433D01*
X86021152Y-82173576D01*
X86229287Y-82079037D01*
X86229296Y-82079032D01*
X86417203Y-81948848D01*
X86578848Y-81787203D01*
X86709032Y-81599296D01*
X86709037Y-81599287D01*
X86803576Y-81391152D01*
X86859433Y-81169474D01*
X86869999Y-81035226D01*
X86870000Y-81035213D01*
X86870000Y-80240000D01*
X85538884Y-80240000D01*
X85570000Y-80083567D01*
X85570000Y-79896433D01*
X85559269Y-79842486D01*
X87369500Y-79842486D01*
X87369500Y-80137513D01*
X87392318Y-80310827D01*
X87408007Y-80429993D01*
X87456549Y-80611155D01*
X87484361Y-80714951D01*
X87484364Y-80714961D01*
X87597254Y-80987500D01*
X87597258Y-80987510D01*
X87744761Y-81242993D01*
X87924352Y-81477040D01*
X87924358Y-81477047D01*
X88132952Y-81685641D01*
X88132959Y-81685647D01*
X88367006Y-81865238D01*
X88622489Y-82012741D01*
X88622490Y-82012741D01*
X88622493Y-82012743D01*
X88895048Y-82125639D01*
X89180007Y-82201993D01*
X89458415Y-82238646D01*
X89468688Y-82239999D01*
X89472494Y-82240500D01*
X89472501Y-82240500D01*
X89767499Y-82240500D01*
X89767506Y-82240500D01*
X90059993Y-82201993D01*
X90344952Y-82125639D01*
X90617507Y-82012743D01*
X90872994Y-81865238D01*
X91107042Y-81685646D01*
X91315646Y-81477042D01*
X91495238Y-81242994D01*
X91642743Y-80987507D01*
X91755639Y-80714952D01*
X91783452Y-80611153D01*
X123194500Y-80611153D01*
X123194500Y-80768846D01*
X123225261Y-80923489D01*
X123225264Y-80923501D01*
X123285602Y-81069172D01*
X123285609Y-81069185D01*
X123373210Y-81200288D01*
X123373213Y-81200292D01*
X123484707Y-81311786D01*
X123484711Y-81311789D01*
X123615814Y-81399390D01*
X123615827Y-81399397D01*
X123761498Y-81459735D01*
X123761503Y-81459737D01*
X123916153Y-81490499D01*
X123916156Y-81490500D01*
X123916158Y-81490500D01*
X124073844Y-81490500D01*
X124073845Y-81490499D01*
X124228497Y-81459737D01*
X124374179Y-81399394D01*
X124505289Y-81311789D01*
X124616789Y-81200289D01*
X124704394Y-81069179D01*
X124764737Y-80923497D01*
X124784544Y-80823920D01*
X128219499Y-80823920D01*
X128248340Y-80968907D01*
X128248343Y-80968917D01*
X128304912Y-81105488D01*
X128304919Y-81105501D01*
X128387048Y-81228415D01*
X128387051Y-81228419D01*
X128491580Y-81332948D01*
X128491584Y-81332951D01*
X128614498Y-81415080D01*
X128614511Y-81415087D01*
X128751082Y-81471656D01*
X128751087Y-81471658D01*
X128751091Y-81471658D01*
X128751092Y-81471659D01*
X128896079Y-81500500D01*
X128896082Y-81500500D01*
X129043920Y-81500500D01*
X129161846Y-81477042D01*
X129188913Y-81471658D01*
X129325495Y-81415084D01*
X129448416Y-81332951D01*
X129552951Y-81228416D01*
X129635084Y-81105495D01*
X129691658Y-80968913D01*
X129704671Y-80903492D01*
X129720500Y-80823920D01*
X129720500Y-80676079D01*
X129691659Y-80531092D01*
X129691658Y-80531091D01*
X129691658Y-80531087D01*
X129691656Y-80531082D01*
X129635087Y-80394511D01*
X129635080Y-80394498D01*
X129552951Y-80271584D01*
X129552948Y-80271580D01*
X129448419Y-80167051D01*
X129448415Y-80167048D01*
X129325501Y-80084919D01*
X129325488Y-80084912D01*
X129188917Y-80028343D01*
X129188907Y-80028340D01*
X129043920Y-79999500D01*
X129043918Y-79999500D01*
X128896082Y-79999500D01*
X128896080Y-79999500D01*
X128751092Y-80028340D01*
X128751082Y-80028343D01*
X128614511Y-80084912D01*
X128614498Y-80084919D01*
X128491584Y-80167048D01*
X128491580Y-80167051D01*
X128387051Y-80271580D01*
X128387048Y-80271584D01*
X128304919Y-80394498D01*
X128304912Y-80394511D01*
X128248343Y-80531082D01*
X128248340Y-80531092D01*
X128219500Y-80676079D01*
X128219500Y-80676082D01*
X128219500Y-80823918D01*
X128219500Y-80823920D01*
X128219499Y-80823920D01*
X124784544Y-80823920D01*
X124795500Y-80768842D01*
X124795500Y-80611158D01*
X124795500Y-80611155D01*
X124795499Y-80611153D01*
X124764738Y-80456510D01*
X124764737Y-80456503D01*
X124753756Y-80429993D01*
X124704397Y-80310827D01*
X124704390Y-80310814D01*
X124616789Y-80179711D01*
X124616786Y-80179707D01*
X124505292Y-80068213D01*
X124505288Y-80068210D01*
X124374185Y-79980609D01*
X124374172Y-79980602D01*
X124228501Y-79920264D01*
X124228489Y-79920261D01*
X124073845Y-79889500D01*
X124073842Y-79889500D01*
X123916158Y-79889500D01*
X123916155Y-79889500D01*
X123761510Y-79920261D01*
X123761498Y-79920264D01*
X123615827Y-79980602D01*
X123615814Y-79980609D01*
X123484711Y-80068210D01*
X123484707Y-80068213D01*
X123373213Y-80179707D01*
X123373210Y-80179711D01*
X123285609Y-80310814D01*
X123285602Y-80310827D01*
X123225264Y-80456498D01*
X123225261Y-80456510D01*
X123194500Y-80611153D01*
X91783452Y-80611153D01*
X91831993Y-80429993D01*
X91870500Y-80137506D01*
X91870500Y-79842494D01*
X91831993Y-79550007D01*
X91755639Y-79265048D01*
X91642743Y-78992493D01*
X91615191Y-78944772D01*
X91495238Y-78737006D01*
X91315647Y-78502959D01*
X91315641Y-78502952D01*
X91107047Y-78294358D01*
X91107040Y-78294352D01*
X90872993Y-78114761D01*
X90617510Y-77967258D01*
X90617500Y-77967254D01*
X90344961Y-77854364D01*
X90344954Y-77854362D01*
X90344952Y-77854361D01*
X90059993Y-77778007D01*
X90011113Y-77771571D01*
X89767513Y-77739500D01*
X89767506Y-77739500D01*
X89472494Y-77739500D01*
X89472486Y-77739500D01*
X89194085Y-77776153D01*
X89180007Y-77778007D01*
X88895048Y-77854361D01*
X88895038Y-77854364D01*
X88622499Y-77967254D01*
X88622489Y-77967258D01*
X88367006Y-78114761D01*
X88132959Y-78294352D01*
X88132952Y-78294358D01*
X87924358Y-78502952D01*
X87924352Y-78502959D01*
X87744761Y-78737006D01*
X87597258Y-78992489D01*
X87597254Y-78992499D01*
X87484364Y-79265038D01*
X87484361Y-79265048D01*
X87408008Y-79550004D01*
X87408006Y-79550015D01*
X87369500Y-79842486D01*
X85559269Y-79842486D01*
X85538884Y-79740000D01*
X86869999Y-79740000D01*
X86869999Y-78944787D01*
X86869998Y-78944772D01*
X86859433Y-78810525D01*
X86803576Y-78588847D01*
X86709037Y-78380712D01*
X86709032Y-78380703D01*
X86578848Y-78192796D01*
X86417203Y-78031151D01*
X86229296Y-77900967D01*
X86229287Y-77900962D01*
X86021152Y-77806423D01*
X85799474Y-77750566D01*
X85665226Y-77740000D01*
X84870000Y-77740000D01*
X84870000Y-79071116D01*
X84713567Y-79040000D01*
X84526433Y-79040000D01*
X84370000Y-79071116D01*
X84370000Y-77740000D01*
X83574787Y-77740000D01*
X83574772Y-77740001D01*
X83440525Y-77750566D01*
X83218847Y-77806423D01*
X83010712Y-77900962D01*
X83010703Y-77900967D01*
X82822796Y-78031151D01*
X82661151Y-78192796D01*
X82530967Y-78380703D01*
X82530962Y-78380712D01*
X82436423Y-78588847D01*
X82380566Y-78810525D01*
X82370000Y-78944773D01*
X70075500Y-78944773D01*
X70075500Y-75002706D01*
X70075618Y-74997297D01*
X70083437Y-74818206D01*
X71299500Y-74818206D01*
X71299500Y-75181794D01*
X71307404Y-75262042D01*
X71335137Y-75543630D01*
X71406064Y-75900212D01*
X71406067Y-75900223D01*
X71511614Y-76248165D01*
X71650754Y-76584078D01*
X71650756Y-76584083D01*
X71822140Y-76904720D01*
X71822151Y-76904738D01*
X72024140Y-77207035D01*
X72024150Y-77207049D01*
X72254807Y-77488106D01*
X72511893Y-77745192D01*
X72511898Y-77745196D01*
X72511899Y-77745197D01*
X72792956Y-77975854D01*
X73095268Y-78177853D01*
X73095277Y-78177858D01*
X73095279Y-78177859D01*
X73415916Y-78349243D01*
X73415918Y-78349243D01*
X73415924Y-78349247D01*
X73751836Y-78488386D01*
X74099767Y-78593930D01*
X74099773Y-78593931D01*
X74099776Y-78593932D01*
X74099787Y-78593935D01*
X74456369Y-78664862D01*
X74818206Y-78700500D01*
X74818209Y-78700500D01*
X75181791Y-78700500D01*
X75181794Y-78700500D01*
X75543631Y-78664862D01*
X75613045Y-78651054D01*
X75900212Y-78593935D01*
X75900223Y-78593932D01*
X75900223Y-78593931D01*
X75900233Y-78593930D01*
X76248164Y-78488386D01*
X76584076Y-78349247D01*
X76904732Y-78177853D01*
X77207044Y-77975854D01*
X77488101Y-77745197D01*
X77745197Y-77488101D01*
X77975854Y-77207044D01*
X78177853Y-76904732D01*
X78349247Y-76584076D01*
X78488386Y-76248164D01*
X78593930Y-75900233D01*
X78593932Y-75900223D01*
X78593935Y-75900212D01*
X78651054Y-75613045D01*
X78664862Y-75543631D01*
X78700500Y-75181794D01*
X78700500Y-74895513D01*
X80419500Y-74895513D01*
X80419500Y-75084486D01*
X80449059Y-75271118D01*
X80507454Y-75450836D01*
X80593240Y-75619199D01*
X80704310Y-75772073D01*
X80837927Y-75905690D01*
X80990801Y-76016760D01*
X81070347Y-76057290D01*
X81159163Y-76102545D01*
X81159165Y-76102545D01*
X81159168Y-76102547D01*
X81255497Y-76133846D01*
X81338881Y-76160940D01*
X81525514Y-76190500D01*
X81525519Y-76190500D01*
X81714486Y-76190500D01*
X81901118Y-76160940D01*
X82080832Y-76102547D01*
X82249199Y-76016760D01*
X82402073Y-75905690D01*
X82535690Y-75772073D01*
X82646760Y-75619199D01*
X82732547Y-75450832D01*
X82790940Y-75271118D01*
X82820500Y-75084486D01*
X82820500Y-74895513D01*
X91419500Y-74895513D01*
X91419500Y-75084486D01*
X91449059Y-75271118D01*
X91507454Y-75450836D01*
X91593240Y-75619199D01*
X91704310Y-75772073D01*
X91837927Y-75905690D01*
X91990801Y-76016760D01*
X92070347Y-76057290D01*
X92159163Y-76102545D01*
X92159165Y-76102545D01*
X92159168Y-76102547D01*
X92255497Y-76133846D01*
X92338881Y-76160940D01*
X92525514Y-76190500D01*
X92525519Y-76190500D01*
X92714486Y-76190500D01*
X92901118Y-76160940D01*
X93080832Y-76102547D01*
X93249199Y-76016760D01*
X93402073Y-75905690D01*
X93535690Y-75772073D01*
X93646760Y-75619199D01*
X93732547Y-75450832D01*
X93790940Y-75271118D01*
X93820500Y-75084486D01*
X93820500Y-74895513D01*
X93790940Y-74708881D01*
X93763846Y-74625497D01*
X93732547Y-74529168D01*
X93732545Y-74529165D01*
X93732545Y-74529163D01*
X93687290Y-74440347D01*
X93646760Y-74360801D01*
X93535690Y-74207927D01*
X93495398Y-74167635D01*
X112789400Y-74167635D01*
X112789400Y-74372364D01*
X112821425Y-74574559D01*
X112884684Y-74769254D01*
X112884685Y-74769257D01*
X112909628Y-74818209D01*
X112977627Y-74951663D01*
X113097958Y-75117284D01*
X113242716Y-75262042D01*
X113408337Y-75382373D01*
X113497801Y-75427957D01*
X113590742Y-75475314D01*
X113590745Y-75475315D01*
X113688092Y-75506944D01*
X113785442Y-75538575D01*
X113879089Y-75553407D01*
X113987636Y-75570600D01*
X113987641Y-75570600D01*
X114192364Y-75570600D01*
X114290385Y-75555074D01*
X114394558Y-75538575D01*
X114589257Y-75475314D01*
X114771663Y-75382373D01*
X114937284Y-75262042D01*
X115082042Y-75117284D01*
X115202373Y-74951663D01*
X115295314Y-74769257D01*
X115358575Y-74574558D01*
X115377294Y-74456369D01*
X115390600Y-74372364D01*
X115390600Y-74167635D01*
X116599400Y-74167635D01*
X116599400Y-74372364D01*
X116631425Y-74574559D01*
X116694684Y-74769254D01*
X116694685Y-74769257D01*
X116719628Y-74818209D01*
X116787627Y-74951663D01*
X116907958Y-75117284D01*
X117052716Y-75262042D01*
X117218337Y-75382373D01*
X117307801Y-75427957D01*
X117400742Y-75475314D01*
X117400745Y-75475315D01*
X117498092Y-75506944D01*
X117595442Y-75538575D01*
X117689089Y-75553407D01*
X117797636Y-75570600D01*
X117797641Y-75570600D01*
X118002364Y-75570600D01*
X118100385Y-75555074D01*
X118204558Y-75538575D01*
X118399257Y-75475314D01*
X118581663Y-75382373D01*
X118747284Y-75262042D01*
X118892042Y-75117284D01*
X119012373Y-74951663D01*
X119105314Y-74769257D01*
X119168575Y-74574558D01*
X119187294Y-74456369D01*
X119200600Y-74372364D01*
X119200600Y-74167635D01*
X120409400Y-74167635D01*
X120409400Y-74372364D01*
X120441425Y-74574559D01*
X120504684Y-74769254D01*
X120504685Y-74769257D01*
X120529628Y-74818209D01*
X120597627Y-74951663D01*
X120717958Y-75117284D01*
X120862716Y-75262042D01*
X121028337Y-75382373D01*
X121117801Y-75427957D01*
X121210742Y-75475314D01*
X121210745Y-75475315D01*
X121308092Y-75506944D01*
X121405442Y-75538575D01*
X121499089Y-75553407D01*
X121607636Y-75570600D01*
X121607641Y-75570600D01*
X121812364Y-75570600D01*
X121910385Y-75555074D01*
X122014558Y-75538575D01*
X122209257Y-75475314D01*
X122391663Y-75382373D01*
X122557284Y-75262042D01*
X122702042Y-75117284D01*
X122822373Y-74951663D01*
X122890373Y-74818206D01*
X131299500Y-74818206D01*
X131299500Y-75181794D01*
X131307404Y-75262042D01*
X131335137Y-75543630D01*
X131406064Y-75900212D01*
X131406067Y-75900223D01*
X131511614Y-76248165D01*
X131650754Y-76584078D01*
X131650756Y-76584083D01*
X131822140Y-76904720D01*
X131822151Y-76904738D01*
X132024140Y-77207035D01*
X132024150Y-77207049D01*
X132254807Y-77488106D01*
X132511893Y-77745192D01*
X132511898Y-77745196D01*
X132511899Y-77745197D01*
X132792956Y-77975854D01*
X133095268Y-78177853D01*
X133095277Y-78177858D01*
X133095279Y-78177859D01*
X133415916Y-78349243D01*
X133415918Y-78349243D01*
X133415924Y-78349247D01*
X133751836Y-78488386D01*
X134099767Y-78593930D01*
X134099773Y-78593931D01*
X134099776Y-78593932D01*
X134099787Y-78593935D01*
X134456369Y-78664862D01*
X134818206Y-78700500D01*
X134818209Y-78700500D01*
X135181791Y-78700500D01*
X135181794Y-78700500D01*
X135543631Y-78664862D01*
X135613045Y-78651054D01*
X135900212Y-78593935D01*
X135900223Y-78593932D01*
X135900223Y-78593931D01*
X135900233Y-78593930D01*
X136248164Y-78488386D01*
X136584076Y-78349247D01*
X136904732Y-78177853D01*
X137207044Y-77975854D01*
X137488101Y-77745197D01*
X137745197Y-77488101D01*
X137975854Y-77207044D01*
X138177853Y-76904732D01*
X138349247Y-76584076D01*
X138488386Y-76248164D01*
X138593930Y-75900233D01*
X138593932Y-75900223D01*
X138593935Y-75900212D01*
X138651054Y-75613045D01*
X138664862Y-75543631D01*
X138700500Y-75181794D01*
X138700500Y-74818206D01*
X138664862Y-74456369D01*
X138593935Y-74099787D01*
X138593932Y-74099776D01*
X138593931Y-74099773D01*
X138593930Y-74099767D01*
X138488386Y-73751836D01*
X138349247Y-73415924D01*
X138208945Y-73153438D01*
X138177859Y-73095279D01*
X138177858Y-73095277D01*
X138177853Y-73095268D01*
X137975854Y-72792956D01*
X137745197Y-72511899D01*
X137745196Y-72511898D01*
X137745192Y-72511893D01*
X137488106Y-72254807D01*
X137207049Y-72024150D01*
X137207048Y-72024149D01*
X137207044Y-72024146D01*
X136904732Y-71822147D01*
X136904727Y-71822144D01*
X136904720Y-71822140D01*
X136584083Y-71650756D01*
X136584078Y-71650754D01*
X136248165Y-71511614D01*
X135900223Y-71406067D01*
X135900212Y-71406064D01*
X135543630Y-71335137D01*
X135271111Y-71308296D01*
X135181794Y-71299500D01*
X134818206Y-71299500D01*
X134735679Y-71307628D01*
X134456369Y-71335137D01*
X134099787Y-71406064D01*
X134099776Y-71406067D01*
X133751834Y-71511614D01*
X133415921Y-71650754D01*
X133415916Y-71650756D01*
X133095279Y-71822140D01*
X133095261Y-71822151D01*
X132792964Y-72024140D01*
X132792950Y-72024150D01*
X132511893Y-72254807D01*
X132254807Y-72511893D01*
X132024150Y-72792950D01*
X132024140Y-72792964D01*
X131822151Y-73095261D01*
X131822140Y-73095279D01*
X131650756Y-73415916D01*
X131650754Y-73415921D01*
X131511614Y-73751834D01*
X131406067Y-74099776D01*
X131406064Y-74099787D01*
X131335137Y-74456369D01*
X131307628Y-74735679D01*
X131299500Y-74818206D01*
X122890373Y-74818206D01*
X122915314Y-74769257D01*
X122978575Y-74574558D01*
X122997294Y-74456369D01*
X123010600Y-74372364D01*
X123010600Y-74167635D01*
X122991969Y-74050008D01*
X122978575Y-73965442D01*
X122931013Y-73819059D01*
X122915315Y-73770745D01*
X122915314Y-73770742D01*
X122822372Y-73588336D01*
X122794910Y-73550538D01*
X122702042Y-73422716D01*
X122557284Y-73277958D01*
X122391663Y-73157627D01*
X122383442Y-73153438D01*
X122209257Y-73064685D01*
X122209254Y-73064684D01*
X122014559Y-73001425D01*
X121812364Y-72969400D01*
X121812359Y-72969400D01*
X121607641Y-72969400D01*
X121607636Y-72969400D01*
X121405440Y-73001425D01*
X121210745Y-73064684D01*
X121210742Y-73064685D01*
X121028336Y-73157627D01*
X120933843Y-73226280D01*
X120862716Y-73277958D01*
X120862714Y-73277960D01*
X120862713Y-73277960D01*
X120717960Y-73422713D01*
X120717960Y-73422714D01*
X120717958Y-73422716D01*
X120666280Y-73493843D01*
X120597627Y-73588336D01*
X120504685Y-73770742D01*
X120504684Y-73770745D01*
X120441425Y-73965440D01*
X120409400Y-74167635D01*
X119200600Y-74167635D01*
X119181969Y-74050008D01*
X119168575Y-73965442D01*
X119121013Y-73819059D01*
X119105315Y-73770745D01*
X119105314Y-73770742D01*
X119012372Y-73588336D01*
X118984910Y-73550538D01*
X118892042Y-73422716D01*
X118747284Y-73277958D01*
X118581663Y-73157627D01*
X118573442Y-73153438D01*
X118399257Y-73064685D01*
X118399254Y-73064684D01*
X118204559Y-73001425D01*
X118002364Y-72969400D01*
X118002359Y-72969400D01*
X117797641Y-72969400D01*
X117797636Y-72969400D01*
X117595440Y-73001425D01*
X117400745Y-73064684D01*
X117400742Y-73064685D01*
X117218336Y-73157627D01*
X117123843Y-73226280D01*
X117052716Y-73277958D01*
X117052714Y-73277960D01*
X117052713Y-73277960D01*
X116907960Y-73422713D01*
X116907960Y-73422714D01*
X116907958Y-73422716D01*
X116856280Y-73493843D01*
X116787627Y-73588336D01*
X116694685Y-73770742D01*
X116694684Y-73770745D01*
X116631425Y-73965440D01*
X116599400Y-74167635D01*
X115390600Y-74167635D01*
X115371969Y-74050008D01*
X115358575Y-73965442D01*
X115311013Y-73819059D01*
X115295315Y-73770745D01*
X115295314Y-73770742D01*
X115202372Y-73588336D01*
X115174910Y-73550538D01*
X115082042Y-73422716D01*
X114937284Y-73277958D01*
X114771663Y-73157627D01*
X114763442Y-73153438D01*
X114589257Y-73064685D01*
X114589254Y-73064684D01*
X114394559Y-73001425D01*
X114192364Y-72969400D01*
X114192359Y-72969400D01*
X113987641Y-72969400D01*
X113987636Y-72969400D01*
X113785440Y-73001425D01*
X113590745Y-73064684D01*
X113590742Y-73064685D01*
X113408336Y-73157627D01*
X113313843Y-73226280D01*
X113242716Y-73277958D01*
X113242714Y-73277960D01*
X113242713Y-73277960D01*
X113097960Y-73422713D01*
X113097960Y-73422714D01*
X113097958Y-73422716D01*
X113046280Y-73493843D01*
X112977627Y-73588336D01*
X112884685Y-73770742D01*
X112884684Y-73770745D01*
X112821425Y-73965440D01*
X112789400Y-74167635D01*
X93495398Y-74167635D01*
X93402073Y-74074310D01*
X93249199Y-73963240D01*
X93238010Y-73957539D01*
X93080836Y-73877454D01*
X92901118Y-73819059D01*
X92714486Y-73789500D01*
X92714481Y-73789500D01*
X92525519Y-73789500D01*
X92525514Y-73789500D01*
X92338881Y-73819059D01*
X92159163Y-73877454D01*
X91990800Y-73963240D01*
X91903579Y-74026610D01*
X91837927Y-74074310D01*
X91837925Y-74074312D01*
X91837924Y-74074312D01*
X91704312Y-74207924D01*
X91704312Y-74207925D01*
X91704310Y-74207927D01*
X91656610Y-74273579D01*
X91593240Y-74360800D01*
X91507454Y-74529163D01*
X91449059Y-74708881D01*
X91419500Y-74895513D01*
X82820500Y-74895513D01*
X82790940Y-74708881D01*
X82763846Y-74625497D01*
X82732547Y-74529168D01*
X82732545Y-74529165D01*
X82732545Y-74529163D01*
X82687290Y-74440347D01*
X82646760Y-74360801D01*
X82535690Y-74207927D01*
X82402073Y-74074310D01*
X82249199Y-73963240D01*
X82238010Y-73957539D01*
X82080836Y-73877454D01*
X81901118Y-73819059D01*
X81714486Y-73789500D01*
X81714481Y-73789500D01*
X81525519Y-73789500D01*
X81525514Y-73789500D01*
X81338881Y-73819059D01*
X81159163Y-73877454D01*
X80990800Y-73963240D01*
X80903579Y-74026610D01*
X80837927Y-74074310D01*
X80837925Y-74074312D01*
X80837924Y-74074312D01*
X80704312Y-74207924D01*
X80704312Y-74207925D01*
X80704310Y-74207927D01*
X80656610Y-74273579D01*
X80593240Y-74360800D01*
X80507454Y-74529163D01*
X80449059Y-74708881D01*
X80419500Y-74895513D01*
X78700500Y-74895513D01*
X78700500Y-74818206D01*
X78664862Y-74456369D01*
X78593935Y-74099787D01*
X78593932Y-74099776D01*
X78593931Y-74099773D01*
X78593930Y-74099767D01*
X78488386Y-73751836D01*
X78349247Y-73415924D01*
X78208945Y-73153438D01*
X78177859Y-73095279D01*
X78177858Y-73095277D01*
X78177853Y-73095268D01*
X77975854Y-72792956D01*
X77745197Y-72511899D01*
X77745196Y-72511898D01*
X77745192Y-72511893D01*
X77488106Y-72254807D01*
X77207049Y-72024150D01*
X77207048Y-72024149D01*
X77207044Y-72024146D01*
X76904732Y-71822147D01*
X76904727Y-71822144D01*
X76904720Y-71822140D01*
X76584083Y-71650756D01*
X76584078Y-71650754D01*
X76248165Y-71511614D01*
X75900223Y-71406067D01*
X75900212Y-71406064D01*
X75543630Y-71335137D01*
X75271111Y-71308296D01*
X75181794Y-71299500D01*
X74818206Y-71299500D01*
X74735679Y-71307628D01*
X74456369Y-71335137D01*
X74099787Y-71406064D01*
X74099776Y-71406067D01*
X73751834Y-71511614D01*
X73415921Y-71650754D01*
X73415916Y-71650756D01*
X73095279Y-71822140D01*
X73095261Y-71822151D01*
X72792964Y-72024140D01*
X72792950Y-72024150D01*
X72511893Y-72254807D01*
X72254807Y-72511893D01*
X72024150Y-72792950D01*
X72024140Y-72792964D01*
X71822151Y-73095261D01*
X71822140Y-73095279D01*
X71650756Y-73415916D01*
X71650754Y-73415921D01*
X71511614Y-73751834D01*
X71406067Y-74099776D01*
X71406064Y-74099787D01*
X71335137Y-74456369D01*
X71307628Y-74735679D01*
X71299500Y-74818206D01*
X70083437Y-74818206D01*
X70083806Y-74809753D01*
X70083806Y-74809752D01*
X70088210Y-74708881D01*
X70094003Y-74576187D01*
X70094943Y-74565454D01*
X70149609Y-74150224D01*
X70151481Y-74139605D01*
X70242131Y-73730707D01*
X70244918Y-73720307D01*
X70370863Y-73320860D01*
X70374547Y-73310739D01*
X70534822Y-72923799D01*
X70539380Y-72914025D01*
X70732761Y-72542545D01*
X70738156Y-72533200D01*
X70963186Y-72179974D01*
X70969376Y-72171134D01*
X71224327Y-71838875D01*
X71231265Y-71830606D01*
X71514205Y-71521833D01*
X71521833Y-71514205D01*
X71830606Y-71231265D01*
X71838875Y-71224327D01*
X72171134Y-70969376D01*
X72179974Y-70963186D01*
X72533200Y-70738156D01*
X72542545Y-70732761D01*
X72914025Y-70539380D01*
X72923799Y-70534822D01*
X73310739Y-70374547D01*
X73320860Y-70370863D01*
X73720307Y-70244918D01*
X73730707Y-70242131D01*
X74139605Y-70151481D01*
X74150224Y-70149609D01*
X74565454Y-70094943D01*
X74576187Y-70094003D01*
X74984394Y-70076181D01*
X74997298Y-70075618D01*
X75002706Y-70075500D01*
X75024531Y-70075500D01*
X134975469Y-70075500D01*
X134997294Y-70075500D01*
X135002702Y-70075618D01*
G37*
%TD.AperFunction*%
%TD*%
M02*
