M48
; DRILL file {KiCad 9.0.1} date 2025-11-19T22:55:42+0100
; FORMAT={-:-/ absolute / inch / decimal}
; #@! TF.CreationDate,2025-11-19T22:55:42+01:00
; #@! TF.GenerationSoftware,Kicad,Pcbnew,9.0.1
; #@! TF.FileFunction,Plated,1,4,PTH
FMAT,2
INCH
; #@! TA.AperFunction,Plated,PTH,ComponentDrill
T1C0.0080
; #@! TA.AperFunction,Plated,PTH,ViaDrill
T2C0.0118
; #@! TA.AperFunction,Plated,PTH,ViaDrill
T3C0.0157
; #@! TA.AperFunction,Plated,PTH,ComponentDrill
T4C0.0197
; #@! TA.AperFunction,Plated,PTH,ComponentDrill
T5C0.0276
; #@! TA.AperFunction,Plated,PTH,ComponentDrill
T6C0.0394
; #@! TA.AperFunction,Plated,PTH,ComponentDrill
T7C0.0430
; #@! TA.AperFunction,Plated,PTH,ComponentDrill
T8C0.0510
; #@! TA.AperFunction,Plated,PTH,ComponentDrill
T9C0.0748
; #@! TA.AperFunction,Plated,PTH,ComponentDrill
T10C0.1260
%
G90
G05
T1
X3.1562Y-4.0575
X3.1857Y-4.0575
X3.1867Y-4.027
X3.1867Y-4.088
X3.2172Y-4.0575
X4.0567Y-4.2514
X4.0567Y-4.3025
X4.0567Y-4.3537
X4.1079Y-4.2514
X4.1079Y-4.3025
X4.1079Y-4.3537
X4.163Y-4.2514
X4.163Y-4.3025
X4.163Y-4.3537
X4.2142Y-4.2514
X4.2142Y-4.3025
X4.2142Y-4.3537
X4.2654Y-4.2514
X4.2654Y-4.3025
X4.2654Y-4.3537
X4.3205Y-4.2514
X4.3205Y-4.3025
X4.3205Y-4.3537
X4.3717Y-4.2514
X4.3717Y-4.3025
X4.3717Y-4.3537
T2
X2.9524Y-3.2311
X2.9524Y-5.0319
X3.0291Y-4.0591
X3.052Y-4.0953
X3.0594Y-4.0264
X3.061Y-4.463
X3.061Y-4.6327
X3.061Y-4.8126
X3.1098Y-3.922
X3.1185Y-3.7795
X3.1185Y-3.8295
X3.1197Y-4.2244
X3.1583Y-3.9567
X3.1591Y-4.2244
X3.2138Y-3.9122
X3.2335Y-4.228
X3.2673Y-3.3654
X3.2673Y-3.4264
X3.3146Y-4.1969
X3.3217Y-4.1193
X3.3539Y-4.0429
X3.3925Y-4.1189
X3.4677Y-3.4071
X3.4846Y-3.9309
X3.4846Y-3.9902
X3.485Y-3.7916
X3.4961Y-3.5303
X3.4961Y-3.6252
X3.5174Y-4.642
X3.5339Y-3.9315
X3.5339Y-3.9902
X3.5343Y-3.762
X3.5677Y-4.5319
X3.5677Y-4.7197
X3.5909Y-3.4646
X3.5925Y-3.5303
X3.6335Y-3.6835
X3.6343Y-4.5319
X3.6819Y-3.9425
X3.6823Y-4.0067
X3.6823Y-4.1232
X3.6823Y-4.161
X3.7315Y-3.5346
X3.761Y-3.1622
X3.772Y-3.9417
X3.7748Y-3.5126
X3.8461Y-3.1634
X3.8524Y-3.5669
X3.8535Y-3.6287
X3.8843Y-3.5028
X3.8854Y-4.3539
X3.9035Y-3.212
X3.9309Y-4.3551
X3.9764Y-4.3547
X4.0024Y-3.6012
X4.0276Y-3.2673
X4.0276Y-3.2417
X4.0354Y-4.6555
X4.0354Y-4.6949
X4.0354Y-4.7343
X4.0453Y-3.9083
X4.0846Y-4.6555
X4.0846Y-4.6949
X4.1031Y-4.0469
X4.1114Y-3.9516
X4.1437Y-4.6555
X4.1516Y-3.1766
X4.1606Y-4.852
X4.1823Y-3.5252
X4.202Y-3.7678
X4.2152Y-4.7223
X4.2248Y-3.522
X4.2295Y-3.8858
X4.2343Y-3.4091
X4.2673Y-4.852
X4.2717Y-4.6555
X4.2929Y-3.4091
X4.2941Y-2.8911
X4.2941Y-2.9303
X4.2941Y-2.9696
X4.3307Y-4.6555
X4.3307Y-4.6949
X4.3449Y-2.8911
X4.3449Y-2.9303
X4.3449Y-2.9696
X4.3476Y-3.8374
X4.3476Y-3.8866
X4.3559Y-3.4118
X4.3567Y-4.0394
X4.3571Y-3.7232
X4.3799Y-4.6555
X4.3799Y-4.6949
X4.3799Y-4.7343
X4.4504Y-4.0398
X4.4535Y-3.5736
X4.4535Y-3.6122
X4.5366Y-3.3083
X4.5551Y-3.5646
X4.5571Y-3.9244
X4.5572Y-4.0764
X4.5622Y-3.7875
X4.5705Y-3.635
X4.5713Y-3.6807
X4.5945Y-3.3118
X4.5945Y-3.4071
X4.6276Y-3.514
X4.6854Y-3.3118
X4.6854Y-3.4071
X4.7024Y-4.0244
X4.7677Y-4.5319
X4.7811Y-3.7193
X4.8008Y-3.535
X4.815Y-3.1472
X4.8362Y-4.5319
X4.837Y-4.7197
X4.8402Y-3.6016
X4.8549Y-4.0244
X4.8817Y-3.1768
X4.8988Y-3.6953
X4.8988Y-3.7476
X5.0287Y-4.0776
X5.0677Y-4.1492
X5.0681Y-3.9382
X5.0689Y-3.5201
X5.0776Y-3.1791
X5.2488Y-4.3583
X5.2488Y-4.4138
X5.315Y-3.2299
X5.3181Y-5.0354
X5.3327Y-4.3122
X5.3327Y-4.602
T3
X4.3008Y-3.5311
T4
X2.8583Y-2.9528
X2.8583Y-5.315
X2.8859Y-2.8859
X2.8859Y-3.0196
X2.8859Y-5.2481
X2.8859Y-5.3818
X2.9528Y-2.8583
X2.9528Y-3.0472
X2.9528Y-5.2205
X2.9528Y-5.4094
X3.0196Y-2.8859
X3.0196Y-3.0196
X3.0196Y-5.2481
X3.0196Y-5.3818
X3.0472Y-2.9528
X3.0472Y-5.315
X5.2205Y-2.9528
X5.2205Y-5.315
X5.2481Y-2.8859
X5.2481Y-3.0196
X5.2481Y-5.2481
X5.2481Y-5.3818
X5.315Y-2.8583
X5.315Y-3.0472
X5.315Y-5.2205
X5.315Y-5.4094
X5.3818Y-2.8859
X5.3818Y-3.0196
X5.3818Y-5.2481
X5.3818Y-5.3818
X5.4094Y-2.9528
X5.4094Y-5.315
T5
X3.9516Y-3.5569
X4.0016Y-3.5569
X4.0516Y-3.5569
X4.1016Y-3.5569
T6
X3.2134Y-2.9524
X3.6465Y-2.9524
X5.3018Y-3.4697
X5.3018Y-3.5681
X5.3018Y-3.8891
X5.3018Y-3.9875
T7
X4.4917Y-2.924
X4.6417Y-2.924
X4.7917Y-2.924
T8
X3.2362Y-5.248
X3.4331Y-5.248
X3.6299Y-5.248
X3.8268Y-5.248
X4.0236Y-5.248
X4.2205Y-5.248
X4.4173Y-5.248
X4.6142Y-5.248
X4.811Y-5.248
X5.0079Y-5.248
T9
X3.3315Y-3.1492
X3.5283Y-3.1492
T10
X2.9528Y-2.9528
X2.9528Y-5.315
X5.315Y-2.9528
X5.315Y-5.315
M30
