%TF.GenerationSoftware,KiCad,Pcbnew,9.0.1*%
%TF.CreationDate,2025-11-19T22:55:42+01:00*%
%TF.ProjectId,SIGURD,53494755-5244-42e6-9b69-6361645f7063,rev?*%
%TF.SameCoordinates,Original*%
%TF.FileFunction,Soldermask,Bot*%
%TF.FilePolarity,Negative*%
%FSLAX46Y46*%
G04 Gerber Fmt 4.6, Leading zero omitted, Abs format (unit mm)*
G04 Created by KiCad (PCBNEW 9.0.1) date 2025-11-19 22:55:42*
%MOMM*%
%LPD*%
G01*
G04 APERTURE LIST*
G04 Aperture macros list*
%AMRoundRect*
0 Rectangle with rounded corners*
0 $1 Rounding radius*
0 $2 $3 $4 $5 $6 $7 $8 $9 X,Y pos of 4 corners*
0 Add a 4 corners polygon primitive as box body*
4,1,4,$2,$3,$4,$5,$6,$7,$8,$9,$2,$3,0*
0 Add four circle primitives for the rounded corners*
1,1,$1+$1,$2,$3*
1,1,$1+$1,$4,$5*
1,1,$1+$1,$6,$7*
1,1,$1+$1,$8,$9*
0 Add four rect primitives between the rounded corners*
20,1,$1+$1,$2,$3,$4,$5,0*
20,1,$1+$1,$4,$5,$6,$7,0*
20,1,$1+$1,$6,$7,$8,$9,0*
20,1,$1+$1,$8,$9,$2,$3,0*%
G04 Aperture macros list end*
%ADD10C,0.499999*%
%ADD11RoundRect,0.250000X-0.750000X0.600000X-0.750000X-0.600000X0.750000X-0.600000X0.750000X0.600000X0*%
%ADD12O,2.000000X1.700000*%
%ADD13C,0.800000*%
%ADD14C,6.400000*%
%ADD15C,1.600200*%
%ADD16C,1.803400*%
%ADD17C,1.400000*%
%ADD18RoundRect,0.770000X-0.980000X-0.980000X0.980000X-0.980000X0.980000X0.980000X-0.980000X0.980000X0*%
%ADD19C,3.500000*%
%ADD20R,1.000000X1.000000*%
%ADD21C,1.000000*%
G04 APERTURE END LIST*
D10*
%TO.C,U6*%
X111040483Y-107984518D03*
X109740483Y-107984518D03*
X108340483Y-107984518D03*
X107040483Y-107984518D03*
X105740483Y-107984518D03*
X104340483Y-107984521D03*
X103040483Y-107984521D03*
X109740483Y-109284518D03*
X111040483Y-109284521D03*
X108340483Y-109284521D03*
X107040483Y-109284521D03*
X105740483Y-109284521D03*
X104340483Y-109284521D03*
X103040483Y-109284523D03*
X111040483Y-110584518D03*
X109740483Y-110584518D03*
X108340483Y-110584518D03*
X107040483Y-110584518D03*
X105740483Y-110584518D03*
X104340483Y-110584520D03*
X103040483Y-110584520D03*
%TD*%
D11*
%TO.C,J2*%
X134665000Y-88130000D03*
D12*
X134665000Y-90630000D03*
%TD*%
D13*
%TO.C,H2*%
X72600000Y-135000000D03*
X73302944Y-133302944D03*
X73302944Y-136697056D03*
X75000000Y-132600000D03*
D14*
X75000000Y-135000000D03*
D13*
X75000000Y-137400000D03*
X76697056Y-133302944D03*
X76697056Y-136697056D03*
X77400000Y-135000000D03*
%TD*%
%TO.C,H3*%
X132600000Y-75000000D03*
X133302944Y-73302944D03*
X133302944Y-76697056D03*
X135000000Y-72600000D03*
D14*
X135000000Y-75000000D03*
D13*
X135000000Y-77400000D03*
X136697056Y-73302944D03*
X136697056Y-76697056D03*
X137400000Y-75000000D03*
%TD*%
D15*
%TO.C,J5*%
X121710000Y-74270000D03*
X117900000Y-74270000D03*
X114090000Y-74270000D03*
%TD*%
D11*
%TO.C,J3*%
X134665000Y-98782500D03*
D12*
X134665000Y-101282500D03*
%TD*%
D13*
%TO.C,H1*%
X72600000Y-75000000D03*
X73302944Y-73302944D03*
X73302944Y-76697056D03*
X75000000Y-72600000D03*
D14*
X75000000Y-75000000D03*
D13*
X75000000Y-77400000D03*
X76697056Y-73302944D03*
X76697056Y-76697056D03*
X77400000Y-75000000D03*
%TD*%
D16*
%TO.C,J14*%
X82200000Y-133300000D03*
X87199999Y-133300000D03*
X92200000Y-133300000D03*
X97200000Y-133300000D03*
X102200000Y-133300000D03*
X107200000Y-133300000D03*
X112200000Y-133300000D03*
X117200000Y-133300000D03*
X122200003Y-133300000D03*
X127200003Y-133300000D03*
%TD*%
D17*
%TO.C,J1*%
X81620000Y-74990000D03*
X92620000Y-74990000D03*
D18*
X84620000Y-79990000D03*
D19*
X89620000Y-79990000D03*
%TD*%
D10*
%TO.C,U3*%
X81717501Y-103059999D03*
X80917101Y-103059999D03*
X80167501Y-103059999D03*
X80942501Y-102284999D03*
X80942501Y-103834999D03*
%TD*%
D13*
%TO.C,H4*%
X132600000Y-135000000D03*
X133302944Y-133302944D03*
X133302944Y-136697056D03*
X135000000Y-132600000D03*
D14*
X135000000Y-135000000D03*
D13*
X135000000Y-137400000D03*
X136697056Y-133302944D03*
X136697056Y-136697056D03*
X137400000Y-135000000D03*
%TD*%
D20*
%TO.C,J6*%
X104180000Y-90345000D03*
D21*
X102910000Y-90345000D03*
X101640000Y-90345000D03*
X100370000Y-90345000D03*
%TD*%
M02*
